<svg width="108" height="108" viewBox="0 0 108 108" fill="none" xmlns="http://www.w3.org/2000/svg">
<path d="M90.9885 97.0945C93.1874 96.8857 99.4222 96.5797 99.4222 96.5797L99.2275 92.5019L91.3507 91.7366L90.9885 97.0945Z" fill="#DA7656" stroke="#AE504A" stroke-width="1.546" stroke-linecap="round" stroke-linejoin="round"/>
<path d="M99.6173 97.4425C100.759 97.6372 102.08 97.8183 103.041 97.9573C103.765 98.0548 104.405 97.665 104.474 97.0666L105.212 90.8595L105.963 84.5552C105.978 84.3292 105.922 84.1042 105.802 83.912C105.682 83.7198 105.505 83.57 105.295 83.4838V83.4838C104.627 83.1498 103.778 83.3305 103.459 83.8874C102.346 85.8775 99.8827 90.1514 98.2821 91.6112C98.1337 91.7416 98.0328 91.9176 97.9951 92.1115C97.9574 92.3054 97.985 92.5064 98.0737 92.6829C98.5467 93.6848 98.9225 94.6312 98.519 96.0648C98.3519 96.6771 98.8516 97.3172 99.6173 97.4425Z" fill="#621CD1"/>
<path d="M50.6293 84.5553C57.6853 86.2671 86.3125 89.1633 91.9349 89.4401C92.0393 89.4454 92.1414 89.4719 92.2351 89.518C92.3288 89.5642 92.4121 89.629 92.4798 89.7085C92.5476 89.788 92.5984 89.8805 92.6291 89.9803C92.6598 90.0801 92.6699 90.1851 92.6586 90.289C92.4361 92.6549 93.0905 95.6055 93.4797 97.1085C93.5105 97.2227 93.5143 97.3425 93.4908 97.4584C93.4673 97.5744 93.4171 97.6833 93.3442 97.7764C93.2713 97.8696 93.1777 97.9445 93.0708 97.9952C92.9639 98.0459 92.8467 98.071 92.7284 98.0686C88.3861 98.0131 71.6021 97.8461 68.7077 98.0826C65.8825 98.3191 44.186 99.3631 37.5613 99.6832C37.4078 99.6912 37.2555 99.6531 37.1239 99.5737C36.9924 99.4943 36.8876 99.3773 36.8232 99.2378C36.7588 99.0983 36.7377 98.9427 36.7626 98.7911C36.7875 98.6394 36.8573 98.4988 36.9629 98.3872L49.8779 84.7799C49.9709 84.6776 50.09 84.6027 50.2223 84.5631C50.3547 84.5235 50.4954 84.5208 50.6293 84.5553V84.5553Z" fill="#FFEB7D"/>
<path d="M50.017 94.186C53.9834 94.8121 92.8674 94.186 92.8674 94.186" stroke="#F9C126" stroke-width="1.546" stroke-linecap="round" stroke-linejoin="round" stroke-dasharray="6.96 6.96"/>
<path d="M70.4055 90.136C71.519 92.044 74.4415 97.5538 74.4415 97.5538L78.0598 95.6458L75.4156 88.1863L70.4055 90.136Z" fill="#DA7656" stroke="#AE504A" stroke-width="1.546" stroke-linecap="round" stroke-linejoin="round"/>
<path d="M73.0357 97.3731C73.022 98.5279 73.0357 99.8639 73.0497 100.838C73.0638 101.562 73.5508 102.146 74.1492 102.119L80.3977 101.896L86.7441 101.673C86.9699 101.654 87.1841 101.564 87.3563 101.417C87.5285 101.27 87.6502 101.072 87.7042 100.852V100.852C87.9408 100.143 87.6207 99.3214 87.0224 99.1126C84.879 98.3206 80.2728 96.5379 78.5887 95.1886C78.4359 95.061 78.245 94.9877 78.0461 94.9801C77.8471 94.9726 77.6513 95.0312 77.4892 95.1468C76.5846 95.7732 75.6939 96.288 74.205 96.1073C73.5926 96.009 73.0497 96.5937 73.0357 97.3731Z" fill="#621CD1"/>
<path d="M25.5651 95.0211C28.0699 97.6653 34.3329 102.815 45.0486 97.387C52.8423 94.1863 63.0018 74.2847 63.0018 74.2847C63.0018 74.2847 64.2543 85.975 70.9344 92.6552C73.8569 92.3074 76.7934 89.0912 79.0481 88.0069C79.3762 87.8472 79.6373 87.5766 79.785 87.2429C79.9328 86.9093 79.9576 86.5341 79.8552 86.1838C78.1571 80.5894 72.8968 67.1592 71.6303 64.2645C70.2385 61.0637 66.8985 54.1053 59.6617 60.6461C52.425 67.187 40.8737 79.9907 39.6213 82.7743C38.3688 85.5578 25.5651 95.717 25.5651 95.717" fill="#FFEB7D"/>
<path d="M43.699 98.8481C43.699 98.8481 49.1404 97.2479 56.0988 85.9194" stroke="#F9C126" stroke-width="1.546" stroke-linecap="round" stroke-linejoin="round"/>
<path d="M66.8707 86.9631C68.3597 89.2455 70.169 92.5856 71.0039 92.8639C71.8387 93.1422 78.5887 88.2559 78.5887 88.2559" stroke="#F9C126" stroke-width="1.546" stroke-linecap="round" stroke-linejoin="round"/>
<path d="M64.5325 68.3003C63.6133 70.1393 63.1142 72.1596 63.0713 74.2151" stroke="#F9C126" stroke-width="1.546" stroke-linecap="round" stroke-linejoin="round"/>
<path d="M31.9806 90.4145C36.3506 93.9785 44.6314 91.9593 63.1408 63.2903C64.5325 61.0637 68.0119 64.5431 68.7773 70.4575C69.9462 79.4899 74.9693 90.7068 74.9693 90.7068" stroke="#F9C126" stroke-width="1.546" stroke-linecap="round" stroke-linejoin="round" stroke-dasharray="6.96 6.96"/>
<path d="M65.5762 40.4524C65.3621 40.3976 65.1351 40.4297 64.9447 40.5419C64.7543 40.654 64.6161 40.837 64.5603 41.0508L60.093 58.0575L47.9574 69.1772C47.7959 69.3283 47.6997 69.5364 47.6893 69.7573C47.6789 69.9783 47.755 70.1945 47.9016 70.3602C47.9796 70.4444 48.0743 70.5114 48.1797 70.5569C48.2851 70.6024 48.3988 70.6254 48.5136 70.6244C48.7249 70.6241 48.9285 70.5447 49.0842 70.4019L61.4009 59.1152C61.5226 59.0082 61.6102 58.8679 61.6529 58.7116L66.1759 41.4676C66.2304 41.2535 66.1979 41.0265 66.0856 40.8363C65.9732 40.646 65.79 40.508 65.5762 40.4524V40.4524Z" fill="#A4D2FC"/>
<path d="M15.5449 96.6076C15.5866 97.6376 14.7097 99.934 14.2644 100.644C13.5825 101.743 11.0496 102.035 6.88831 102.008C3.91003 102.188 1.64167 102.188 1.80871 101.743C1.97575 101.298 9.04471 99.2659 9.68587 99.0571C10.327 98.8483 9.69955 95.8145 9.69955 95.8145C9.69955 95.8145 14.2644 94.8821 15.5449 96.6076Z" fill="#DA7656" stroke="#AE504A" stroke-width="1.933" stroke-linecap="round" stroke-linejoin="round"/>
<path d="M46.7186 67.006C46.7186 66.9502 47.8739 63.6242 47.6928 61.3418C47.6514 60.8687 48.0686 60.8547 48.4304 61.4811C48.848 62.1907 49.2224 63.6382 48.8624 64.5847" fill="#DA7656"/>
<path d="M46.7186 67.006C46.7186 66.9502 47.8739 63.6242 47.6928 61.3418C47.6514 60.8687 48.0686 60.8547 48.4304 61.4811C48.848 62.1907 49.2224 63.6382 48.8624 64.5847" stroke="#AE504A" stroke-width="1.546" stroke-linecap="round" stroke-linejoin="round"/>
<path d="M44.172 69.692C44.9096 67.0896 48.9874 62.177 52.7447 62.177C56.502 62.177 55.3334 62.429 54.1505 63.513C52.9675 64.5969 49.1681 67.8549 48.4445 68.8572C47.7829 69.6675 47.0364 70.4047 46.2179 71.056L44.172 69.692Z" fill="#DA7656" stroke="#AE504A" stroke-width="1.546" stroke-linecap="round" stroke-linejoin="round"/>
<path d="M14.8072 98.9179C13.149 98.3668 11.4055 98.117 9.65919 98.1803C9.40082 98.1868 9.14904 98.0983 8.95158 97.9316C8.75411 97.7648 8.62468 97.5314 8.58783 97.2756C7.80843 92.0844 4.37079 67.1731 8.72679 61.0776C13.5965 54.2581 18.468 55.512 22.644 60.1034C26.7354 64.6124 31.104 74.201 43.0881 68.1314C43.289 68.0323 43.5165 68.0005 43.7369 68.0406C43.9573 68.0808 44.159 68.1907 44.3121 68.3543C45.3703 69.428 46.5972 70.3212 47.9441 70.9985C48.1436 71.0911 48.2998 71.257 48.3802 71.4617C48.4607 71.6664 48.4592 71.8943 48.3761 72.0979C46.9426 75.6745 43.2407 79.0146 43.2407 79.0146C43.2407 79.0146 32.3017 90.8302 31.5767 98.3315C31.5608 98.488 31.5119 98.6393 31.4333 98.7755C31.3546 98.9117 31.2481 99.0297 31.1205 99.1218C30.993 99.2138 30.8474 99.2778 30.6933 99.3095C30.5393 99.3412 30.3802 99.3398 30.2267 99.3056C23.7003 97.8322 15.5448 87.228 15.5448 87.228C15.5448 87.228 16.7688 93.713 16.2267 98.0554C16.2085 98.2146 16.1542 98.3676 16.0678 98.5027C15.9814 98.6377 15.8653 98.7512 15.7283 98.8345C15.5913 98.9177 15.4371 98.9685 15.2774 98.983C15.1178 98.9974 14.9569 98.9752 14.8072 98.9179V98.9179Z" fill="#3E9FF8"/>
<path d="M23.004 80.3806C22.9182 80.5357 22.7805 80.6556 22.615 80.7192C22.4495 80.7829 22.2669 80.7861 22.0993 80.7284C21.6297 80.4962 21.0875 80.458 20.59 80.6221C20.0925 80.7862 19.6794 81.1393 19.44 81.6053C19.008 82.4542 19.1617 83.4978 20.4005 84.0267C20.5555 84.0968 20.6763 84.2256 20.7363 84.3848C20.7963 84.544 20.7906 84.7205 20.7205 84.8756C20.6347 85.0307 20.497 85.1506 20.3315 85.2143C20.1661 85.278 19.9835 85.2813 19.8158 85.2237C17.8394 84.3597 17.5334 82.4679 18.257 81.0477C18.6562 80.2576 19.3466 79.6535 20.1827 79.3628C21.0187 79.072 21.935 79.1174 22.7383 79.4892C22.8145 79.5301 22.8818 79.5856 22.9364 79.6526C22.9911 79.7196 23.0319 79.7968 23.0566 79.8796C23.0813 79.9625 23.0894 80.0494 23.0803 80.1354C23.0713 80.2214 23.0454 80.3047 23.004 80.3806V80.3806Z" fill="#A4D2FC"/>
<path d="M19.5527 76.2333C19.4352 76.2905 19.3043 76.3142 19.1742 76.3019C19.0442 76.2896 18.92 76.2417 18.8154 76.1635L15.0714 73.3803C14.9219 73.2714 14.8217 73.1076 14.793 72.9249C14.7643 72.7422 14.8093 72.5555 14.9182 72.406C15.0271 72.2565 15.1909 72.1563 15.3737 72.1276C15.5564 72.0989 15.743 72.1439 15.8926 72.2528L19.6366 75.0363C19.7838 75.1469 19.8822 75.3104 19.9108 75.4923C19.9395 75.6742 19.8961 75.8601 19.7899 76.0105C19.7288 76.1018 19.6477 76.1781 19.5527 76.2333V76.2333Z" fill="#A4D2FC"/>
<path d="M27.1933 72.0302C27.1589 71.9053 27.1589 71.7734 27.1931 71.6485C27.2274 71.5235 27.2948 71.4102 27.3881 71.3203L30.8257 68.1473C30.9605 68.0199 31.1402 67.9513 31.3255 67.9566C31.5108 67.9618 31.6864 68.0404 31.8138 68.1752C31.9411 68.3099 32.0097 68.4897 32.0044 68.6749C31.9992 68.8602 31.9206 69.0359 31.7859 69.1632L28.3482 72.3362C28.2117 72.4598 28.0327 72.526 27.8486 72.5208C27.6644 72.5156 27.4894 72.4396 27.36 72.3085C27.3141 72.2766 27.2754 72.2353 27.2467 72.1873C27.2179 72.1393 27.1998 72.0858 27.1933 72.0302V72.0302Z" fill="#A4D2FC"/>
<path d="M23.7697 67.3822C23.7055 67.2119 23.7086 67.0235 23.7784 66.8554C23.8482 66.6874 23.9795 66.5522 24.1455 66.4775C24.3888 66.3867 24.6115 66.2485 24.8009 66.0709C24.9903 65.8933 25.1425 65.6798 25.2487 65.4429C25.3549 65.2059 25.4129 64.9503 25.4194 64.6907C25.426 64.4311 25.3808 64.1729 25.2867 63.9309C24.9663 63.0539 24.1037 62.4416 22.865 62.9844C22.7876 63.0186 22.7041 63.0366 22.6195 63.0375C22.5349 63.0383 22.451 63.022 22.3729 62.9894C22.2948 62.9569 22.2242 62.9088 22.1653 62.8481C22.1064 62.7874 22.0604 62.7153 22.0302 62.6363C21.9659 62.4661 21.969 62.2778 22.0388 62.1098C22.1085 61.9418 22.2397 61.8067 22.4056 61.732C24.382 60.8551 25.9826 61.9268 26.5251 63.4021C26.8401 64.2299 26.8201 65.1479 26.4693 65.9612C26.1185 66.7745 25.4645 67.419 24.6463 67.7581C24.5641 67.7918 24.4761 67.8088 24.3873 67.8081C24.2985 67.8075 24.2107 67.7891 24.1291 67.7541C24.0475 67.7191 23.9737 67.6682 23.9119 67.6043C23.8502 67.5405 23.8019 67.465 23.7697 67.3822V67.3822Z" fill="#A4D2FC"/>
<path d="M24.3543 89.9692C24.3199 89.8444 24.3199 89.7126 24.3542 89.5877C24.3884 89.4628 24.4558 89.3495 24.549 89.2597L27.9863 86.0866C28.1216 85.9626 28.3003 85.8967 28.4837 85.9033C28.6672 85.9098 28.8407 85.9883 28.9668 86.1217C29.0929 86.255 29.1615 86.4327 29.1577 86.6162C29.154 86.7997 29.0782 86.9744 28.9468 87.1025L25.4951 90.2882C25.3586 90.4118 25.1797 90.4779 24.9956 90.4727C24.8116 90.4676 24.6366 90.3915 24.5073 90.2605C24.4298 90.1798 24.3768 90.0788 24.3543 89.9692V89.9692Z" fill="#A4D2FC"/>
<path d="M5.46874 87.325C5.56609 87.2392 5.686 87.1831 5.81425 87.1634C5.9425 87.1437 6.07371 87.1611 6.19234 87.2137L10.4929 89.0497C10.6582 89.1235 10.7878 89.2593 10.8538 89.4278C10.9197 89.5964 10.9167 89.7841 10.8454 89.9504C10.7741 90.1168 10.6402 90.2484 10.4727 90.3168C10.3051 90.3853 10.1174 90.3851 9.95002 90.3162L5.64982 88.4802C5.56623 88.4451 5.49045 88.3937 5.4269 88.3291C5.36335 88.2644 5.31328 88.1878 5.27962 88.1036C5.24595 88.0194 5.22936 87.9294 5.2308 87.8387C5.23224 87.7481 5.25169 87.6586 5.28802 87.5755C5.32549 87.4777 5.38777 87.3914 5.46874 87.325V87.325Z" fill="#A4D2FC"/>
<path d="M15.6978 98.6256C15.5793 98.6713 15.4505 98.6838 15.3254 98.6617C15.2003 98.6397 15.0836 98.5839 14.9879 98.5004L11.4959 95.4108C11.3574 95.2872 11.2738 95.1136 11.2633 94.9283C11.2529 94.743 11.3164 94.5611 11.4401 94.4226C11.5637 94.2842 11.7373 94.2005 11.9226 94.1901C12.108 94.1796 12.2898 94.2432 12.4283 94.3668L15.9203 97.4564C15.9899 97.5169 16.0467 97.5908 16.0873 97.6736C16.1279 97.7565 16.1515 97.8466 16.1566 97.9388C16.1618 98.0309 16.1485 98.1231 16.1174 98.21C16.0863 98.2968 16.0381 98.3766 15.9757 98.4446C15.891 98.5163 15.7976 98.5771 15.6978 98.6256V98.6256Z" fill="#A4D2FC"/>
<path d="M21.3479 94.534C21.5277 94.5326 21.7019 94.5968 21.8377 94.7147C21.9735 94.8325 22.0616 94.9959 22.0856 95.1741C22.0926 95.4337 22.1508 95.6893 22.2567 95.9264C22.3627 96.1635 22.5144 96.3774 22.7031 96.5558C22.8919 96.7342 23.1139 96.8736 23.3566 96.9661C23.5993 97.0585 23.8578 97.1022 24.1174 97.0947C25.0638 97.067 25.9127 96.4546 25.8015 95.1046C25.7949 95.021 25.8053 94.937 25.8321 94.8575C25.859 94.7781 25.9016 94.705 25.9576 94.6425C26.0135 94.5801 26.0816 94.5296 26.1576 94.4943C26.2336 94.4589 26.316 94.4394 26.3998 94.4368C26.5796 94.4353 26.7538 94.4995 26.8896 94.6174C27.0255 94.7352 27.1136 94.8986 27.1374 95.0769C27.3174 97.234 25.7874 98.3889 24.215 98.431C23.3325 98.459 22.474 98.1417 21.8218 97.5465C21.1697 96.9513 20.7755 96.1252 20.723 95.2439C20.7145 95.1557 20.7241 95.0666 20.7514 94.9823C20.7787 94.8979 20.823 94.8201 20.8816 94.7535C20.9402 94.687 21.0118 94.6331 21.092 94.5954C21.1722 94.5576 21.2593 94.5367 21.3479 94.534Z" fill="#A4D2FC"/>
<path d="M8.86462 71.9606C8.8257 71.7857 8.85239 71.6026 8.9396 71.4461C9.02681 71.2896 9.16846 71.1706 9.33766 71.1117C9.84267 70.9861 10.279 70.669 10.5545 70.2275C10.8299 69.7859 10.9229 69.2546 10.8137 68.7458C10.6049 67.8415 9.81178 67.1175 8.53126 67.4934C8.45084 67.518 8.36624 67.5259 8.28266 67.5166C8.19908 67.5073 8.11828 67.4809 8.04526 67.4392C7.97224 67.3975 7.90854 67.3413 7.85808 67.274C7.80762 67.2067 7.77147 67.1298 7.75186 67.048C7.71288 66.8731 7.73958 66.6899 7.82687 66.5334C7.91416 66.3769 8.05595 66.2579 8.22526 66.1992C10.2989 65.5872 11.7461 66.8533 12.0942 68.384C12.2977 69.2452 12.157 70.1519 11.702 70.9109C11.2471 71.67 10.5139 72.2215 9.65842 72.448C9.57424 72.4696 9.48657 72.4741 9.40063 72.4611C9.3147 72.4482 9.23224 72.4181 9.15818 72.3726C9.08412 72.3271 9.01997 72.2672 8.96953 72.1964C8.9191 72.1256 8.88342 72.0454 8.86462 71.9606V71.9606Z" fill="#A4D2FC"/>
<path d="M6.84642 82.8019C6.7815 82.6898 6.74731 82.5626 6.74731 82.4331C6.74731 82.3035 6.7815 82.1763 6.84642 82.0642L9.35166 78.1258C9.44948 77.969 9.6056 77.8574 9.7857 77.8156C9.96579 77.7739 10.1551 77.8054 10.312 77.9032C10.4688 78.001 10.5804 78.1571 10.6222 78.3372C10.6639 78.5173 10.6324 78.7066 10.5346 78.8635L8.02794 82.8019C7.92777 82.956 7.77181 83.0653 7.59279 83.1068C7.41377 83.1484 7.22561 83.1189 7.06782 83.0247C6.98081 82.9648 6.90573 82.8893 6.84642 82.8019Z" fill="#A4D2FC"/>
<path d="M37.7006 84.5553C37.7251 84.731 37.6868 84.9096 37.5926 85.0598C37.4984 85.21 37.3542 85.3221 37.1855 85.3765C36.6721 85.4754 36.2176 85.7707 35.9187 86.1996C35.6199 86.6285 35.5002 87.1571 35.5853 87.6729C35.7383 88.6053 36.4899 89.3567 37.7978 89.0366C37.8801 89.0168 37.9656 89.0138 38.0491 89.0278C38.1327 89.0417 38.2125 89.0723 38.284 89.1177C38.3554 89.1632 38.417 89.2226 38.465 89.2923C38.5131 89.362 38.5466 89.4407 38.5635 89.5237C38.588 89.6993 38.5498 89.8779 38.4555 90.0281C38.3613 90.1783 38.2171 90.2905 38.0484 90.3449C35.9471 90.846 34.5693 89.51 34.2911 87.9512C34.1319 87.0797 34.3192 86.1804 34.813 85.4448C35.3069 84.7093 36.0683 84.1955 36.9353 84.0128C37.1086 83.9842 37.2862 84.0251 37.4295 84.1267C37.5728 84.2283 37.6702 84.3823 37.7006 84.5553V84.5553Z" fill="#A4D2FC"/>
<path d="M35.0564 80.3806C34.9419 80.4411 34.8134 80.4704 34.6839 80.4655C34.5544 80.4606 34.4284 80.4216 34.3188 80.3525L30.4639 77.7241C30.3855 77.6733 30.318 77.6072 30.2655 77.5298C30.2129 77.4524 30.1764 77.3653 30.1581 77.2736C30.1398 77.182 30.14 77.0875 30.1588 76.9959C30.1775 76.9043 30.2144 76.8173 30.2673 76.7402C30.3202 76.6631 30.3879 76.5973 30.4666 76.5468C30.5453 76.4963 30.6333 76.462 30.7255 76.4461C30.8176 76.4301 30.912 76.4328 31.0031 76.4538C31.0942 76.4749 31.1802 76.5141 31.2559 76.5689L35.1108 79.1994C35.2593 79.3083 35.3606 79.4697 35.394 79.6508C35.4275 79.8318 35.3906 80.0188 35.2908 80.1736C35.2304 80.2604 35.15 80.3314 35.0564 80.3806V80.3806Z" fill="#A4D2FC"/>
<path d="M46.6351 77.0265C46.5122 76.985 46.4037 76.9093 46.3224 76.8082C46.241 76.7071 46.1903 76.5849 46.1761 76.4559L45.5915 71.8202C45.5716 71.6368 45.6248 71.4529 45.7397 71.3084C45.8545 71.164 46.0216 71.0707 46.2048 71.0487C46.388 71.0267 46.5725 71.0778 46.7182 71.191C46.8639 71.3042 46.9592 71.4702 46.9832 71.6531L47.5679 76.2874C47.5799 76.3789 47.5736 76.472 47.5492 76.561C47.5248 76.65 47.4829 76.7333 47.4259 76.8059C47.3689 76.8785 47.2979 76.939 47.2172 76.9838C47.1365 77.0286 47.0477 77.0568 46.9559 77.0668C46.8477 77.0671 46.7399 77.0535 46.6351 77.0265Z" fill="#A4D2FC"/>
<path d="M39.7184 69.7757C39.7558 69.9505 39.7284 70.1329 39.6414 70.289C39.5544 70.4451 39.4137 70.5644 39.2454 70.6246C38.7391 70.7516 38.3027 71.0718 38.0296 71.5167C37.7564 71.9615 37.6684 72.4956 37.7842 73.0046C38.0066 73.9229 38.786 74.6328 40.0802 74.2286C40.1606 74.203 40.2455 74.1944 40.3294 74.2033C40.4133 74.2121 40.4944 74.2383 40.5677 74.2802C40.6409 74.322 40.7047 74.3786 40.7549 74.4464C40.8052 74.5142 40.8409 74.5916 40.8596 74.6739C40.897 74.8487 40.8696 75.031 40.7826 75.1872C40.6956 75.3433 40.5549 75.4625 40.3866 75.5228C38.313 76.1492 36.8654 74.8827 36.5037 73.3516C36.2936 72.4904 36.4275 71.5812 36.8771 70.8173C37.3267 70.0533 38.0565 69.4947 38.9113 69.2602C39.0858 69.2312 39.2648 69.2678 39.4139 69.363C39.5629 69.4582 39.6714 69.6052 39.7184 69.7757V69.7757Z" fill="#A4D2FC"/>
<path d="M11.3 63.9584C11.2656 63.8335 11.2655 63.7017 11.2998 63.5767C11.3341 63.4518 11.4015 63.3384 11.4948 63.2485L14.9324 60.0755C14.9991 60.0124 15.0776 59.9631 15.1634 59.9304C15.2491 59.8977 15.3405 59.8822 15.4322 59.8848C15.524 59.8874 15.6143 59.908 15.6981 59.9455C15.7818 59.983 15.8574 60.0367 15.9205 60.1034C15.9835 60.1701 16.0328 60.2486 16.0655 60.3343C16.0982 60.4201 16.1137 60.5114 16.1111 60.6032C16.1085 60.6949 16.0879 60.7853 16.0504 60.869C16.0129 60.9528 15.9593 61.0284 15.8926 61.0914L12.4412 64.2644C12.3047 64.3881 12.1257 64.4542 11.9416 64.449C11.7574 64.4439 11.5824 64.3678 11.453 64.2367C11.3784 64.159 11.3257 64.063 11.3 63.9584V63.9584Z" fill="#A4D2FC"/>
<path d="M43.699 77.8892C34.9171 83.6229 22.4615 80.0186 16.7972 68.8572" stroke="#465CFF" stroke-width="1.546" stroke-linecap="round" stroke-linejoin="round"/>
<path d="M10.2701 72.8513C10.9106 76.9845 12.7613 81.2433 15.5449 87.2276" stroke="#465CFF" stroke-width="1.546" stroke-linecap="round" stroke-linejoin="round"/>
<path d="M22.545 52.0175C22.4338 52.0733 20.5132 57.2505 20.1096 58.4615C20.0261 58.7091 19.8912 58.9363 19.7138 59.1281C19.5364 59.3199 19.3204 59.4721 19.08 59.5746C18.7486 59.7269 18.3809 59.7829 18.0191 59.7361C17.6573 59.6893 17.316 59.5416 17.0342 59.31C16.7881 59.0994 16.6142 58.817 16.5367 58.5026C16.4593 58.1881 16.4821 57.8573 16.6022 57.5565L19.08 51.0574" fill="#DA7656"/>
<path d="M22.545 52.0175C22.4338 52.0733 20.5132 57.2505 20.1096 58.4615C20.0261 58.7091 19.8912 58.9363 19.7138 59.1281C19.5364 59.3199 19.3204 59.4721 19.08 59.5746C18.7486 59.7269 18.3809 59.7829 18.0191 59.7361C17.6573 59.6893 17.316 59.5416 17.0342 59.31C16.7881 59.0994 16.6142 58.817 16.5367 58.5026C16.4593 58.1881 16.4821 57.8573 16.6022 57.5565L19.08 51.0574" stroke="#AE504A" stroke-width="1.546" stroke-linecap="round" stroke-linejoin="round"/>
<path d="M17.9384 41.6077C17.2565 43.6957 16.1024 49.8186 21.7097 52.3933C27.861 55.2046 29.7122 41.3295 29.4339 40.1465C29.1556 38.9635 24.9803 35.6235 22.0578 36.8759C19.1354 38.1283 17.9384 41.6077 17.9384 41.6077Z" fill="#DA7656" stroke="#AE504A" stroke-width="1.546" stroke-linecap="round" stroke-linejoin="round"/>
<path d="M27.1932 38.5319C24.5768 30.96 13.7771 34.776 16.2543 41.6913C13.5824 43.7091 10.3953 45.1286 9.4906 45.8522C8.58592 46.5758 10.1728 47.0074 10.7988 46.6596C11.3975 46.3256 16.3241 43.8902 16.7554 43.7076C16.7694 43.6936 16.7972 43.6936 16.8112 43.6799C17.2432 43.4434 23.1573 40.2005 26.7756 39.2958C26.855 39.276 26.9294 39.24 26.9941 39.19C27.0588 39.14 27.1125 39.0771 27.1518 39.0053C27.191 38.9336 27.2149 38.8544 27.2221 38.773C27.2292 38.6915 27.2194 38.6094 27.1932 38.5319V38.5319Z" fill="#FF5C76"/>
<path d="M34.1241 31.9074C32.1278 32.6103 30.3943 33.9069 29.1561 35.6233C29.1561 35.6233 27.0407 34.2316 25.9831 36.4999C25.5655 37.3906 25.0503 38.7679 25.1756 39.2554C23.2136 39.7288 19.5812 42.0807 19.5812 42.0807C20.8336 45.0589 23.8954 45.1284 26.0525 40.8142C28.2097 42.9022 35.3765 42.4842 37.7428 39.0747C40.1091 35.6651 38.6889 30.4199 34.1241 31.9074Z" fill="#AE504A"/>
<path d="M20.6385 46.6874C20.3184 46.6874 17.3956 44.2798 18.3561 42.888C19.2885 41.484 20.9308 43.68 21.0003 44.0433" fill="#DA7656"/>
<path d="M20.6385 46.6874C20.3184 46.6874 17.3956 44.2798 18.3561 42.888C19.2885 41.484 20.9308 43.68 21.0003 44.0433" stroke="#AE504A" stroke-width="1.546" stroke-linecap="round" stroke-linejoin="round"/>
<path d="M26.7953 46.4251C26.9255 46.1215 26.8365 45.7918 26.5964 45.6888C26.3563 45.5858 26.0561 45.7485 25.9258 46.0522C25.7955 46.3559 25.8846 46.6855 26.1247 46.7885C26.3648 46.8915 26.665 46.7288 26.7953 46.4251Z" fill="#621CD1"/>
<path d="M28.2093 46.2419C28.2093 46.2419 28.2928 48.3433 28.3623 49.7339C28.39 50.374 26.8452 49.3999 26.8452 49.3999" fill="#DA7656"/>
<path d="M28.2093 46.2419C28.2093 46.2419 28.2928 48.3433 28.3623 49.7339C28.39 50.374 26.8452 49.3999 26.8452 49.3999" stroke="#AE504A" stroke-width="1.933" stroke-linecap="round" stroke-linejoin="round"/>
<path d="M25.8992 43.6812C26.3888 43.5795 26.8882 43.5328 27.3881 43.5419" stroke="#AE504A" stroke-width="2.706" stroke-linecap="round" stroke-linejoin="round"/>
<path d="M23.5332 49.3872C23.5332 49.3872 23.7132 50.2778 24.368 50.2778" stroke="#AE504A" stroke-width="1.933" stroke-linecap="round" stroke-linejoin="round"/>
<path d="M49.7386 64.167C50.7546 63.2346 54.0669 62.97 54.7905 62.6082Z" fill="#DA7656"/>
<path d="M49.7386 64.167C50.7546 63.2346 54.0669 62.97 54.7905 62.6082" stroke="#AE504A" stroke-width="1.546" stroke-linecap="round" stroke-linejoin="round"/>
<path d="M50.2957 65.2384C50.9915 64.6401 54.2341 63.1094 54.2341 63.1094Z" fill="#DA7656"/>
<path d="M50.2957 65.2384C50.9915 64.6401 54.2341 63.1094 54.2341 63.1094" stroke="#AE504A" stroke-width="1.546" stroke-linecap="round" stroke-linejoin="round"/>
</svg>
