<svg width="108" height="108" viewBox="0 0 108 108" fill="none" xmlns="http://www.w3.org/2000/svg">
<path d="M38.9815 70.1904C38.2576 72.0009 36.4471 75.139 38.9815 81.1737C41.5159 87.2083 46.1027 97.5897 46.5855 98.192C47.0682 98.7942 51.2928 98.1919 50.3269 96.1399C49.3611 94.0879 44.172 77.9149 44.0511 76.1041C43.9301 74.2933 45.6199 71.6401 45.6199 71.6401L38.9815 70.1904Z" fill="#FFC3A9" stroke="#E89589" stroke-width="1.006" stroke-linecap="round" stroke-linejoin="round"/>
<path d="M58.1724 71.64C59.1379 73.4505 65.2932 84.6753 66.6208 87.21C67.9485 89.7448 71.6904 96.5034 72.5349 97.47C73.3795 98.4366 77.2423 98.1944 76.518 96.2633C75.7936 94.3323 69.3968 78.0379 68.31 76.3485C67.2231 74.659 65.534 69.9516 63.7236 68.3824C61.9131 66.8131 58.1724 71.64 58.1724 71.64Z" fill="#FFC3A9" stroke="#E89589" stroke-width="1.006" stroke-linecap="round" stroke-linejoin="round"/>
<path d="M43.0852 101.933C41.9386 103.08 39.2713 104.987 41.8784 106.037C44.1104 106.943 47.9736 103.805 48.8185 103.322C49.6148 102.863 52.9225 101.994 52.56 100.425C52.1975 98.8556 51.6546 97.1057 50.4479 96.1409C49.9651 97.1064 47.3098 98.3135 46.4648 98.1929C46.044 99.0968 43.8095 101.209 43.0852 101.933Z" fill="#621CD1"/>
<path d="M80.972 101.439C82.2392 102.175 83.9168 103.128 81.8165 104.709C80.127 105.663 77.0249 104.13 76.18 103.708C75.3351 103.285 72.7042 102.235 71.5454 101.595C70.3869 100.968 70.3869 99.5918 70.5921 98.6504C70.7973 97.709 71.3402 95.7535 71.5936 96.1761C71.847 96.5988 76.1922 96.8036 76.6509 95.9709C77.6045 97.1298 78.1233 98.1795 78.9682 99.4471C79.5077 100.229 80.187 100.904 80.972 101.439Z" fill="#621CD1"/>
<path d="M42.1801 23.4934C42.0473 23.2882 40.4179 22.3709 40.2127 23.4693C40.0075 24.5676 42.494 25.2916 42.6992 25.2192" fill="#EFCABB"/>
<path d="M42.1801 23.4934C42.0473 23.2882 40.4179 22.3709 40.2127 23.4693C40.0075 24.5676 42.494 25.2916 42.6992 25.2192" stroke="#E89589" stroke-width="1.006" stroke-linecap="round" stroke-linejoin="round"/>
<path d="M58.1965 39.5579C58.9569 41.67 60.9603 46.6909 64.6899 47.3789C67.9486 47.9823 76.6386 37.2402 76.6386 37.2402L74.5866 34.5852C74.5866 34.5852 69.6381 39.0492 68.0706 40.7412C66.7671 42.1412 64.7874 43.2637 63.3514 39.5705C61.9153 35.8772 58.1965 39.5579 58.1965 39.5579Z" fill="#FFC3A9" stroke="#E89589" stroke-width="1.006" stroke-linecap="round" stroke-linejoin="round"/>
<path d="M37.1711 34.3799C37.1323 34.379 37.0947 34.3664 37.0631 34.3439L37.0271 34.3198C35.2641 33.0159 29.8692 29.0692 30.1104 23.8067C30.2706 20.643 30.8635 17.5161 31.8726 14.5133L32.4641 12.8235C32.1383 11.4958 32.0054 10.5555 32.0778 10.0112C31.8366 9.93915 31.7037 9.57663 31.6796 8.97327C31.6555 8.20071 31.9089 7.00587 32.7416 6.87303H32.8021C32.8478 6.87168 32.8933 6.8807 32.9351 6.8994C32.9768 6.9181 33.0138 6.94601 33.0433 6.98103C33.0699 7.01962 33.0939 7.05991 33.1153 7.10163C33.1833 6.96978 33.2828 6.85673 33.4049 6.77252C33.527 6.68831 33.6681 6.63554 33.8155 6.61887C33.8768 6.61553 33.9381 6.62453 33.9958 6.64534C34.0535 6.66615 34.1064 6.69835 34.1515 6.74002C34.1965 6.7817 34.2327 6.83199 34.2579 6.88793C34.2831 6.94386 34.2969 7.00429 34.2983 7.06563C34.4336 6.91042 34.5877 6.77257 34.7569 6.65523C34.8187 6.61709 34.8895 6.59621 34.9621 6.59475C35.2397 6.59475 35.433 6.92091 35.5655 7.27083C35.6501 6.98103 35.7588 6.61887 35.8794 6.25707C36.4226 4.66371 36.6638 4.50675 36.8571 4.49487H36.8931C36.9433 4.49567 36.9928 4.50679 37.0385 4.52753C37.0842 4.54828 37.1252 4.57822 37.1588 4.61547C37.3881 4.89303 37.2553 5.59323 37.0148 6.71571L36.9428 7.07571C36.9068 7.25571 36.8348 7.65531 36.7376 8.16219C36.4723 9.54999 36.0255 11.8673 35.7721 12.8573L35.6151 13.8711C35.6033 13.9193 34.8307 19.0126 34.8307 21.1488C34.8391 22.6822 35.1955 24.1937 35.8729 25.5694C36.5503 26.9451 37.5311 28.1492 38.7414 29.0908C39.5741 29.7305 39.9603 30.4426 39.8999 31.2029C39.7674 32.941 37.3655 34.2805 37.269 34.341C37.2405 34.3627 37.2066 34.3762 37.1711 34.3799V34.3799Z" fill="#FFC3A9" stroke="#E89589" stroke-width="0.335" stroke-miterlimit="10"/>
<path d="M36.8935 4.68867C37.3039 4.68867 36.9781 5.95587 36.7607 7.05423C36.6167 7.75443 35.928 11.5081 35.59 12.8358L35.4211 13.86C35.4211 13.86 34.6367 18.9897 34.6367 21.1623C34.6476 22.7233 35.0116 24.2617 35.7014 25.6621C36.3912 27.0625 37.3888 28.2888 38.6197 29.249C41.7575 31.661 37.1711 34.1975 37.1711 34.1975C35.3606 32.8698 30.0503 29.0074 30.2915 23.8176C30.4415 20.6733 31.0307 17.5654 32.0418 14.5843L32.657 12.8344C32.4277 11.9049 32.0537 10.2031 32.3554 9.75639C32.3362 9.78404 32.3111 9.80705 32.2819 9.82374C32.2526 9.84044 32.2201 9.85039 32.1865 9.85287C32.0065 9.85287 31.8848 9.47883 31.8726 8.98419C31.8485 8.39271 32.0296 7.18419 32.778 7.07619H32.8021C33.0797 7.07619 32.9821 7.78827 32.9821 7.78827C32.9821 7.78827 33.3079 6.82275 33.8148 6.82275C33.8474 6.82146 33.88 6.8256 33.9113 6.83499C34.2612 6.91959 34.0913 7.67991 34.0913 7.67991C34.2859 7.35042 34.5444 7.06316 34.8516 6.83499C34.8832 6.81254 34.9208 6.80001 34.9596 6.79899C35.3218 6.79899 35.563 7.95783 35.563 7.95783C35.563 7.95783 36.432 4.73511 36.8788 4.69911C36.8788 4.68687 36.8788 4.68687 36.8906 4.68687L36.8935 4.68867ZM36.8906 4.32471H36.8424C36.5166 4.36071 36.2268 4.66275 35.708 6.21975C35.636 6.41271 35.5752 6.61791 35.5147 6.79899C35.4594 6.69483 35.3781 6.60675 35.2787 6.54329C35.1793 6.47983 35.0651 6.44316 34.9474 6.43683C34.8396 6.43934 34.7348 6.47297 34.6457 6.53367C34.545 6.59968 34.4519 6.67659 34.3681 6.76299C34.2833 6.62628 34.1495 6.52704 33.9941 6.48543C33.935 6.47135 33.8747 6.46315 33.8141 6.46095C33.678 6.46675 33.5449 6.50217 33.424 6.56472C33.3031 6.62727 33.1972 6.71545 33.1139 6.82311C33.0259 6.75036 32.9145 6.71199 32.8003 6.71511C32.7716 6.71319 32.7428 6.71724 32.7157 6.72699C31.702 6.88395 31.4845 8.28399 31.5086 9.00831C31.5328 9.68403 31.702 9.99795 31.8949 10.1427C31.8589 10.5894 31.9309 11.3739 32.2812 12.8463L31.702 14.4879C30.682 17.5057 30.0854 20.6503 29.9293 23.832C29.8213 26.1252 30.7382 28.4425 32.657 30.6875C33.921 32.1194 35.3513 33.3952 36.9176 34.488L36.9536 34.5121C37.0102 34.555 37.0782 34.5801 37.1491 34.5844C37.2199 34.5887 37.2904 34.5719 37.3518 34.5363C37.4598 34.4761 39.9467 33.088 40.0795 31.2534C40.14 30.4208 39.7296 29.6604 38.8487 28.9854C37.662 28.0596 36.7002 26.8772 36.0355 25.5267C35.3709 24.1763 35.0205 22.6929 35.0107 21.1878C35.0107 19.0638 35.7833 13.9943 35.7952 13.9461L35.9521 12.9442C36.2178 11.9427 36.6523 9.63723 36.9176 8.24907C37.0145 7.74219 37.0868 7.35591 37.1228 7.17519L37.1948 6.81303C37.4468 5.60595 37.5811 4.90503 37.3028 4.55583C37.2593 4.48612 37.1988 4.42856 37.1271 4.38846C37.0553 4.34837 36.9746 4.32706 36.8924 4.32651L36.8906 4.32471Z" fill="#E89589" stroke="#E89589" stroke-width="0.335" stroke-miterlimit="10"/>
<path d="M35.1554 11.484C34.7814 10.5181 34.4916 8.1648 34.8674 7.80264C35.2432 7.44048 35.7606 8.44236 35.9175 9.06984" fill="#EFCABB"/>
<path d="M35.1554 11.484C34.7814 10.5181 34.4916 8.1648 34.8674 7.80264C35.2432 7.44048 35.7606 8.44236 35.9175 9.06984" stroke="#D6906B" stroke-width="1.006" stroke-linecap="round" stroke-linejoin="round"/>
<path d="M34.6968 10.5183C33.9606 10.6151 33.7071 9.5045 33.7676 8.45438C33.8534 7.95441 34.0035 7.46762 34.214 7.0061" stroke="#D6906B" stroke-width="1.006" stroke-linecap="round" stroke-linejoin="round"/>
<path d="M33.6349 9.80618C33.1399 10.1082 32.8141 9.19094 32.8504 8.34602C32.8947 7.89176 32.9835 7.44295 33.1157 7.0061" stroke="#D6906B" stroke-width="1.006" stroke-linecap="round" stroke-linejoin="round"/>
<path d="M32.0295 9.8906C32.0295 9.8906 32.3071 10.3251 32.4641 9.61304" stroke="#D6906B" stroke-width="1.006" stroke-linecap="round" stroke-linejoin="round"/>
<path d="M38.196 71.5785C38.8962 69.6957 43.5669 59.3277 43.5669 58.6037C43.5669 57.8798 58.4731 55.4051 58.9558 55.1636C59.4386 56.0085 61.4301 60.5225 62.4561 62.8881C64.025 66.509 65.5942 70.613 65.5942 70.613C65.5942 70.613 60.2111 69.9974 58.7143 72.9062C59.5955 74.6079 60.0419 75.4406 60.0419 75.4406C60.0419 75.4406 57.9298 75.501 56.9643 74.7767C56.24 73.0869 52.5003 64.1567 51.533 63.1901C50.9296 65.0006 47.7915 73.0869 47.1878 75.0183C46.7704 75.2989 46.2813 75.4537 45.7785 75.4643C45.2758 75.475 44.7805 75.341 44.3517 75.0784C44.3517 74.1129 45.1966 72.7852 45.1966 72.7852C45.1966 72.7852 41.8421 71.1681 38.196 71.5785Z" fill="#FF859B" stroke="#FF859B" stroke-width="0.335" stroke-miterlimit="10"/>
<path d="M43.0974 61.8741C43.0974 61.8741 45.6199 60.981 46.1992 59.0981" stroke="#FF5C76" stroke-width="1.006" stroke-linecap="round" stroke-linejoin="round"/>
<path d="M56.556 58.2292C56.5319 58.4586 58.5 60.3655 60.0804 60.4019" stroke="#FF5C76" stroke-width="1.006" stroke-linecap="round" stroke-linejoin="round"/>
<path d="M51.16 56.1172C51.16 56.1172 51.232 59.0623 51.5582 59.4364C51.8844 59.8104 52.6447 59.5444 52.6447 59.5444" stroke="#FF5C76" stroke-width="1.006" stroke-linecap="round" stroke-linejoin="round"/>
<path d="M43.7489 58.3017C41.6969 55.0429 38.9815 42.0682 39.1024 40.4993C37.6538 38.4473 33.9123 37.2402 32.7056 35.4298C32.2225 33.1366 34.021 32.2434 34.021 32.2434L35.6626 33.4386C35.6626 33.4386 39.0542 29.8901 39.0419 28.9746C40.3574 29.3004 41.3956 33.3799 49.2408 31.6901C57.0859 30.0002 60.8878 34.6471 63.5432 39.4751C60.4051 40.8028 59.4154 42.9872 59.4154 42.9872L60.6466 44.7872C60.6466 44.7872 59.5 46.175 58.1724 45.3301C57.3466 43.6657 56.4195 42.0535 55.3964 40.5025C56.3619 44.9665 58.7757 53.2962 59.6206 56.4343C57.5686 57.762 57.9308 58.3654 53.4646 57.641C48.9985 56.9167 43.7489 58.3017 43.7489 58.3017Z" fill="#FFEB99" stroke="#FFEB7D" stroke-width="0.335" stroke-miterlimit="10"/>
<path d="M55.3359 44.0837L55.9033 44.3613L56.4703 44.6389L55.9393 44.9888L55.4083 45.3391L55.3723 44.7112L55.3363 44.0837H55.3359ZM55.2398 43.7216C55.2018 43.7327 55.1654 43.7489 55.1318 43.7698C55.0787 43.8058 55.0355 43.8545 55.006 43.9115C54.9765 43.9684 54.9617 44.0318 54.963 44.096L54.999 44.7235L55.035 45.3509C55.0394 45.4165 55.0605 45.4798 55.0965 45.5348C55.1324 45.5897 55.1819 45.6345 55.2402 45.6649C55.3187 45.7023 55.4079 45.7108 55.4922 45.689C55.5302 45.678 55.5666 45.6617 55.6002 45.6407L56.1312 45.2908L56.6622 44.9405C56.717 44.9054 56.7616 44.8562 56.7912 44.7982C56.8209 44.7401 56.8345 44.6752 56.8309 44.6102C56.8272 44.5451 56.8063 44.4822 56.7704 44.4278C56.7344 44.3735 56.6846 44.3296 56.6262 44.3008L56.0592 44.0233L55.4918 43.7457C55.4134 43.7079 55.324 43.6994 55.2398 43.7216V43.7216Z" fill="#F9C126" stroke="#F9C126" stroke-width="0.335" stroke-miterlimit="10"/>
<path d="M55.8186 39.5698L55.5047 40.113L55.1912 40.6559L54.8772 40.1008L54.5633 39.5457H55.1912L55.8186 39.5698V39.5698ZM56.1808 39.4978L56.1448 39.3898C56.115 39.3331 56.0697 39.2861 56.0142 39.2542C55.9586 39.2224 55.8952 39.207 55.8312 39.2098H54.5759C54.511 39.2108 54.4474 39.2278 54.3905 39.2591C54.3337 39.2905 54.2855 39.3354 54.2501 39.3898C54.2045 39.4654 54.1873 39.5547 54.2015 39.6418L54.2375 39.7498L54.5514 40.3049L54.865 40.86C54.8948 40.9168 54.9401 40.9639 54.9957 40.9958C55.0513 41.0276 55.1149 41.043 55.1789 41.04C55.2438 41.039 55.3075 41.0221 55.3643 40.9907C55.4211 40.9593 55.4693 40.9145 55.5047 40.86L55.8186 40.3172L56.1326 39.7739C56.1823 39.6905 56.1995 39.5917 56.1808 39.4964V39.4978Z" fill="#F9C126" stroke="#F9C126" stroke-width="0.335" stroke-miterlimit="10"/>
<path d="M51.0993 41.0662L51.6908 40.8368L52.2823 40.6075L52.1858 41.2354L52.089 41.8628L51.5943 41.4766L51.0993 41.0662ZM50.7599 40.8959C50.7355 40.9313 50.7229 40.9735 50.7239 41.0165C50.7131 41.0796 50.7198 41.1444 50.7432 41.204C50.7666 41.2636 50.8059 41.3156 50.8567 41.3545L51.3513 41.7408L51.8463 42.1271C51.8969 42.1667 51.9572 42.1921 52.0208 42.2006C52.0845 42.209 52.1493 42.2003 52.2085 42.1753C52.2903 42.1428 52.3585 42.083 52.4015 42.0061C52.4259 41.9707 52.4385 41.9285 52.4375 41.8855L52.5339 41.2581L52.6304 40.6302C52.641 40.5672 52.6343 40.5024 52.6108 40.4429C52.5874 40.3834 52.5483 40.3315 52.4976 40.2925C52.4471 40.2527 52.3868 40.2272 52.3231 40.2187C52.2594 40.2102 52.1945 40.2191 52.1354 40.2443L51.5443 40.4736L50.9528 40.7029C50.8768 40.7545 50.8112 40.82 50.7595 40.8959H50.7599Z" fill="#F9C126" stroke="#F9C126" stroke-width="0.335" stroke-miterlimit="10"/>
<path d="M49.5906 37.6628L49.7839 38.2661L49.9769 38.8695L49.3613 38.737L48.7457 38.6042L49.1683 38.1333L49.5906 37.6628ZM49.7839 37.3488C49.7503 37.3279 49.7139 37.3117 49.6759 37.3006C49.6132 37.2866 49.548 37.2892 49.4866 37.3082C49.4253 37.3271 49.3699 37.3617 49.326 37.4086L48.9033 37.8791L48.4811 38.35C48.4375 38.3982 48.4078 38.4574 48.3951 38.5211C48.3824 38.5849 48.3872 38.6509 48.4091 38.7122C48.4359 38.7968 48.4914 38.8694 48.566 38.9174C48.5996 38.9383 48.636 38.9545 48.674 38.9656L49.2896 39.0981L49.9052 39.2309C49.9679 39.2449 50.0332 39.2423 50.0945 39.2233C50.1559 39.2044 50.2112 39.1698 50.2552 39.1229C50.2985 39.0746 50.3281 39.0154 50.3408 38.9517C50.3534 38.888 50.3487 38.822 50.3272 38.7608L50.1342 38.157L49.9412 37.5537C49.9313 37.5102 49.9121 37.4694 49.885 37.4341C49.8579 37.3987 49.8236 37.3695 49.7843 37.3485L49.7839 37.3488Z" fill="#F9C126" stroke="#F9C126" stroke-width="0.335" stroke-miterlimit="10"/>
<path d="M53.1391 36.6368L53.7065 36.9144L54.2739 37.1919L53.7425 37.5422L53.2115 37.8921L53.1755 37.2643L53.1395 36.6368H53.1391ZM53.043 36.2747C53.005 36.2858 52.9687 36.302 52.935 36.3229C52.882 36.3589 52.8387 36.4076 52.8092 36.4646C52.7797 36.5215 52.765 36.5849 52.7662 36.6491L52.8022 37.2765L52.8382 37.904C52.8426 37.9695 52.8639 38.0328 52.8998 38.0878C52.9357 38.1427 52.9852 38.1876 53.0434 38.2179C53.1219 38.2554 53.2112 38.2639 53.2954 38.2421C53.3335 38.2311 53.3698 38.2149 53.4034 38.1938L53.9344 37.8439L54.4654 37.4936C54.5185 37.4577 54.5617 37.4091 54.5912 37.3522C54.6207 37.2953 54.6355 37.2319 54.6342 37.1678C54.6321 37.1018 54.6118 37.0375 54.5756 36.9822C54.5394 36.9269 54.4887 36.8827 54.429 36.8543L53.862 36.5763L53.2947 36.2988C53.2164 36.2605 53.1268 36.2519 53.0427 36.2747H53.043Z" fill="#F9C126" stroke="#F9C126" stroke-width="0.335" stroke-miterlimit="10"/>
<path d="M54.6839 33.2453L54.37 33.7886L54.0561 34.3315L53.7422 33.7763L53.4286 33.2212H54.0561L54.6839 33.2453V33.2453ZM55.0439 33.1733L55.0079 33.0653C54.9781 33.0087 54.9327 32.9616 54.8771 32.9298C54.8215 32.8979 54.758 32.8825 54.694 32.8853H53.4387C53.3738 32.8864 53.3101 32.9033 53.2533 32.9347C53.1965 32.9661 53.1483 33.0109 53.1129 33.0653C53.0674 33.141 53.0503 33.2303 53.0646 33.3173L53.1006 33.4253L53.4142 33.9805L53.7281 34.5356C53.7579 34.5923 53.8033 34.6394 53.8589 34.6713C53.9145 34.7032 53.978 34.7185 54.042 34.7156C54.1069 34.7146 54.1706 34.6976 54.2274 34.6663C54.2842 34.6349 54.3324 34.59 54.3678 34.5356L54.6814 33.9927L54.9953 33.4495C55.0451 33.3661 55.0623 33.2672 55.0436 33.1719L55.0439 33.1733Z" fill="#F9C126" stroke="#F9C126" stroke-width="0.335" stroke-miterlimit="10"/>
<path d="M49.965 34.754L50.5561 34.5247L51.1476 34.2953L51.0511 34.9228L50.9546 35.5506L50.4596 35.1644L49.965 34.754ZM49.627 34.5851C49.6025 34.6205 49.5899 34.6627 49.591 34.7057C49.5803 34.7688 49.5871 34.8336 49.6105 34.8932C49.6339 34.9527 49.6731 35.0048 49.7238 35.0438L50.2188 35.4297L50.7134 35.816C50.764 35.8556 50.8243 35.881 50.8879 35.8894C50.9516 35.8979 51.0164 35.8892 51.0756 35.8642C51.1575 35.832 51.2257 35.7723 51.2685 35.6954C51.2931 35.66 51.3057 35.6178 51.3045 35.5748L51.401 34.9469L51.4975 34.3195C51.5082 34.2564 51.5015 34.1916 51.4782 34.132C51.4549 34.0725 51.4157 34.0204 51.365 33.9814C51.3145 33.9418 51.2542 33.9164 51.1905 33.9079C51.1268 33.8995 51.062 33.9082 51.0029 33.9332L50.4114 34.1625L49.8199 34.3918C49.7388 34.4369 49.6719 34.5039 49.627 34.5851Z" fill="#F9C126" stroke="#F9C126" stroke-width="0.335" stroke-miterlimit="10"/>
<path d="M48.456 31.3382L48.649 31.9416L48.8423 32.5453L48.2267 32.4125L47.6111 32.2796L48.0334 31.8087L48.456 31.3382ZM48.649 31.0243C48.6154 31.0033 48.579 30.9871 48.541 30.9761C48.4783 30.9622 48.4131 30.9648 48.3517 30.9837C48.2904 31.0027 48.235 31.0373 48.1911 31.0841L47.7688 31.5546L47.3461 32.0255C47.3028 32.0739 47.2733 32.133 47.2606 32.1967C47.248 32.2604 47.2526 32.3263 47.2741 32.3876C47.301 32.4722 47.3565 32.5448 47.4311 32.5928C47.4647 32.6137 47.5011 32.63 47.5391 32.6411L48.1547 32.7739L48.7699 32.9064C48.8327 32.9203 48.8979 32.9177 48.9594 32.8987C49.0208 32.8798 49.0762 32.8452 49.1202 32.7984C49.1635 32.75 49.193 32.6908 49.2057 32.6271C49.2183 32.5634 49.2137 32.4975 49.1922 32.4362L48.9989 31.8325L48.8059 31.2291C48.7825 31.1428 48.7261 31.0692 48.649 31.0239V31.0243Z" fill="#F9C126" stroke="#F9C126" stroke-width="0.335" stroke-miterlimit="10"/>
<path d="M59.6689 44.1925L60.2604 43.9631L60.8519 43.7338L60.755 44.3613L60.6586 44.9891L60.1639 44.6029L59.6689 44.1925ZM59.3431 44.0233C59.3187 44.0588 59.3061 44.1011 59.3071 44.1442C59.2965 44.2073 59.3033 44.272 59.3267 44.3315C59.3501 44.391 59.3892 44.443 59.44 44.4819L59.935 44.8682L60.4296 45.2545C60.4802 45.2941 60.5404 45.3194 60.6041 45.3279C60.6678 45.3364 60.7326 45.3277 60.7918 45.3027C60.8737 45.2705 60.9419 45.2108 60.9847 45.1339C61.0091 45.0984 61.0217 45.0562 61.0207 45.0133L61.1172 44.3854L61.2137 43.7579C61.2244 43.6949 61.2177 43.6301 61.1944 43.5705C61.171 43.511 61.1319 43.4589 61.0812 43.4199C61.0306 43.3803 60.9704 43.3549 60.9067 43.3464C60.843 43.3379 60.7782 43.3466 60.719 43.3716L60.1276 43.601L59.5361 43.8303C59.4524 43.8718 59.3846 43.9396 59.3431 44.0233V44.0233Z" fill="#F9C126" stroke="#F9C126" stroke-width="0.335" stroke-miterlimit="10"/>
<path d="M58.16 40.7766L58.3534 41.38L58.5463 41.9833L57.9307 41.8508L57.3151 41.718L57.7378 41.2471L58.16 40.7766ZM58.3534 40.4627C58.3198 40.4417 58.2834 40.4255 58.2454 40.4144C58.1827 40.4004 58.1174 40.403 58.056 40.4219C57.9947 40.4409 57.9393 40.4755 57.8954 40.5224L57.4728 40.993L57.0505 41.4638C57.0069 41.5121 56.9772 41.5712 56.9646 41.635C56.9519 41.6987 56.9567 41.7648 56.9785 41.826C57.0052 41.9105 57.0606 41.9829 57.1351 42.0308C57.1687 42.0519 57.2051 42.0683 57.2431 42.0794L57.8587 42.2119L58.4743 42.3448C58.537 42.3588 58.6022 42.3562 58.6636 42.3372C58.725 42.3183 58.7803 42.2837 58.8242 42.2368C58.8677 42.1886 58.8974 42.1295 58.9101 42.0658C58.9228 42.0021 58.918 41.9362 58.8962 41.875L58.7033 41.2712L58.51 40.6679C58.4867 40.5816 58.4304 40.5079 58.3534 40.4627V40.4627Z" fill="#F9C126" stroke="#F9C126" stroke-width="0.335" stroke-miterlimit="10"/>
<path d="M61.7087 39.7509L62.276 40.0285L62.8434 40.306L62.312 40.6559L61.781 41.0062L61.745 40.3784L61.709 39.7509H61.7087ZM61.6244 39.3887C61.5864 39.3998 61.5501 39.416 61.5164 39.437C61.4633 39.4729 61.42 39.5215 61.3905 39.5784C61.3609 39.6353 61.3461 39.6987 61.3472 39.7628L61.3832 40.3906L61.4192 41.0181C61.4238 41.0836 61.445 41.1469 61.4809 41.2018C61.5168 41.2568 61.5663 41.3016 61.6244 41.332C61.703 41.3694 61.7922 41.378 61.8764 41.3561C61.9145 41.3451 61.9508 41.3289 61.9844 41.3079L62.5154 40.958L63.0464 40.6077C63.1014 40.5726 63.146 40.5235 63.1757 40.4654C63.2055 40.4074 63.2192 40.3424 63.2155 40.2773C63.2118 40.2122 63.1909 40.1492 63.1549 40.0949C63.1188 40.0405 63.069 39.9967 63.0104 39.968L62.4431 39.6904L61.8757 39.4129C61.7956 39.3815 61.7083 39.3732 61.6237 39.3887H61.6244Z" fill="#F9C126" stroke="#F9C126" stroke-width="0.335" stroke-miterlimit="10"/>
<path d="M63.2519 37.0835L62.9384 37.6264L62.6245 38.1696L62.3106 37.6145L61.997 37.059H62.6245L63.2519 37.0835V37.0835ZM63.6264 37.0115L63.5903 36.9035C63.5606 36.8467 63.5152 36.7996 63.4596 36.7677C63.404 36.7359 63.3405 36.7205 63.2764 36.7235H62.0215C61.9565 36.7245 61.8928 36.7414 61.8359 36.7728C61.779 36.8042 61.7307 36.8491 61.6953 36.9035C61.65 36.9792 61.6329 37.0685 61.6471 37.1555L61.6831 37.2635L61.997 37.819L62.3106 38.3741C62.3404 38.4308 62.3858 38.4778 62.4414 38.5097C62.497 38.5416 62.5605 38.557 62.6245 38.5541C62.6894 38.5531 62.753 38.5362 62.8098 38.5048C62.8667 38.4734 62.9149 38.4285 62.9503 38.3741L63.2642 37.8309L63.5781 37.288C63.6221 37.2024 63.6389 37.1055 63.6264 37.0101V37.0115Z" fill="#F9C126" stroke="#F9C126" stroke-width="0.335" stroke-miterlimit="10"/>
<path d="M58.5359 37.868L59.127 37.6387L59.7185 37.4093L59.622 38.0368L59.5256 38.6647L59.0306 38.2784L58.5359 37.868ZM58.2098 37.6988C58.1854 37.7343 58.1728 37.7767 58.1738 37.8198C58.1631 37.8828 58.1698 37.9476 58.1932 38.0071C58.2166 38.0666 58.2558 38.1186 58.3066 38.1574L58.8012 38.5437L59.2962 38.93C59.3466 38.9692 59.4065 38.9944 59.4697 39.0028C59.533 39.0113 59.5973 39.0028 59.6562 38.9782C59.7382 38.9459 59.8065 38.8863 59.8496 38.8094C59.874 38.774 59.8866 38.7318 59.8856 38.6888L59.9824 38.061L60.0789 37.4335C60.0895 37.3704 60.0828 37.3056 60.0594 37.246C60.036 37.1865 59.9968 37.1344 59.946 37.0954C59.8955 37.0558 59.8352 37.0304 59.7715 37.022C59.7079 37.0135 59.6431 37.0222 59.5839 37.0472L58.9924 37.2765L58.4013 37.5058C58.3175 37.5473 58.2496 37.6151 58.208 37.6988H58.2098Z" fill="#F9C126" stroke="#F9C126" stroke-width="0.335" stroke-miterlimit="10"/>
<path d="M57.0257 34.4518L57.2187 35.0552L57.412 35.6585L56.7964 35.5261L56.1808 35.3932L56.6031 34.9223L57.0257 34.4518ZM57.2187 34.1379C57.1851 34.1168 57.1488 34.1005 57.1107 34.0897C57.048 34.0757 56.9827 34.0783 56.9214 34.0972C56.86 34.1162 56.8047 34.1508 56.7607 34.1977L56.3377 34.6678L55.9151 35.1387C55.8718 35.1871 55.8423 35.2462 55.8296 35.3099C55.8169 35.3736 55.8216 35.4396 55.8431 35.5009C55.87 35.5854 55.9255 35.6579 56.0001 35.7061C56.0337 35.727 56.07 35.7432 56.1081 35.7543L56.7237 35.8868L57.3389 36.0196C57.4016 36.0336 57.4669 36.031 57.5284 36.0121C57.5898 35.9931 57.6452 35.9585 57.6892 35.9116C57.7325 35.8633 57.762 35.8042 57.7747 35.7406C57.7874 35.6769 57.7827 35.611 57.7612 35.5498L57.5679 34.9461L57.3749 34.3427C57.3482 34.2581 57.2926 34.1855 57.2179 34.1375L57.2187 34.1379Z" fill="#F9C126" stroke="#F9C126" stroke-width="0.335" stroke-miterlimit="10"/>
<path d="M48.5999 54.4031L49.1551 54.6687L49.7106 54.9341L49.1792 55.2721L48.6482 55.6101L48.6241 55.0187L48.5999 54.4031ZM48.5153 54.0654C48.4773 54.0763 48.4409 54.0925 48.4073 54.1136C48.3538 54.1461 48.3098 54.1923 48.2801 54.2474C48.2504 54.3025 48.2359 54.3646 48.2381 54.4272L48.2623 55.0187L48.2864 55.6101C48.2908 55.6708 48.311 55.7293 48.3449 55.7798C48.3788 55.8303 48.4252 55.8711 48.4797 55.8981C48.5583 55.9354 48.6475 55.9439 48.7317 55.9222C48.7697 55.9111 48.806 55.8949 48.8397 55.874L49.3707 55.536L49.9017 55.1979C49.9553 55.1666 49.9993 55.1213 50.0291 55.0669C50.0589 55.0125 50.0733 54.951 50.0709 54.889C50.0684 54.827 50.0491 54.7669 50.015 54.715C49.981 54.6631 49.9335 54.6215 49.8776 54.5946L49.3225 54.3289L48.7673 54.0636C48.6837 54.0452 48.5972 54.0452 48.5135 54.0636L48.5153 54.0654Z" fill="#F9C126" stroke="#F9C126" stroke-width="0.335" stroke-miterlimit="10"/>
<path d="M50.7495 50.4202L50.4356 50.9635L50.1216 51.5067L49.8081 50.9516L49.4942 50.3961H50.1216L50.7495 50.4202V50.4202ZM51.1235 50.3601L51.0875 50.2521C51.0577 50.1954 51.0123 50.1484 50.9567 50.1165C50.9011 50.0846 50.8376 50.0692 50.7736 50.0721H49.5183C49.4534 50.0731 49.3897 50.0901 49.3329 50.1215C49.2761 50.1528 49.2279 50.1977 49.1925 50.2521C49.147 50.3277 49.1299 50.4171 49.1442 50.5041L49.1803 50.6121L49.4942 51.1672L49.8081 51.7224C49.8378 51.7791 49.8831 51.8261 49.9387 51.858C49.9942 51.8899 50.0577 51.9053 50.1216 51.9024C50.1866 51.9014 50.2503 51.8845 50.3072 51.8531C50.3641 51.8217 50.4124 51.7768 50.4478 51.7224L50.7614 51.1795L51.0753 50.6362C51.1185 50.5506 51.1353 50.4539 51.1235 50.3587V50.3601Z" fill="#F9C126" stroke="#F9C126" stroke-width="0.335" stroke-miterlimit="10"/>
<path d="M46.0303 51.9289L46.6217 51.6996L47.2132 51.4703L47.1164 52.0981L47.0199 52.7256L46.5253 52.3393L46.0303 51.9289ZM45.7045 51.7601C45.6801 51.7955 45.6675 51.8377 45.6685 51.8807C45.6578 51.9438 45.6646 52.0086 45.688 52.0681C45.7114 52.1277 45.7506 52.1797 45.8013 52.2187L46.2963 52.605L46.7909 52.9913C46.8415 53.0309 46.9018 53.0563 46.9655 53.0647C47.0291 53.0732 47.0939 53.0645 47.1531 53.0395C47.2351 53.0071 47.3033 52.9473 47.3461 52.8703C47.3705 52.8349 47.3831 52.7927 47.3821 52.7497L47.4785 52.1222L47.575 51.4944C47.5857 51.4314 47.579 51.3666 47.5557 51.3071C47.5323 51.2476 47.4932 51.1956 47.4425 51.1567C47.392 51.117 47.3318 51.0916 47.2681 51.083C47.2044 51.0745 47.1396 51.0831 47.0804 51.1081L46.4889 51.3378L45.8974 51.5671C45.8187 51.6152 45.7526 51.6814 45.7045 51.7601V51.7601Z" fill="#F9C126" stroke="#F9C126" stroke-width="0.335" stroke-miterlimit="10"/>
<path d="M43.556 49.1288L43.7489 49.7321L43.9423 50.3358L43.3267 50.203L42.7111 50.0702L43.1337 49.5996L43.556 49.1288V49.1288ZM43.7489 48.803C43.7154 48.7819 43.679 48.7656 43.6409 48.7547C43.5782 48.7407 43.5129 48.7433 43.4515 48.7623C43.39 48.7812 43.3346 48.8158 43.2907 48.8627L42.8684 49.3332L42.4461 49.8041C42.4029 49.8522 42.3734 49.9109 42.3608 49.9743C42.3481 50.0376 42.3527 50.1032 42.3741 50.1641C42.4008 50.2488 42.4564 50.3214 42.531 50.3693C42.5647 50.3903 42.601 50.4067 42.6391 50.4179L43.2547 50.5504L43.8703 50.6832C43.9329 50.6972 43.9982 50.6946 44.0595 50.6757C44.1209 50.6567 44.1763 50.6221 44.2202 50.5752C44.2634 50.5272 44.2928 50.4685 44.3055 50.4051C44.3182 50.3418 44.3136 50.2762 44.2922 50.2152L44.0992 49.6115L43.9059 49.0082C43.8793 48.9235 43.8237 48.8508 43.7489 48.803V48.803Z" fill="#F9C126" stroke="#F9C126" stroke-width="0.335" stroke-miterlimit="10"/>
<path d="M48.07 47.4994L48.6374 47.7769L49.2044 48.0545L48.6734 48.4048L48.1424 48.7547L48.1064 48.1268L48.0704 47.4994H48.07ZM47.9858 47.1372C47.9478 47.1484 47.9114 47.1646 47.8778 47.1854C47.8247 47.2215 47.7815 47.2702 47.752 47.3271C47.7225 47.3841 47.7077 47.4475 47.7089 47.5116L47.7449 48.1391L47.7809 48.7666C47.7855 48.8321 47.8067 48.8953 47.8426 48.9503C47.8785 49.0052 47.928 49.0501 47.9861 49.0805C48.0647 49.1179 48.1539 49.1264 48.2381 49.1046C48.2762 49.0937 48.3126 49.0774 48.3461 49.0564L48.8771 48.7064L49.4081 48.3562C49.4631 48.3211 49.5077 48.272 49.5375 48.214C49.5672 48.156 49.5809 48.091 49.5773 48.0259C49.5736 47.9608 49.5527 47.8979 49.5166 47.8436C49.4806 47.7892 49.4307 47.7455 49.3721 47.7168L48.8048 47.4389L48.2399 47.1599C48.1613 47.1226 48.0722 47.1141 47.9879 47.1358L47.9858 47.1372Z" fill="#F9C126" stroke="#F9C126" stroke-width="0.335" stroke-miterlimit="10"/>
<path d="M49.6149 44.1078L49.3013 44.651L48.9874 45.1939L48.672 44.6399L48.3585 44.0848H48.9859L49.6134 44.1089L49.6149 44.1078ZM49.9878 44.0369L49.9518 43.9289C49.922 43.8722 49.8766 43.8251 49.821 43.7933C49.7654 43.7614 49.7019 43.746 49.6379 43.7489H48.384C48.3191 43.7498 48.2553 43.7667 48.1984 43.7981C48.1416 43.8295 48.0933 43.8744 48.0579 43.9289C48.0125 44.0045 47.9954 44.0938 48.0096 44.1809L48.0456 44.2889L48.3595 44.844L48.6731 45.3991C48.7029 45.4559 48.7482 45.5029 48.8038 45.5348C48.8594 45.5667 48.923 45.5821 48.987 45.5791C49.0519 45.5781 49.1156 45.5612 49.1724 45.5298C49.2292 45.4984 49.2774 45.4535 49.3128 45.3991L49.6267 44.8562L49.9407 44.313C49.9846 44.2276 50.0015 44.1307 49.9889 44.0354L49.9878 44.0369Z" fill="#F9C126" stroke="#F9C126" stroke-width="0.335" stroke-miterlimit="10"/>
<path d="M44.8956 45.6045L45.4871 45.3752L46.0785 45.1459L45.9821 45.7737L45.8856 46.4012L45.3906 46.0149L44.8956 45.6045ZM44.5716 45.4476C44.5472 45.4831 44.5346 45.5254 44.5356 45.5685C44.5249 45.6316 44.5316 45.6964 44.5549 45.7559C44.5783 45.8155 44.6174 45.8675 44.6681 45.9066L45.1631 46.2925L45.6581 46.6788C45.7086 46.7183 45.7688 46.7437 45.8324 46.7521C45.896 46.7606 45.9607 46.7519 46.0199 46.727C46.1018 46.6947 46.1701 46.6351 46.2132 46.5582C46.2376 46.5228 46.2502 46.4806 46.2492 46.4376L46.346 45.8097L46.4425 45.1822C46.4531 45.1191 46.4464 45.0543 46.423 44.9948C46.3996 44.9352 46.3604 44.8832 46.3097 44.8442C46.2591 44.8046 46.1988 44.7792 46.1351 44.7707C46.0715 44.7622 46.0067 44.771 45.9475 44.796L45.356 45.0253L44.7649 45.2546C44.6811 45.2961 44.6132 45.3639 44.5716 45.4476V45.4476Z" fill="#F9C126" stroke="#F9C126" stroke-width="0.335" stroke-miterlimit="10"/>
<path d="M43.3871 42.2008L43.58 42.8042L43.773 43.4079L43.1578 43.275L42.5422 43.1422L42.9644 42.6713L43.3871 42.2008V42.2008ZM43.58 41.8869C43.5464 41.866 43.5101 41.8497 43.472 41.8386C43.4094 41.8247 43.3441 41.8273 43.2828 41.8463C43.2214 41.8652 43.166 41.8998 43.1221 41.9466L42.6998 42.4172L42.2772 42.888C42.2336 42.9363 42.2039 42.9954 42.1912 43.0592C42.1786 43.123 42.1834 43.189 42.2052 43.2502C42.2321 43.3347 42.2876 43.4073 42.3622 43.4554C42.3958 43.4764 42.4321 43.4926 42.4702 43.5036L43.0854 43.6365L43.701 43.769C43.7637 43.7829 43.829 43.7803 43.8904 43.7613C43.9519 43.7424 44.0073 43.7078 44.0513 43.661C44.0946 43.6125 44.1241 43.5534 44.1367 43.4897C44.1494 43.426 44.1448 43.3601 44.1233 43.2988L43.93 42.6951L43.737 42.0917C43.7271 42.0483 43.7079 42.0074 43.6809 41.972C43.6538 41.9366 43.6194 41.9075 43.58 41.8865V41.8869Z" fill="#F9C126" stroke="#F9C126" stroke-width="0.335" stroke-miterlimit="10"/>
<path d="M59.5843 34.3194L60.1517 34.597L60.719 34.8746L60.188 35.2245L59.6567 35.5748L59.6207 34.9469L59.5847 34.3194H59.5843ZM59.4882 33.9573C59.4502 33.9684 59.4139 33.9847 59.3802 34.0055C59.3272 34.0415 59.284 34.0902 59.2545 34.1471C59.2251 34.2039 59.2102 34.2673 59.2114 34.3313L59.2474 34.9592L59.2834 35.5866C59.2879 35.6521 59.3091 35.7154 59.3451 35.7704C59.381 35.8253 59.4304 35.8701 59.4886 35.9006C59.5671 35.938 59.6563 35.9465 59.7406 35.9247C59.7786 35.9136 59.8149 35.8974 59.8486 35.8764L60.3796 35.5265L60.9106 35.1762C60.9655 35.1411 61.0101 35.092 61.0399 35.034C61.0696 34.9759 61.0833 34.911 61.0796 34.8459C61.076 34.7807 61.0551 34.7178 61.019 34.6634C60.983 34.609 60.9331 34.5653 60.8746 34.5365L60.3072 34.259L59.7398 33.9814C59.6615 33.9431 59.572 33.9345 59.4878 33.9573H59.4882Z" fill="#F9C126" stroke="#F9C126" stroke-width="0.335" stroke-miterlimit="10"/>
<path d="M59.5724 54.874L59.2585 55.4169L58.9446 55.9601L58.631 55.405L58.3171 54.8499H58.9446L59.5724 54.874V54.874ZM59.9346 54.802L59.8986 54.694C59.8687 54.6373 59.8234 54.5903 59.7678 54.5584C59.7122 54.5265 59.6487 54.5111 59.5847 54.514H58.3297C58.2647 54.515 58.201 54.5319 58.1441 54.5633C58.0873 54.5947 58.039 54.6396 58.0035 54.694C57.9582 54.7697 57.9411 54.859 57.9553 54.946L57.9913 55.054L58.3049 55.6091L58.6188 56.1642C58.6486 56.2209 58.694 56.268 58.7496 56.2999C58.8052 56.3317 58.8687 56.3471 58.9327 56.3442C58.9976 56.3432 59.0613 56.3263 59.1181 56.2949C59.1749 56.2635 59.2231 56.2187 59.2585 56.1642L59.5724 55.621L59.886 55.0799C59.9303 54.9946 59.9473 54.8977 59.9346 54.8024V54.802Z" fill="#F9C126" stroke="#F9C126" stroke-width="0.335" stroke-miterlimit="10"/>
<path d="M54.5997 55.0439L55.1912 54.8146L55.7823 54.5853L55.6859 55.2131L55.5894 55.8406L55.0944 55.4543L54.5997 55.0439ZM54.2739 54.8751C54.2495 54.9105 54.2369 54.9527 54.2379 54.9957C54.2273 55.0588 54.234 55.1236 54.2575 55.1831C54.2809 55.2427 54.32 55.2947 54.3708 55.3337L54.8654 55.72L55.3604 56.1063C55.411 56.1459 55.4712 56.1713 55.5349 56.1798C55.5986 56.1882 55.6634 56.1795 55.7226 56.1545C55.8044 56.122 55.8726 56.0622 55.9155 55.9853C55.94 55.9499 55.9526 55.9077 55.9515 55.8647L56.048 55.2372L56.1445 54.6094C56.1552 54.5463 56.1485 54.4815 56.1251 54.4219C56.1017 54.3623 56.0625 54.3103 56.0117 54.2714C55.9613 54.2321 55.9014 54.207 55.8382 54.1985C55.7749 54.19 55.7105 54.1985 55.6517 54.2231L55.0602 54.4524L54.4687 54.6818C54.3901 54.7301 54.3239 54.7963 54.2757 54.8751H54.2739Z" fill="#F9C126" stroke="#F9C126" stroke-width="0.335" stroke-miterlimit="10"/>
<path d="M53.1032 51.6393L53.2962 52.2427L53.4892 52.8461L52.8739 52.7136L52.2583 52.5808L52.6806 52.1099L53.1032 51.6393ZM53.2832 51.3254C53.2497 51.3043 53.2133 51.2881 53.1752 51.2772C53.1125 51.2632 53.0472 51.2658 52.9858 51.2847C52.9243 51.3037 52.8689 51.3383 52.8249 51.3852L52.4027 51.8557L51.9804 52.3266C51.9372 52.3746 51.9077 52.4334 51.8951 52.4967C51.8824 52.5601 51.887 52.6256 51.9084 52.6866C51.9351 52.7712 51.9907 52.8438 52.0654 52.8918C52.0989 52.913 52.1353 52.9293 52.1733 52.9404L52.789 53.0729L53.4046 53.2057C53.4672 53.2197 53.5325 53.2171 53.5938 53.1981C53.6552 53.1792 53.7106 53.1446 53.7545 53.0977C53.7977 53.0497 53.8271 52.9909 53.8398 52.9276C53.8525 52.8642 53.8479 52.7987 53.8265 52.7377L53.6335 52.134L53.4402 51.5306C53.4325 51.4863 53.4143 51.4445 53.3869 51.4087C53.3596 51.373 53.324 51.3444 53.2832 51.3254Z" fill="#F9C126" stroke="#F9C126" stroke-width="0.335" stroke-miterlimit="10"/>
<path d="M56.6513 50.6135L57.2187 50.8911L57.7861 51.1687L57.2551 51.5186L56.7241 51.8689L56.6881 51.241L56.6521 50.6135H56.6513ZM56.5556 50.2514C56.5176 50.2625 56.4813 50.2788 56.4476 50.2996C56.3946 50.3356 56.3514 50.3843 56.3219 50.4411C56.2924 50.498 56.2776 50.5614 56.2787 50.6254L56.3147 51.2533L56.3507 51.8807C56.3553 51.9462 56.3765 52.0095 56.4124 52.0644C56.4484 52.1194 56.4978 52.1642 56.5559 52.1947C56.6346 52.2319 56.7237 52.2404 56.8079 52.2188C56.846 52.2077 56.8823 52.1915 56.9159 52.1705L57.4469 51.8206L57.9779 51.4703C58.0329 51.4352 58.0775 51.3861 58.1072 51.3281C58.137 51.27 58.1507 51.2051 58.147 51.14C58.1434 51.0748 58.1224 51.0119 58.0864 50.9575C58.0504 50.9031 58.0005 50.8593 57.9419 50.8306L57.3746 50.5531L56.8072 50.2755C56.7288 50.2377 56.6394 50.2291 56.5552 50.2514H56.5556Z" fill="#F9C126" stroke="#F9C126" stroke-width="0.335" stroke-miterlimit="10"/>
<path d="M58.1965 47.2219L57.8826 47.7652L57.5687 48.308L57.2551 47.7529L56.9412 47.1978H57.5687L58.1965 47.2219V47.2219ZM58.5587 47.1499L58.5227 47.0419C58.4928 46.9852 58.4475 46.9382 58.3919 46.9063C58.3363 46.8744 58.2728 46.859 58.2088 46.8619H56.952C56.8871 46.8629 56.8233 46.8798 56.7665 46.9112C56.7096 46.9426 56.6613 46.9875 56.6259 47.0419C56.5805 47.1176 56.5634 47.2068 56.5776 47.2939L56.6136 47.4019L56.9272 47.957L57.2411 48.5121C57.2709 48.5689 57.3162 48.616 57.3718 48.6479C57.4274 48.6797 57.491 48.6951 57.555 48.6921C57.6199 48.6911 57.6836 48.6742 57.7404 48.6428C57.7972 48.6114 57.8454 48.5666 57.8808 48.5121L58.1947 47.9693L58.5083 47.426C58.5526 47.3407 58.5696 47.2438 58.5569 47.1485L58.5587 47.1499Z" fill="#F9C126" stroke="#F9C126" stroke-width="0.335" stroke-miterlimit="10"/>
<path d="M53.465 48.7305L54.0564 48.5012L54.6479 48.2719L54.5514 48.8994L54.455 49.5272L53.96 49.1409L53.465 48.7305ZM53.1392 48.5613C53.1147 48.5969 53.1021 48.6392 53.1032 48.6823C53.0924 48.7453 53.099 48.8101 53.1224 48.8696C53.1457 48.9291 53.1849 48.9811 53.2356 49.02L53.7306 49.4063L54.2253 49.7925C54.2758 49.8322 54.3361 49.8575 54.3998 49.866C54.4635 49.8745 54.5283 49.8658 54.5874 49.8408C54.6694 49.8085 54.7377 49.7488 54.7808 49.6719C54.8052 49.6365 54.8178 49.5943 54.8168 49.5513L54.9132 48.9235L55.0101 48.296C55.0207 48.2329 55.014 48.1681 54.9905 48.1086C54.9671 48.049 54.928 47.997 54.8772 47.958C54.8267 47.9184 54.7664 47.893 54.7027 47.8845C54.639 47.876 54.5743 47.8847 54.5151 47.9097L53.9236 48.1391L53.3321 48.3684C53.2485 48.41 53.1808 48.4778 53.1392 48.5613V48.5613Z" fill="#F9C126" stroke="#F9C126" stroke-width="0.335" stroke-miterlimit="10"/>
<path d="M51.9684 45.3149L52.1614 45.9182L52.3547 46.5216L51.7391 46.3891L51.1235 46.2563L51.5461 45.7854L51.9684 45.3149ZM52.1484 45.001C52.1148 44.9799 52.0785 44.9637 52.0404 44.9527C51.9777 44.9387 51.9125 44.9413 51.8511 44.9603C51.7897 44.9792 51.7344 45.0138 51.6905 45.0607L51.2678 45.5312L50.8456 46.0021C50.802 46.0504 50.7723 46.1095 50.7596 46.1733C50.7469 46.237 50.7517 46.303 50.7736 46.3643C50.8004 46.4488 50.8559 46.5212 50.9305 46.5691C50.9641 46.5903 51.0004 46.6067 51.0385 46.6177L51.6541 46.7502L52.2697 46.883C52.3324 46.8971 52.3977 46.8945 52.459 46.8756C52.5204 46.8566 52.5758 46.822 52.6196 46.775C52.6632 46.7268 52.6928 46.6678 52.7055 46.6041C52.7182 46.5404 52.7134 46.4744 52.6916 46.4132L52.4983 45.8095L52.3054 45.2062C52.296 45.1625 52.2771 45.1214 52.2499 45.0859C52.2228 45.0505 52.1881 45.0214 52.1484 45.001V45.001Z" fill="#F9C126" stroke="#F9C126" stroke-width="0.335" stroke-miterlimit="10"/>
<path d="M43.9559 39.63L44.5715 39.4972L45.1871 39.3643L44.9942 39.9677L44.8009 40.5714L44.3786 40.1005L43.9559 39.63V39.63ZM43.6679 39.414C43.6434 39.4474 43.623 39.4837 43.6075 39.522C43.5888 39.5837 43.5857 39.6489 43.5982 39.7121C43.6108 39.7753 43.6387 39.8343 43.6795 39.8842L44.0999 40.3558L44.5222 40.8267C44.5652 40.8752 44.62 40.9118 44.6813 40.9329C44.7426 40.9541 44.8084 40.959 44.8721 40.9473C44.9585 40.9255 45.0348 40.8746 45.0881 40.8033C45.1127 40.77 45.1329 40.7337 45.1483 40.6953L45.3416 40.0919L45.5345 39.4882C45.5529 39.4269 45.556 39.362 45.5434 39.2992C45.5309 39.2364 45.5031 39.1777 45.4625 39.1282C45.4196 39.0795 45.3648 39.0428 45.3035 39.0216C45.2422 39.0004 45.1764 38.9954 45.1126 39.0072L44.497 39.1401L43.8814 39.2729C43.795 39.2946 43.7187 39.3455 43.6654 39.4169L43.6679 39.414Z" fill="#F9C126" stroke="#F9C126" stroke-width="0.335" stroke-miterlimit="10"/>
<path d="M43.0732 36.0092L43.1578 36.6367L43.242 37.2642L42.6505 37.023L42.0594 36.7814L42.5541 36.3955L43.0732 36.0092V36.0092ZM43.3144 35.7316C43.2828 35.7045 43.2461 35.6839 43.2064 35.6712C43.1467 35.6486 43.0824 35.6412 43.0192 35.6496C42.956 35.658 42.8959 35.682 42.8442 35.7194L42.3492 36.1057L41.8546 36.492C41.8033 36.5304 41.7638 36.5824 41.7403 36.642C41.7169 36.7016 41.7104 36.7666 41.7217 36.8296C41.737 36.9168 41.7792 36.997 41.8423 37.059C41.8739 37.0862 41.9106 37.1067 41.9503 37.1194L42.5418 37.361L43.1333 37.6022C43.1926 37.6244 43.2565 37.6316 43.3193 37.6232C43.3821 37.6148 43.4419 37.591 43.4933 37.554C43.5445 37.5154 43.5841 37.4634 43.6075 37.4037C43.631 37.3441 43.6374 37.279 43.6261 37.2159L43.5415 36.5884L43.4573 35.961C43.4238 35.8763 43.375 35.7986 43.3133 35.7316H43.3144Z" fill="#F9C126" stroke="#F9C126" stroke-width="0.335" stroke-miterlimit="10"/>
<path d="M39.1506 35.3815L39.7662 35.2486L40.3815 35.1162L40.1885 35.7195L39.9959 36.324L39.5733 35.8534L39.151 35.3826L39.1506 35.3815ZM38.8493 35.1532C38.8246 35.1865 38.8043 35.2228 38.7888 35.2612C38.7701 35.3229 38.7669 35.3882 38.7795 35.4513C38.792 35.5145 38.82 35.5736 38.8608 35.6234L39.2835 36.0939L39.7058 36.5648C39.7487 36.6134 39.8036 36.65 39.8649 36.6711C39.9262 36.6922 39.9919 36.6972 40.0557 36.6854C40.1421 36.6636 40.2183 36.6127 40.2717 36.5414C40.2963 36.5081 40.3165 36.4718 40.3318 36.4334L40.5251 35.83L40.7181 35.2263C40.7368 35.1647 40.74 35.0995 40.7274 35.0364C40.7149 34.9733 40.6869 34.9142 40.6461 34.8645C40.6032 34.8158 40.5484 34.7791 40.4871 34.7579C40.4257 34.7367 40.36 34.7318 40.2962 34.7436L39.6806 34.8764L39.065 35.0092C38.9799 35.034 38.9045 35.0842 38.849 35.1532H38.8493Z" fill="#F9C126" stroke="#F9C126" stroke-width="0.335" stroke-miterlimit="10"/>
<path d="M38.2575 31.7606L38.3417 32.3885L38.4263 33.016L37.8348 32.7748L37.2437 32.5332L37.7384 32.1469L38.2575 31.7606V31.7606ZM38.4987 31.4831C38.4671 31.456 38.4304 31.4356 38.3907 31.423C38.3311 31.4003 38.2667 31.3929 38.2035 31.4013C38.1403 31.4097 38.0802 31.4338 38.0285 31.4712L37.5335 31.8575L37.0389 32.2434C36.9876 32.282 36.9481 32.334 36.9247 32.3936C36.9012 32.4533 36.8948 32.5183 36.906 32.5814C36.9212 32.6686 36.9634 32.7488 37.0266 32.8108C37.0584 32.8377 37.0951 32.8582 37.1346 32.8712L37.7261 33.1124L38.3172 33.354C38.3769 33.3766 38.4412 33.384 38.5044 33.3756C38.5676 33.3671 38.6278 33.3432 38.6794 33.3058C38.7306 33.2672 38.7702 33.2152 38.7936 33.1555C38.8171 33.0959 38.8235 33.0308 38.8123 32.9677L38.7277 32.3402L38.6434 31.7124C38.6204 31.6229 38.57 31.5427 38.4994 31.4831H38.4987Z" fill="#F9C126" stroke="#F9C126" stroke-width="0.335" stroke-miterlimit="10"/>
<path d="M45.6562 35.5142L46.1872 35.8641L46.7182 36.2144L46.1508 36.492L45.5835 36.7695L45.6195 36.1417L45.6555 35.5142H45.6562ZM45.6069 35.1402C45.5641 35.1409 45.5224 35.1533 45.4863 35.1762C45.4296 35.2054 45.3811 35.2484 45.3453 35.3011C45.3095 35.3539 45.2874 35.4147 45.2811 35.4782L45.2451 36.1057L45.2091 36.7332C45.2026 36.798 45.2151 36.8634 45.2451 36.9213C45.275 36.9792 45.3212 37.0271 45.3779 37.0593C45.4523 37.1083 45.5414 37.1295 45.6299 37.1194C45.6726 37.1187 45.7144 37.1063 45.7505 37.0834L46.3179 36.8055L46.8849 36.528C46.9416 36.4989 46.9901 36.456 47.026 36.4033C47.0618 36.3506 47.0839 36.2897 47.0901 36.2263C47.0966 36.1614 47.0842 36.0961 47.0542 36.0382C47.0242 35.9804 46.978 35.9325 46.9212 35.9005L46.3902 35.5506L45.8592 35.2003C45.7849 35.1513 45.6957 35.13 45.6072 35.1402H45.6069Z" fill="#F9C126" stroke="#F9C126" stroke-width="0.335" stroke-miterlimit="10"/>
<path d="M44.1474 33.0039L44.461 32.4607L44.7749 31.9174L45.0888 32.4607L45.4028 33.0039H44.1474ZM43.7853 33.064C43.7964 33.1021 43.8126 33.1384 43.8335 33.172C43.8679 33.2274 43.9159 33.2731 43.9729 33.3046C44.03 33.3361 44.0942 33.3524 44.1593 33.352H45.4146C45.4782 33.3524 45.5407 33.336 45.5959 33.3043C45.651 33.2727 45.6968 33.2271 45.7286 33.172C45.7729 33.096 45.7899 33.0071 45.7768 32.92C45.7657 32.882 45.7495 32.8457 45.7286 32.812L45.4146 32.2688L45.1007 31.7259C45.0665 31.6704 45.0185 31.6247 44.9614 31.5932C44.9044 31.5617 44.8401 31.5454 44.7749 31.5459C44.7114 31.5455 44.6488 31.562 44.5937 31.5936C44.5386 31.6252 44.4928 31.6709 44.461 31.7259L44.1474 32.2688L43.8335 32.812C43.8061 32.8472 43.7875 32.8884 43.7791 32.9322C43.7707 32.976 43.7728 33.0212 43.7853 33.064V33.064Z" fill="#F9C126" stroke="#F9C126" stroke-width="0.335" stroke-miterlimit="10"/>
<path d="M40.8524 31.2537L41.3834 31.6036L41.9144 31.9539L41.3474 32.2315L40.7801 32.509L40.8161 31.8815L40.8521 31.2537H40.8524ZM40.8038 30.8915C40.7611 30.8922 40.7193 30.9047 40.6832 30.9275C40.6265 30.9566 40.578 30.9995 40.5421 31.0522C40.5063 31.1049 40.4842 31.1658 40.478 31.2292L40.442 31.8571L40.406 32.4845C40.3994 32.5494 40.4119 32.6147 40.4419 32.6726C40.4719 32.7305 40.5181 32.7783 40.5749 32.8103C40.6492 32.8594 40.7384 32.8808 40.8269 32.8708C40.8696 32.8702 40.9113 32.8577 40.9474 32.8348L41.5148 32.5573L42.0822 32.2797C42.1388 32.2505 42.1872 32.2076 42.223 32.1549C42.2589 32.1022 42.281 32.0414 42.2874 31.978C42.2939 31.9132 42.2813 31.8478 42.2513 31.7899C42.2212 31.7321 42.175 31.6842 42.1182 31.6522L41.5872 31.3019L41.0562 30.952C40.9813 30.9042 40.8926 30.8829 40.8042 30.8915H40.8038Z" fill="#F9C126" stroke="#F9C126" stroke-width="0.335" stroke-miterlimit="10"/>
<path d="M48.456 41.1025L48.142 41.6458L47.8281 42.1886L47.5146 41.6335L47.2007 41.0784H47.8281L48.456 41.1025V41.1025ZM48.8181 41.0305L48.7821 40.9225C48.7523 40.8658 48.7069 40.8188 48.6513 40.7869C48.5957 40.7551 48.5322 40.7397 48.4682 40.7425H47.2132C47.1483 40.7435 47.0846 40.7604 47.0277 40.7918C46.9708 40.8232 46.9225 40.8681 46.8871 40.9225C46.8417 40.9982 46.8247 41.0875 46.8389 41.1745L46.8748 41.2825L47.1884 41.8376L47.5023 42.3928C47.5321 42.4495 47.5775 42.4966 47.6331 42.5285C47.6887 42.5604 47.7522 42.5757 47.8162 42.5728C47.8811 42.5718 47.9448 42.5548 48.0016 42.5234C48.0584 42.492 48.1067 42.4472 48.142 42.3928L48.456 41.8499L48.7695 41.3066C48.8195 41.2233 48.8369 41.1244 48.8181 41.0291V41.0305Z" fill="#F9C126" stroke="#F9C126" stroke-width="0.335" stroke-miterlimit="10"/>
<path d="M51.522 55.5618L52.089 55.8394L52.6564 56.117L52.1254 56.4669L51.5944 56.8172L51.5584 56.1893L51.5224 55.5618H51.522ZM51.4378 55.2119C51.3997 55.2229 51.3634 55.2391 51.3298 55.2602C51.2767 55.2961 51.2335 55.3447 51.204 55.4016C51.1745 55.4585 51.1597 55.5219 51.161 55.586L51.197 56.2134L51.233 56.8413C51.2374 56.9067 51.2587 56.97 51.2946 57.0249C51.3305 57.0798 51.38 57.1245 51.4382 57.1548C51.5167 57.1923 51.6059 57.2008 51.6902 57.179C51.7282 57.1679 51.7646 57.1517 51.7982 57.1307L52.3292 56.7808L52.8602 56.4309C52.915 56.3957 52.9595 56.3466 52.9892 56.2885C53.0188 56.2305 53.0325 56.1656 53.0289 56.1005C53.0252 56.0354 53.0043 55.9725 52.9683 55.9181C52.9324 55.8638 52.8826 55.82 52.8242 55.7912L52.2572 55.5136L51.6898 55.236C51.6113 55.1984 51.522 55.1899 51.4378 55.2119V55.2119Z" fill="#F9C126" stroke="#F9C126" stroke-width="0.335" stroke-miterlimit="10"/>
<path d="M40.5143 43.8421L40.2008 44.3854L39.8879 44.9279L39.574 44.3728L39.2601 43.8173H39.8879L40.5154 43.8414L40.5143 43.8421ZM40.8776 43.7813L40.8416 43.6733C40.8118 43.6165 40.7665 43.5695 40.711 43.5376C40.6555 43.5057 40.592 43.4903 40.528 43.4933H39.2727C39.2078 43.4943 39.1441 43.5112 39.0873 43.5426C39.0305 43.574 38.9823 43.6189 38.9469 43.6733C38.9014 43.7489 38.8843 43.8382 38.8986 43.9253L38.9346 44.0333L39.2486 44.5884L39.5625 45.1435C39.5922 45.2002 39.6375 45.2473 39.693 45.2792C39.7486 45.3111 39.8121 45.3264 39.876 45.3235C39.941 45.3226 40.0047 45.3056 40.0616 45.2743C40.1185 45.2429 40.1668 45.198 40.2022 45.1435L40.5158 44.6006L40.8297 44.0574C40.8568 44.0171 40.8751 43.9716 40.8834 43.9238C40.8917 43.8759 40.8898 43.8269 40.8779 43.7798L40.8776 43.7813Z" fill="#F9C126" stroke="#F9C126" stroke-width="0.335" stroke-miterlimit="10"/>
<path d="M44.2439 55.8273L44.8354 55.598L45.4269 55.3687L45.33 55.9966L45.2335 56.624L44.7389 56.2378L44.2439 55.8273ZM43.9181 55.6585C43.8937 55.6939 43.8811 55.7361 43.8821 55.7791C43.8715 55.8422 43.8782 55.907 43.9016 55.9666C43.925 56.0261 43.9642 56.0782 44.0149 56.1171L44.5099 56.5034L45.0046 56.8897C45.0551 56.9293 45.1154 56.9547 45.1791 56.9632C45.2428 56.9717 45.3076 56.963 45.3667 56.938C45.4487 56.9056 45.5169 56.8458 45.5597 56.7687C45.5841 56.7334 45.5967 56.6911 45.5957 56.6482L45.6922 56.0207L45.7887 55.3928C45.7993 55.3298 45.7926 55.2651 45.7693 55.2056C45.746 55.1461 45.7069 55.0941 45.6562 55.0551C45.6056 55.0155 45.5454 54.9902 45.4817 54.9817C45.418 54.9732 45.3532 54.9819 45.294 55.0069L44.7025 55.2362L44.1111 55.4655C44.0324 55.5138 43.9663 55.5799 43.9181 55.6585V55.6585Z" fill="#F9C126" stroke="#F9C126" stroke-width="0.335" stroke-miterlimit="10"/>
<path d="M42.7352 52.424L42.9286 53.0273L43.1215 53.6311L42.5059 53.4982L41.8903 53.3654L42.313 52.8945L42.7352 52.424V52.424ZM42.9286 52.1101C42.8949 52.0892 42.8586 52.073 42.8206 52.0618C42.7579 52.0479 42.6926 52.0505 42.6313 52.0694C42.5699 52.0883 42.5145 52.123 42.4706 52.1698L42.048 52.6403L41.6257 53.1112C41.5821 53.1595 41.5524 53.2186 41.5397 53.2824C41.5271 53.3461 41.5319 53.4121 41.5537 53.4734C41.5804 53.558 41.6358 53.6305 41.7103 53.6786C41.744 53.6994 41.7803 53.7157 41.8183 53.7268L42.4339 53.8597L43.0495 53.9921C43.1122 54.0061 43.1774 54.0034 43.2388 53.9845C43.3001 53.9656 43.3555 53.931 43.3994 53.8841C43.4428 53.8358 43.4724 53.7766 43.4851 53.7129C43.4977 53.6492 43.493 53.5833 43.4714 53.522L43.2785 52.9201L43.0852 52.3167C43.0753 52.2733 43.0563 52.2324 43.0292 52.197C43.0022 52.1616 42.9679 52.1324 42.9286 52.1115V52.1101Z" fill="#F9C126" stroke="#F9C126" stroke-width="0.335" stroke-miterlimit="10"/>
<path d="M42.4457 46.2201L42.6387 46.8238L42.8317 47.4272L42.2164 47.2943L41.6008 47.1615L42.0231 46.691L42.4457 46.2201V46.2201ZM42.6387 45.9065C42.6051 45.8854 42.5688 45.869 42.5307 45.8579C42.468 45.844 42.4028 45.8466 42.3414 45.8656C42.2801 45.8845 42.2247 45.9191 42.1808 45.9659L41.7585 46.4368L41.3351 46.9081C41.2917 46.9564 41.2622 47.0155 41.2495 47.0793C41.2368 47.143 41.2415 47.2089 41.2631 47.2702C41.2899 47.3548 41.3454 47.4275 41.4201 47.4754C41.4536 47.4965 41.49 47.5127 41.5281 47.5236L42.1437 47.6565L42.7593 47.7893C42.822 47.8033 42.8872 47.8007 42.9486 47.7817C43.0099 47.7628 43.0653 47.7282 43.1092 47.6813C43.1526 47.633 43.1822 47.5738 43.1948 47.5101C43.2075 47.4464 43.2028 47.3804 43.1812 47.3192L42.9879 46.7158L42.7949 46.1121C42.7715 46.0259 42.7151 45.9523 42.638 45.9072L42.6387 45.9065Z" fill="#F9C126" stroke="#F9C126" stroke-width="0.335" stroke-miterlimit="10"/>
<path d="M34.6244 36.7695L34.5524 36.1417L34.4804 35.5142L35.0596 35.7662L35.6389 36.0182L35.132 36.3926L34.6251 36.7666L34.6244 36.7695ZM34.3731 37.0442C34.4006 37.0711 34.4335 37.0917 34.4696 37.1047C34.5282 37.1292 34.592 37.1387 34.6552 37.1324C34.7184 37.1261 34.7791 37.1042 34.8318 37.0687L35.3386 36.6946L35.8455 36.3202C35.8892 36.2879 35.9252 36.2462 35.9507 36.1981C35.9762 36.1501 35.9907 36.0969 35.993 36.0426C35.9954 35.9882 35.9856 35.9341 35.9643 35.884C35.943 35.8339 35.9108 35.7893 35.87 35.7533C35.8424 35.7264 35.8094 35.7057 35.7732 35.6928L35.1939 35.4408L34.6147 35.1888C34.5561 35.1643 34.4923 35.1548 34.4291 35.1611C34.3658 35.1673 34.3052 35.1892 34.2525 35.2248C34.2004 35.263 34.1595 35.3146 34.1341 35.374C34.1088 35.4335 34.1 35.4987 34.1085 35.5628L34.1805 36.1906L34.2525 36.8181C34.2679 36.9053 34.31 36.9854 34.3731 37.0474V37.0442Z" fill="#F9C126" stroke="#F9C126" stroke-width="0.335" stroke-miterlimit="10"/>
<path d="M38.4746 38.7972L37.8471 38.9052L37.2192 39.0132L37.4352 38.4217L37.6512 37.8302L38.0616 38.313L38.472 38.7957L38.4746 38.7972ZM38.7618 39.025C38.7864 38.9917 38.8067 38.9554 38.8223 38.917C38.8457 38.8568 38.8524 38.7914 38.8417 38.7277C38.8311 38.664 38.8035 38.6043 38.7618 38.5549L38.3514 38.0721L37.941 37.5894C37.8981 37.5407 37.8433 37.504 37.782 37.4828C37.7207 37.4616 37.6549 37.4566 37.5911 37.4684C37.548 37.4747 37.5066 37.4898 37.4694 37.5126C37.4323 37.5354 37.4002 37.5656 37.3751 37.6012C37.3505 37.6345 37.3303 37.6708 37.315 37.7092L37.099 38.3007L36.883 38.8922C36.86 38.9521 36.8535 39.0171 36.864 39.0804C36.8746 39.1437 36.9019 39.203 36.9431 39.2522C36.9861 39.3009 37.0409 39.3376 37.1023 39.3588C37.1637 39.38 37.2295 39.385 37.2934 39.3732L37.9209 39.2652L38.5484 39.1572C38.5915 39.1509 38.6329 39.1359 38.6701 39.1131C38.7072 39.0902 38.7393 39.06 38.7644 39.0243L38.7618 39.025Z" fill="#F9C126" stroke="#F9C126" stroke-width="0.335" stroke-miterlimit="10"/>
<path d="M40.4178 40.9938L40.3458 40.3663L40.2738 39.7385L40.853 39.9905L41.4323 40.2425L40.9254 40.6165L40.4185 40.9906L40.4178 40.9938ZM40.1773 41.2562C40.2046 41.2832 40.2376 41.3037 40.2738 41.3164C40.3324 41.3409 40.3962 41.3505 40.4594 41.3442C40.5227 41.3379 40.5833 41.316 40.636 41.2804L41.1428 40.906L41.6497 40.5319C41.6934 40.4995 41.7292 40.4577 41.7547 40.4096C41.7801 40.3615 41.7945 40.3083 41.7969 40.254C41.7992 40.1996 41.7893 40.1454 41.768 40.0954C41.7468 40.0453 41.7146 40.0006 41.6738 39.9646C41.6465 39.9377 41.6135 39.9172 41.5774 39.9044L40.9978 39.6524L40.4185 39.4004C40.3599 39.376 40.2961 39.3664 40.2329 39.3727C40.1697 39.379 40.109 39.4009 40.0564 39.4364C40.0042 39.4747 39.9633 39.5262 39.938 39.5857C39.9126 39.6452 39.9038 39.7104 39.9124 39.7745L39.9844 40.402L40.0564 41.0298C40.0601 41.0742 40.0727 41.1174 40.0935 41.1568C40.1143 41.1962 40.1428 41.231 40.1773 41.2591V41.2562Z" fill="#F9C126" stroke="#F9C126" stroke-width="0.335" stroke-miterlimit="10"/>
<path d="M33.5984 32.883L33.2744 33.4263L32.9486 33.9695L32.6469 33.414L32.3452 32.8589L32.9727 32.8711L33.6002 32.883H33.5984ZM33.9623 32.8229L33.9263 32.7149C33.8973 32.6565 33.8525 32.6075 33.797 32.5733C33.7415 32.5391 33.6776 32.5212 33.6124 32.5216L32.9831 32.5079L32.3553 32.4957C32.3006 32.4948 32.2464 32.506 32.1965 32.5284C32.1466 32.5508 32.1023 32.5839 32.0666 32.6254C32.0309 32.6668 32.0048 32.7156 31.99 32.7683C31.9753 32.821 31.9723 32.8762 31.9813 32.9302L32.0173 33.0382L32.3193 33.5933L32.621 34.1488C32.65 34.2071 32.6948 34.2561 32.7503 34.2902C32.8058 34.3244 32.8697 34.3422 32.9349 34.3417C33.0003 34.3433 33.0649 34.3274 33.1221 34.2958C33.1794 34.2642 33.2272 34.2179 33.2607 34.1617L33.5865 33.6185L33.9105 33.0756C33.955 32.9996 33.972 32.9107 33.9587 32.8236L33.9623 32.8229Z" fill="#F9C126" stroke="#F9C126" stroke-width="0.335" stroke-miterlimit="10"/>
<path d="M48.3235 27.6934L48.5164 32.171C48.5253 32.3617 48.4757 32.5506 48.3744 32.7123C48.2731 32.8741 48.1248 33.0011 47.9494 33.0764C47.7505 33.1643 47.5311 33.195 47.3157 33.1651C47.1004 33.1352 46.8976 33.0459 46.7301 32.9072C46.6097 32.8179 46.5119 32.7014 46.4449 32.5673C46.3778 32.4331 46.3433 32.285 46.3442 32.135C46.3442 31.3866 46.2474 28.4659 46.2002 28.4296" fill="#FFC3A9"/>
<path d="M48.3235 27.6934L48.5164 32.171C48.5253 32.3617 48.4757 32.5506 48.3744 32.7123C48.2731 32.8741 48.1248 33.0011 47.9494 33.0764C47.7505 33.1643 47.5311 33.195 47.3157 33.1651C47.1004 33.1352 46.8976 33.0459 46.7301 32.9072C46.6097 32.8179 46.5119 32.7014 46.4449 32.5673C46.3778 32.4331 46.3433 32.285 46.3442 32.135C46.3442 31.3866 46.2474 28.4659 46.2002 28.4296" stroke="#E89589" stroke-width="1.006" stroke-linecap="round" stroke-linejoin="round"/>
<path d="M50.1218 22.8535C50.2064 22.6242 51.5704 21.3448 52.0298 22.3585C52.4891 23.3723 50.2434 24.6758 50.026 24.6517" fill="#EFCABB"/>
<path d="M50.1218 22.8535C50.2064 22.6242 51.5704 21.3448 52.0298 22.3585C52.4891 23.3723 50.2434 24.6758 50.026 24.6517" stroke="#E89589" stroke-width="1.006" stroke-linecap="round" stroke-linejoin="round"/>
<path d="M41.9868 22.2498C41.9868 22.2498 43.0851 30.2418 47.5268 29.0452C50.9306 27.9346 50.4478 23.9519 49.8441 21.1756C49.8441 21.1756 49.1202 17.6757 45.1371 18.3996C41.661 19.0394 41.9868 22.2498 41.9868 22.2498Z" fill="#FFC3A9" stroke="#E89589" stroke-width="1.006" stroke-miterlimit="10"/>
<path d="M44.172 23.2395C44.2926 23.7226 45.0169 23.9638 45.0169 23.2395" stroke="#E89589" stroke-width="1.006" stroke-linecap="round" stroke-linejoin="round"/>
<path d="M43.9301 21.55C44.0546 21.3746 44.2168 21.2294 44.4048 21.1249C44.5928 21.0204 44.8018 20.9594 45.0165 20.9463" fill="#465CFF"/>
<path d="M43.9301 21.55C44.0546 21.3746 44.2168 21.2294 44.4048 21.1249C44.5928 21.0204 44.8018 20.9594 45.0165 20.9463" stroke="#465CFF" stroke-width="1.006" stroke-linecap="round" stroke-linejoin="round"/>
<path d="M48.7097 22.793C48.6975 23.288 48.0459 23.6861 47.8889 22.9859" stroke="#E89589" stroke-width="1.006" stroke-linecap="round" stroke-linejoin="round"/>
<path d="M48.577 21.0913C48.4158 20.9489 48.2251 20.8437 48.0186 20.7831C47.8121 20.7226 47.5949 20.7082 47.3822 20.741" fill="#465CFF"/>
<path d="M48.577 21.0913C48.4158 20.9489 48.2251 20.8437 48.0186 20.7831C47.8121 20.7226 47.5949 20.7082 47.3822 20.741" stroke="#465CFF" stroke-width="1.006" stroke-linecap="round" stroke-linejoin="round"/>
<path d="M46.9476 23.7241C47.0682 24.2069 47.9131 26.3791 46.827 25.6552" stroke="#E89589" stroke-width="1.006" stroke-linecap="round" stroke-linejoin="round"/>
<path d="M45.6199 26.4985C45.8614 26.9813 46.5854 27.4641 47.1888 27.2225C46.4648 27.828 45.8614 28.0674 45.6199 26.4985Z" fill="#FF859B" stroke="#FF859B" stroke-width="1.006" stroke-linecap="round" stroke-linejoin="round"/>
<path d="M50.0857 22.7567C50.5684 21.1878 50.9306 13.2217 43.4473 11.0495C38.4987 9.72179 40.5507 12.9805 40.5507 12.9805C38.9815 11.4113 35.24 11.6528 37.6538 14.791C36.4471 15.1531 36.2055 17.0842 38.4987 17.203C37.0504 17.5651 37.0504 18.5306 38.2575 19.134C39.4646 19.7374 41.9871 22.9118 42.1678 23.5033C41.7578 20.705 44.172 17.928 46.9476 18.5324C49.7232 19.1369 49.7235 21.7912 50.0857 22.7567Z" fill="#465CFF" stroke="#465CFF" stroke-width="0.335" stroke-miterlimit="10"/>
<path d="M79.101 37.1679L76.8438 38.9679C76.6692 39.1067 76.4467 39.1706 76.2251 39.1457C76.0034 39.1208 75.8007 39.0091 75.6612 38.8351L71.532 33.6557C71.3932 33.4811 71.3292 33.2586 71.354 33.0369C71.3788 32.8152 71.4905 32.6124 71.6645 32.4728L73.9217 30.6728C74.0963 30.5339 74.3189 30.4699 74.5406 30.4948C74.7624 30.5197 74.9652 30.6315 75.1047 30.8056L79.2324 35.9713C79.3723 36.1479 79.437 36.3726 79.4124 36.5966C79.3878 36.8206 79.2759 37.0258 79.101 37.1679Z" fill="#621CD1" stroke="#621CD1" stroke-width="0.335" stroke-miterlimit="10"/>
<path d="M42.0722 24.7243C42.2703 24.5888 42.2936 24.2782 42.1242 24.0306C41.9548 23.7829 41.657 23.692 41.4589 23.8275C41.2608 23.9629 41.2375 24.2735 41.4069 24.5212C41.5763 24.7688 41.8741 24.8597 42.0722 24.7243Z" fill="#621CD1"/>
<path d="M51.2155 23.5114C51.3394 23.2382 51.2627 22.9363 51.0442 22.8372C50.8256 22.7381 50.548 22.8792 50.4241 23.1525C50.3002 23.4257 50.3769 23.7276 50.5954 23.8267C50.814 23.9258 51.0916 23.7846 51.2155 23.5114Z" fill="#621CD1"/>
<path d="M41.8179 24.2639C41.8179 24.2639 40.7318 31.6266 43.1456 34.0404C45.5594 36.4542 51.3536 34.0404 55.0943 30.5402C59.9223 26.5571 70.7972 22.852 73.8025 23.419C75.7335 23.7812 79.1128 24.7467 75.9751 27.402C74.4058 28.7297 71.992 29.6952 72.716 31.5662" stroke="#621CD1" stroke-width="1.006" stroke-linecap="round" stroke-linejoin="round"/>
<path d="M50.8098 23.481C50.8098 23.481 50.4498 26.1363 51.6547 26.8603C52.8596 27.5842 57.5929 26.1482 58.6552 26.8603C59.3792 27.3434 59.4156 27.7779 59.4156 27.7779" stroke="#621CD1" stroke-width="1.006" stroke-linecap="round" stroke-linejoin="round"/>
<path d="M75.312 33.1364C74.7083 33.6192 73.6222 34.585 73.7428 35.0678C73.8634 35.5506 74.2255 35.309 74.5877 35.0678C74.9499 34.8266 75.7948 34.1019 75.7948 34.1019C75.7948 34.1019 73.6222 35.7918 73.9843 36.2745C74.3465 36.7573 76.3981 35.309 76.3981 35.309C76.3981 35.309 74.4671 36.7573 74.8289 37.1194C75.1907 37.4816 76.8809 36.3955 76.8809 36.3955C76.8809 36.3955 75.2393 37.6504 75.4326 37.8438C75.7948 38.2059 78.6913 36.9988 79.0535 36.3955C79.4157 35.7921 79.1741 35.309 78.5707 35.5506C78.8119 35.1884 79.0535 34.1019 77.967 34.585C78.4498 33.8607 78.3292 33.0158 77.2431 33.4986C77.4843 32.8952 77.4843 32.1709 76.6393 32.4124C76.1585 32.5755 75.7095 32.8204 75.312 33.1364V33.1364Z" fill="#EFCABB" stroke="#D6906B" stroke-width="1.006" stroke-linecap="round" stroke-linejoin="round"/>
<path d="M72.0281 35.5627C72.2214 34.5853 72.9453 33.4506 73.1869 33.7163C73.4285 33.9819 73.1509 35.2005 73.0429 35.6351C72.9349 36.0696 71.7386 37.0232 72.0281 35.5627Z" fill="#EFCABB" stroke="#D6906B" stroke-width="1.006" stroke-linecap="round" stroke-linejoin="round"/>
<path d="M46.1632 73.1474C46.2597 72.9674 46.3562 72.7493 46.4768 72.4958" stroke="#FF5C76" stroke-width="1.006" stroke-linecap="round" stroke-linejoin="round"/>
<path d="M47.1647 71.023C48.3235 68.5005 49.9529 64.8436 50.8342 62.8398" stroke="#FF5C76" stroke-width="1.006" stroke-linecap="round" stroke-linejoin="round" stroke-dasharray="4.53 4.53"/>
<path d="M51.1718 62.1035C51.3287 61.7414 51.4374 61.5121 51.4734 61.4397C51.6573 61.5991 51.8197 61.7817 51.9566 61.9829" stroke="#FF5C76" stroke-width="1.006" stroke-linecap="round" stroke-linejoin="round"/>
<path d="M52.6807 63.0813C54.1531 65.5192 56.0603 69.7679 57.1087 71.9283" stroke="#FF5C76" stroke-width="1.006" stroke-linecap="round" stroke-linejoin="round" stroke-dasharray="3.66 3.66"/>
<path d="M57.3999 72.5076C57.501 72.729 57.6179 72.9428 57.7498 73.1473" stroke="#FF5C76" stroke-width="1.006" stroke-linecap="round" stroke-linejoin="round"/>
<path d="M29.9174 55.4293L27.5277 55.0553L25.1377 54.669L26.6587 52.7981L28.1793 50.9153L29.0484 53.1725L29.9174 55.4293Z" fill="#621CD1" stroke="#621CD1" stroke-width="0.335" stroke-miterlimit="10"/>
<path d="M24.7273 55.2239C24.6254 55.1455 24.5463 55.0414 24.498 54.9223C24.4553 54.81 24.4428 54.6884 24.4617 54.5698C24.4807 54.4512 24.5304 54.3396 24.606 54.2462L27.648 50.4928C27.7241 50.3995 27.8235 50.328 27.9361 50.2854C28.0486 50.2429 28.1705 50.2307 28.2892 50.2503C28.408 50.2699 28.5195 50.3205 28.6125 50.3969C28.7055 50.4734 28.7766 50.573 28.8187 50.6858L30.5568 55.1998C30.5998 55.312 30.6125 55.4335 30.5934 55.5522C30.5744 55.6708 30.5244 55.7823 30.4484 55.8753C30.3725 55.9684 30.2733 56.0398 30.1609 56.0823C30.0485 56.1247 29.9269 56.1367 29.8084 56.1171L25.0294 55.3679C24.9232 55.3324 24.8218 55.284 24.7273 55.2239V55.2239ZM27.9742 52.2669L26.4172 54.1861L28.8555 54.5723L27.9742 52.2669Z" fill="#621CD1" stroke="#621CD1" stroke-width="0.335" stroke-miterlimit="10"/>
<path d="M7.8905 47.053L9.20594 49.177" stroke="#465CFF" stroke-width="0.335" stroke-miterlimit="10"/>
<path d="M9.41115 49.515C9.36721 49.5435 9.3179 49.5628 9.26626 49.5715C9.21462 49.5803 9.16173 49.5784 9.11085 49.5659C9.05997 49.5535 9.01217 49.5308 8.97039 49.4992C8.92862 49.4676 8.89374 49.4278 8.86791 49.3822L7.55247 47.2701C7.50451 47.1807 7.49264 47.0764 7.51933 46.9786C7.54601 46.8807 7.6092 46.7969 7.69588 46.7443C7.78257 46.6916 7.88613 46.6743 7.98524 46.6958C8.08434 46.7172 8.17143 46.7759 8.22855 46.8597L9.54399 48.9837C9.59606 49.0719 9.61131 49.1772 9.58645 49.2766C9.5616 49.376 9.49863 49.4617 9.41115 49.515V49.515Z" fill="#465CFF" stroke="#465CFF" stroke-width="0.335" stroke-miterlimit="10"/>
<path d="M8.95239 46.4011L10.2682 48.5255" stroke="#465CFF" stroke-width="0.335" stroke-miterlimit="10"/>
<path d="M10.4732 48.8635C10.4292 48.8919 10.3799 48.9111 10.3283 48.9198C10.2767 48.9285 10.2239 48.9266 10.1731 48.9142C10.1222 48.9017 10.0745 48.879 10.0327 48.8475C9.99096 48.8159 9.9561 48.7762 9.93027 48.7306L8.61447 46.6066C8.58418 46.5622 8.56326 46.5121 8.55297 46.4593C8.54268 46.4065 8.54325 46.3522 8.55464 46.2997C8.56602 46.2471 8.58799 46.1975 8.6192 46.1537C8.65041 46.1099 8.69021 46.0729 8.73617 46.045C8.78213 46.0171 8.83329 45.9989 8.88653 45.9914C8.93977 45.9839 8.99398 45.9874 9.04585 46.0015C9.09772 46.0157 9.14617 46.0402 9.18824 46.0737C9.23031 46.1072 9.26512 46.1489 9.29055 46.1962L10.606 48.3202C10.6342 48.3643 10.6533 48.4136 10.6619 48.4652C10.6705 48.5167 10.6685 48.5695 10.6561 48.6204C10.6437 48.6712 10.621 48.7189 10.5896 48.7607C10.5581 48.8025 10.5185 48.8375 10.4732 48.8635V48.8635Z" fill="#465CFF" stroke="#465CFF" stroke-width="0.335" stroke-miterlimit="10"/>
<path d="M100.995 73.5335L100.09 74.5113L99.1847 75.4887L98.7865 74.2093L98.4003 72.9302L99.7038 73.2319L100.995 73.5335Z" fill="#3E9FF8" stroke="#3E9FF8" stroke-width="0.335" stroke-miterlimit="10"/>
<path d="M99.2934 75.8521C99.2459 75.8687 99.1955 75.8756 99.1453 75.8724C99.0951 75.8693 99.046 75.856 99.001 75.8335C98.956 75.811 98.9159 75.7797 98.8832 75.7415C98.8505 75.7033 98.8258 75.6589 98.8106 75.6109L98.0262 73.052C98.0059 72.9897 98.0031 72.923 98.0179 72.8592C98.0327 72.7954 98.0647 72.7369 98.1104 72.6899C98.1557 72.6412 98.2131 72.6056 98.2768 72.5866C98.3405 72.5676 98.408 72.566 98.4726 72.5819L101.08 73.1856C101.143 73.2011 101.202 73.2322 101.251 73.2763C101.299 73.3203 101.336 73.3757 101.357 73.4376C101.377 73.4999 101.38 73.5666 101.365 73.6304C101.35 73.6943 101.318 73.7528 101.273 73.7997L99.4503 75.7549C99.4045 75.7968 99.3513 75.8297 99.2934 75.8521V75.8521ZM98.9553 73.4502L99.3538 74.7537L100.283 73.7519L98.9553 73.4502Z" fill="#3E9FF8" stroke="#3E9FF8" stroke-width="0.335" stroke-miterlimit="10"/>
<path d="M101.2 72.0247L102.021 74.5954" stroke="#3E9FF8" stroke-width="0.335" stroke-miterlimit="10"/>
<path d="M102.142 74.9578C102.047 74.9867 101.945 74.9776 101.858 74.9326C101.77 74.8876 101.703 74.8101 101.671 74.7166L100.85 72.1454C100.82 72.051 100.828 71.9484 100.874 71.8601C100.919 71.7718 100.997 71.7052 101.092 71.6747C101.186 71.6443 101.289 71.6527 101.377 71.698C101.465 71.7432 101.532 71.8217 101.562 71.9161L102.383 74.4872C102.412 74.5817 102.403 74.6836 102.358 74.7715C102.313 74.8593 102.235 74.9261 102.142 74.9578V74.9578Z" fill="#3E9FF8" stroke="#3E9FF8" stroke-width="0.335" stroke-miterlimit="10"/>
<path d="M15.9408 95.9105L14.9994 97.5158L14.0457 99.121L13.1285 97.4916L12.2112 95.8745L14.0821 95.8864L15.9408 95.9105Z" fill="#621CD1" stroke="#621CD1" stroke-width="0.335" stroke-miterlimit="10"/>
<path d="M14.3114 99.5676C14.231 99.6151 14.1392 99.64 14.0457 99.6396C13.953 99.6381 13.8621 99.6129 13.7819 99.5664C13.7016 99.5199 13.6345 99.4536 13.5871 99.3739L11.7511 96.1274C11.7066 96.046 11.6833 95.9547 11.6833 95.8619C11.6833 95.7691 11.7066 95.6778 11.7511 95.5964C11.7974 95.5166 11.8646 95.451 11.9454 95.4066C12.0262 95.3622 12.1176 95.3407 12.2097 95.3444L15.9394 95.3804C16.0321 95.3818 16.123 95.4069 16.2033 95.4535C16.2836 95.5 16.3506 95.5663 16.398 95.6461C16.4425 95.7275 16.4659 95.8188 16.4659 95.9116C16.4659 96.0044 16.4425 96.0957 16.398 96.1771L14.5029 99.3876C14.4576 99.4646 14.3912 99.5271 14.3114 99.5676V99.5676ZM13.1285 96.4053L14.0699 98.0588L15.0357 96.4172L13.1285 96.4053Z" fill="#621CD1" stroke="#621CD1" stroke-width="0.335" stroke-miterlimit="10"/>
<path d="M18.1376 94.6316L17.1839 96.2368L16.2425 97.842L15.3252 96.2246L14.408 94.5952L16.2789 94.6193L18.1376 94.6316Z" fill="#621CD1" stroke="#621CD1" stroke-width="0.335" stroke-miterlimit="10"/>
<path d="M16.5081 98.3005C16.4277 98.3481 16.3359 98.3729 16.2424 98.3725C16.1496 98.3711 16.0588 98.346 15.9785 98.2995C15.8982 98.253 15.8312 98.1867 15.7838 98.1069L13.9478 94.8481C13.9032 94.7667 13.8799 94.6754 13.8799 94.5826C13.8799 94.4898 13.9032 94.3985 13.9478 94.3171C13.991 94.2347 14.0575 94.1668 14.1391 94.1219C14.2207 94.0771 14.3137 94.0573 14.4064 94.0651L18.136 94.1011C18.2288 94.1025 18.3197 94.1277 18.4 94.1742C18.4803 94.2207 18.5473 94.287 18.5947 94.3668C18.6392 94.4482 18.6626 94.5395 18.6626 94.6323C18.6626 94.7251 18.6392 94.8164 18.5947 94.8978L16.6996 98.1083C16.6516 98.1864 16.586 98.2522 16.5081 98.3005V98.3005ZM15.3133 95.1261L16.2547 96.7795L17.2202 95.1383L15.3133 95.1261Z" fill="#621CD1" stroke="#621CD1" stroke-width="0.335" stroke-miterlimit="10"/>
<path d="M18.1252 10.7962L21.0463 5.46133C21.176 5.27198 21.2283 5.04008 21.1924 4.81335C21.1564 4.58661 21.0349 4.38228 20.8529 4.24237L20.7809 4.20637C20.7568 4.19413 20.7327 4.17037 20.7089 4.15813L16.5812 1.89013C16.4066 1.79653 16.2021 1.77572 16.0122 1.83222C15.8223 1.88873 15.6624 2.01798 15.5674 2.19181C15.5552 2.21593 15.5433 2.25229 15.5314 2.27641L15.4594 2.38441L12.8631 7.13893C12.6815 7.09144 12.4955 7.06308 12.308 7.05433C11.4148 7.04245 10.6905 7.52521 10.6783 8.14081C10.666 8.75641 11.3785 9.27517 12.2594 9.28741C13.0319 9.29929 13.6717 8.93713 13.8405 8.44249L16.5081 3.56629L19.4651 5.18413L17.1115 9.46813C16.9299 9.42044 16.7438 9.39208 16.5563 9.38353C15.6632 9.37129 14.9389 9.85405 14.927 10.4697C14.9151 11.0853 15.6268 11.6044 16.5081 11.6163C17.3159 11.653 17.9564 11.2908 18.1252 10.7962Z" fill="#621CD1" stroke="#621CD1" stroke-width="0.335" stroke-miterlimit="10"/>
<path d="M22.6152 29.5039V25.6296C22.6332 25.5564 22.6344 25.4801 22.6185 25.4063C22.6027 25.3326 22.5703 25.2635 22.5238 25.2041C22.4773 25.1448 22.4179 25.0968 22.3501 25.0638C22.2823 25.0308 22.2079 25.0137 22.1325 25.0137C22.0571 25.0137 21.9827 25.0308 21.9149 25.0638C21.8471 25.0968 21.7877 25.1448 21.7412 25.2041C21.6947 25.2635 21.6623 25.3326 21.6464 25.4063C21.6306 25.4801 21.6317 25.5564 21.6497 25.6296V29.0694C21.5374 29.0989 21.4283 29.1393 21.3239 29.19C20.8289 29.4557 20.5636 29.9503 20.7447 30.3006C20.9257 30.6509 21.4809 30.7229 21.9755 30.4572C22.1688 30.3857 22.3347 30.2552 22.4495 30.084C22.5644 29.9129 22.6223 29.7099 22.6152 29.5039V29.5039Z" fill="#465CFF" stroke="#465CFF" stroke-width="0.335" stroke-miterlimit="10"/>
<path d="M11.7647 20.5481L9.16986 17.1083C9.08642 16.9678 8.95156 16.8653 8.79385 16.8225C8.63615 16.7797 8.46797 16.8 8.32494 16.879L8.28894 16.915C8.27706 16.9269 8.25294 16.9391 8.2407 16.951L5.58534 18.9547C5.47488 19.0418 5.40207 19.168 5.38197 19.3072C5.36188 19.4464 5.39602 19.5881 5.47734 19.7028C5.48687 19.7245 5.50423 19.7417 5.52594 19.7511C5.53782 19.7752 5.56194 19.7993 5.57418 19.8231L7.87818 22.877C7.78924 22.9757 7.71963 23.0902 7.67298 23.2146C7.40766 23.782 7.50414 24.3976 7.9023 24.5787C8.30046 24.7598 8.83182 24.4581 9.10938 23.8907C9.22302 23.6951 9.27567 23.4699 9.2606 23.2442C9.24553 23.0184 9.16342 22.8023 9.02478 22.6235L6.65994 19.4861L8.56794 18.0497L10.6559 20.8138C10.5671 20.9126 10.4975 21.0271 10.4507 21.1515C10.1854 21.7188 10.2819 22.3344 10.6801 22.5155C11.0782 22.6966 11.6096 22.3949 11.8871 21.8275C11.9874 21.6239 12.029 21.3964 12.0074 21.1705C11.9858 20.9445 11.9018 20.7291 11.7647 20.5481V20.5481Z" fill="#465CFF" stroke="#A4D2FC" stroke-width="0.335" stroke-miterlimit="10"/>
<path d="M98.6901 12.4372L99.2934 6.994C99.3386 6.79254 99.3034 6.58139 99.1952 6.40554C99.087 6.22969 98.9144 6.10305 98.7142 6.0526C98.3398 6.0166 98.0021 6.36616 97.9416 6.84892L97.4106 11.6891C97.2459 11.7121 97.084 11.7525 96.9278 11.8097C96.1794 12.0977 95.7449 12.763 95.9501 13.2821C96.1553 13.8012 96.9156 13.9823 97.6641 13.6925C98.3038 13.4391 98.7142 12.9081 98.6901 12.4372Z" fill="#621CD1" stroke="#621CD1" stroke-width="0.335" stroke-miterlimit="10"/>
<path d="M61.9862 4.99027L60.2845 2.39539C60.2332 2.28984 60.1421 2.20895 60.0312 2.17048C59.9203 2.13201 59.7987 2.1391 59.693 2.19019C59.6058 2.26852 59.5522 2.37742 59.5432 2.49427C59.5342 2.61112 59.5706 2.72694 59.6448 2.81767L61.1654 5.12167C61.0997 5.19073 61.043 5.26777 60.9966 5.35099C60.7806 5.74915 60.8277 6.19591 61.1046 6.34063C61.3814 6.48535 61.7803 6.29239 61.9977 5.89423C62.0858 5.75944 62.1317 5.60149 62.1297 5.4405C62.1276 5.27951 62.0777 5.12277 61.9862 4.99027V4.99027Z" fill="#3E9FF8" stroke="#A4D2FC" stroke-width="0.335" stroke-miterlimit="10"/>
<path d="M90.9415 41.4767L94.8036 38.1215C94.9619 38.0116 95.0716 37.8447 95.1099 37.6558C95.1481 37.4669 95.1119 37.2706 95.0088 37.1077C94.9965 37.0955 94.9846 37.0717 94.9605 37.0595C94.9483 37.0365 94.932 37.016 94.9123 36.999L92.3174 34.0179C92.2628 33.9551 92.1964 33.9037 92.1219 33.8666C92.0475 33.8296 91.9664 33.8076 91.8834 33.802C91.8004 33.7964 91.7171 33.8072 91.6383 33.8339C91.5595 33.8605 91.4868 33.9025 91.4242 33.9574L91.3638 34.0179C91.3396 34.042 91.3033 34.0539 91.2792 34.078L87.8516 37.0595C87.727 36.9663 87.5885 36.8934 87.4412 36.8435C86.741 36.5778 86.0289 36.747 85.836 37.2298C85.643 37.7125 86.052 38.3281 86.7532 38.5934C87.3566 38.8228 87.9722 38.7263 88.2498 38.3882L91.7742 35.3228L93.6328 37.4591L90.5311 40.1504C90.4064 40.0574 90.268 39.9845 90.1207 39.9344C89.4205 39.6688 88.7084 39.838 88.5154 40.3207C88.3225 40.8035 88.7314 41.4191 89.4327 41.6844C90.0483 41.9234 90.6636 41.8147 90.9415 41.4767Z" fill="#621CD1" stroke="#621CD1" stroke-width="0.335" stroke-miterlimit="10"/>
<path d="M102.987 27.0778L103.856 24.7123C103.898 24.6273 103.905 24.5291 103.876 24.4388C103.846 24.3485 103.783 24.2734 103.699 24.2295C103.606 24.2092 103.509 24.2254 103.428 24.2749C103.347 24.3243 103.288 24.4031 103.264 24.4948L102.492 26.6069C102.416 26.5951 102.338 26.5951 102.262 26.6069C101.902 26.6555 101.635 26.8949 101.659 27.1502C101.695 27.4022 102.021 27.5728 102.383 27.5242C102.517 27.5179 102.645 27.4721 102.753 27.3927C102.86 27.3132 102.941 27.2036 102.987 27.0778V27.0778Z" fill="#3E9FF8" stroke="#3E9FF8" stroke-width="0.335" stroke-miterlimit="10"/>
<path d="M83.3493 50.2153L82.6736 47.9833C82.6131 47.7903 82.4443 47.6575 82.2873 47.7057C82.2782 47.707 82.2697 47.7113 82.2632 47.718C82.2567 47.7172 82.2501 47.7179 82.2439 47.7199C82.2377 47.722 82.232 47.7254 82.2272 47.7299L80.5014 48.249C80.4648 48.2595 80.4306 48.2772 80.401 48.3011C80.3714 48.325 80.3468 48.3546 80.3288 48.3882C80.3108 48.4218 80.2998 48.4586 80.2963 48.4965C80.2927 48.5344 80.2969 48.5727 80.3084 48.609C80.3084 48.6212 80.3203 48.6335 80.3203 48.645C80.3203 48.6565 80.3325 48.681 80.3325 48.6932L80.9359 50.6732C80.8719 50.7066 80.8147 50.7515 80.7671 50.8057C80.5255 51.0473 80.465 51.3731 80.6342 51.5419C80.8034 51.7107 81.1289 51.6499 81.3704 51.4213C81.4661 51.3433 81.5357 51.238 81.5702 51.1194C81.6047 51.0009 81.6023 50.8746 81.5634 50.7575L80.9478 48.7177L82.1912 48.3437L82.7341 50.13C82.6701 50.1634 82.6128 50.2085 82.5653 50.2628C82.3237 50.504 82.2636 50.8298 82.4324 50.999C82.6013 51.1682 82.9274 51.107 83.1686 50.8781C83.258 50.7958 83.3224 50.6899 83.3544 50.5727C83.3864 50.4555 83.3846 50.3316 83.3493 50.2153V50.2153Z" fill="#3E9FF8" stroke="#3E9FF8" stroke-width="0.335" stroke-miterlimit="10"/>
<path d="M88.286 25.907L87.296 21.6464C87.298 21.5609 87.2803 21.4762 87.2443 21.3986C87.2083 21.321 87.155 21.2528 87.0885 21.1991C87.022 21.1454 86.944 21.1077 86.8606 21.0889C86.7772 21.0701 86.6906 21.0707 86.6075 21.0906C86.5243 21.1106 86.4469 21.1494 86.3811 21.204C86.3153 21.2586 86.263 21.3276 86.2281 21.4056C86.1932 21.4837 86.1767 21.5687 86.1798 21.6541C86.183 21.7396 86.2057 21.8231 86.2463 21.8984L87.1272 25.6896C87.0092 25.7529 86.8962 25.8252 86.7891 25.9056C86.3064 26.3279 86.1494 26.9316 86.4392 27.2693C86.729 27.6069 87.3565 27.5349 87.8393 27.1253C88.03 26.9928 88.1752 26.8047 88.2551 26.5867C88.3351 26.3687 88.3459 26.1314 88.286 25.907V25.907Z" fill="#3E9FF8" stroke="#3E9FF8" stroke-width="0.335" stroke-miterlimit="10"/>
<path d="M7.86636 72.3507L5.50044 69.2249C5.46405 69.1614 5.4155 69.1057 5.35757 69.0611C5.29964 69.0164 5.23347 68.9836 5.16285 68.9645C5.09222 68.9455 5.01853 68.9405 4.94599 68.95C4.87345 68.9594 4.80349 68.9831 4.74012 69.0197L4.70412 69.0557C4.69188 69.0675 4.66812 69.0798 4.65588 69.0917L2.24172 70.9021C2.19082 70.94 2.14792 70.9876 2.1155 71.0422C2.08308 71.0968 2.06177 71.1572 2.0528 71.2201C2.04383 71.2829 2.04738 71.3469 2.06325 71.4083C2.07911 71.4698 2.10698 71.5275 2.14524 71.5782C2.15748 71.5901 2.16935 71.6142 2.18123 71.6264C2.19298 71.6531 2.20931 71.6774 2.22947 71.6984L4.32936 74.4866C4.25541 74.5807 4.19078 74.6817 4.1364 74.7883C3.89484 75.307 3.9924 75.8625 4.3524 76.0314C4.7124 76.2002 5.19732 75.9234 5.45076 75.4039C5.55516 75.2247 5.60298 75.0182 5.58795 74.8114C5.57291 74.6046 5.49573 74.4072 5.36652 74.245L3.20651 71.3845L4.9446 70.0809L6.84 72.5923C6.766 72.6863 6.70137 72.7874 6.64704 72.894C6.40548 73.4131 6.50304 73.9682 6.86304 74.137C7.22304 74.3059 7.70796 74.029 7.9614 73.5096C8.0615 73.3285 8.10588 73.122 8.08897 72.9158C8.07206 72.7096 7.99462 72.513 7.86636 72.3507V72.3507Z" fill="#465CFF" stroke="#A4D2FC" stroke-width="0.335" stroke-miterlimit="10"/>
<path d="M23.9669 77.9041V72.0491C23.9914 71.829 23.9296 71.608 23.7946 71.4325C23.6597 71.257 23.4619 71.1406 23.243 71.1077C23.024 71.1405 22.8262 71.2569 22.6911 71.4324C22.5561 71.6079 22.4942 71.8289 22.5187 72.0491V77.2511C22.3407 77.2887 22.1696 77.3539 22.0118 77.4444C21.2515 77.8425 20.8652 78.591 21.1427 79.122C21.4203 79.653 22.253 79.7495 23.0147 79.3513C23.6775 79.0014 24.0515 78.3977 23.9669 77.9041Z" fill="#465CFF" stroke="#465CFF" stroke-width="0.335" stroke-miterlimit="10"/>
<path d="M93.4999 94.0035L95.5278 90.3103C95.6195 90.1797 95.657 90.0186 95.6322 89.861C95.6074 89.7033 95.5223 89.5615 95.3949 89.4654C95.3827 89.4535 95.3589 89.4535 95.3467 89.4412C95.3345 89.429 95.3107 89.4171 95.2985 89.4052L92.4379 87.836C92.3785 87.8033 92.3132 87.7827 92.2458 87.7753C92.1784 87.7679 92.1102 87.7739 92.0451 87.793C91.98 87.812 91.9194 87.8438 91.8666 87.8864C91.8139 87.929 91.77 87.9816 91.7377 88.0412C91.7258 88.0653 91.7136 88.0772 91.7136 88.1017C91.7017 88.1258 91.6776 88.1499 91.6653 88.1737L89.8653 91.4565C89.7391 91.4228 89.6096 91.4025 89.479 91.396C88.8634 91.3842 88.3566 91.7222 88.3566 92.1567C88.3566 92.5912 88.8393 92.9412 89.4549 92.953C89.6764 92.9779 89.9003 92.9346 90.0965 92.8289C90.2928 92.7232 90.4521 92.5602 90.5533 92.3616L92.3997 88.9822L94.4517 90.1047L92.8224 93.074C92.6961 93.0401 92.5666 93.0198 92.4361 93.0135C91.8205 93.0013 91.3136 93.3375 91.3136 93.7739C91.3014 94.1965 91.7964 94.5583 92.412 94.5705C92.63 94.6035 92.8528 94.5663 93.0484 94.4644C93.2439 94.3625 93.402 94.2011 93.4999 94.0035Z" fill="#3E9FF8" stroke="#3E9FF8" stroke-width="0.335" stroke-miterlimit="10"/>
<path d="M86.1858 70.8784L88.0686 67.7284C88.1539 67.6191 88.1928 67.4807 88.177 67.3429C88.1612 67.2052 88.0919 67.0793 87.984 66.9922C87.9207 66.9646 87.8526 66.9499 87.7835 66.949C87.7145 66.9481 87.6459 66.9609 87.5819 66.9868C87.5178 67.0126 87.4596 67.0509 87.4105 67.0995C87.3615 67.1481 87.3226 67.2059 87.2961 67.2697L85.6185 70.0817C85.5123 70.05 85.4031 70.0299 85.2927 70.0216C84.7617 69.9974 84.303 70.2736 84.2908 70.649C84.2786 71.0245 84.6893 71.3492 85.2203 71.3734C85.4117 71.3918 85.6044 71.3549 85.7755 71.2672C85.9467 71.1795 86.0891 71.0445 86.1858 70.8784Z" fill="#621CD1" stroke="#621CD1" stroke-width="0.335" stroke-miterlimit="10"/>
<path d="M105.666 55.4655L101.888 52.448C101.784 52.3715 101.662 52.3217 101.534 52.3029C101.405 52.2841 101.274 52.2968 101.152 52.34C101.03 52.386 100.923 52.4642 100.842 52.5663C100.761 52.6685 100.709 52.7907 100.692 52.92L99.9677 57.6997C99.949 57.8305 99.9649 57.9639 100.014 58.0867C100.062 58.2095 100.142 58.3175 100.246 58.3999C100.358 58.4864 100.491 58.5406 100.632 58.5565H100.716C100.812 58.5551 100.906 58.5346 100.994 58.4964L105.484 56.7342C105.605 56.6884 105.713 56.6102 105.793 56.5082C105.874 56.4062 105.926 56.284 105.942 56.1549C105.961 56.0259 105.946 55.8941 105.897 55.773C105.849 55.6518 105.769 55.5458 105.666 55.4655Z" fill="#A4D2FC"/>
<path d="M71.4729 11.4958L70.5315 15.6841" stroke="#3E9FF8" stroke-width="0.335" stroke-miterlimit="10"/>
<path d="M70.3746 16.3479C70.1975 16.307 70.0436 16.1978 69.9465 16.0442C69.8493 15.8905 69.8166 15.7047 69.8555 15.5271L70.7972 11.3511C70.817 11.2632 70.854 11.18 70.9059 11.1063C70.9579 11.0326 71.0239 10.9699 71.1001 10.9217C71.1763 10.8735 71.2612 10.8408 71.3501 10.8255C71.4389 10.8101 71.5299 10.8124 71.6178 10.8322C71.7058 10.852 71.789 10.889 71.8627 10.9409C71.9364 10.9929 71.9991 11.0588 72.0473 11.135C72.0955 11.2112 72.1282 11.2962 72.1435 11.385C72.1589 11.4739 72.1566 11.5649 72.1368 11.6528L71.1954 15.8288C71.1762 15.9171 71.1396 16.0007 71.0878 16.0748C71.036 16.1488 70.97 16.2118 70.8936 16.2601C70.8172 16.3084 70.732 16.3411 70.6429 16.3561C70.5538 16.3712 70.4626 16.3684 70.3746 16.3479V16.3479Z" fill="#3E9FF8" stroke="#3E9FF8" stroke-width="0.335" stroke-miterlimit="10"/>
<path d="M73.5732 11.9788L72.6318 16.1548" stroke="#3E9FF8" stroke-width="0.335" stroke-miterlimit="10"/>
<path d="M72.4748 16.8183C72.2976 16.7776 72.1437 16.6685 72.0465 16.5149C71.9492 16.3613 71.9166 16.1754 71.9557 15.9979L72.8971 11.8219C72.9402 11.6474 73.05 11.4968 73.2028 11.4024C73.3557 11.3079 73.5395 11.2771 73.7148 11.3166C73.8901 11.3561 74.0429 11.4626 74.1406 11.6135C74.2382 11.7644 74.2728 11.9475 74.237 12.1236L73.2956 16.2996C73.2764 16.3879 73.2399 16.4715 73.1881 16.5455C73.1363 16.6196 73.0703 16.6826 72.9939 16.7309C72.9175 16.7792 72.8323 16.8118 72.7431 16.8268C72.654 16.8418 72.5628 16.8389 72.4748 16.8183V16.8183Z" fill="#3E9FF8" stroke="#3E9FF8" stroke-width="0.335" stroke-miterlimit="10"/>
</svg>
