<svg width="108" height="108" viewBox="0 0 108 108" fill="none" xmlns="http://www.w3.org/2000/svg">
<path d="M59.6261 14.1642C58.5456 12.4181 57.5593 10.6155 56.6712 8.76421C55.5809 8.53353 54.4611 8.4763 53.3531 8.59465C50.7855 7.65001 49.3322 8.50969 49.3322 8.50969C49.5867 5.28841 43.5434 -0.621345 40.068 4.64653C36.5925 9.91441 42.516 11.9855 45.6023 11.0772C45.1977 11.895 45.026 12.8083 45.1058 13.7171C44.4377 14.7779 43.9124 15.9221 43.5434 17.1202C41.0972 24.8465 37.8759 22.5202 34.025 24.3259C30.1741 26.1317 21.7933 39.1248 35.6961 48.6436C49.599 58.1623 69.6657 44.136 71.8578 34.74C74.0498 25.344 60.9098 16.1017 59.6261 14.1642Z" fill="#AE504A" stroke="#AE504A" stroke-width="1.009" stroke-miterlimit="10"/>
<path d="M46.1714 11.4031C46.3046 13.4619 46.5591 17.5796 47.201 18.6088" stroke="#3E9FF8" stroke-width="1.346" stroke-miterlimit="10"/>
<path d="M50.0227 20.0016C49.6958 20.1952 45.2026 19.396 45.3239 17.4456C45.4449 15.4717 48.4847 16.7554 48.763 17.0946" fill="#FFC3A9"/>
<path d="M50.0227 20.0016C49.6958 20.1952 45.2026 19.396 45.3239 17.4456C45.4449 15.4717 48.4847 16.7554 48.763 17.0946" stroke="#E89589" stroke-width="1.346" stroke-linecap="round" stroke-linejoin="round"/>
<path d="M29.7137 66.0935C30.8332 64.6566 32.0304 63.282 33.3001 61.9758" stroke="#F9C126" stroke-width="2.018" stroke-linecap="round" stroke-linejoin="round"/>
<path d="M33.8191 73.4324C34.0369 71.0344 35.1029 64.8701 35.1029 64.8701" stroke="#F9C126" stroke-width="2.018" stroke-linecap="round" stroke-linejoin="round"/>
<path d="M45.144 72.4027C45.0646 69.7721 44.8056 67.15 44.3689 64.5547" stroke="#FFEB7D" stroke-width="2.018" stroke-linecap="round" stroke-linejoin="round"/>
<path d="M88.0129 42.4905C87.9049 41.7395 89.3449 38.9056 89.3449 38.3728C89.3449 36.6775 88.3639 36.072 88.618 34.0132C88.8603 32.0753 89.5385 30.937 89.6354 31.4932C89.7322 32.0494 89.914 34.3631 90.5559 35.2231C91.1978 36.0832 93.7891 36.2524 95.2546 33.673C96.7198 31.081 94.9519 28.4051 95.1578 28.0779C95.3637 27.7506 96.502 28.2838 97.0348 30.1126C97.2024 30.6051 97.2673 31.1267 97.2257 31.6453C97.184 32.1639 97.0366 32.6685 96.7925 33.1279C96.7925 33.1279 97.9805 35.5986 97.8704 36.6765C97.7131 38.2626 94.4309 39.8009 93.7772 40.3337C93.1234 40.8665 92.2753 44.2091 92.2753 44.2091L88.0129 42.4905Z" fill="#FFC3A9" stroke="#E89589" stroke-width="1.346" stroke-linecap="round" stroke-linejoin="round"/>
<path d="M94.9644 33.1048L91.26 33.7586C91.1191 33.7844 90.9745 33.782 90.8346 33.7514C90.6947 33.7208 90.5622 33.6627 90.445 33.5805C90.3277 33.4982 90.228 33.3935 90.1516 33.2723C90.0752 33.1512 90.0237 33.016 90 32.8748L88.74 25.7039C88.7142 25.5631 88.7166 25.4184 88.7472 25.2785C88.7778 25.1386 88.8359 25.0062 88.9181 24.8889C89.0004 24.7716 89.1051 24.6719 89.2263 24.5955C89.3474 24.5191 89.4826 24.4676 89.6238 24.4439L93.3296 23.7902C93.4705 23.7643 93.6152 23.7668 93.7551 23.7974C93.8951 23.828 94.0275 23.8861 94.1448 23.9684C94.2621 24.0507 94.3618 24.1555 94.4381 24.2767C94.5145 24.3979 94.566 24.533 94.5896 24.6743L95.8496 31.8434C95.875 31.9844 95.8721 32.129 95.8413 32.2689C95.8104 32.4089 95.7522 32.5413 95.6699 32.6585C95.5876 32.7758 95.4829 32.8756 95.3618 32.9522C95.2407 33.0288 95.1056 33.0807 94.9644 33.1048V33.1048Z" fill="#621CD1"/>
<path d="M93.2787 23.8259L92.3722 23.9858L94.0119 33.2764L94.9184 33.1164L93.2787 23.8259Z" fill="#A4D2FC"/>
<path d="M91.6095 27.4978L90.5317 27.6915C90.429 27.7094 90.3235 27.6865 90.2375 27.6276C90.1516 27.5688 90.092 27.4787 90.0716 27.3765L89.8779 26.2987C89.86 26.1961 89.8829 26.0906 89.9416 26.0047C90.0004 25.9187 90.0905 25.8591 90.1925 25.8386L91.2704 25.6449C91.373 25.6269 91.4786 25.6497 91.5646 25.7085C91.6507 25.7673 91.7103 25.8574 91.7308 25.9596L91.9245 27.0374C91.9424 27.1401 91.9195 27.2457 91.8607 27.3317C91.8018 27.4177 91.7117 27.4773 91.6095 27.4978V27.4978Z" fill="#A4D2FC"/>
<path d="M95.5818 34.6551C96.7565 33.6377 97.7011 32.8022 97.1806 32.2071C96.66 31.612 95.715 32.449 94.5403 33.4671C93.3657 34.4852 92.6511 35.5864 92.9419 35.9151C93.2328 36.2438 94.4194 35.6843 95.5818 34.6551Z" fill="#FFC3A9" stroke="#E89589" stroke-width="1.346" stroke-linecap="round" stroke-linejoin="round"/>
<path d="M96.26 36.0234C97.3137 35.2725 98.1734 34.6792 97.736 34.0614C97.2986 33.4437 96.44 34.0496 95.3866 34.8002C94.3333 35.5508 93.6669 36.423 93.9106 36.7622C94.1544 37.1013 95.1944 36.7744 96.26 36.0234Z" fill="#FFC3A9" stroke="#E89589" stroke-width="1.346" stroke-linecap="round" stroke-linejoin="round"/>
<path d="M96.7201 37.26C97.6165 36.6304 98.343 36.1098 97.9675 35.5767C97.592 35.0435 96.8655 35.5526 95.9695 36.1822C95.0735 36.8118 94.5162 37.5628 94.7221 37.8656C94.928 38.1683 95.8241 37.8886 96.7201 37.26Z" fill="#FFC3A9" stroke="#E89589" stroke-width="1.346" stroke-linecap="round" stroke-linejoin="round"/>
<path d="M68.3698 34.6319C63.1498 29.6059 52.4812 26.4573 41.5332 36.6299C28.7932 48.8612 30.852 69.1825 38.1182 70.6722C43.2166 71.7137 47.637 69.3884 47.637 69.3884C47.637 69.3884 59.8683 72.9974 68.3579 68.226C74.7882 71.0595 86.2448 65.9126 89.5871 59.2159C92.9293 52.5192 93.96 40.4315 93.96 40.4315C93.0483 40.6332 92.1036 40.6337 91.1916 40.433C90.2797 40.2322 89.4225 39.835 88.6799 39.269C85.8463 41.0733 79.5488 46.2203 79.0279 48.2791C77.1257 44.016 71.7246 37.8398 68.3698 34.6319Z" fill="#FF859B"/>
<path d="M42.502 36.4956H42.466C42.3093 36.488 42.1538 36.5254 42.0178 36.6036C41.8752 36.6535 41.7465 36.7365 41.6423 36.8459C41.5288 36.9476 41.445 37.0782 41.4 37.2239C41.3275 37.362 41.2904 37.516 41.292 37.6721C41.3007 37.9788 41.4213 38.2718 41.6312 38.4958C41.8524 38.7097 42.1471 38.831 42.4548 38.8349H42.4908C42.6475 38.8423 42.803 38.8048 42.939 38.7269C43.0815 38.6769 43.21 38.5938 43.3142 38.4846C43.4275 38.3838 43.5113 38.254 43.5564 38.1091C43.629 37.971 43.6661 37.817 43.6644 37.6609C43.6561 37.3542 43.5354 37.0612 43.3253 36.8376C43.106 36.6207 42.8101 36.4989 42.5016 36.4985H42.4656C42.309 36.4908 42.1534 36.5283 42.0174 36.6065C41.8749 36.6563 41.7462 36.7394 41.642 36.8488C41.529 36.9497 41.4454 37.0793 41.4 37.2239C41.3275 37.362 41.2904 37.516 41.292 37.6721C41.3007 37.9788 41.4213 38.2718 41.6312 38.4958C41.8524 38.7097 42.1471 38.831 42.4548 38.8349H42.4908C42.6475 38.8423 42.803 38.8048 42.939 38.7269C43.0815 38.6769 43.21 38.5938 43.3142 38.4846C43.4275 38.3838 43.5113 38.254 43.5564 38.1091C43.629 37.971 43.6661 37.817 43.6644 37.6609C43.6561 37.3542 43.5354 37.0612 43.3253 36.8376C43.106 36.6207 42.8101 36.4989 42.5016 36.4985L42.502 36.4956Z" fill="#FFADC7"/>
<path d="M40.5767 60.4255H40.5407C40.3841 60.4181 40.2286 60.4555 40.0925 60.5335C39.95 60.5835 39.8213 60.6665 39.717 60.7758C39.6039 60.8767 39.5203 61.0065 39.4751 61.1512C39.4026 61.2894 39.3655 61.4434 39.3671 61.5994C39.3753 61.9062 39.496 62.1992 39.7062 62.4228C39.9273 62.6368 40.2219 62.7581 40.5296 62.7619H40.5656C40.7222 62.7695 40.8778 62.732 41.0138 62.6539C41.1563 62.6039 41.285 62.5209 41.3892 62.4116C41.5024 62.3108 41.586 62.1811 41.6312 62.0365C41.7037 61.8983 41.7408 61.7443 41.7392 61.5883C41.7309 61.2814 41.6102 60.9883 41.4 60.7646C41.1776 60.5527 40.8839 60.4318 40.5767 60.4255H40.5407C40.3841 60.4181 40.2286 60.4555 40.0925 60.5335C39.95 60.5835 39.8213 60.6665 39.717 60.7758C39.6039 60.8767 39.5203 61.0065 39.4751 61.1512C39.4026 61.2894 39.3655 61.4434 39.3671 61.5994C39.3753 61.9062 39.496 62.1992 39.7062 62.4228C39.9273 62.6368 40.2219 62.7581 40.5296 62.7619H40.5656C40.7222 62.7695 40.8778 62.732 41.0138 62.6539C41.1563 62.6039 41.285 62.5209 41.3892 62.4116C41.5024 62.3108 41.586 62.1811 41.6312 62.0365C41.7037 61.8983 41.7408 61.7443 41.7392 61.5883C41.7309 61.2814 41.6102 60.9883 41.4 60.7646C41.1776 60.5527 40.8839 60.4318 40.5767 60.4255Z" fill="#FFADC7"/>
<path d="M44.8272 65.7058H44.7912C44.6347 65.6983 44.4793 65.7358 44.3434 65.8137C44.2008 65.8637 44.0722 65.9468 43.9679 66.056C43.8548 66.1571 43.7711 66.2868 43.7256 66.4315C43.6531 66.5697 43.616 66.7237 43.6176 66.8797C43.6261 67.1864 43.7468 67.4793 43.9567 67.703C44.178 67.917 44.4726 68.0383 44.7804 68.0422H44.8164C44.9729 68.0497 45.1284 68.0123 45.2642 67.9342C45.4068 67.8843 45.5355 67.8013 45.6397 67.6919C45.753 67.5911 45.8367 67.4614 45.882 67.3168C45.9545 67.1786 45.9916 67.0246 45.99 66.8686C45.9907 66.7157 45.9611 66.5642 45.9029 66.4228C45.8447 66.2814 45.759 66.153 45.6509 66.0448C45.5428 65.9367 45.4144 65.8511 45.273 65.7929C45.1316 65.7347 44.9801 65.7051 44.8272 65.7058H44.7912C44.6347 65.6983 44.4793 65.7358 44.3434 65.8137C44.2008 65.8637 44.0722 65.9468 43.9679 66.056C43.8548 66.1571 43.7711 66.2868 43.7256 66.4315C43.6531 66.5697 43.616 66.7237 43.6176 66.8797C43.6261 67.1864 43.7468 67.4793 43.9567 67.703C44.178 67.917 44.4726 68.0383 44.7804 68.0422H44.8164C44.9729 68.0497 45.1284 68.0123 45.2642 67.9342C45.4068 67.8843 45.5355 67.8013 45.6397 67.6919C45.753 67.5911 45.8367 67.4614 45.882 67.3168C45.9545 67.1786 45.9916 67.0246 45.99 66.8686C45.9907 66.7157 45.9611 66.5642 45.9029 66.4228C45.8447 66.2814 45.759 66.153 45.6509 66.0448C45.5428 65.9367 45.4144 65.8511 45.273 65.7929C45.1316 65.7347 44.9801 65.7051 44.8272 65.7058V65.7058Z" fill="#FFADC7"/>
<path d="M42.2477 51.5488H42.2117C42.0551 51.5414 41.8996 51.5788 41.7635 51.6568C41.6211 51.7068 41.4926 51.7898 41.3884 51.8991C41.2751 51.9999 41.1913 52.1297 41.1461 52.2745C41.0736 52.4127 41.0365 52.5667 41.0381 52.7227C41.0465 53.0294 41.1672 53.3224 41.3773 53.5461C41.5983 53.76 41.8929 53.8814 42.2006 53.8852H42.2366C42.3932 53.8928 42.5488 53.8553 42.6848 53.7772C42.8274 53.7273 42.9561 53.6443 43.0603 53.5349C43.1734 53.434 43.2571 53.3044 43.3025 53.1598C43.3751 53.0216 43.4122 52.8676 43.4105 52.7116C43.4023 52.4048 43.2817 52.1117 43.0718 51.8879C42.8492 51.6759 42.5554 51.5549 42.2481 51.5488H42.2121C42.0555 51.5414 41.9 51.5788 41.7639 51.6568C41.6215 51.7068 41.4929 51.7898 41.3888 51.8991C41.2754 51.9999 41.1917 52.1297 41.1465 52.2745C41.074 52.4127 41.0369 52.5667 41.0385 52.7227C41.0469 53.0294 41.1675 53.3224 41.3776 53.5461C41.5987 53.76 41.8933 53.8814 42.2009 53.8852H42.2369C42.3936 53.8928 42.5492 53.8553 42.6851 53.7772C42.8277 53.7273 42.9564 53.6443 43.0606 53.5349C43.1737 53.434 43.2574 53.3044 43.3029 53.1598C43.3754 53.0216 43.4125 52.8676 43.4109 52.7116C43.4026 52.4048 43.2821 52.1117 43.0721 51.8879C42.8496 51.6759 42.5558 51.5549 42.2485 51.5488H42.2477Z" fill="#FFADC7"/>
<path d="M46.4987 56.8288H46.4627C46.3061 56.8214 46.1505 56.8588 46.0145 56.9368C45.872 56.9868 45.7433 57.0698 45.639 57.1791C45.5259 57.2801 45.4422 57.4099 45.3967 57.5546C45.3244 57.6928 45.2873 57.8468 45.2887 58.0028C45.2969 58.3095 45.4176 58.6026 45.6279 58.8261C45.8489 59.0401 46.1435 59.1614 46.4512 59.1652H46.4872C46.6438 59.1728 46.7994 59.1353 46.9354 59.0572C47.0779 59.0073 47.2066 58.9242 47.3109 58.8149C47.424 58.7141 47.5076 58.5845 47.5528 58.4398C47.6253 58.3016 47.6624 58.1476 47.6608 57.9916C47.6524 57.6848 47.5317 57.3917 47.3217 57.1679C47.1011 56.9532 46.8062 56.8317 46.4983 56.8288H46.4623C46.3057 56.8214 46.1502 56.8588 46.0141 56.9368C45.8716 56.9868 45.7429 57.0698 45.6387 57.1791C45.5255 57.2801 45.4418 57.4099 45.3964 57.5546C45.324 57.6928 45.2869 57.8468 45.2884 58.0028C45.2966 58.3095 45.4173 58.6026 45.6275 58.8261C45.8486 59.0401 46.1431 59.1614 46.4508 59.1652H46.4868C46.6435 59.1728 46.799 59.1353 46.935 59.0572C47.0776 59.0073 47.2062 58.9242 47.3105 58.8149C47.4236 58.7141 47.5072 58.5845 47.5524 58.4398C47.6249 58.3016 47.662 58.1476 47.6604 57.9916C47.652 57.6848 47.5314 57.3917 47.3213 57.1679C47.1007 56.9532 46.8058 56.8317 46.498 56.8288H46.4987Z" fill="#FFADC7"/>
<path d="M54.346 60.6923H54.31C54.1535 60.6849 53.9981 60.7224 53.8622 60.8003C53.7196 60.8503 53.591 60.9333 53.4867 61.0426C53.3734 61.1435 53.2897 61.2733 53.2444 61.4181C53.1719 61.5563 53.1348 61.7103 53.1364 61.8663C53.1449 62.173 53.2656 62.4659 53.4755 62.6896C53.6967 62.9036 53.9914 63.025 54.2992 63.0287H54.3352C54.4917 63.0363 54.6472 62.9988 54.783 62.9207C54.9256 62.8709 55.0543 62.7878 55.1585 62.6784C55.2717 62.5776 55.3555 62.448 55.4008 62.3033C55.4733 62.1652 55.5104 62.0112 55.5088 61.8551C55.5002 61.5484 55.3795 61.2554 55.1697 61.0314C54.9502 60.8148 54.6544 60.6932 54.346 60.6927H54.31C54.1535 60.6853 53.9981 60.7227 53.8622 60.8007C53.7196 60.8507 53.591 60.9337 53.4867 61.043C53.3734 61.1439 53.2897 61.2737 53.2444 61.4184C53.1719 61.5566 53.1348 61.7106 53.1364 61.8666C53.1449 62.1733 53.2656 62.4662 53.4755 62.69C53.6967 62.904 53.9914 63.0253 54.2992 63.0291H54.3352C54.4917 63.0367 54.6472 62.9992 54.783 62.9211C54.9256 62.8712 55.0543 62.7882 55.1585 62.6788C55.2717 62.578 55.3555 62.4483 55.4008 62.3037C55.4733 62.1655 55.5104 62.0115 55.5088 61.8555C55.5002 61.5487 55.3795 61.2557 55.1697 61.0318C54.9502 60.8152 54.6544 60.6935 54.346 60.6931V60.6923Z" fill="#FFADC7"/>
<path d="M58.5969 65.9603H58.5609C58.4042 65.9527 58.2487 65.9902 58.1127 66.0683C57.9702 66.1183 57.8415 66.2011 57.7372 66.3102C57.6241 66.4113 57.5405 66.541 57.4953 66.6857C57.4227 66.8239 57.3856 66.9779 57.3873 67.1339C57.3956 67.4406 57.5163 67.7336 57.7264 67.9572C57.9475 68.1712 58.242 68.2925 58.5497 68.2963H58.5857C58.7423 68.3038 58.8979 68.2663 59.0339 68.1883C59.1764 68.1383 59.3051 68.0553 59.4094 67.946C59.5225 67.845 59.6062 67.7153 59.6517 67.5706C59.724 67.4323 59.7611 67.2784 59.7597 67.1224C59.7603 66.9696 59.7306 66.8181 59.6724 66.6768C59.6142 66.5355 59.5286 66.4071 59.4206 66.299C59.3125 66.191 59.1841 66.1054 59.0428 66.0472C58.9015 65.989 58.75 65.9593 58.5972 65.9599H58.5612C58.4046 65.9523 58.249 65.9898 58.113 66.0679C57.9706 66.1179 57.8419 66.2008 57.7375 66.3099C57.6245 66.4109 57.5409 66.5406 57.4956 66.6853C57.4231 66.8235 57.386 66.9775 57.3876 67.1335C57.396 67.4402 57.5167 67.7332 57.7267 67.9568C57.9478 68.1708 58.2424 68.2922 58.5501 68.296H58.5861C58.7427 68.3034 58.8982 68.266 59.0343 68.188C59.1768 68.138 59.3055 68.055 59.4097 67.9457C59.5229 67.8446 59.6066 67.7149 59.652 67.5702C59.7244 67.432 59.7615 67.278 59.76 67.122C59.7606 66.9692 59.731 66.8178 59.6728 66.6764C59.6146 66.5351 59.529 66.4067 59.4209 66.2987C59.3129 66.1906 59.1845 66.105 59.0432 66.0468C58.9018 65.9886 58.7504 65.959 58.5976 65.9596L58.5969 65.9603Z" fill="#FFADC7"/>
<path d="M56.016 51.8041H55.98C55.8234 51.7964 55.6678 51.8339 55.5318 51.9121C55.3893 51.9619 55.2607 52.0448 55.1563 52.154C55.0433 52.2551 54.9596 52.3848 54.9141 52.5295C54.8417 52.6677 54.8046 52.8217 54.8061 52.9777C54.8143 53.2844 54.935 53.5775 55.1452 53.801C55.3663 54.015 55.6608 54.1363 55.9685 54.1401H56.0045C56.1611 54.1476 56.3166 54.1101 56.4527 54.0321C56.5951 53.9821 56.7237 53.8991 56.8278 53.7898C56.9412 53.689 57.0249 53.5592 57.0701 53.4144C57.1426 53.2762 57.1797 53.1222 57.1781 52.9662C57.1697 52.6594 57.0491 52.3665 56.839 52.1428C56.6166 51.9309 56.3228 51.8099 56.0157 51.8037H55.9797C55.823 51.7961 55.6674 51.8336 55.5315 51.9117C55.389 51.9616 55.2603 52.0445 55.156 52.1536C55.0429 52.2547 54.9592 52.3844 54.9137 52.5291C54.8413 52.6673 54.8042 52.8213 54.8057 52.9773C54.8139 53.2841 54.9346 53.5771 55.1448 53.8006C55.3659 54.0146 55.6605 54.1359 55.9681 54.1398H56.0041C56.1608 54.1472 56.3163 54.1097 56.4523 54.0318C56.5948 53.9817 56.7233 53.8987 56.8275 53.7895C56.9408 53.6886 57.0246 53.5588 57.0697 53.414C57.1423 53.2758 57.1794 53.1218 57.1777 52.9658C57.1694 52.6591 57.0487 52.3661 56.8386 52.1425C56.6162 51.9305 56.3225 51.8095 56.0153 51.8033L56.016 51.8041Z" fill="#FFADC7"/>
<path d="M60.268 57.0834H60.232C60.0755 57.0758 59.92 57.1132 59.7842 57.1914C59.6417 57.2412 59.513 57.3241 59.4087 57.4333C59.2955 57.5343 59.2118 57.664 59.1664 57.8087C59.0939 57.9469 59.0568 58.1009 59.0584 58.2569C59.0669 58.5636 59.1876 58.8565 59.3975 59.0803C59.6187 59.2943 59.9134 59.4156 60.2212 59.4194H60.2572C60.4137 59.4268 60.5691 59.3893 60.705 59.3114C60.8476 59.2614 60.9762 59.1784 61.0805 59.0691C61.1936 58.968 61.2773 58.8383 61.3228 58.6936C61.3953 58.5555 61.4324 58.4015 61.4308 58.2454C61.4314 58.0926 61.4018 57.9411 61.3435 57.7998C61.2853 57.6584 61.1997 57.53 61.0916 57.422C60.9835 57.3139 60.855 57.2283 60.7137 57.1701C60.5723 57.1119 60.4209 57.0823 60.268 57.083H60.232C60.0755 57.0754 59.92 57.1129 59.7842 57.191C59.6417 57.2409 59.513 57.3238 59.4087 57.4329C59.2955 57.5339 59.2118 57.6637 59.1664 57.8084C59.0939 57.9465 59.0568 58.1006 59.0584 58.2566C59.0669 58.5633 59.1876 58.8562 59.3975 59.0799C59.6187 59.2939 59.9134 59.4153 60.2212 59.419H60.2572C60.4137 59.4264 60.5691 59.389 60.705 59.311C60.8476 59.261 60.9762 59.178 61.0805 59.0687C61.1936 58.9677 61.2773 58.838 61.3228 58.6933C61.3953 58.5551 61.4324 58.4011 61.4308 58.2451C61.4314 58.0922 61.4018 57.9407 61.3435 57.7994C61.2853 57.6581 61.1997 57.5297 61.0916 57.4216C60.9835 57.3135 60.855 57.2279 60.7137 57.1698C60.5723 57.1116 60.4209 57.082 60.268 57.0826V57.0834Z" fill="#FFADC7"/>
<path d="M49.0659 40.0925H49.0298C48.8733 40.0849 48.7179 40.1224 48.582 40.2005C48.4394 40.2504 48.3107 40.3334 48.2065 40.4428C48.0933 40.5436 48.0096 40.6733 47.9642 40.8179C47.8917 40.9561 47.8546 41.1101 47.8563 41.2661C47.8648 41.5729 47.9854 41.8659 48.1954 42.0898C48.4166 42.3038 48.7113 42.4252 49.019 42.4289H49.0551C49.2116 42.4363 49.3669 42.3989 49.5029 42.3209C49.6454 42.2709 49.7741 42.1879 49.8784 42.0786C49.9916 41.9777 50.0753 41.8479 50.1206 41.7032C50.1932 41.5651 50.2303 41.4112 50.2286 41.2553C50.2201 40.9485 50.0995 40.6555 49.8895 40.4316C49.667 40.2196 49.3732 40.0986 49.0659 40.0925H49.0298C48.8733 40.0849 48.7179 40.1224 48.582 40.2005C48.4394 40.2504 48.3107 40.3334 48.2065 40.4428C48.0933 40.5436 48.0096 40.6733 47.9642 40.8179C47.8917 40.9561 47.8546 41.1101 47.8563 41.2661C47.8648 41.5729 47.9854 41.8659 48.1954 42.0898C48.4166 42.3038 48.7113 42.4252 49.019 42.4289H49.0551C49.2116 42.4363 49.3669 42.3989 49.5029 42.3209C49.6454 42.2709 49.7741 42.1879 49.8784 42.0786C49.9916 41.9777 50.0753 41.8479 50.1206 41.7032C50.1932 41.5651 50.2303 41.4112 50.2286 41.2553C50.2201 40.9485 50.0995 40.6555 49.8895 40.4316C49.667 40.2196 49.3732 40.0986 49.0659 40.0925V40.0925Z" fill="#FFADC7"/>
<path d="M53.316 45.3725H53.28C53.1233 45.3649 52.9678 45.4024 52.8318 45.4805C52.6892 45.5305 52.5605 45.6135 52.4563 45.7228C52.3432 45.8236 52.2596 45.9533 52.2144 46.0979C52.1418 46.2361 52.1047 46.3901 52.1064 46.5461C52.1148 46.853 52.2354 47.146 52.4455 47.3698C52.6666 47.5838 52.9611 47.7051 53.2688 47.7089H53.3048C53.4615 47.7164 53.617 47.6789 53.753 47.6009C53.8955 47.551 54.0242 47.4679 54.1285 47.3587C54.2416 47.2576 54.3253 47.1279 54.3708 46.9832C54.4431 46.8451 54.4802 46.6912 54.4788 46.5353C54.4706 46.2285 54.3499 45.9354 54.1397 45.7117C53.9173 45.4996 53.6235 45.3786 53.3163 45.3725H53.28C53.1233 45.3649 52.9678 45.4024 52.8318 45.4805C52.6892 45.5305 52.5605 45.6135 52.4563 45.7228C52.3432 45.8236 52.2596 45.9533 52.2144 46.0979C52.1418 46.2361 52.1047 46.3901 52.1064 46.5461C52.1148 46.853 52.2354 47.146 52.4455 47.3698C52.6666 47.5838 52.9611 47.7051 53.2688 47.7089H53.3048C53.4615 47.7164 53.617 47.6789 53.753 47.6009C53.8955 47.551 54.0242 47.4679 54.1285 47.3587C54.2416 47.2576 54.3253 47.1279 54.3708 46.9832C54.4431 46.8451 54.4802 46.6912 54.4788 46.5353C54.4706 46.2285 54.3499 45.9354 54.1397 45.7117C53.9173 45.4996 53.6235 45.3786 53.3163 45.3725H53.316Z" fill="#FFADC7"/>
<path d="M50.7373 31.2156H50.7013C50.5447 31.2079 50.3891 31.2454 50.2531 31.3236C50.1105 31.3734 49.9818 31.4565 49.8777 31.5659C49.7646 31.6668 49.6808 31.7964 49.6354 31.941C49.563 32.0792 49.5259 32.2332 49.5274 32.3892C49.5357 32.696 49.6563 32.9891 49.8665 33.2129C50.0876 33.4268 50.3822 33.5482 50.6898 33.552H50.7258C50.8825 33.5594 51.038 33.5219 51.174 33.444C51.3164 33.394 51.445 33.3109 51.5491 33.2017C51.6625 33.1008 51.7462 32.971 51.7914 32.8262C51.8639 32.688 51.901 32.534 51.8994 32.378C51.891 32.0713 51.7704 31.7783 51.5603 31.5547C51.3379 31.3427 51.0442 31.2217 50.737 31.2156H50.701C50.5443 31.2079 50.3888 31.2454 50.2528 31.3236C50.1102 31.3734 49.9815 31.4565 49.8773 31.5659C49.7642 31.6668 49.6805 31.7964 49.635 31.941C49.5627 32.0792 49.5256 32.2332 49.527 32.3892C49.5353 32.696 49.656 32.9891 49.8661 33.2129C50.0872 33.4268 50.3818 33.5482 50.6895 33.552H50.7255C50.8821 33.5594 51.0376 33.5219 51.1737 33.444C51.3161 33.394 51.4446 33.3109 51.5488 33.2017C51.6621 33.1008 51.7459 32.971 51.7911 32.8262C51.8636 32.688 51.9007 32.534 51.8991 32.378C51.8907 32.0713 51.77 31.7783 51.5599 31.5547C51.3375 31.3427 51.0438 31.2217 50.7366 31.2156H50.7373Z" fill="#FFADC7"/>
<path d="M54.9878 36.4958H54.9518C54.7953 36.4882 54.6399 36.5257 54.504 36.6038C54.3614 36.6537 54.2327 36.7367 54.1285 36.8461C54.0153 36.9469 53.9316 37.0766 53.8863 37.2212C53.8137 37.3594 53.7766 37.5134 53.7782 37.6694C53.7869 37.9762 53.9075 38.2692 54.1174 38.4931C54.3386 38.7072 54.6333 38.8285 54.941 38.8322H54.977C55.1336 38.8396 55.2889 38.8022 55.4249 38.7242C55.5674 38.6742 55.6961 38.5912 55.8004 38.482C55.9135 38.3809 55.9972 38.2512 56.0426 38.1065C56.1152 37.9683 56.1523 37.8143 56.1506 37.6583C56.1421 37.3516 56.0215 37.0587 55.8115 36.835C55.5922 36.6181 55.2963 36.4962 54.9878 36.4958H54.9518C54.7953 36.4882 54.6399 36.5257 54.504 36.6038C54.3614 36.6537 54.2327 36.7367 54.1285 36.8461C54.0153 36.9469 53.9316 37.0766 53.8863 37.2212C53.8137 37.3594 53.7766 37.5134 53.7782 37.6694C53.7869 37.9762 53.9075 38.2692 54.1174 38.4931C54.3386 38.7072 54.6333 38.8285 54.941 38.8322H54.977C55.1336 38.8396 55.2889 38.8022 55.4249 38.7242C55.5674 38.6742 55.6961 38.5912 55.8004 38.482C55.9135 38.3809 55.9972 38.2512 56.0426 38.1065C56.1152 37.9683 56.1523 37.8143 56.1506 37.6583C56.1421 37.3516 56.0215 37.0587 55.8115 36.835C55.5922 36.6181 55.2963 36.4962 54.9878 36.4958V36.4958Z" fill="#FFADC7"/>
<path d="M62.0726 42.4176H62.0366C61.8799 42.41 61.7243 42.4474 61.5884 42.5256C61.4458 42.5755 61.3171 42.6585 61.2129 42.7679C61.0998 42.8688 61.0161 42.9984 60.9706 43.143C60.8981 43.2812 60.861 43.4352 60.8626 43.5912C60.8709 43.898 60.9914 44.191 61.2014 44.4149C61.4228 44.6286 61.7174 44.7497 62.025 44.7536H62.061C62.2177 44.7611 62.3732 44.7236 62.5092 44.6456C62.6517 44.5956 62.7802 44.5126 62.8844 44.4034C62.9977 44.3025 63.0815 44.1727 63.1266 44.0279C63.1992 43.8897 63.2363 43.7357 63.2346 43.5797C63.2263 43.273 63.1056 42.98 62.8955 42.7564C62.6737 42.5434 62.3796 42.4223 62.0722 42.4172H62.0362C61.8795 42.4096 61.724 42.4471 61.588 42.5252C61.4454 42.5751 61.3167 42.6581 61.2125 42.7675C61.0994 42.8684 61.0157 42.998 60.9702 43.1426C60.8977 43.2808 60.8606 43.4348 60.8622 43.5908C60.8706 43.8976 60.9911 44.1907 61.201 44.4145C61.4224 44.6282 61.717 44.7494 62.0247 44.7533H62.0607C62.2173 44.7607 62.3728 44.7232 62.5089 44.6453C62.6513 44.5953 62.7798 44.5122 62.884 44.403C62.9974 44.3022 63.0811 44.1724 63.1263 44.0275C63.1988 43.8894 63.2359 43.7354 63.2343 43.5793C63.2259 43.2726 63.1052 42.9796 62.8952 42.756C62.6734 42.5431 62.3793 42.4219 62.0718 42.4169L62.0726 42.4176Z" fill="#FFADC7"/>
<path d="M66.3119 47.6855H66.2759C66.1193 47.678 65.9638 47.7155 65.8277 47.7935C65.6852 47.8435 65.5565 47.9265 65.4523 48.0358C65.3391 48.1368 65.2554 48.2666 65.21 48.4113C65.1374 48.5493 65.1003 48.7032 65.102 48.8591C65.1102 49.1659 65.2308 49.459 65.4407 49.6828C65.662 49.8967 65.9567 50.018 66.2644 50.0219H66.3004C66.4571 50.0295 66.6126 49.992 66.7486 49.9139C66.891 49.8639 67.0196 49.7809 67.1237 49.6716C67.2371 49.5708 67.3209 49.441 67.366 49.2961C67.4386 49.1581 67.4757 49.0042 67.474 48.8483C67.4656 48.5415 67.345 48.2484 67.1349 48.0246C66.9125 47.8126 66.6188 47.6917 66.3116 47.6855H66.2756C66.1189 47.678 65.9634 47.7155 65.8274 47.7935C65.6849 47.8435 65.5562 47.9265 65.4519 48.0358C65.3388 48.1368 65.2551 48.2666 65.2096 48.4113C65.137 48.5493 65.0999 48.7032 65.1016 48.8591C65.1099 49.1659 65.2304 49.459 65.4404 49.6828C65.6616 49.8967 65.9563 50.018 66.2641 50.0219H66.3001C66.4567 50.0295 66.6122 49.992 66.7483 49.9139C66.8907 49.8639 67.0192 49.7809 67.1234 49.6716C67.2367 49.5708 67.3205 49.441 67.3657 49.2961C67.4382 49.1581 67.4753 49.0042 67.4737 48.8483C67.4653 48.5415 67.3446 48.2484 67.1345 48.0246C66.9121 47.8126 66.6184 47.6917 66.3112 47.6855H66.3119Z" fill="#FFADC7"/>
<path d="M63.7438 33.5285H63.7078C63.5512 33.5211 63.3957 33.5586 63.2596 33.6365C63.1171 33.6866 62.9885 33.7696 62.8842 33.8788C62.771 33.9797 62.6874 34.1095 62.6422 34.2543C62.5697 34.3923 62.5326 34.5462 62.5342 34.7021C62.5425 35.009 62.6631 35.3021 62.8734 35.5258C63.0944 35.7398 63.389 35.8611 63.6967 35.8649H63.7327C63.8893 35.8724 64.0448 35.8349 64.1809 35.7569C64.3234 35.7069 64.4521 35.6239 64.5563 35.5146C64.6695 35.4137 64.7531 35.2839 64.7983 35.1391C64.8708 35.0011 64.9079 34.8472 64.9063 34.6913C64.9069 34.5384 64.8773 34.387 64.8191 34.2456C64.761 34.1043 64.6754 33.9758 64.5673 33.8677C64.4592 33.7596 64.3308 33.674 64.1895 33.6158C64.0482 33.5575 63.8967 33.5279 63.7438 33.5285H63.7078C63.5512 33.5211 63.3957 33.5586 63.2596 33.6365C63.1171 33.6866 62.9885 33.7696 62.8842 33.8788C62.771 33.9797 62.6874 34.1095 62.6422 34.2543C62.5697 34.3923 62.5326 34.5462 62.5342 34.7021C62.5425 35.009 62.6631 35.3021 62.8734 35.5258C63.0944 35.7398 63.389 35.8611 63.6967 35.8649H63.7327C63.8893 35.8724 64.0448 35.8349 64.1809 35.7569C64.3234 35.7069 64.4521 35.6239 64.5563 35.5146C64.6695 35.4137 64.7531 35.2839 64.7983 35.1391C64.8708 35.0011 64.9079 34.8472 64.9063 34.6913C64.9069 34.5384 64.8773 34.387 64.8191 34.2456C64.761 34.1043 64.6754 33.9758 64.5673 33.8677C64.4592 33.7596 64.3308 33.674 64.1895 33.6158C64.0482 33.5575 63.8967 33.5279 63.7438 33.5285V33.5285Z" fill="#FFADC7"/>
<path d="M67.9824 38.8081H67.9464C67.7897 38.8006 67.6342 38.8381 67.4982 38.916C67.3557 38.9661 67.227 39.0491 67.1227 39.1583C67.0095 39.2593 66.9259 39.3891 66.8808 39.5338C66.8082 39.6718 66.7711 39.8257 66.7728 39.9816C66.781 40.2885 66.9017 40.5816 67.1119 40.8053C67.333 41.0193 67.6275 41.1406 67.9352 41.1444H67.9712C68.1278 41.1519 68.2833 41.1144 68.4194 41.0364C68.5619 40.9864 68.6906 40.9034 68.7949 40.7942C68.908 40.6932 68.9916 40.5634 69.0368 40.4187C69.1094 40.2807 69.1465 40.1268 69.1448 39.9708C69.1366 39.664 69.0159 39.3709 68.8057 39.1472C68.5833 38.9352 68.2895 38.8142 67.9824 38.8081H67.9464C67.7897 38.8006 67.6342 38.8381 67.4982 38.916C67.3557 38.9661 67.227 39.0491 67.1227 39.1583C67.0095 39.2593 66.9259 39.3891 66.8808 39.5338C66.8082 39.6718 66.7711 39.8257 66.7728 39.9816C66.781 40.2885 66.9017 40.5816 67.1119 40.8053C67.333 41.0193 67.6275 41.1406 67.9352 41.1444H67.9712C68.1278 41.1519 68.2833 41.1144 68.4194 41.0364C68.5619 40.9864 68.6906 40.9034 68.7949 40.7942C68.908 40.6932 68.9916 40.5634 69.0368 40.4187C69.1094 40.2807 69.1465 40.1268 69.1448 39.9708C69.1366 39.664 69.0159 39.3709 68.8057 39.1472C68.5833 38.9352 68.2895 38.8142 67.9824 38.8081Z" fill="#FFADC7"/>
<path d="M71.3368 55.9206H71.3008C71.1442 55.9132 70.9887 55.9507 70.8526 56.0286C70.7102 56.0786 70.5817 56.1616 70.4775 56.2709C70.3642 56.3717 70.2804 56.5015 70.2352 56.6463C70.1627 56.7845 70.1256 56.9385 70.1272 57.0945C70.1356 57.4013 70.2563 57.6942 70.4664 57.9179C70.6875 58.1318 70.982 58.2532 71.2897 58.257H71.3257C71.4823 58.2646 71.6379 58.2271 71.7739 58.149C71.9165 58.0991 72.0452 58.0161 72.1494 57.9067C72.2625 57.8058 72.3462 57.6762 72.3916 57.5316C72.4642 57.3934 72.5013 57.2394 72.4996 57.0834C72.5004 56.9305 72.4708 56.779 72.4126 56.6376C72.3545 56.4963 72.2689 56.3678 72.1608 56.2597C72.0527 56.1516 71.9243 56.066 71.7829 56.0078C71.6416 55.9495 71.4901 55.9199 71.3372 55.9206H71.3012C71.1446 55.9132 70.9891 55.9507 70.853 56.0286C70.7106 56.0786 70.582 56.1616 70.4779 56.2709C70.3645 56.3717 70.2808 56.5015 70.2356 56.6463C70.1631 56.7845 70.126 56.9385 70.1276 57.0945C70.136 57.4013 70.2567 57.6942 70.4667 57.9179C70.6878 58.1318 70.9824 58.2532 71.29 58.257H71.326C71.4827 58.2646 71.6383 58.2271 71.7742 58.149C71.9168 58.0991 72.0455 58.0161 72.1497 57.9067C72.2628 57.8058 72.3465 57.6762 72.392 57.5316C72.4645 57.3934 72.5016 57.2394 72.5 57.0834C72.5007 56.9305 72.4711 56.779 72.413 56.6376C72.3548 56.4963 72.2692 56.3678 72.1611 56.2597C72.0531 56.1516 71.9246 56.066 71.7833 56.0078C71.6419 55.9495 71.4904 55.9199 71.3376 55.9206H71.3368Z" fill="#FFADC7"/>
<path d="M75.5755 61.2001H75.5395C75.3829 61.1927 75.2274 61.2302 75.0913 61.3081C74.9489 61.3581 74.8203 61.4412 74.7162 61.5504C74.6028 61.6513 74.5191 61.7811 74.4739 61.9259C74.4014 62.0641 74.3643 62.2181 74.3659 62.3741C74.3743 62.6808 74.495 62.9737 74.705 63.1974C74.9261 63.4114 75.2207 63.5327 75.5283 63.5365H75.5643C75.721 63.5442 75.8766 63.5067 76.0125 63.4285C76.1551 63.3787 76.2838 63.2956 76.388 63.1863C76.5011 63.0853 76.5848 62.9557 76.6303 62.8111C76.7028 62.673 76.7399 62.519 76.7383 62.3629C76.73 62.0562 76.6095 61.7631 76.3995 61.5393C76.177 61.3273 75.8831 61.2063 75.5759 61.2001H75.5399C75.3832 61.1927 75.2277 61.2302 75.0917 61.3081C74.9492 61.3581 74.8207 61.4412 74.7165 61.5504C74.6032 61.6513 74.5194 61.7811 74.4743 61.9259C74.4017 62.0641 74.3646 62.2181 74.3663 62.3741C74.3747 62.6808 74.4954 62.9737 74.7054 63.1974C74.9265 63.4114 75.221 63.5327 75.5287 63.5365H75.5647C75.7214 63.5442 75.8769 63.5067 76.0129 63.4285C76.1555 63.3787 76.2842 63.2956 76.3884 63.1863C76.5015 63.0853 76.5852 62.9557 76.6307 62.8111C76.7032 62.673 76.7403 62.519 76.7387 62.3629C76.7304 62.0562 76.6099 61.7631 76.3999 61.5393C76.1774 61.3273 75.8835 61.2063 75.5762 61.2001H75.5755Z" fill="#FFADC7"/>
<path d="M73.008 47.0439H72.972C72.8155 47.0365 72.6601 47.074 72.5242 47.1519C72.3816 47.2019 72.253 47.2849 72.1487 47.3942C72.0356 47.4952 71.9518 47.6249 71.9064 47.7696C71.8338 47.9077 71.7967 48.0616 71.7984 48.2175C71.8069 48.5243 71.9276 48.8173 72.1375 49.0412C72.3588 49.2552 72.6534 49.3765 72.9612 49.3803H72.9972C73.1537 49.3879 73.3092 49.3504 73.445 49.2723C73.5876 49.2224 73.7163 49.1394 73.8205 49.03C73.9338 48.9291 74.0176 48.7993 74.0628 48.6545C74.1354 48.5165 74.1725 48.3626 74.1708 48.2067C74.1715 48.0538 74.1419 47.9023 74.0837 47.7609C74.0255 47.6195 73.9398 47.4911 73.8317 47.383C73.7236 47.2749 73.5952 47.1892 73.4538 47.131C73.3124 47.0728 73.1609 47.0432 73.008 47.0439H72.972C72.8155 47.0365 72.6601 47.074 72.5242 47.1519C72.3816 47.2019 72.253 47.2849 72.1487 47.3942C72.0356 47.4952 71.9518 47.6249 71.9064 47.7696C71.8338 47.9077 71.7967 48.0616 71.7984 48.2175C71.8069 48.5243 71.9276 48.8173 72.1375 49.0412C72.3588 49.2552 72.6534 49.3765 72.9612 49.3803H72.9972C73.1537 49.3879 73.3092 49.3504 73.445 49.2723C73.5876 49.2224 73.7163 49.1394 73.8205 49.03C73.9338 48.9291 74.0176 48.7993 74.0628 48.6545C74.1354 48.5165 74.1725 48.3626 74.1708 48.2067C74.1715 48.0538 74.1419 47.9023 74.0837 47.7609C74.0255 47.6195 73.9398 47.4911 73.8317 47.383C73.7236 47.2749 73.5952 47.1892 73.4538 47.131C73.3124 47.0728 73.1609 47.0432 73.008 47.0439V47.0439Z" fill="#FFADC7"/>
<path d="M77.259 52.3239H77.223C77.0663 52.3165 76.9108 52.354 76.7748 52.4319C76.6323 52.4819 76.5038 52.565 76.3996 52.6742C76.2863 52.775 76.2025 52.9048 76.1574 53.0497C76.0848 53.1877 76.0477 53.3416 76.0494 53.4975C76.0578 53.8043 76.1784 54.0974 76.3885 54.3212C76.6096 54.5352 76.9041 54.6565 77.2118 54.6603H77.2478C77.4045 54.668 77.56 54.6305 77.696 54.5523C77.8386 54.5025 77.9673 54.4194 78.0715 54.31C78.1847 54.2091 78.2684 54.0793 78.3138 53.9346C78.3862 53.7965 78.4233 53.6426 78.4218 53.4867C78.4135 53.1799 78.2929 52.8867 78.0826 52.663C77.8608 52.4502 77.5667 52.3291 77.2593 52.3239H77.2233C77.0667 52.3165 76.9112 52.354 76.7751 52.4319C76.6327 52.4819 76.5042 52.565 76.4 52.6742C76.2867 52.775 76.2029 52.9048 76.1577 53.0497C76.0852 53.1877 76.0481 53.3416 76.0497 53.4975C76.0581 53.8043 76.1788 54.0974 76.3888 54.3212C76.6099 54.5352 76.9045 54.6565 77.2122 54.6603H77.2482C77.4048 54.668 77.5604 54.6305 77.6964 54.5523C77.839 54.5025 77.9677 54.4194 78.0718 54.31C78.185 54.2091 78.2688 54.0793 78.3141 53.9346C78.3865 53.7965 78.4236 53.6426 78.4221 53.4867C78.4139 53.1799 78.2932 52.8867 78.083 52.663C77.8612 52.4502 77.5671 52.3291 77.2597 52.3239H77.259Z" fill="#FFADC7"/>
<path d="M83.5559 55.5331H83.5199C83.3633 55.5254 83.2077 55.5629 83.0718 55.6411C82.9292 55.6909 82.8005 55.774 82.6963 55.8833C82.5832 55.9843 82.4995 56.1139 82.454 56.2585C82.3816 56.3967 82.3445 56.5507 82.346 56.7067C82.3543 57.0135 82.475 57.3066 82.6851 57.5303C82.9063 57.7441 83.2008 57.8653 83.5084 57.8691H83.5444C83.7011 57.8765 83.8566 57.8391 83.9926 57.7611C84.1351 57.711 84.2638 57.628 84.3681 57.5188C84.4812 57.4179 84.5649 57.2881 84.61 57.1433C84.6825 57.0052 84.7197 56.8512 84.718 56.6951C84.7098 56.3884 84.5891 56.0954 84.3789 55.8718C84.1565 55.6599 83.8628 55.5389 83.5556 55.5327H83.5199C83.3633 55.5251 83.2077 55.5626 83.0718 55.6407C82.9292 55.6906 82.8005 55.7736 82.6963 55.883C82.5832 55.9839 82.4995 56.1135 82.454 56.2581C82.3816 56.3963 82.3445 56.5503 82.346 56.7063C82.3543 57.0132 82.475 57.3063 82.6851 57.53C82.9063 57.7437 83.2008 57.8649 83.5084 57.8687H83.5444C83.7011 57.8762 83.8566 57.8387 83.9926 57.7607C84.1351 57.7107 84.2638 57.6277 84.3681 57.5185C84.4812 57.4175 84.5649 57.2877 84.61 57.143C84.6825 57.0048 84.7197 56.8508 84.718 56.6948C84.7098 56.388 84.5891 56.095 84.3789 55.8715C84.1565 55.6595 83.8628 55.5385 83.5556 55.5324L83.5559 55.5331Z" fill="#FFADC7"/>
<path d="M87.8069 60.8133H87.7709C87.6144 60.8057 87.459 60.8432 87.3231 60.9213C87.1805 60.9712 87.0518 61.0542 86.9476 61.1636C86.8344 61.2644 86.7507 61.3941 86.7053 61.5387C86.6328 61.6769 86.5957 61.8309 86.5973 61.9869C86.606 62.2937 86.7266 62.5867 86.9365 62.8106C87.1578 63.0244 87.4524 63.1456 87.7601 63.1494H87.7961C87.9527 63.1568 88.108 63.1193 88.244 63.0414C88.3865 62.9914 88.5152 62.9083 88.6194 62.7991C88.7327 62.6981 88.8164 62.5684 88.8617 62.4236C88.9342 62.2854 88.9714 62.1314 88.9697 61.9754C88.9703 61.8226 88.9407 61.6711 88.8825 61.5297C88.8242 61.3884 88.7386 61.26 88.6305 61.1519C88.5224 61.0439 88.394 60.9583 88.2526 60.9001C88.1113 60.8419 87.9598 60.8123 87.8069 60.813H87.7709C87.6144 60.8054 87.459 60.8429 87.3231 60.921C87.1805 60.9708 87.0518 61.0539 86.9476 61.1632C86.8344 61.2641 86.7507 61.3937 86.7053 61.5384C86.6328 61.6765 86.5957 61.8305 86.5973 61.9866C86.606 62.2933 86.7266 62.5863 86.9365 62.8102C87.1578 63.0241 87.4524 63.1452 87.7601 63.149H87.7961C87.9527 63.1564 88.108 63.119 88.244 63.041C88.3865 62.991 88.5152 62.908 88.6194 62.7987C88.7327 62.6978 88.8164 62.568 88.8617 62.4232C88.9342 62.2851 88.9714 62.1311 88.9697 61.975C88.9703 61.8222 88.9407 61.6707 88.8825 61.5294C88.8242 61.3881 88.7386 61.2596 88.6305 61.1516C88.5224 61.0435 88.394 60.9579 88.2526 60.8997C88.1113 60.8416 87.9598 60.8119 87.8069 60.8126V60.8133Z" fill="#FFADC7"/>
<path d="M85.2275 46.6561H85.1915C85.0348 46.6485 84.8793 46.686 84.7433 46.7641C84.6009 46.814 84.4723 46.8969 84.3682 47.006C84.2549 47.1069 84.1711 47.2367 84.1259 47.3815C84.0534 47.5197 84.0162 47.6737 84.0179 47.8297C84.0263 48.1365 84.147 48.4296 84.357 48.6534C84.5782 48.8671 84.8727 48.9883 85.1803 48.9922H85.2163C85.373 48.9996 85.5285 48.9622 85.6645 48.8842C85.807 48.8342 85.9357 48.7511 86.04 48.6419C86.1531 48.5408 86.2368 48.4111 86.2823 48.2664C86.3548 48.1282 86.3919 47.9742 86.3903 47.8182C86.382 47.5115 86.2615 47.2185 86.0515 46.9949C85.829 46.7829 85.5351 46.6619 85.2278 46.6557H85.1918C85.0352 46.6481 84.8796 46.6856 84.7436 46.7638C84.6012 46.8136 84.4727 46.8965 84.3685 47.0057C84.2552 47.1066 84.1715 47.2364 84.1262 47.3812C84.0537 47.5193 84.0166 47.6733 84.0182 47.8294C84.0267 48.1362 84.1473 48.4292 84.3574 48.653C84.5786 48.8668 84.8731 48.9879 85.1807 48.9918H85.2167C85.3733 48.9993 85.5288 48.9618 85.6649 48.8838C85.8074 48.8338 85.9361 48.7508 86.0404 48.6415C86.1535 48.5405 86.2372 48.4107 86.2826 48.266C86.3552 48.1279 86.3923 47.9739 86.3906 47.8178C86.3824 47.5112 86.2618 47.2182 86.0519 46.9945C85.8293 46.7825 85.5355 46.6615 85.2282 46.6554L85.2275 46.6561Z" fill="#FFADC7"/>
<path d="M89.4784 51.9366H89.4424C89.2858 51.929 89.1302 51.9665 88.9942 52.0446C88.8517 52.0945 88.7231 52.1774 88.6187 52.2866C88.5057 52.3877 88.422 52.5174 88.3765 52.662C88.3041 52.8003 88.267 52.9542 88.2685 53.1102C88.2767 53.417 88.3974 53.71 88.6076 53.9336C88.8287 54.1475 89.1232 54.2689 89.4309 54.2727H89.4669C89.6235 54.2801 89.7791 54.2426 89.9151 54.1647C90.0575 54.1147 90.1861 54.0316 90.2902 53.9224C90.4036 53.8216 90.4873 53.6917 90.5325 53.5469C90.605 53.4087 90.6421 53.2547 90.6405 53.0987C90.6321 52.792 90.5115 52.499 90.3014 52.2754C90.079 52.0634 89.7853 51.9424 89.4781 51.9363H89.4421C89.2854 51.9286 89.1299 51.9661 88.9939 52.0443C88.8514 52.0941 88.7227 52.177 88.6184 52.2862C88.5053 52.3873 88.4216 52.517 88.3761 52.6617C88.3037 52.7999 88.2666 52.9539 88.2681 53.1099C88.2763 53.4166 88.397 53.7097 88.6072 53.9332C88.8283 54.1472 89.1229 54.2685 89.4305 54.2723H89.4666C89.6232 54.2798 89.7787 54.2423 89.9148 54.1643C90.0572 54.1143 90.1857 54.0313 90.2899 53.922C90.4032 53.8212 90.487 53.6914 90.5321 53.5466C90.6047 53.4084 90.6418 53.2544 90.6401 53.0984C90.6318 52.7916 90.5111 52.4987 90.301 52.275C90.0786 52.0631 89.7849 51.9421 89.4777 51.9359L89.4784 51.9366Z" fill="#FFADC7"/>
<path d="M81.243 64.9311H81.207C81.0503 64.9236 80.8948 64.9611 80.7588 65.0391C80.6162 65.0891 80.4876 65.1721 80.3833 65.2814C80.2702 65.3824 80.1865 65.5122 80.141 65.6569C80.0685 65.795 80.0314 65.949 80.033 66.1051C80.0415 66.4118 80.1622 66.7047 80.3721 66.9284C80.5934 67.1424 80.888 67.2637 81.1958 67.2675H81.2318C81.3885 67.2751 81.544 67.2376 81.68 67.1595C81.8225 67.1097 81.9511 67.0266 82.0551 66.9172C82.1685 66.8165 82.2522 66.6869 82.2974 66.5421C82.3699 66.404 82.407 66.25 82.4054 66.0939C82.4061 65.941 82.3765 65.7896 82.3182 65.6482C82.26 65.5068 82.1744 65.3784 82.0663 65.2703C81.9582 65.1622 81.8297 65.0767 81.6884 65.0185C81.547 64.9603 81.3955 64.9308 81.2426 64.9315H81.2066C81.05 64.924 80.8944 64.9615 80.7584 65.0395C80.6159 65.0895 80.4872 65.1725 80.3829 65.2818C80.2698 65.3828 80.1861 65.5125 80.1406 65.6572C80.0681 65.7954 80.031 65.9494 80.0326 66.1054C80.0412 66.4121 80.1618 66.705 80.3718 66.9288C80.593 67.1427 80.8877 67.264 81.1954 67.2679H81.2314C81.3881 67.2754 81.5436 67.238 81.6796 67.1599C81.8221 67.11 81.9507 67.027 82.0548 66.9176C82.1681 66.8169 82.2519 66.6872 82.297 66.5425C82.3696 66.4043 82.4067 66.2503 82.4051 66.0943C82.4057 65.9414 82.3761 65.7899 82.3179 65.6486C82.2597 65.5072 82.1741 65.3788 82.0659 65.2707C81.9578 65.1626 81.8294 65.077 81.688 65.0189C81.5466 64.9607 81.3951 64.9311 81.2422 64.9318L81.243 64.9311Z" fill="#FFADC7"/>
<path d="M91.7913 42.2845H91.7553C91.5987 42.2769 91.4431 42.3144 91.3071 42.3925C91.1647 42.4425 91.036 42.5254 90.9316 42.6344C90.8186 42.7355 90.735 42.8652 90.6897 43.0099C90.6172 43.1481 90.5801 43.3021 90.5817 43.4581C90.5899 43.7649 90.7106 44.0579 90.9208 44.2814C91.1419 44.4954 91.4365 44.6168 91.7442 44.6206H91.7802C91.9368 44.628 92.0923 44.5906 92.2284 44.5126C92.3709 44.4626 92.4996 44.3795 92.6038 44.2703C92.717 44.1693 92.8006 44.0396 92.8458 43.8948C92.9183 43.7566 92.9554 43.6026 92.9538 43.4466C92.9456 43.1399 92.8249 42.8468 92.6146 42.6233C92.3922 42.4113 92.0985 42.2903 91.7913 42.2842H91.7553C91.5987 42.2766 91.4431 42.314 91.3071 42.3922C91.1647 42.4421 91.036 42.525 90.9316 42.6341C90.8186 42.7351 90.735 42.8649 90.6897 43.0096C90.6172 43.1477 90.5801 43.3017 90.5817 43.4578C90.5899 43.7645 90.7106 44.0575 90.9208 44.2811C91.1419 44.4951 91.4365 44.6164 91.7442 44.6202H91.7802C91.9368 44.6277 92.0923 44.5902 92.2284 44.5122C92.3709 44.4622 92.4996 44.3792 92.6038 44.2699C92.717 44.169 92.8006 44.0392 92.8458 43.8944C92.9183 43.7563 92.9554 43.6023 92.9538 43.4462C92.9456 43.1395 92.8249 42.8465 92.6146 42.6229C92.3922 42.411 92.0985 42.29 91.7913 42.2838V42.2845Z" fill="#FFADC7"/>
<path d="M42.2477 43.447H42.2117C42.0551 43.4395 41.8996 43.477 41.7635 43.555C41.6211 43.605 41.4926 43.688 41.3884 43.7972C41.2751 43.8981 41.1913 44.0279 41.1461 44.1727C41.0736 44.3107 41.0365 44.4646 41.0381 44.6206C41.0465 44.9274 41.1672 45.2205 41.3773 45.4442C41.5984 45.6582 41.8929 45.7796 42.2006 45.7834H42.2366C42.3932 45.791 42.5488 45.7535 42.6848 45.6754C42.8274 45.6255 42.9561 45.5425 43.0603 45.4331C43.1735 45.3321 43.2572 45.2024 43.3025 45.0576C43.3751 44.9196 43.4122 44.7657 43.4105 44.6098C43.4023 44.303 43.2817 44.0099 43.0718 43.7861C42.8523 43.5694 42.5565 43.4476 42.2481 43.447H42.2121C42.0555 43.4395 41.9 43.477 41.7639 43.555C41.6215 43.605 41.4929 43.688 41.3888 43.7972C41.2754 43.8981 41.1917 44.0279 41.1465 44.1727C41.0739 44.3107 41.0368 44.4646 41.0385 44.6206C41.0469 44.9274 41.1676 45.2205 41.3776 45.4442C41.5987 45.6582 41.8933 45.7796 42.2009 45.7834H42.2369C42.3936 45.791 42.5492 45.7535 42.6851 45.6754C42.8277 45.6255 42.9564 45.5425 43.0606 45.4331C43.1738 45.3321 43.2575 45.2024 43.3029 45.0576C43.3755 44.9196 43.4126 44.7657 43.4109 44.6098C43.4026 44.303 43.2821 44.0099 43.0721 43.7861C42.8527 43.5694 42.5569 43.4476 42.2485 43.447H42.2477Z" fill="#FFADC7"/>
<path d="M33.372 59.2753H33.336C33.1794 59.2679 33.0239 59.3054 32.8878 59.3833C32.7454 59.4333 32.6168 59.5164 32.5127 59.6256C32.3993 59.7265 32.3156 59.8563 32.2704 60.0011C32.1979 60.1393 32.1608 60.2933 32.1624 60.4493C32.1708 60.756 32.2915 61.049 32.5015 61.2726C32.7226 61.4866 33.0172 61.6079 33.3248 61.6117H33.3608C33.5175 61.6194 33.6731 61.5819 33.809 61.5037C33.9516 61.4539 34.0802 61.371 34.1845 61.2618C34.2976 61.1607 34.3813 61.031 34.4268 60.8863C34.4993 60.7482 34.5365 60.5942 34.5348 60.4381C34.5266 60.1315 34.406 59.8385 34.196 59.6148C33.9754 59.4 33.6803 59.2785 33.3724 59.2757H33.3364C33.1797 59.2683 33.0242 59.3057 32.8882 59.3837C32.7458 59.4337 32.6172 59.5167 32.513 59.626C32.3997 59.7268 32.3159 59.8566 32.2708 60.0015C32.1982 60.1396 32.1611 60.2936 32.1628 60.4497C32.1711 60.7564 32.2918 61.0493 32.5019 61.273C32.723 61.487 33.0175 61.6083 33.3252 61.6121H33.3612C33.5179 61.6197 33.6734 61.5822 33.8094 61.5041C33.9519 61.4542 34.0806 61.3713 34.1849 61.2622C34.2979 61.1611 34.3816 61.0314 34.4272 60.8867C34.4997 60.7485 34.5368 60.5945 34.5352 60.4385C34.5269 60.1318 34.4064 59.8389 34.1964 59.6152C33.9757 59.4003 33.6807 59.2789 33.3727 59.2761L33.372 59.2753Z" fill="#FFADC7"/>
<path d="M35.9384 50.132H35.9024C35.7457 50.1246 35.5902 50.162 35.4542 50.24C35.3117 50.29 35.183 50.3731 35.0787 50.4823C34.9656 50.5834 34.8819 50.7131 34.8364 50.8578C34.7641 50.996 34.727 51.15 34.7284 51.306C34.7366 51.6127 34.8573 51.9058 35.0675 52.1293C35.2886 52.3433 35.5832 52.4646 35.8909 52.4684H35.9269C36.0835 52.476 36.2391 52.4386 36.3751 52.3604C36.5176 52.3105 36.6463 52.2275 36.7505 52.1182C36.8637 52.0173 36.9473 51.8877 36.9925 51.743C37.065 51.6049 37.1021 51.4509 37.1005 51.2948C37.092 50.988 36.9714 50.695 36.7613 50.4712C36.5388 50.2594 36.2451 50.1386 35.938 50.1324H35.902C35.7454 50.1249 35.5899 50.1624 35.4538 50.2404C35.3113 50.2904 35.1826 50.3734 35.0783 50.4827C34.9652 50.5837 34.8815 50.7135 34.8361 50.8582C34.7637 50.9964 34.7266 51.1503 34.7281 51.3064C34.7363 51.6131 34.857 51.9061 35.0672 52.1297C35.2883 52.3437 35.5828 52.465 35.8905 52.4688H35.9265C36.0832 52.4764 36.2387 52.4389 36.3747 52.3608C36.5173 52.3109 36.6459 52.2278 36.7502 52.1185C36.8633 52.0177 36.9469 51.888 36.9921 51.7434C37.0646 51.6052 37.1017 51.4512 37.1001 51.2952C37.0917 50.9884 36.971 50.6953 36.761 50.4715C36.5385 50.2598 36.2448 50.1389 35.9377 50.1328L35.9384 50.132Z" fill="#FFADC7"/>
<path d="M55.9566 24.4581L56.6834 32.2812C56.7343 32.6341 56.6826 32.9942 56.5345 33.3185C56.3863 33.6427 56.148 33.9175 55.8479 34.11C55.0364 34.5338 54.3582 34.182 53.8736 33.7587C53.4383 33.3479 53.1818 32.7825 53.1594 32.1844C53.0874 30.6951 52.6143 23.9858 52.5416 23.8889" fill="#FFC3A9"/>
<path d="M55.9566 24.4581L56.6834 32.2812C56.7343 32.6341 56.6826 32.9942 56.5345 33.3185C56.3863 33.6427 56.148 33.9175 55.8479 34.11C55.0364 34.5338 54.3582 34.182 53.8736 33.7587C53.4383 33.3479 53.1818 32.7825 53.1594 32.1844C53.0874 30.6951 52.6143 23.9858 52.5416 23.8889" stroke="#E89589" stroke-width="1.346" stroke-linecap="round" stroke-linejoin="round"/>
<path d="M48.3635 14.2247C47.5521 18.3546 48.9208 26.7105 55.0484 27.1951C63.9375 27.6066 60.8976 12.9895 60.8976 12.9895" fill="#FFC3A9"/>
<path d="M48.3635 14.2247C47.5521 18.3546 48.9208 26.7105 55.0484 27.1951C63.9375 27.6066 60.8976 12.9895 60.8976 12.9895" stroke="#E89589" stroke-width="1.346" stroke-miterlimit="10"/>
<path d="M54.6219 18.6234C54.6613 18.1904 54.4125 17.8138 54.0662 17.7823C53.7199 17.7508 53.4072 18.0763 53.3678 18.5094C53.3284 18.9424 53.5773 19.319 53.9236 19.3505C54.2699 19.382 54.5825 19.0565 54.6219 18.6234Z" fill="#621CD1"/>
<path d="M56.3566 21.9267C56.3566 21.9267 57.4949 22.2781 57.2767 21.7827C57.0769 21.3257 56.9345 20.8456 56.853 20.3535" stroke="#E89589" stroke-width="1.346" stroke-linecap="round" stroke-linejoin="round"/>
<path d="M54.0918 16.3321C53.8828 16.2571 53.6579 16.2377 53.4392 16.2759C53.2205 16.3141 53.0155 16.4085 52.8444 16.5499" stroke="#AE504A" stroke-width="1.346" stroke-linecap="round" stroke-linejoin="round"/>
<path d="M55.4602 24.1312C55.2204 24.1902 54.9677 24.1645 54.7446 24.0586C54.5216 23.9527 54.342 23.7729 54.2362 23.5498" stroke="#E89589" stroke-width="1.346" stroke-linecap="round" stroke-linejoin="round"/>
<path d="M58.9657 18.6186C59.0051 18.1855 58.7562 17.8089 58.4099 17.7774C58.0636 17.7459 57.751 18.0715 57.7116 18.5045C57.6722 18.9375 57.921 19.3141 58.2673 19.3456C58.6136 19.3771 58.9263 19.0516 58.9657 18.6186Z" fill="#621CD1"/>
<path d="M59.4083 16.5621C59.2595 16.3938 59.07 16.2665 58.858 16.1923C58.646 16.1181 58.4185 16.0994 58.1973 16.138" stroke="#AE504A" stroke-width="1.346" stroke-linecap="round" stroke-linejoin="round"/>
<path d="M54.2614 4.5851C52.8934 5.37243 52.2025 6.69219 52.5053 7.69731L51.1013 8.49687C50.3989 7.72178 48.8729 7.69731 47.5045 8.47239C45.9907 9.33243 45.2398 10.8581 45.8212 11.8755C46.4026 12.8928 48.0978 13.0275 49.6116 12.1541C51.0408 11.3427 51.7914 9.93795 51.3799 8.92059L52.7479 8.14551C53.4139 9.01743 55.0004 9.07791 56.4293 8.26647C57.9413 7.40679 58.7063 5.83251 58.1249 4.81514C57.5312 3.81002 55.7752 3.72542 54.2614 4.5851Z" fill="#3E9FF8"/>
<path d="M47.6489 14.1643C47.5157 17.1192 47.9034 17.1192 49.9623 16.6123C52.0207 16.0918 51.5124 13.7788 51.5124 13.7788C51.5124 13.7788 57.9427 17 64.5084 10.4362C71.0741 3.87228 63.9879 -0.378235 59.3604 2.97624C54.7222 6.31848 51.2604 11.4654 51.2604 11.4654L47.6489 14.1643Z" fill="#AE504A" stroke="#AE504A" stroke-width="1.009" stroke-miterlimit="10"/>
<path d="M64.5793 39.3296C67.2073 42.805 72.0515 48.2065 67.9219 55.2909C63.5984 62.7026 68.3093 68.5519 68.3093 68.5519" stroke="#FF5C76" stroke-width="1.346" stroke-linecap="round" stroke-linejoin="round"/>
<path d="M61.128 73.0081C59.3838 74.0619 57.8096 72.5481 59.6142 70.3319C61.4308 68.1276 66.6259 58.3439 68.3943 57.3132C70.1626 56.2825 79.5114 59.3235 80.5288 59.5171C81.5461 59.7108 81.4976 60.6072 80.4208 61.3096C79.3419 62.0245 61.128 73.0081 61.128 73.0081Z" stroke="#465CFF" stroke-width="2.018" stroke-miterlimit="10"/>
<path d="M70.1136 50.3377C70.4527 47.4192 65.8389 45.869 64.8821 49.478C64.1919 52.106 66.7227 52.9538 67.4496 53.1353C68.1764 53.3167 68.7211 57.0233 68.7211 57.0233" stroke="#465CFF" stroke-width="2.018" stroke-linecap="round" stroke-linejoin="round"/>
<path d="M58.0154 48.7154C59.3834 46.9229 62.6295 45.2637 63.8891 45.3728C65.1488 45.4819 67.5219 46.2206 68.297 48.0008C69.0357 49.6841 68.189 49.2608 67.7764 49.0545C68.612 49.575 69.0364 51.4766 67.6684 50.7379C68.6131 51.6821 68.1893 52.8449 67.3538 52.3121C67.5593 52.8327 67.2098 53.7881 66.4091 53.2568C65.4645 52.6268 62.6792 53.2323 61.4923 52.7117C60.3284 52.1908 58.0154 48.7154 58.0154 48.7154Z" fill="#FFC3A9" stroke="#E89589" stroke-width="1.346" stroke-linecap="round" stroke-linejoin="round"/>
<path d="M64.6279 47.0559C65.7799 47.2618 67.3639 48.6302 67.7765 49.0543Z" fill="#FFC3A9"/>
<path d="M64.6279 47.0559C65.7799 47.2618 67.3639 48.6302 67.7765 49.0543" stroke="#E89589" stroke-width="1.346" stroke-linecap="round" stroke-linejoin="round"/>
<path d="M65.0393 49.0544C65.8749 49.2604 67.6673 50.7378 67.6673 50.7378Z" fill="#FFC3A9"/>
<path d="M65.0393 49.0544C65.8749 49.2604 67.6673 50.7378 67.6673 50.7378" stroke="#E89589" stroke-width="1.346" stroke-linecap="round" stroke-linejoin="round"/>
<path d="M64.8335 50.7378C65.7781 51.0524 67.0378 51.7912 67.3535 52.3121Z" fill="#FFC3A9"/>
<path d="M64.8335 50.7378C65.7781 51.0524 67.0378 51.7912 67.3535 52.3121" stroke="#E89589" stroke-width="1.346" stroke-linecap="round" stroke-linejoin="round"/>
<path d="M35.4903 80.5046C35.1512 77.7686 34.461 60.4865 41.5332 54.8914" stroke="#FFEB7D" stroke-width="2.018" stroke-linecap="round" stroke-linejoin="round"/>
<path d="M34.4488 81.4614C34.3048 85.906 33.1528 96.9022 32.6444 101.661C32.5778 102.286 32.7415 102.914 33.105 103.427C33.4684 103.94 34.0065 104.302 34.6183 104.447L41.7632 106.13C42.2347 106.24 42.7276 106.216 43.1858 106.059C43.6441 105.903 44.0493 105.621 44.3552 105.246L53.2685 94.2864C53.5019 93.998 53.6703 93.6626 53.7623 93.3031C53.8544 92.9436 53.8678 92.5686 53.8016 92.2034L50.7496 75.043C50.6825 74.6565 50.5275 74.2905 50.2965 73.9734C50.0656 73.6564 49.7648 73.3966 49.4176 73.2142L47.601 72.2454C47.1694 72.017 46.6816 71.9162 46.1948 71.9548C45.708 71.9935 45.2422 72.1699 44.852 72.4636L35.4661 79.4753C35.1636 79.7136 34.916 80.0144 34.7404 80.3572C34.5648 80.7 34.4654 81.0766 34.4488 81.4614V81.4614Z" fill="#FFEB7D"/>
<path d="M30.4887 66.6022C31.4816 68.3947 33.1887 71.2887 34.0491 72.7665C34.2217 73.0572 34.3351 73.379 34.3829 73.7136C34.4308 74.0482 34.412 74.389 34.3277 74.7163L30.0283 91.3436C29.9267 91.7327 29.7359 92.0928 29.4711 92.3955C29.2063 92.6982 28.8747 92.9351 28.5026 93.0875L18.7779 97.0115C18.4588 97.1407 18.1169 97.2046 17.7726 97.1993C17.4283 97.1941 17.0886 97.1198 16.7735 96.9809C16.4585 96.842 16.1745 96.6413 15.9384 96.3906C15.7023 96.14 15.5188 95.8446 15.3989 95.5218L10.0947 81.1938C9.91757 80.7215 9.884 80.2074 9.9982 79.7161C10.1124 79.2248 10.3693 78.7783 10.7366 78.4326L23.3193 66.4201C23.7149 66.0445 24.2187 65.803 24.7593 65.73L27.9079 65.3059C28.4184 65.2392 28.9371 65.327 29.3972 65.5581C29.8572 65.7892 30.2374 66.1529 30.4887 66.6022V66.6022Z" fill="#F9C126"/>
<path d="M60.813 67.7041C61.4185 66.1903 63.6833 62.9809 63.6833 62.9809C69.2175 67.1954 72.9597 61.1038 74.4735 57.4707C77.5494 57.7857 78.4094 58.4881 78.4094 58.4881C78.4094 58.4881 73.2139 65.3788 79.4509 68.7333C80.4924 74.728 81.1584 86.7657 84.1133 89.1395C82.9991 94.6115 68.9875 100.063 65.2939 99.3121C64.7247 96.0544 63.7801 80.1295 62.8718 78.2765C64.3493 75.1521 65.088 69.5206 60.813 67.7041Z" fill="#A4D2FC"/>
<path d="M47.2011 42.2844C46.4865 44.6215 44.9849 50.8585 45.324 53.0747" stroke="#FF5C76" stroke-width="1.346" stroke-linecap="round" stroke-linejoin="round"/>
<path d="M75.6482 54.3826C77.0652 51.8032 78.9904 48.7151 78.9904 48.7151" stroke="#FF5C76" stroke-width="1.346" stroke-linecap="round" stroke-linejoin="round"/>
<path d="M34.3638 80.7591L40.3949 84.6471C40.7138 84.8532 41.0964 84.9373 41.4724 84.884C41.8484 84.8306 42.1925 84.6433 42.4415 84.3566L50.4223 75.1283C50.5468 74.9853 50.6379 74.8164 50.6888 74.6338C50.7398 74.4512 50.7494 74.2595 50.7169 74.0727C50.6844 73.8859 50.6107 73.7087 50.501 73.5541C50.3914 73.3994 50.2487 73.2711 50.0832 73.1786L47.3112 71.6284C46.899 71.3963 46.4275 71.291 45.9557 71.3255C45.4839 71.36 45.0328 71.5329 44.6587 71.8224L34.3156 79.6679C34.231 79.7335 34.1634 79.8184 34.1185 79.9155C34.0736 80.0126 34.0526 80.1191 34.0573 80.226C34.062 80.3329 34.0923 80.4371 34.1457 80.5298C34.199 80.6226 34.2738 80.7012 34.3638 80.7591V80.7591Z" fill="#F9C126"/>
<path opacity="0.54" d="M22.1083 63.7804C23.4889 67.2922 24.9422 71.9304 25.6564 74.2679C25.7793 74.6785 26.0475 75.0303 26.4108 75.2576C26.7741 75.4849 27.2077 75.5721 27.6307 75.5031L35.7444 74.2071L28.9263 61.8547L22.1083 63.7804Z" fill="#FF5C76"/>
<path opacity="0.46" d="M25.7173 76.2542C24.4336 78.1798 16.9614 92.8573 17.3488 95.8122" stroke="#FF5C76" stroke-width="1.346" stroke-linecap="round" stroke-linejoin="round"/>
<path d="M41.5439 86.8145C42.0645 89.1275 43.857 103.926 43.2151 105.089" stroke="#F9C126" stroke-width="1.346" stroke-linecap="round" stroke-linejoin="round"/>
<path d="M48.3634 68.5396C49.6472 67.7645 61.1035 61.0796 61.8786 53.0988C59.6869 51.9364 57.7612 48.3396 57.7612 48.3396C55.0612 48.9815 44.888 51.6818 41.5454 56.3204" stroke="#FF5C76" stroke-width="1.346" stroke-linecap="round" stroke-linejoin="round"/>
<path d="M42.4416 54.3828C36.9073 57.8586 40.2495 80.8925 42.0542 85.3975" stroke="#FFEB7D" stroke-width="2.018" stroke-linecap="round" stroke-linejoin="round"/>
<path d="M25.7173 74.9704C26.4924 72.391 37.0404 57.7264 42.4414 54.8914" stroke="#F9C126" stroke-width="2.018" stroke-linecap="round" stroke-linejoin="round"/>
<path d="M23.0166 67.3773C25.4646 65.1852 34.8606 53.4744 42.8292 54.3813" stroke="#F9C126" stroke-width="2.018" stroke-linecap="round" stroke-linejoin="round"/>
<path d="M50.4224 75.7439C49.7805 70.7302 47.9744 69.4346 47.9744 69.4346" stroke="#FFEB7D" stroke-width="2.018" stroke-linecap="round" stroke-linejoin="round"/>
</svg>
