<svg width="40" height="40" viewBox="0 0 40 40" fill="none" xmlns="http://www.w3.org/2000/svg">
<g clip-path="url(#clip0)">
<path d="M36.4062 2.5H28.2031L20 4.0625L8.28125 21.25L20 40H36.4062V2.5Z" fill="#49C4EE"/>
<path d="M3.59375 2.5V40H20V4.0625L11.7969 2.5H3.59375Z" fill="#49C4EE"/>
<path d="M31.7188 7.1875H20L15.3125 21.25L20 35.3125H31.7188V7.1875Z" fill="#F3F3F3"/>
<path d="M8.28125 7.1875H20V35.3125H8.28125V7.1875Z" fill="white"/>
<path d="M22.3438 20.0781V16.5625H20L17.6562 22.4219L20 28.2812H22.3438V24.7656H25.8594V20.0781H22.3438Z" fill="#0047BE"/>
<path d="M17.6562 16.5625V20.0781H14.1406V24.7656H17.6562V28.2812H20V16.5625H17.6562Z" fill="#0047BE"/>
<path d="M28.2031 2.5H23.9563L22.486 1.02966C21.8219 0.365601 20.939 0 20 0L17.6562 4.76562L20 9.53125H28.2031V2.5Z" fill="#00DEB0"/>
<path d="M17.514 1.02966L16.0437 2.5H11.7969V9.53125H20V0C19.061 0 18.1781 0.365601 17.514 1.02966Z" fill="#00DEB0"/>
</g>
<defs>
<clipPath id="clip0">
<rect width="40" height="40" fill="white"/>
</clipPath>
</defs>
</svg>
