<svg xmlns="http://www.w3.org/2000/svg" width="40" height="40" fill="none"><g clip-path="url(#A)"><g fill="#49c4ee"><path d="M36.406 2.5h-8.203L20 4.063 8.28 21.25 20 40h16.406V2.5z"/><path d="M3.594 2.5V40H20V4.063L11.797 2.5H3.594z"/></g><path d="M31.72 7.188H20L15.313 21.25 20 35.313h11.72V7.188z" fill="#f3f3f3"/><path d="M8.28 7.188H20v28.125H8.28V7.188z" fill="#fff"/><g fill="#0047be"><path d="M22.344 20.078v-3.516H20l-2.344 5.86L20 28.28h2.344v-3.516h3.516v-4.687h-3.516z"/><path d="M17.656 16.563v3.516H14.14v4.688h3.516v3.516H20v-11.72h-2.344z"/></g><g fill="#00deb0"><path d="M28.203 2.5h-4.247l-1.47-1.47A3.49 3.49 0 0 0 20 0l-2.344 4.766L20 9.53h8.203V2.5z"/><path d="M17.514 1.03l-1.47 1.47h-4.247v7.03H20V0a3.49 3.49 0 0 0-2.486 1.03z"/></g></g><defs><clipPath id="A"><path fill="#fff" d="M0 0h40v40H0z"/></clipPath></defs></svg>