<svg xmlns="http://www.w3.org/2000/svg" xmlns:xlink="http://www.w3.org/1999/xlink" width="108" height="108" fill="none"><style><![CDATA[.B{fill:#465cff}.C{stroke:#e89589}.D{stroke-width:1.391}.E{stroke-linecap:round}.F{stroke-linejoin:round}.G{fill:#621cd1}.H{stroke-miterlimit:10}]]></style><path d="M103.822 96.5H4.18c-.312 0-.622-.06-.9-.18s-.55-.295-.772-.516-.396-.483-.516-.772a2.37 2.37 0 0 1-.18-.91h0c0-.312.06-.622.18-.9s.295-.55.516-.772.483-.396.772-.516a2.37 2.37 0 0 1 .91-.18h99.643a2.29 2.29 0 0 1 .9.18c.28.12.55.295.772.516s.396.483.516.772a2.39 2.39 0 0 1 0 1.821c-.12.3-.295.55-.516.772s-.483.396-.772.516a2.36 2.36 0 0 1-.9.18h0zm-1.766-67.473h-31.77c-.535 0-1.047.212-1.425.6s-.6.9-.6 1.425v27.414c-.001.164.05.324.147.457s.23.233.387.284a.78.78 0 0 0 .48.002.85.85 0 0 0 .4-.28l3.154-4.28a2.02 2.02 0 0 1 .715-.608c.283-.144.596-.218.913-.218h27.614a2.01 2.01 0 0 0 .772-.153 2.02 2.02 0 0 0 .655-.437 2.03 2.03 0 0 0 .437-.654c.1-.245.153-.507.152-.772V31.042a2.03 2.03 0 0 0-.6-1.425 2.04 2.04 0 0 0-1.43-.6z" fill="#a4d2fc"/><path d="M89.952 37.414H74.467c-.14 0-.278-.027-.407-.08a1.06 1.06 0 0 1-.576-.576 1.06 1.06 0 0 1 0-.815 1.06 1.06 0 0 1 .576-.576c.13-.053.268-.08.407-.08h15.485c.14 0 .278.027.407.08s.246.132.345.23a1.06 1.06 0 0 1 .231.345c.053.13.08.267.08.407h0a1.07 1.07 0 0 1-1.064 1.064z" class="B"/><path d="M98.627 48.93H80.85c-.14 0-.278-.027-.407-.08s-.246-.132-.345-.23a1.06 1.06 0 0 1-.231-.345c-.053-.13-.08-.268-.08-.407h0c0-.14.027-.278.08-.407a1.06 1.06 0 0 1 .231-.345c.1-.1.216-.177.345-.23s.268-.08.407-.08h17.776c.14 0 .278.027.407.08s.246.132.345.23.177.216.23.345a1.06 1.06 0 0 1 .081.407h0a1.06 1.06 0 0 1-.081.407c-.054.13-.132.246-.23.345s-.216.177-.345.23-.267.08-.407.08h0z" fill="#fff"/><path d="M93.932 40.92H74.467c-.14 0-.278-.027-.407-.08s-.247-.132-.345-.23-.177-.216-.23-.345a1.06 1.06 0 0 1 0-.815 1.06 1.06 0 0 1 .576-.576 1.06 1.06 0 0 1 .407-.081h19.465a1.06 1.06 0 0 1 .407.081c.13.053.246.132.345.23s.177.216.23.345.08.267.08.407-.027.278-.08.407-.132.246-.23.345a1.06 1.06 0 0 1-.345.231c-.13.053-.268.08-.407.08h0z" class="B"/><path d="M68.02 66.142c-4.244-5.832-14.07-6.722-16.962-6.86v-.025s-.15 0-.4.013c-.263-.013-.4-.013-.4-.013v.025c-2.892.138-12.718 1.026-16.962 6.86-5.007 6.885-6.634 14.77-6.634 18.4s1.74 7 9.376 7.135l14.62.038 14.62-.038c7.65-.125 9.376-3.505 9.376-7.135s-1.627-11.516-6.634-18.4z" fill="#ffeb7d"/><g fill="#f9c126"><path d="M35.786 75.03c-.225-.025-.288.2-.252.376z"/><path d="M35.924 74.53c-.073-.024-.15-.036-.225-.036.05.013.1.013.15.025a.86.86 0 0 0-1.039.35c-.1.198-.14.43-.087.65a.95.95 0 0 0 .144.3.68.68 0 0 0 .245.21c.198.1.43.14.65.088a.82.82 0 0 0 .501-.388l.088-.2c.036-.1.04-.226.013-.338a.58.58 0 0 0-.1-.313c-.05-.076-.1-.148-.175-.213l-.113.864c.01-.001.018-.006.025-.012-.038.012-.088.036-.125.05a.08.08 0 0 1 .05-.013.51.51 0 0 0 .375-.501.52.52 0 0 0-.075-.263.5.5 0 0 0-.124-.157c-.05-.043-.112-.076-.176-.095h0zm4.494 3.842a.68.68 0 0 0 .501-.213.76.76 0 0 0 .213-.5.68.68 0 0 0-.213-.5c-.135-.13-.313-.207-.5-.213-.094-.001-.186.018-.273.054a.68.68 0 0 0-.228.159.76.76 0 0 0-.213.5.68.68 0 0 0 .213.501c.135.13.313.207.5.213zm0-4.518a.58.58 0 0 0 .401-.163.55.55 0 0 0 .163-.401.58.58 0 0 0-.163-.401c-.1-.102-.252-.16-.4-.163a.58.58 0 0 0-.401.163.55.55 0 0 0-.163.401.58.58 0 0 0 .163.401c.1.102.252.16.4.163h0zm-3.38-5.584c-.038.025-.063.05-.1.075-.013-.025-.013-.05-.025-.075m.313-.425a.54.54 0 0 0-.513-.036.58.58 0 0 0-.188.113c-.073.067-.125.154-.15.25v.013c-.013.05-.013.1-.025.15.013.05.013.1.025.15a.63.63 0 0 0 .15.252.6.6 0 0 0 .638.125.59.59 0 0 0 .351-.451c.013-.102 0-.205-.036-.3a.83.83 0 0 0-.252-.263v-.003zm4.444.55c-.036.013-.062.013-.1.025a.96.96 0 0 1-.15.35m-.15-1.063a.5.5 0 0 1-.088.062.89.89 0 0 0-.313.363.73.73 0 0 0-.036.488v.025c.04.14.118.264.227.36s.242.158.385.18c.132.015.265-.002.388-.05a.69.69 0 0 0 .351-.301c0-.013.013-.013.013-.025l-.85.35c.025 0 .063.013.088.013a.82.82 0 0 0 .425 0c.185-.047.345-.162.45-.322a.76.76 0 0 0 .114-.542.8.8 0 0 0-.122-.33.77.77 0 0 0-.253-.245c-.114-.078-.247-.12-.385-.125a.72.72 0 0 0-.392.1v-.001zm-.852-3.308a.37.37 0 0 0-.095.1c-.022.034-.032.093-.03.142m.125.374c.165-.004.322-.07.438-.188a.66.66 0 0 0 .188-.438.64.64 0 0 0-.188-.438.66.66 0 0 0-.438-.188.64.64 0 0 0-.438.188.66.66 0 0 0-.188.438.63.63 0 0 0 .188.438.6.6 0 0 0 .2.138.61.61 0 0 0 .238.05h0zm5.758 1.878c.1 0 .195-.04.266-.1s.1-.166.1-.266-.04-.195-.1-.266-.166-.1-.266-.1-.195.04-.265.1-.1.166-.1.266.04.195.1.266.166.1.265.1h0zm-15.02 4.38a.5.5 0 0 0 .08.218.49.49 0 0 0 .172.157m-.252.55a.91.91 0 0 0 .651-.275.99.99 0 0 0 .275-.651.91.91 0 0 0-.275-.651.96.96 0 0 0-.65-.275.91.91 0 0 0-.651.275.99.99 0 0 0-.275.651c0 .12.024.242.072.353a.91.91 0 0 0 .204.297.96.96 0 0 0 .651.275h0zm-.7 6.16l-.088-.025c-.028-.01-.064-.01-.096-.003s-.062.02-.088.038-.048.044-.064.072-.025.06-.027.092a.21.21 0 0 0 .275.201c.025-.013.063-.013.088-.025a.18.18 0 0 0 .095-.066c.025-.032.037-.07.037-.1s-.013-.078-.037-.1-.057-.055-.095-.066h0zm3.456 5.345a.82.82 0 0 0 .426-.1.94.94 0 0 0 .35-.225.71.71 0 0 0 .225-.35.85.85 0 0 0 .1-.426 1.1 1.1 0 0 0-.324-.776c-.208-.203-.485-.32-.776-.326-.15-.006-.296.03-.426.1a.94.94 0 0 0-.35.225.71.71 0 0 0-.225.35.85.85 0 0 0-.1.425 1.1 1.1 0 0 0 .085.42c.055.133.137.254.24.356a1.12 1.12 0 0 0 .776.324v.001zm-5.885-.588c.12-.002.233-.05.317-.134a.46.46 0 0 0 .134-.317.47.47 0 0 0-.136-.314c-.083-.084-.196-.132-.314-.136-.12.002-.233.05-.317.134a.46.46 0 0 0-.134.317.47.47 0 0 0 .136.315.46.46 0 0 0 .315.136h0zm5.408-4.557a.36.36 0 0 0-.036.2.48.48 0 0 0 .113.275.42.42 0 0 0 .275.113c.05 0 .102-.01.15-.03s.1-.048.127-.084a.42.42 0 0 0 .113-.275.36.36 0 0 0-.036-.2.5.5 0 0 0-.125-.188.34.34 0 0 0-.213-.075.4.4 0 0 0-.175.05.44.44 0 0 0-.188.213h-.003zm11.992 8.362a.29.29 0 0 0-.25-.125m0 .876c.228-.003.447-.093.612-.25a.55.55 0 0 0 .175-.275c.05-.105.077-.22.075-.338-.004-.23-.094-.447-.252-.612a.87.87 0 0 0-.612-.25c-.228.003-.447.093-.612.25a.55.55 0 0 0-.175.275c-.05.105-.077.22-.075.338a.9.9 0 0 0 .063.332c.043.105.107.2.187.282s.176.144.282.187a.84.84 0 0 0 .332.063v-.002zm7.637-6.76c-.013-.025-.013-.05-.025-.075l-.1.075"/><path d="M52.748 81.715a.9.9 0 0 0 .601-.252.84.84 0 0 0 .25-.601c-.003-.225-.093-.44-.25-.6a.85.85 0 0 0-.275-.185c-.103-.043-.214-.065-.325-.065s-.222.022-.325.065-.197.106-.275.185-.143.172-.186.275a.85.85 0 0 0-.066.326c.004.225.094.44.252.6.163.154.377.244.6.252h0zm.438-5.935l-.125.125z"/><path d="M53.06 75.568c-.025.025-.063.036-.088.063h.275c-.066-.04-.144-.06-.222-.05a.34.34 0 0 0-.298.337c.001.09.036.172.1.234s.146.098.235.1.173-.033.236-.094a.34.34 0 0 0 .05-.426v.275c.025-.025.036-.062.063-.088.027-.05.037-.105.03-.16s-.034-.106-.073-.146-.1-.065-.146-.073-.112.002-.16.03zm6.235-1.94c-.013-.013-.025-.036-.036-.05a.52.52 0 0 0-.187-.18.5.5 0 0 0-.25-.065.52.52 0 0 0-.25.065.51.51 0 0 0-.187.18c-.012.012-.025.036-.036.05a.55.55 0 0 0 .476.827.55.55 0 0 0 .476-.827h-.003zm-.6-5.558a.91.91 0 0 0 .651-.275.76.76 0 0 0 .188-.301c.063-.1.1-.237.075-.363a.91.91 0 0 0-.275-.651.96.96 0 0 0-.65-.275.91.91 0 0 0-.651.275c-.086.084-.15.187-.188.3a.6.6 0 0 0-.075.363.94.94 0 0 0 .927.926zm6.134-.426a.29.29 0 0 1-.03.142c-.022.044-.055.082-.095.1m-.663-.454a.98.98 0 0 1 .075-.188c-.013.013-.013.025-.025.05l.5-.388c-.013 0-.013 0-.025.013a.59.59 0 0 0-.3.163.4.4 0 0 0-.163.163.88.88 0 0 0-.163.301l-.036.238.036.238a.59.59 0 0 0 .163.3.4.4 0 0 0 .163.163.86.86 0 0 0 .3.163 1.01 1.01 0 0 0 .475 0 .59.59 0 0 0 .301-.163.41.41 0 0 0 .163-.163.96.96 0 0 0 .163-.3l.036-.238-.036-.238a.82.82 0 0 0-.225-.388l-.013-.013.213.375c-.003-.02-.007-.042-.013-.063l-.087-.2a.53.53 0 0 0-.213-.225.35.35 0 0 0-.175-.1.68.68 0 0 0-.313-.075.92.92 0 0 0-.413.113.53.53 0 0 0-.225.213.36.36 0 0 0-.163.252v-.001zm.913 5.846c-.036.013-.063.013-.1.025-.012.036-.012.063-.025.1"/><path d="M64.953 72.977h-.1c-.057-.001-.112.013-.16.042s-.088.07-.114.12c-.012.012-.012.036-.025.05a.82.82 0 0 0-.05.188c.002.08.032.156.084.215a.34.34 0 0 0 .204.11.32.32 0 0 0 .226-.05.3.3 0 0 0 .136-.187c.02-.052.03-.107.025-.163l-.163.275c.025-.013.062-.025.087-.036.056-.034.1-.085.125-.146s.03-.128.012-.192-.055-.12-.107-.16-.115-.063-.18-.065h0zM61.335 62c-.07.07-.122.157-.15.252a.56.56 0 0 0 .025.35c.04.097.106.18.194.24a.52.52 0 0 0 .295.087c.093-.003.183-.03.264-.075s.15-.1.2-.188a.55.55 0 0 0-.087-.651L62.062 62c-.096-.096-.227-.15-.363-.15s-.267.054-.363.15h0zm-7.022 1.877c-.137.013-.175.063-.113.138a3.66 3.66 0 0 0 .363-.063M54.5 63.2h-.025l.313.188-.013-.013a.98.98 0 0 0-.375-.225.92.92 0 0 0-.451 0c-.145.035-.276.114-.375.225a.97.97 0 0 0-.225.376c-.044.172-.044.353 0 .526l.1.225a.69.69 0 0 0 .238.263.87.87 0 0 0 .576.2l.313-.036.225-.1c.107-.055.198-.137.263-.238a.46.46 0 0 0 .125-.213c.062-.1.088-.237.075-.363a.9.9 0 0 0-.125-.476l-.15-.187a.79.79 0 0 0-.301-.201.52.52 0 0 0-.238-.062.77.77 0 0 0-.375.012c-.018-.001-.035.004-.05.013l.25-.036h-.025l-.25.036c-.122.028-.234.1-.324.175a.47.47 0 0 0-.175.175.75.75 0 0 0-.175.324l1.1-.612H54.4c.075.025.138.063.213.087H54.6l.313.313-.275.964c.012 0 .012 0 .025-.013a1.33 1.33 0 0 0 .138-.113 1.27 1.27 0 0 1 .113-.138.81.81 0 0 0 .087-.45c-.014-.123-.06-.24-.137-.338a.5.5 0 0 0-.351-.288H54.5zm-2.8 7.487c.038.13.122.242.238.313.074.05.16.075.25.075a.45.45 0 0 0 .25-.075.59.59 0 0 0 .238-.313.5.5 0 0 0-.475-.626.49.49 0 0 0-.501.626zm-5.9 3.217c-.043.017-.08.05-.1.1s-.025.1-.013.134c.038.012.075.012.113.025m-.162-.513c-.013.012-.036.012-.05.025l.163-.036c-.104-.017-.2.005-.3.063a.49.49 0 0 0-.188.213.39.39 0 0 0-.025.238.45.45 0 0 0 .388.388.46.46 0 0 0 .451-.213c.04-.07.06-.146.063-.225-.006-.12-.055-.235-.138-.324v-.012c.025.025.05.062.075.088-.013-.013-.025-.036-.036-.05l-.05.388.036-.036a.3.3 0 0 0 .067-.103c.015-.038.022-.08.02-.122a.31.31 0 0 0-.063-.188c-.046-.063-.114-.107-.2-.123s-.156-.004-.223.035v-.005zm1.8-3.617c.002.026-.002.052-.013.075.013-.06.047-.1.095-.148a.25.25 0 0 1 .168-.052m-.25 1.264a1 1 0 0 0 .425-.088.98.98 0 0 0 .576-.576c.067-.13.098-.28.088-.426a1.07 1.07 0 0 0-1.089-1.089 1.01 1.01 0 0 0-.426.088.98.98 0 0 0-.351.225c-.1.1-.176.22-.226.35a.82.82 0 0 0-.088.425 1.11 1.11 0 0 0 .313.776 1.22 1.22 0 0 0 .776.313h0zM46.3 61.76c.013.036.013.063.025.1.036.013.063.013.1.025m-.55-.01a.29.29 0 0 1 .025.1c.033.1.107.206.208.264a.45.45 0 0 0 .332.049.43.43 0 0 0 .263-.2.52.52 0 0 0 .05-.338c0-.036-.013-.063-.013-.1-.014-.055-.04-.107-.073-.152a.42.42 0 0 0-.127-.111.54.54 0 0 0-.338-.05.43.43 0 0 0-.324.54l-.003-.002zm15.322 22.67a.36.36 0 0 0-.351-.275c-.012-.036-.012-.063-.025-.1m1.478-.2a1.55 1.55 0 0 0-.388-.663 3.93 3.93 0 0 0-.275-.213 1.07 1.07 0 0 0-.513-.163.59.59 0 0 0-.363 0 1.07 1.07 0 0 0-.513.163.51.51 0 0 0-.163.125c-.144.096-.264.225-.35.376a.91.91 0 0 0-.163.501.55.55 0 0 0 0 .35.96.96 0 0 0 .025.188l.138.324.238.3a1.31 1.31 0 0 0 .612.35 1.47 1.47 0 0 0 .74 0 2.15 2.15 0 0 0 .388-.163l.263-.213a1.04 1.04 0 0 0 .275-.426.62.62 0 0 0 .088-.338 1.16 1.16 0 0 0-.036-.5v.001zm5.282-1.615a.43.43 0 1 0 0-.864.43.43 0 1 0 0 .864h0zm5.258-1.19c.01-.053.036-.1.075-.138-.175-.025-.238.138-.324.263m-.34-1.364a1.49 1.49 0 0 0-.463.463l-.125.3a1.05 1.05 0 0 0-.05.338l.35-.84c-.142.155-.25.34-.313.54-.056.2-.056.43 0 .638a1.3 1.3 0 0 0 .54.7c.094.054.195.097.3.125l-.838-.84a1.23 1.23 0 0 0 .338.576l.252.2.3.125c.113.01.226.027.338.05a2.96 2.96 0 0 0 .338-.05l.3-.125.25-.2.2-.252c.087-.144.138-.307.15-.475a.77.77 0 0 0 0-.338c.002-.114-.03-.226-.088-.324a.56.56 0 0 0-.163-.275.64.64 0 0 0-.225-.225c-.076-.077-.17-.133-.275-.163a.58.58 0 0 0-.324-.087.77.77 0 0 0-.338 0c-.16.007-.315.054-.45.137l-.005-.001zM68.7 76.407c.013.038.013.063.025.1.036.013.063.013.1.025m-.363-.362l.036-.036a.43.43 0 0 0-.196.264c-.028.1-.012.227.046.325.012.012.025.036.036.05.05.08.124.147.2.2a.49.49 0 0 0 .278.05.47.47 0 0 0 .401-.35.52.52 0 0 0-.002-.254c-.022-.084-.064-.16-.123-.222a.49.49 0 0 0-.588-.075c-.014.013-.03.022-.05.025.075-.025.15-.036.213-.063h-.025c.063.013.113.036.175.05h-.013c-.065-.036-.14-.05-.213-.036-.035.001-.07.01-.103.025s-.06.036-.085.063l.003-.003zM69.7 70.9a1.16 1.16 0 0 0 .363-.025c-.025-.175-.463-.1-.612-.1m-.555.35c.088.45.513.65.9.8a1.06 1.06 0 0 0 .826-.113c.236-.15.412-.374.5-.638a1.12 1.12 0 0 0-.275-1.102c-.122-.12-.267-.213-.426-.276a1.29 1.29 0 0 0-.5-.09 1.2 1.2 0 0 0-.626.163 1.08 1.08 0 0 0-.376.376 1.07 1.07 0 0 0 0 1.051 1.08 1.08 0 0 0 .376.376 1.43 1.43 0 0 0 .388.15l-.252-.113c.025.013.036.025.05.025l-.225-.175.025.025-.175-.225.1.138c.1.115.2.212.324.288l-.225-.175.012.012v-1.527c-.01.023-.028.04-.05.05.075-.05.138-.113.213-.163a1.41 1.41 0 0 0-.324.238 1 1 0 0 0-.252.914l.001.001zm-8.7 7.973a.58.58 0 0 0 .401-.163.55.55 0 0 0 .163-.401.58.58 0 0 0-.163-.4c-.1-.102-.252-.16-.4-.163a.58.58 0 0 0-.4.163.55.55 0 0 0-.163.4.58.58 0 0 0 .163.401.6.6 0 0 0 .4.163h0zm7.26 11.63a.91.91 0 0 0 .651-.275.76.76 0 0 0 .188-.301c.063-.1.1-.237.075-.363 0-.122-.024-.242-.072-.354a.91.91 0 0 0-.204-.298.96.96 0 0 0-.651-.275.91.91 0 0 0-.651.275c-.085.084-.15.187-.188.3-.063.1-.1.237-.075.363a.94.94 0 0 0 .926.927h0zm3.505-5.433c.036.013.063.013.1.025.013.036.013.063.025.1"/><path d="M71.075 85.483c.013 0 .013-.013.025-.013l-.15-.036c.025.025.05.036.062.063a.1.1 0 0 0 .043.023c.016.003.032.004.048.001a.1.1 0 0 0 .043-.02c.013-.01.022-.024.03-.04.013-.025.025-.063.038-.088s.01-.054.004-.08a.15.15 0 0 0-.042-.07c-.025-.025-.036-.05-.062-.063a.23.23 0 0 0-.103-.055c-.04-.01-.08-.006-.117.007a.22.22 0 0 0-.096.067c-.026.03-.042.068-.047.107s.001.077.017.112.04.066.07.088c.037.018.078.028.12.028s.082-.01.12-.028v-.003zm1.9 4.03c-.013-.013-.025-.036-.036-.05a1.26 1.26 0 0 0-1.089-.624 1.27 1.27 0 0 0-.628.167c-.19.11-.35.267-.462.457-.013.012-.025.036-.036.05a1.34 1.34 0 0 0-.175.663c0 .233.062.46.175.663a1.3 1.3 0 0 0 2.254 0 1.34 1.34 0 0 0 .175-.663c0-.233-.062-.46-.175-.663h-.003zM74.1 86.26c.1 0 .176-.036.24-.1a.34.34 0 0 0 0-.48.34.34 0 0 0-.48 0 .34.34 0 0 0 0 .48.34.34 0 0 0 .24.1zm-9.763-7.725c-.034-.004-.07-.001-.1.01s-.062.03-.087.054-.043.054-.054.086a.22.22 0 0 0-.01.102"/><path d="M64.077 77.622a1.39 1.39 0 0 0-.3.113l-.188.15c-.085.084-.15.187-.188.3a.52.52 0 0 0-.063.238.76.76 0 0 0 .013.376c.05.153.13.293.238.413.084.085.187.15.3.188.1.063.237.1.363.075h.05l-.252-.036c.026.004.03.008.036.013.16.045.33.046.5.005s.307-.126.425-.243a.96.96 0 0 0 .275-.663.94.94 0 0 0-.275-.663c-.114-.114-.257-.196-.413-.238-.165-.058-.343-.067-.513-.025l.003-.001zm-3.88 12.555l-.125-.125z"/><path d="M60.7 89.664l-.075-.075c-.138-.133-.32-.2-.513-.213a.73.73 0 0 0-.513.213.71.71 0 0 0-.213.513.79.79 0 0 0 .213.513l.075.075a.76.76 0 0 0 .513.213.73.73 0 0 0 .513-.213.71.71 0 0 0 .213-.513.79.79 0 0 0-.213-.513h0zm-31.173-.114c.298-.003.585-.12.8-.324.205-.218.324-.502.338-.8-.001-.223-.068-.44-.192-.626a1.12 1.12 0 0 0-.506-.415 1.13 1.13 0 0 0-1.231.239 1.25 1.25 0 0 0-.338.801 1.11 1.11 0 0 0 1.126 1.126v-.001zm5.76 2.317a.58.58 0 0 0 .4-.163.55.55 0 0 0 .123-.184c.028-.07.042-.143.04-.217a.58.58 0 0 0-.163-.401.6.6 0 0 0-.4-.163.58.58 0 0 0-.401.163.55.55 0 0 0-.163.401.58.58 0 0 0 .163.401c.1.102.252.16.4.163h0zm1.8-5.545c0-.013.013-.038.013-.05a.56.56 0 0 0-.15-.563c-.122-.114-.264-.172-.413-.175-.05.013-.1.013-.15.025a.52.52 0 0 0-.252.15.58.58 0 0 0-.167.273.56.56 0 0 0 .004.303c0 .013.013.038.013.05a.57.57 0 0 0 .2.297c.097.075.217.115.34.116s.25-.044.35-.12a.6.6 0 0 0 .212-.305h0zm4.432-5.296c.013.013.013.025.025.036.105.174.25.32.425.426a1.19 1.19 0 0 0 1.202 0 1.26 1.26 0 0 0 .426-.426c.012-.012.012-.025.025-.036.1-.185.167-.397.163-.612a1.19 1.19 0 0 0-.163-.612 1.22 1.22 0 0 0-1.04-.602 1.19 1.19 0 0 0-.601.16 1.2 1.2 0 0 0-.438.44c-.1.185-.166.397-.163.612a.97.97 0 0 0 .138.612l.001.001zm13.806-21.042c.094 0 .186-.028.264-.08a.47.47 0 0 0 .175-.214.48.48 0 0 0 .027-.275.49.49 0 0 0-.13-.244.46.46 0 0 0-.244-.13.47.47 0 0 0-.275.027c-.087.037-.16.097-.213.175a.47.47 0 0 0-.08.265.47.47 0 0 0 .476.476zM35.536 63.9c-.013-.2.2-.225.252-.376zm1.252-.35v-.025l.05.35v-.05a2.96 2.96 0 0 1-.05.338v-.013a3.23 3.23 0 0 1 .05-.338.89.89 0 0 0-.113-.501.66.66 0 0 0-.163-.288 1.05 1.05 0 0 0-.363-.338h0l.576 1.402.036-.213a.93.93 0 0 0-.025-.488c-.036-.1-.087-.2-.125-.288a1.04 1.04 0 0 0-.288-.324.8.8 0 0 0-.3-.175.88.88 0 0 0-.476-.1l-.324.036a2.13 2.13 0 0 0-.301.125c-.012.012-.025.012-.036.025l.964-.125h-.012a3.01 3.01 0 0 1-.338-.05.9.9 0 0 0-.501.113.67.67 0 0 0-.288.163 1.05 1.05 0 0 0-.338.363 1.66 1.66 0 0 0-.2.738 1.36 1.36 0 0 0 .376.926 1.28 1.28 0 0 0 .576.338 1.03 1.03 0 0 0 .513.025 1.12 1.12 0 0 0 .488-.15c.15-.078.274-.195.363-.338a1.15 1.15 0 0 0 .238-.438 1.22 1.22 0 0 0 .013-.7h-.001zM49.43 91.554c-.027.002-.053.01-.077.023s-.044.03-.06.052c0-.025.012-.05.012-.075"/><path d="M50.032 91.43c0-.013 0-.013-.013-.025-.038-.125-.1-.24-.187-.338l-.15-.113a.55.55 0 0 0-.275-.088c-.066-.013-.134-.013-.2 0-.066-.003-.132.015-.188.05a.28.28 0 0 0-.163.1c-.085.05-.154.125-.2.213 0 .013-.012.013-.012.025a.75.75 0 0 0 0 .776c.07.112.163.207.275.275.087.053.186.083.288.087a.61.61 0 0 0 .301-.012.79.79 0 0 0 .338-.201.8.8 0 0 0 .188-.751h0z"/></g><use xlink:href="#B" fill="#ffc3a9"/><use xlink:href="#B" class="C D E F"/><path d="M41.194 39.354s-1.94 16.574 8.575 17.15c9.45 0 9.226-14.784 7.085-20.154" fill="#ffc3a9"/><path d="M41.194 39.354s-1.94 16.574 8.575 17.15c9.45 0 9.226-14.784 7.085-20.154" class="C D H"/><path d="M53.483 46.648c.115-.505-.12-1-.523-1.082s-.826.243-.94.748.12 1 .523 1.082.826-.243.94-.748z" class="G"/><path d="M49.494 47.68l.188 2.867c.062.5.726-.213.726-.213" class="C D E F"/><path d="M54.426 44.574a1.95 1.95 0 0 0-1.84-.288" fill="#e28584"/><path d="M54.426 44.574a1.95 1.95 0 0 0-1.84-.288" class="C D E F"/><path d="M46.402 44.172s-1.227.175-1.665.688z" fill="#e28584"/><path d="M46.402 44.172s-1.227.175-1.665.688m5.507 8.2a.69.69 0 0 1-.626.125" class="C D E F"/><path d="M46.484 47.44c.383-.16.532-.676.334-1.155s-.67-.738-1.054-.58-.532.676-.334 1.155.67.738 1.054.58z" class="G"/><g fill="#ff5c76"><path d="M40.168 41.983c3.38 1.878 15.02 1.627 17.775.125-.876-6.134-3.004-9.513-9.138-9.388s-7.51 3.255-8.637 9.264z"/><path d="M54.5 33.596c3.284 0 5.946-2.186 5.946-4.882s-2.662-4.882-5.946-4.882-5.946 2.186-5.946 4.882 2.662 4.882 5.946 4.882z"/></g><path d="M61.736 44.324a3.67 3.67 0 0 0-1.802-1.126c-.363-.1-.363-1.3-.363-1.916.007-.246-.002-.493-.025-.738-.115-.894-.32-1.775-.612-2.628a10.67 10.67 0 0 0-2.479-4.006 9.39 9.39 0 0 0-8.037-2.736 9.39 9.39 0 0 0-6.959 4.864c-.908 1.66-1.474 3.487-1.665 5.37-.025.2-.025.4-.038.6-.007.26-.028.52-.063.776-.062.324-.163.376-.5.5a.76.76 0 0 0-.15.063 3.76 3.76 0 0 0-1.752 1.39c-1.128 1.702-1.166 4.943.474 6.433.738.6 1.666.914 2.616.89.55.008 1.092-.107 1.6-.338.864-.425.45-1.715.15-2.666l-.175-.6c-.266-1.164-.463-2.343-.588-3.53a10.47 10.47 0 0 1 1.002-5.458c1.452-3.117 4.23-5.082 7.248-5.132 2.94-.036 5.746 1.778 7.148 4.632.88 1.858 1.288 3.905 1.188 5.958a23.43 23.43 0 0 1-.714 4.118l-.013.063c-.036.175-.1.35-.15.526-.175.563-.363 1.164-.1 1.615a1.2 1.2 0 0 0 .814.54c1.715.413 3.242.025 4.08-1.014 1.34-1.63 1.265-4.834-.124-6.45z" class="G"/><g class="B"><path d="M66.518 91.742H32.47c-.253-.006-.494-.112-.67-.295a.96.96 0 0 1-.268-.681h0a.97.97 0 0 1 .939-.976h34.05a.96.96 0 0 1 .939.976.96.96 0 0 1-.269.681c-.176.183-.417.29-.67.295h0z"/><path d="M63.6 91.68H34.848c-.335.001-.66-.115-.917-.327s-.434-.508-.498-.837l-3.693-19.14a1.44 1.44 0 0 1 .302-1.191 1.44 1.44 0 0 1 1.112-.524h35.488a1.44 1.44 0 0 1 1.098.503 1.44 1.44 0 0 1 .329 1.162l-3.042 19.14a1.45 1.45 0 0 1-1.427 1.214h0z"/></g><path d="M100.717 91.742H81.4c-.277-.002-.542-.114-.737-.31s-.304-.463-.302-.74v-1.715a1.04 1.04 0 0 1 .3-.743 1.04 1.04 0 0 1 .739-.309h19.34c.277.002.542.114.736.31s.304.463.303.74V90.7a1.07 1.07 0 0 1-1.052 1.052h0z" class="G"/><path d="M96.712 87.924H78.76c-.136 0-.272-.026-.398-.078s-.24-.13-.337-.225-.173-.21-.225-.337a1.04 1.04 0 0 1-.078-.398v-.438c0-.137.026-.272.078-.398s.13-.24.225-.338.21-.173.337-.225.262-.08.398-.08h17.964c.137 0 .272.026.398.078a1.04 1.04 0 0 1 .563.563c.052.126.08.26.078.398v.438c-.004.276-.117.54-.314.735s-.462.304-.738.304z" fill="#f9c126" stroke="#f9c126" stroke-width=".348" class="H"/><path opacity=".44" d="M49.118 82.79a2.19 2.19 0 1 0 0-4.381 2.19 2.19 0 1 0 0 4.381z" fill="#fff"/><path d="M20.2 81.164h-7.248c-.185 0-.368.04-.536.116s-.32.187-.442.325-.215.3-.27.477-.073.363-.052.546l.125 1.202c-1.827.1-3.292 1.502-3.292 3.192 0 1.778 1.577 3.204 3.505 3.204.163 0 .313-.013.463-.025l.036.363c.036.32.188.618.428.835s.55.338.874.342h5.647c.328 0 .644-.124.885-.346s.4-.527.417-.854l.752-7.95c.02-.18.001-.364-.055-.537s-.148-.332-.27-.467-.27-.242-.438-.315-.347-.1-.53-.108zm-8.2 7.812c-1.24 0-2.253-.876-2.253-1.953 0-1.052.964-1.915 2.166-1.953l.413 3.88c-.108.015-.217.023-.325.024v.001z" fill="#ff5c76"/><path d="M5.192 11.5h28.64c.535 0 1.047.212 1.425.6s.6.89.6 1.426v23.66c0 .164-.05.323-.147.456s-.23.232-.386.283-.323.052-.48.003-.292-.147-.4-.28l-3.155-4.282c-.187-.256-.432-.465-.715-.61a2.02 2.02 0 0 0-.913-.219H5.192c-.535 0-1.047-.212-1.426-.6s-.6-.89-.6-1.425V13.517c0-.535.213-1.047.59-1.425s.89-.6 1.425-.6h0z" fill="#a4d2fc"/><path d="M19.826 18.26H7.56c-.14 0-.278.027-.407.08s-.246.132-.345.23-.177.216-.23.345-.08.268-.08.407.027.278.08.407.132.246.23.345.216.177.345.23.268.08.407.08h12.266c.14 0 .278-.027.407-.08a1.06 1.06 0 0 0 .576-.576c.053-.13.08-.268.08-.407h0c0-.14-.027-.278-.08-.407a1.06 1.06 0 0 0-.576-.576c-.13-.053-.268-.08-.407-.08h0z" class="B"/><path d="M12.94 25.46h17.776c.14 0 .278-.027.407-.08s.246-.132.345-.23a1.06 1.06 0 0 0 .311-.753h0a1.06 1.06 0 0 0-.311-.753c-.1-.1-.216-.177-.345-.23s-.267-.08-.407-.08H12.94c-.14 0-.278.027-.407.08s-.246.132-.345.23a1.06 1.06 0 0 0-.23.345c-.053.13-.08.267-.08.407s.027.278.08.407a1.06 1.06 0 0 0 .231.345c.1.1.216.177.345.23s.268.08.407.08h0z" fill="#fff"/><path d="M14.318 14.756H7.56c-.14 0-.278.027-.407.08s-.246.132-.345.23-.177.216-.23.345-.08.268-.08.407v.063c0 .14.027.278.08.407s.132.246.23.345a1.06 1.06 0 0 0 .345.231c.13.053.268.08.407.08h6.758c.14 0 .278-.027.407-.08s.246-.132.345-.23.177-.216.23-.345.08-.267.08-.407v-.063c0-.14-.027-.278-.08-.407s-.132-.247-.23-.345-.216-.177-.345-.23-.268-.08-.407-.08z" class="B"/><path d="M8.56 29.214h22.157c.14 0 .278-.027.407-.08s.246-.132.345-.23.177-.216.23-.345.08-.268.08-.407h0c0-.14-.027-.278-.08-.407a1.06 1.06 0 0 0-.576-.576c-.13-.053-.267-.08-.407-.08H8.56c-.14 0-.278.027-.407.08s-.246.132-.345.23-.177.216-.23.345-.08.268-.08.407h0c0 .14.027.278.08.407s.132.246.23.345.216.177.345.23.268.08.407.08h0z" fill="#fff"/><defs ><path id="B" d="M52.085 54.225c-.075.113.05 5.808.125 7.56.036.714-.013 1.578-.45 2.028a2.18 2.18 0 0 1-1.14.617c-.434.085-.883.036-1.288-.14-.688-.275-1.14-1.09-1.14-2.003l.063-7.035"/></defs></svg>