<svg width="108" height="108" viewBox="0 0 108 108" fill="none" xmlns="http://www.w3.org/2000/svg">
<path d="M103.822 96.4987H4.17857C3.86613 96.4991 3.55668 96.4378 3.26796 96.3184C2.97923 96.1989 2.7169 96.0238 2.49596 95.8028C2.27503 95.5819 2.09984 95.3196 1.98043 95.0308C1.86101 94.7421 1.79972 94.4327 1.80005 94.1202V94.1202C1.79972 93.8078 1.86101 93.4983 1.98043 93.2096C2.09984 92.9209 2.27503 92.6585 2.49596 92.4376C2.7169 92.2167 2.97923 92.0415 3.26796 91.9221C3.55668 91.8027 3.86613 91.7414 4.17857 91.7417H103.822C104.134 91.7414 104.443 91.8027 104.732 91.9221C105.021 92.0415 105.283 92.2167 105.504 92.4376C105.725 92.6585 105.9 92.9209 106.02 93.2096C106.139 93.4983 106.2 93.8078 106.2 94.1202C106.2 94.4327 106.139 94.7421 106.02 95.0308C105.9 95.3196 105.725 95.5819 105.504 95.8028C105.283 96.0238 105.021 96.1989 104.732 96.3184C104.443 96.4378 104.134 96.4991 103.822 96.4987V96.4987Z" fill="#A4D2FC"/>
<path d="M102.056 29.0266H70.286C69.7513 29.0266 69.2386 29.239 68.8605 29.6171C68.4824 29.9952 68.27 30.5079 68.27 31.0426V58.457C68.2693 58.6211 68.3206 58.7812 68.4165 58.9144C68.5124 59.0476 68.648 59.147 68.8039 59.1984C68.9597 59.2498 69.1279 59.2506 69.2842 59.2006C69.4405 59.1505 69.577 59.0523 69.674 58.9199L72.8283 54.6388C73.0155 54.3828 73.2605 54.1745 73.5433 54.031C73.8261 53.8874 74.1388 53.8126 74.4559 53.8126H102.07C102.335 53.8129 102.598 53.761 102.842 53.6597C103.087 53.5585 103.309 53.41 103.497 53.2228C103.684 53.0355 103.832 52.8132 103.934 52.5684C104.035 52.3237 104.087 52.0614 104.086 51.7966V31.0423C104.082 30.5066 103.866 29.9944 103.486 29.6169C103.106 29.2395 102.592 29.0274 102.056 29.0266Z" fill="#A4D2FC"/>
<path d="M89.9518 37.4136H74.4671C74.3273 37.4137 74.1889 37.3863 74.0597 37.3329C73.9305 37.2795 73.8132 37.2011 73.7143 37.1022C73.6155 37.0034 73.5371 36.886 73.4837 36.7568C73.4302 36.6277 73.4028 36.4892 73.403 36.3494C73.4029 36.2097 73.4303 36.0713 73.4838 35.9422C73.5372 35.813 73.6156 35.6957 73.7145 35.5969C73.8133 35.4981 73.9306 35.4197 74.0598 35.3663C74.1889 35.3129 74.3274 35.2855 74.4671 35.2856H89.9518C90.0915 35.2855 90.2299 35.3129 90.3591 35.3663C90.4882 35.4197 90.6055 35.4981 90.7043 35.5969C90.8031 35.6957 90.8815 35.813 90.9349 35.9422C90.9883 36.0713 91.0157 36.2097 91.0156 36.3494V36.3494C91.0138 36.6311 90.9012 36.9006 90.7021 37.0998C90.503 37.299 90.2334 37.4117 89.9518 37.4136Z" fill="#465CFF"/>
<path d="M98.6266 48.93H80.8509C80.7112 48.9301 80.5728 48.9027 80.4436 48.8493C80.3145 48.7959 80.1972 48.7175 80.0984 48.6187C79.9996 48.5199 79.9212 48.4026 79.8678 48.2734C79.8144 48.1443 79.787 48.0059 79.7871 47.8662V47.8662C79.787 47.7264 79.8144 47.588 79.8678 47.4588C79.9212 47.3297 79.9995 47.2123 80.0984 47.1135C80.1972 47.0147 80.3145 46.9363 80.4436 46.8828C80.5728 46.8294 80.7112 46.8019 80.8509 46.802H98.6266C98.7664 46.8019 98.9048 46.8294 99.0339 46.8828C99.1631 46.9363 99.2804 47.0147 99.3792 47.1135C99.478 47.2123 99.5564 47.3297 99.6098 47.4588C99.6632 47.588 99.6906 47.7264 99.6904 47.8662V47.8662C99.6906 48.0059 99.6632 48.1443 99.6098 48.2734C99.5563 48.4026 99.478 48.5199 99.3792 48.6187C99.2804 48.7175 99.163 48.7959 99.0339 48.8493C98.9048 48.9027 98.7664 48.9301 98.6266 48.93V48.93Z" fill="white"/>
<path d="M93.9323 40.9187H74.4671C74.3273 40.9189 74.1889 40.8914 74.0597 40.838C73.9305 40.7846 73.8132 40.7062 73.7143 40.6074C73.6155 40.5085 73.5371 40.3911 73.4837 40.262C73.4302 40.1328 73.4028 39.9944 73.403 39.8546C73.4029 39.7148 73.4303 39.5764 73.4838 39.4473C73.5372 39.3181 73.6156 39.2008 73.7145 39.102C73.8133 39.0032 73.9306 38.9249 74.0598 38.8715C74.1889 38.818 74.3274 38.7906 74.4671 38.7908H93.9323C94.0721 38.7906 94.2105 38.818 94.3396 38.8715C94.4688 38.9249 94.5861 39.0032 94.685 39.102C94.7838 39.2008 94.8622 39.3181 94.9157 39.4473C94.9691 39.5764 94.9966 39.7148 94.9965 39.8546C94.9966 39.9944 94.9692 40.1328 94.9158 40.262C94.8623 40.3911 94.784 40.5085 94.6851 40.6074C94.5863 40.7062 94.4689 40.7846 94.3397 40.838C94.2105 40.8914 94.0721 40.9189 93.9323 40.9187V40.9187Z" fill="#465CFF"/>
<path d="M68.0202 66.1423C63.7765 60.3103 53.95 59.42 51.0584 59.2825V59.2573C51.0584 59.2573 50.908 59.2573 50.6578 59.2699C50.395 59.2573 50.2571 59.2573 50.2571 59.2573V59.2825C47.3656 59.42 37.539 60.3089 33.2953 66.1423C28.2881 73.0273 26.6609 80.9135 26.6609 84.5437C26.6609 88.174 28.4008 91.554 36.0367 91.6789C40.8812 91.7542 46.9023 91.7416 50.6578 91.7167C54.4255 91.7416 60.4343 91.7668 65.2788 91.6789C72.9274 91.554 74.6546 88.174 74.6546 84.5437C74.6546 80.9135 73.0275 73.0273 68.0202 66.1423Z" fill="#FFEB7D"/>
<path d="M35.7861 75.0302C35.5611 75.0054 35.4981 75.2307 35.5341 75.4057Z" fill="#F9C126"/>
<path d="M35.9241 74.5293C35.8514 74.5053 35.7753 74.4931 35.6987 74.4933C35.7488 74.5059 35.7988 74.5059 35.8488 74.5185C35.662 74.4468 35.4559 74.4425 35.2663 74.5065C35.0766 74.5704 34.9152 74.6985 34.8099 74.8687C34.7002 75.0671 34.669 75.2994 34.7224 75.5196C34.7505 75.6247 34.7992 75.7232 34.8659 75.8092C34.9325 75.8952 35.0157 75.967 35.1105 76.0204C35.3088 76.1302 35.5411 76.1616 35.7614 76.1082C35.8664 76.08 35.9648 76.0312 36.0508 75.9646C36.1368 75.8979 36.2086 75.8148 36.2621 75.7201C36.287 75.6575 36.3248 75.5823 36.3496 75.5196C36.3852 75.4104 36.3895 75.2935 36.3622 75.1819C36.3598 75.0701 36.325 74.9613 36.2621 74.8687C36.2106 74.7924 36.1519 74.7212 36.0868 74.656L35.9741 75.52C35.9836 75.5187 35.9925 75.5144 35.9993 75.5077C35.9615 75.52 35.9115 75.5437 35.874 75.5578C35.8887 75.5478 35.9064 75.5433 35.9241 75.5452C36.0333 75.5152 36.1295 75.4497 36.1975 75.359C36.2655 75.2684 36.3014 75.1577 36.2996 75.0444C36.2982 74.9518 36.2724 74.8611 36.2247 74.7816C36.1944 74.7213 36.1521 74.6679 36.1004 74.6246C36.0487 74.5812 35.9887 74.5489 35.9241 74.5296V74.5293Z" fill="#F9C126"/>
<path d="M40.4179 78.3719C40.5115 78.3728 40.6043 78.3544 40.6905 78.3178C40.7767 78.2812 40.8543 78.2272 40.9187 78.1591C41.0493 78.0244 41.1251 77.8459 41.1314 77.6584C41.1322 77.5648 41.1138 77.4721 41.0772 77.386C41.0406 77.2999 40.9866 77.2223 40.9187 77.158C40.784 77.0272 40.6055 76.9513 40.4179 76.9448C40.3243 76.944 40.2315 76.9626 40.1453 76.9992C40.0591 77.0359 39.9815 77.0899 39.9171 77.158C39.7866 77.2926 39.7108 77.471 39.7044 77.6584C39.7035 77.752 39.7219 77.8448 39.7586 77.9309C39.7952 78.0171 39.8491 78.0948 39.9171 78.1591C40.0519 78.2897 40.2304 78.3656 40.4179 78.3719Z" fill="#F9C126"/>
<path d="M40.418 73.8536C40.5675 73.8531 40.7111 73.7948 40.8187 73.6909C40.8715 73.6386 40.9132 73.5761 40.9411 73.5072C40.9691 73.4384 40.9828 73.3645 40.9814 73.2902C40.9809 73.1407 40.9226 72.9971 40.8187 72.8895C40.7098 72.7877 40.5671 72.7297 40.418 72.7268C40.2685 72.7274 40.1249 72.7857 40.0173 72.8895C39.9645 72.9418 39.9228 73.0043 39.8948 73.0732C39.8669 73.142 39.8532 73.2159 39.8546 73.2902C39.8553 73.4397 39.9136 73.5832 40.0173 73.6909C40.1262 73.7927 40.2689 73.8507 40.418 73.8536V73.8536Z" fill="#F9C126"/>
<path d="M37.0382 68.2703C37.0004 68.2955 36.9756 68.3203 36.9382 68.3455C36.9256 68.3203 36.9256 68.2955 36.913 68.2703" fill="#F9C126"/>
<path d="M37.2258 67.8448C37.1501 67.7966 37.0635 67.7681 36.9739 67.7618C36.8843 67.7555 36.7946 67.7717 36.7128 67.8088C36.6436 67.834 36.5798 67.8723 36.5249 67.9215C36.4518 67.9887 36.3997 68.0756 36.3748 68.1717V68.1843C36.3622 68.2343 36.3622 68.2844 36.3496 68.3344C36.3622 68.3844 36.3622 68.4345 36.3748 68.4845C36.4045 68.5791 36.4559 68.6654 36.5249 68.7365C36.608 68.8165 36.7124 68.8709 36.8256 68.8931C36.9388 68.9153 37.056 68.9044 37.1632 68.8618C37.2549 68.8223 37.3351 68.7603 37.3964 68.6815C37.4577 68.6027 37.4981 68.5097 37.5138 68.4111C37.5266 68.3095 37.5143 68.2062 37.4778 68.1105C37.4143 68.0054 37.3282 67.9156 37.2258 67.8477V67.8448Z" fill="#F9C126"/>
<path d="M41.6696 68.3958C41.6336 68.4084 41.6074 68.4083 41.5696 68.4209C41.5434 68.5466 41.4923 68.6657 41.4194 68.7712" fill="#F9C126"/>
<path d="M41.2694 67.7075C41.2423 67.7312 41.2129 67.752 41.1816 67.7698C41.046 67.8599 40.9377 67.9855 40.8687 68.133C40.8006 68.2867 40.7879 68.4592 40.8327 68.6212V68.646C40.8724 68.7851 40.9511 68.91 41.0596 69.0057C41.1681 69.1014 41.3017 69.164 41.4447 69.186C41.5762 69.201 41.7094 69.1839 41.8328 69.136C41.9807 69.079 42.1045 68.9729 42.1834 68.8354C42.1834 68.8228 42.196 68.8228 42.196 68.8102C41.908 68.9228 41.6326 69.0355 41.3446 69.1608C41.3698 69.1608 41.4073 69.1734 41.4325 69.1734C41.5718 69.2109 41.7186 69.2109 41.858 69.1734C42.043 69.126 42.2034 69.0109 42.3077 68.851C42.412 68.691 42.4526 68.4978 42.4214 68.3094C42.4058 68.1914 42.364 68.0785 42.299 67.9788C42.234 67.8791 42.1476 67.7953 42.0459 67.7334C41.9323 67.6559 41.7989 67.6124 41.6614 67.608C41.524 67.6036 41.3881 67.6385 41.2698 67.7086L41.2694 67.7075Z" fill="#F9C126"/>
<path d="M40.4179 64.3899C40.3775 64.418 40.3449 64.4558 40.323 64.4998C40.3011 64.5439 40.2906 64.5927 40.2926 64.6419" fill="#F9C126"/>
<path d="M40.4179 65.016C40.5828 65.0124 40.7398 64.945 40.856 64.8281C40.9709 64.7104 41.0379 64.5543 41.044 64.39C41.0403 64.2251 40.973 64.0681 40.856 63.9518C40.7384 63.837 40.5822 63.77 40.4179 63.7639C40.2531 63.7675 40.096 63.8349 39.9798 63.9518C39.8651 64.0695 39.7982 64.2257 39.7922 64.39C39.7956 64.5548 39.8628 64.7119 39.9798 64.8281C40.0366 64.887 40.1047 64.934 40.1799 64.9663C40.2551 64.9985 40.3361 65.0154 40.4179 65.016V65.016Z" fill="#F9C126"/>
<path d="M46.1761 66.8935C46.2757 66.8935 46.3712 66.854 46.4416 66.7836C46.5121 66.7131 46.5516 66.6176 46.5516 66.5181C46.5516 66.4185 46.5121 66.323 46.4416 66.2526C46.3712 66.1821 46.2757 66.1426 46.1761 66.1426C46.0766 66.1426 45.9811 66.1821 45.9106 66.2526C45.8402 66.323 45.8007 66.4185 45.8007 66.5181C45.8007 66.6176 45.8402 66.7131 45.9106 66.7836C45.9811 66.854 46.0766 66.8935 46.1761 66.8935V66.8935Z" fill="#F9C126"/>
<path d="M31.1548 71.2749C31.1638 71.3531 31.1913 71.4279 31.2352 71.4933C31.279 71.5586 31.3379 71.6125 31.4068 71.6504" fill="#F9C126"/>
<path d="M31.1548 72.2013C31.2762 72.2012 31.3963 72.1767 31.5081 72.1294C31.6199 72.0821 31.7211 72.0129 31.8057 71.9259C31.9746 71.7503 32.0727 71.5185 32.0811 71.275C32.081 71.1536 32.0566 71.0334 32.0093 70.9215C31.962 70.8097 31.8927 70.7084 31.8057 70.6238C31.6314 70.4528 31.3988 70.3544 31.1548 70.3484C31.0334 70.3486 30.9133 70.373 30.8015 70.4203C30.6898 70.4676 30.5886 70.5368 30.5039 70.6238C30.335 70.7995 30.2369 71.0314 30.2285 71.275C30.2286 71.3964 30.2529 71.5166 30.3003 71.6284C30.3476 71.7402 30.4168 71.8413 30.5039 71.9259C30.6781 72.097 30.9107 72.1954 31.1548 72.2013V72.2013Z" fill="#F9C126"/>
<path d="M30.4538 78.3603C30.4241 78.3536 30.3947 78.3452 30.366 78.3351C30.3345 78.3272 30.3016 78.3262 30.2698 78.3324C30.2379 78.3386 30.2077 78.3516 30.1815 78.3707C30.1552 78.3898 30.1334 78.4145 30.1177 78.4429C30.102 78.4713 30.0928 78.5028 30.0906 78.5352C30.0904 78.5685 30.0981 78.6014 30.1131 78.6311C30.1282 78.6608 30.15 78.6865 30.1769 78.706C30.2038 78.7256 30.235 78.7385 30.2679 78.7437C30.3007 78.7489 30.3344 78.7462 30.366 78.7358C30.3912 78.7232 30.4286 78.7232 30.4538 78.7106C30.4917 78.6995 30.5249 78.6764 30.5485 78.6448C30.5722 78.6132 30.585 78.5749 30.585 78.5354C30.585 78.496 30.5722 78.4576 30.5485 78.426C30.5249 78.3944 30.4917 78.3714 30.4538 78.3603V78.3603Z" fill="#F9C126"/>
<path d="M33.9087 83.7052C34.057 83.7109 34.2041 83.6763 34.3343 83.6052C34.4665 83.5571 34.5863 83.4801 34.6849 83.3798C34.7932 83.2882 34.8716 83.1662 34.9099 83.0295C34.9799 82.8987 35.0145 82.7519 35.0103 82.6036C35.0099 82.4594 34.9811 82.3166 34.9255 82.1835C34.8699 82.0504 34.7886 81.9295 34.6863 81.8278C34.4784 81.6247 34.2009 81.5082 33.9102 81.502C33.7617 81.4964 33.6146 81.5312 33.4843 81.6025C33.3521 81.6503 33.2324 81.7274 33.134 81.8278C33.0255 81.9194 32.9469 82.0414 32.9087 82.1781C32.8388 82.3088 32.8043 82.4555 32.8086 82.6036C32.8089 82.748 32.8376 82.8908 32.8932 83.024C32.9488 83.1572 33.0302 83.2781 33.1326 83.3798C33.3394 83.5846 33.6177 83.7008 33.9087 83.7038V83.7052Z" fill="#F9C126"/>
<path d="M28.0253 83.1169C28.1443 83.1152 28.258 83.0672 28.3422 82.983C28.4263 82.8989 28.4743 82.7852 28.476 82.6662C28.4722 82.5479 28.4234 82.4355 28.3397 82.3519C28.256 82.2682 28.1436 82.2196 28.0253 82.2158C27.9063 82.2174 27.7926 82.2653 27.7085 82.3495C27.6243 82.4336 27.5763 82.5472 27.5746 82.6662C27.5783 82.7845 27.627 82.8971 27.7107 82.9808C27.7944 83.0645 27.9069 83.1132 28.0253 83.1169V83.1169Z" fill="#F9C126"/>
<path d="M33.4329 78.5602C33.4019 78.622 33.3894 78.6915 33.3969 78.7603C33.4044 78.8617 33.4438 78.9582 33.5096 79.0357C33.5847 79.1055 33.6825 79.1455 33.785 79.1484C33.836 79.1487 33.8866 79.1389 33.9339 79.1195C33.9812 79.1002 34.0241 79.0717 34.0604 79.0357C34.1302 78.9607 34.1702 78.8628 34.1731 78.7603C34.1805 78.6915 34.168 78.622 34.137 78.5602C34.1102 78.4888 34.0673 78.4245 34.0118 78.3722C33.9514 78.3238 33.8764 78.2974 33.799 78.2974C33.7375 78.3005 33.6776 78.3176 33.6237 78.3474C33.539 78.3953 33.4728 78.4702 33.4358 78.5602H33.4329Z" fill="#F9C126"/>
<path d="M45.4251 86.9223C45.3973 86.8822 45.3598 86.8496 45.316 86.8277C45.2723 86.8058 45.2238 86.7953 45.1749 86.7971" fill="#F9C126"/>
<path d="M45.175 87.6733C45.4033 87.6702 45.6219 87.5808 45.787 87.4231C45.8721 87.3514 45.9333 87.2553 45.9623 87.1477C46.0136 87.0425 46.0394 86.9267 46.0376 86.8097C46.0338 86.5812 45.9438 86.3626 45.7856 86.1977C45.6224 86.0371 45.4025 85.9473 45.1736 85.9475C44.9453 85.9507 44.7267 86.0401 44.5616 86.1977C44.4765 86.2696 44.4154 86.3656 44.3862 86.4731C44.335 86.5783 44.3092 86.6941 44.311 86.8111C44.3098 86.9249 44.3313 87.0378 44.3743 87.1432C44.4173 87.2486 44.4809 87.3443 44.5614 87.4248C44.6418 87.5052 44.7376 87.5688 44.8429 87.6118C44.9483 87.6548 45.0612 87.6764 45.175 87.6751V87.6733Z" fill="#F9C126"/>
<path d="M52.812 80.9137C52.7994 80.8889 52.7994 80.8637 52.7868 80.8389C52.7508 80.8637 52.7242 80.8889 52.6868 80.9137" fill="#F9C126"/>
<path d="M52.7483 81.715C52.9731 81.709 53.1874 81.6191 53.3492 81.463C53.4286 81.3845 53.4917 81.2909 53.5346 81.1877C53.5776 81.0846 53.5996 80.9739 53.5994 80.8622C53.5966 80.6371 53.5069 80.4219 53.3492 80.2614C53.2705 80.1821 53.1769 80.1192 53.0738 80.0763C52.9706 80.0333 52.86 80.0112 52.7483 80.0112C52.6366 80.0112 52.5261 80.0333 52.4229 80.0763C52.3198 80.1192 52.2262 80.1821 52.1475 80.2614C52.0677 80.3398 52.0044 80.4333 51.9611 80.5364C51.9179 80.6396 51.8956 80.7503 51.8955 80.8622C51.899 81.0875 51.9892 81.3027 52.1475 81.463C52.3106 81.6172 52.5241 81.7067 52.7483 81.715V81.715Z" fill="#F9C126"/>
<path d="M53.1864 75.78L53.0612 75.905Z" fill="#F9C126"/>
<path d="M53.0611 75.5684C53.0363 75.5936 52.9985 75.6044 52.9736 75.631H53.249C53.183 75.5895 53.1047 75.5718 53.0273 75.5809C52.9498 75.59 52.8778 75.6253 52.8232 75.681C52.7622 75.7446 52.7286 75.8295 52.7295 75.9175C52.7304 76.0056 52.7658 76.0898 52.8281 76.152C52.8903 76.2143 52.9745 76.2497 53.0626 76.2506C53.1506 76.2515 53.2355 76.2179 53.2991 76.1569C53.3548 76.1023 53.3901 76.0303 53.3992 75.9528C53.4083 75.8754 53.3907 75.7971 53.3491 75.7311V76.0065C53.374 75.9816 53.3851 75.9442 53.4118 75.919C53.4385 75.87 53.4486 75.8137 53.4406 75.7584C53.4326 75.7032 53.407 75.652 53.3675 75.6126C53.3281 75.5731 53.2769 75.5475 53.2217 75.5395C53.1664 75.5315 53.1101 75.5417 53.0611 75.5684Z" fill="#F9C126"/>
<path d="M59.2953 73.6284C59.2827 73.6158 59.2701 73.5924 59.2593 73.5784C59.2131 73.5037 59.1486 73.4421 59.0719 73.3994C58.9953 73.3567 58.9089 73.3342 58.8212 73.3342C58.7334 73.3342 58.6471 73.3567 58.5704 73.3994C58.4937 73.4421 58.4292 73.5037 58.383 73.5784C58.3708 73.5906 58.3582 73.6144 58.347 73.6284C58.2985 73.712 58.2729 73.8069 58.2727 73.9036C58.2725 74.0003 58.2978 74.0953 58.3461 74.1791C58.3943 74.2628 58.4638 74.3324 58.5475 74.3808C58.6312 74.4292 58.7261 74.4547 58.8228 74.4547C58.9194 74.4547 59.0144 74.4292 59.0981 74.3808C59.1818 74.3324 59.2512 74.2628 59.2995 74.1791C59.3477 74.0953 59.373 74.0003 59.3728 73.9036C59.3727 73.8069 59.347 73.712 59.2985 73.6284H59.2953Z" fill="#F9C126"/>
<path d="M58.6944 68.0702C58.8158 68.0701 58.936 68.0457 59.0477 67.9984C59.1595 67.9511 59.2607 67.8819 59.3453 67.7948C59.4306 67.7108 59.4949 67.6078 59.5329 67.4942C59.5959 67.3843 59.6223 67.2572 59.6081 67.1314C59.608 67.01 59.5836 66.8898 59.5363 66.778C59.489 66.6662 59.4198 66.5651 59.3327 66.4805C59.1585 66.3095 58.9259 66.2111 58.6818 66.2051C58.5605 66.2052 58.4403 66.2296 58.3285 66.2769C58.2167 66.3242 58.1156 66.3934 58.031 66.4805C57.9454 66.5643 57.881 66.6672 57.843 66.7807C57.7802 66.8908 57.7538 67.018 57.7678 67.144C57.7715 67.3885 57.8704 67.622 58.0433 67.7949C58.2163 67.9679 58.4499 68.0666 58.6944 68.0702Z" fill="#F9C126"/>
<path d="M64.828 67.644C64.8301 67.6932 64.8197 67.7421 64.7978 67.7862C64.7759 67.8302 64.7432 67.868 64.7028 67.896" fill="#F9C126"/>
<path d="M64.0394 67.432C64.0579 67.3669 64.0831 67.3039 64.1146 67.244C64.102 67.2566 64.102 67.2692 64.0894 67.2941C64.2522 67.1688 64.4275 67.0313 64.5902 66.906C64.5776 66.906 64.5776 66.906 64.5654 66.9186C64.4514 66.9422 64.3469 66.9988 64.2648 67.0813C64.1959 67.1187 64.1394 67.1752 64.102 67.244C64.0286 67.3326 63.9733 67.4347 63.9393 67.5446C63.9267 67.6195 63.9145 67.7074 63.9033 67.7822C63.9159 67.8575 63.9282 67.945 63.9393 68.0202C63.963 68.134 64.0196 68.2384 64.102 68.3204C64.1395 68.3892 64.196 68.4457 64.2648 68.4832C64.3533 68.5567 64.4554 68.612 64.5654 68.6459C64.7216 68.6837 64.8847 68.6837 65.0409 68.6459C65.1549 68.6224 65.2595 68.5658 65.3415 68.4832C65.4102 68.4456 65.4667 68.3892 65.5042 68.3204C65.5776 68.232 65.6329 68.13 65.667 68.0202C65.6792 67.945 65.6918 67.8575 65.703 67.7822C65.6904 67.7074 65.6778 67.6195 65.667 67.5446C65.6295 67.3968 65.5515 67.2624 65.4416 67.1566L65.429 67.144C65.5042 67.2692 65.5791 67.3942 65.6418 67.5194C65.6388 67.4983 65.6346 67.4774 65.6292 67.4568C65.6043 67.3942 65.5791 67.3315 65.5417 67.2566C65.4947 67.1621 65.4207 67.0836 65.3289 67.0313C65.2814 66.9816 65.2205 66.9469 65.1536 66.9312C65.0569 66.8814 64.9496 66.8556 64.8408 66.856C64.6961 66.8606 64.5545 66.8992 64.4275 66.9686C64.3329 67.0156 64.2544 67.0897 64.2021 67.1814C64.1585 67.2092 64.1213 67.2462 64.0933 67.2896C64.0652 67.3331 64.0468 67.3822 64.0394 67.4334V67.432Z" fill="#F9C126"/>
<path d="M64.9534 73.2776C64.9174 73.2902 64.8908 73.2902 64.853 73.3028C64.8407 73.3388 64.8407 73.3654 64.8281 73.4029" fill="#F9C126"/>
<path d="M64.9534 72.9774H64.853C64.7964 72.976 64.7406 72.9905 64.6919 73.0192C64.6432 73.048 64.6036 73.0899 64.5776 73.1401C64.5653 73.1524 64.5653 73.1761 64.5527 73.1902C64.5287 73.2505 64.5119 73.3134 64.5027 73.3777C64.5045 73.4571 64.5344 73.5333 64.5872 73.5926C64.6399 73.652 64.7121 73.6906 64.7907 73.7017C64.8697 73.7132 64.9503 73.6953 65.0171 73.6516C65.0839 73.6078 65.1325 73.5412 65.1536 73.4641C65.1742 73.4125 65.1828 73.3568 65.1788 73.3014C65.1284 73.3889 65.0783 73.489 65.0161 73.5768C65.0409 73.5642 65.0783 73.5516 65.1035 73.5408C65.16 73.5071 65.204 73.4559 65.2288 73.395C65.2536 73.3341 65.2579 73.2667 65.2411 73.2031C65.2235 73.1397 65.186 73.0836 65.1341 73.043C65.0823 73.0025 65.0188 72.9796 64.9531 72.9778L64.9534 72.9774Z" fill="#F9C126"/>
<path d="M61.3354 61.9988C61.2648 62.0687 61.2132 62.1554 61.1853 62.2508C61.156 62.3672 61.1648 62.49 61.2105 62.6011C61.2493 62.6984 61.3168 62.7816 61.404 62.8398C61.4911 62.8979 61.5939 62.9283 61.6986 62.9269C61.7913 62.9235 61.8817 62.8978 61.9623 62.852C62.0429 62.8062 62.1113 62.7416 62.1616 62.6637C62.219 62.5603 62.2416 62.441 62.2258 62.3237C62.2101 62.2065 62.1568 62.0974 62.0741 62.0128L62.0615 62.0002C61.9651 61.9041 61.8346 61.8501 61.6984 61.8501C61.5623 61.8501 61.4318 61.9041 61.3354 62.0002V61.9988Z" fill="#F9C126"/>
<path d="M54.3129 63.8767C54.1754 63.8893 54.1376 63.9393 54.2002 64.0146C54.3223 63.9998 54.4435 63.9789 54.5635 63.9519" fill="#F9C126"/>
<path d="M54.5007 63.201H54.4755C54.576 63.2633 54.6883 63.3259 54.7887 63.3886L54.7761 63.376C54.6696 63.2734 54.5412 63.1964 54.4007 63.1506C54.2528 63.1132 54.0978 63.1132 53.9499 63.1506C53.8046 63.1854 53.6735 63.2641 53.5745 63.376C53.4717 63.4825 53.3946 63.611 53.3491 63.7518C53.3052 63.9243 53.3052 64.105 53.3491 64.2774C53.3851 64.3527 53.4117 64.4275 53.4492 64.5028C53.5044 64.6095 53.5864 64.7001 53.6871 64.7656C53.8488 64.8995 54.0533 64.9706 54.2631 64.9657C54.3758 64.9535 54.4759 64.9409 54.5763 64.9297C54.6512 64.8937 54.7265 64.8671 54.8013 64.8297C54.9082 64.7744 54.9988 64.6924 55.0645 64.5917C55.1248 64.5335 55.168 64.4599 55.1894 64.3789C55.2512 64.2686 55.2775 64.1419 55.2647 64.0161C55.2679 63.8489 55.2245 63.6841 55.1394 63.5401L54.9893 63.3526C54.9058 63.2635 54.803 63.1948 54.6887 63.1521C54.6156 63.1125 54.5341 63.0912 54.4511 63.0898C54.3268 63.0625 54.1978 63.0667 54.0756 63.102C54.058 63.1014 54.0407 63.1058 54.0255 63.1146C54.113 63.102 54.1883 63.0898 54.2757 63.0786H54.2505C54.1631 63.0912 54.0878 63.1034 54.0003 63.1146C53.8785 63.1428 53.7666 63.2034 53.6763 63.2899C53.6032 63.3315 53.5426 63.3921 53.501 63.4653C53.4165 63.557 53.3563 63.6684 53.3257 63.7893C53.6889 63.5887 54.0518 63.376 54.4147 63.1773H54.3899C54.4651 63.2025 54.5274 63.2399 54.6026 63.2647H54.59L54.9032 63.5779C54.9033 63.5763 54.903 63.5746 54.9024 63.5731C54.9017 63.5715 54.9008 63.5701 54.8996 63.5689C54.8985 63.5677 54.897 63.5668 54.8955 63.5662C54.8939 63.5656 54.8923 63.5653 54.8906 63.5653C54.8028 63.8908 54.7152 64.2162 54.6278 64.5417C54.6401 64.5417 54.6401 64.5417 54.6527 64.5291C54.7011 64.4946 54.7472 64.457 54.7905 64.4164C54.8248 64.368 54.8625 64.322 54.9032 64.2789C54.9751 64.1401 55.0054 63.9837 54.9907 63.8281C54.9769 63.7049 54.9293 63.588 54.8532 63.4901C54.8215 63.4179 54.7732 63.3542 54.7123 63.3042C54.6514 63.2541 54.5795 63.2192 54.5025 63.2021L54.5007 63.201Z" fill="#F9C126"/>
<path d="M51.7093 70.6865C51.7469 70.8167 51.8316 70.9283 51.9469 70.9997C52.0212 71.0485 52.1083 71.0745 52.1972 71.0745C52.2862 71.0745 52.3733 71.0485 52.4476 70.9997C52.5605 70.9256 52.6445 70.8151 52.6856 70.6865C52.7045 70.6132 52.7066 70.5367 52.6917 70.4625C52.6768 70.3883 52.6453 70.3185 52.5995 70.2583C52.5538 70.1981 52.4949 70.149 52.4275 70.1148C52.36 70.0806 52.2857 70.0621 52.21 70.0608C52.1316 70.0558 52.0531 70.0699 51.9812 70.1017C51.9093 70.1335 51.8462 70.1821 51.797 70.2435C51.7479 70.3048 51.7143 70.3771 51.699 70.4542C51.6838 70.5313 51.6873 70.611 51.7093 70.6865Z" fill="#F9C126"/>
<path d="M45.8007 73.9036C45.7573 73.9205 45.7218 73.9529 45.701 73.9946C45.6802 74.0362 45.6756 74.0841 45.688 74.1289C45.7258 74.1412 45.7633 74.1412 45.8007 74.1538" fill="#F9C126"/>
<path d="M45.6379 73.6409C45.6253 73.6531 45.6019 73.6531 45.5879 73.6657C45.6379 73.6531 45.7006 73.6409 45.7506 73.6297C45.6462 73.6126 45.5392 73.6349 45.4504 73.6924C45.3686 73.7438 45.3034 73.8177 45.2624 73.9051C45.229 73.9796 45.2202 74.0629 45.2372 74.1427C45.2503 74.2411 45.2954 74.3324 45.3655 74.4025C45.4357 74.4727 45.527 74.5177 45.6253 74.5308C45.713 74.5426 45.8021 74.5287 45.8821 74.491C45.9621 74.4532 46.0294 74.3932 46.076 74.318C46.1157 74.2495 46.1373 74.1719 46.1387 74.0927C46.1323 73.9719 46.0837 73.8572 46.0011 73.7687V73.7564C46.026 73.7813 46.0512 73.8187 46.076 73.8439C46.0634 73.8313 46.0512 73.8079 46.04 73.7939C46.0274 73.9192 46.004 74.0567 45.99 74.182L46.026 74.146C46.0553 74.1165 46.0782 74.0813 46.0933 74.0426C46.1084 74.0039 46.1154 73.9625 46.1138 73.921C46.1142 73.8531 46.0922 73.7871 46.0512 73.733C46.0052 73.6701 45.9376 73.6263 45.8613 73.6101C45.785 73.594 45.7055 73.6066 45.6379 73.6456V73.6409Z" fill="#F9C126"/>
<path d="M47.4282 70.0229C47.4302 70.0486 47.4259 70.0745 47.4156 70.0981C47.429 70.0392 47.4626 69.9869 47.5106 69.9503C47.5587 69.9137 47.6181 69.8952 47.6784 69.898" fill="#F9C126"/>
<path d="M47.4283 71.1623C47.5748 71.1646 47.7201 71.1346 47.8538 71.0744C47.9854 71.0252 48.105 70.9483 48.2043 70.849C48.3037 70.7496 48.3806 70.6301 48.4298 70.4984C48.4971 70.3671 48.5275 70.2199 48.5176 70.0726C48.5202 69.9288 48.4938 69.7861 48.44 69.6528C48.3862 69.5195 48.3061 69.3984 48.2044 69.2968C48.1028 69.1951 47.9817 69.115 47.8484 69.0612C47.7151 69.0074 47.5724 68.981 47.4286 68.9836C47.2819 68.9812 47.1365 69.0112 47.0028 69.0714C46.8711 69.1206 46.7516 69.1975 46.6522 69.2969C46.5528 69.3962 46.476 69.5158 46.4267 69.6474C46.3596 69.7787 46.3293 69.9258 46.3389 70.0729C46.338 70.3626 46.4504 70.6412 46.6521 70.8491C46.8657 71.0419 47.1407 71.1529 47.4283 71.1623V71.1623Z" fill="#F9C126"/>
<path d="M46.3014 61.7612C46.314 61.7972 46.314 61.8239 46.3266 61.8613C46.3626 61.8739 46.3892 61.8739 46.4267 61.8862" fill="#F9C126"/>
<path d="M45.8758 61.874C45.89 61.9056 45.8984 61.9395 45.9006 61.9741C45.9334 62.0855 46.0077 62.1801 46.1082 62.2383C46.2087 62.2966 46.3277 62.314 46.4406 62.2869C46.5513 62.2576 46.6458 62.1856 46.7034 62.0867C46.7574 61.9828 46.775 61.8638 46.7535 61.7487C46.7535 61.7127 46.7409 61.6861 46.7409 61.6486C46.7269 61.5936 46.702 61.542 46.6676 61.4968C46.6332 61.4516 46.5901 61.4139 46.5407 61.3858C46.4365 61.3328 46.3178 61.3152 46.2027 61.3358C46.145 61.3483 46.0905 61.3725 46.0426 61.4069C45.9946 61.4413 45.9542 61.4851 45.9239 61.5357C45.8935 61.5863 45.8738 61.6426 45.8661 61.7011C45.8583 61.7596 45.8626 61.819 45.8787 61.8758L45.8758 61.874Z" fill="#F9C126"/>
<path d="M61.1979 84.5439C61.1789 84.4653 61.1339 84.3954 61.0703 84.3454C61.0067 84.2955 60.9281 84.2684 60.8472 84.2685C60.835 84.2325 60.835 84.2059 60.8224 84.1685" fill="#F9C126"/>
<path d="M62.2995 83.9682C62.2279 83.718 62.0944 83.4898 61.9114 83.3047C61.824 83.2295 61.7235 83.1543 61.636 83.092C61.4816 82.9949 61.3049 82.9389 61.1227 82.9293C61.0047 82.8914 60.8778 82.8914 60.7598 82.9293C60.5776 82.9389 60.4009 82.9949 60.2464 83.092C60.1843 83.1222 60.129 83.1647 60.0837 83.2169C59.9394 83.3131 59.8194 83.4417 59.7334 83.5924C59.6309 83.7395 59.5743 83.9138 59.5707 84.0931C59.5329 84.207 59.5329 84.33 59.5707 84.4438C59.5728 84.5071 59.5811 84.57 59.5956 84.6317C59.6456 84.744 59.6834 84.8445 59.7334 84.9557C59.8083 85.0558 59.8836 85.1559 59.971 85.2559C60.1394 85.4263 60.3509 85.5475 60.583 85.6066C60.8253 85.6692 61.0795 85.6692 61.3218 85.6066C61.4561 85.5652 61.5861 85.5107 61.7098 85.4439C61.7973 85.3686 61.8852 85.306 61.9726 85.2311C62.098 85.1139 62.1926 84.9677 62.248 84.8052C62.309 84.7033 62.3394 84.5859 62.3355 84.4672C62.3602 84.2997 62.3479 84.1289 62.2995 83.9668V83.9682Z" fill="#F9C126"/>
<path d="M67.5821 82.3533C67.6967 82.3533 67.8066 82.3077 67.8876 82.2267C67.9686 82.1457 68.0141 82.0358 68.0141 81.9213C68.0141 81.8067 67.9686 81.6968 67.8876 81.6158C67.8066 81.5348 67.6967 81.4893 67.5821 81.4893C67.4676 81.4893 67.3577 81.5348 67.2767 81.6158C67.1957 81.6968 67.1501 81.8067 67.1501 81.9213C67.1501 82.0358 67.1957 82.1457 67.2767 82.2267C67.3577 82.3077 67.4676 82.3533 67.5821 82.3533V82.3533Z" fill="#F9C126"/>
<path d="M72.8395 81.1643C72.8488 81.1114 72.8752 81.063 72.9147 81.0265C72.7394 81.0016 72.6767 81.1643 72.5907 81.2893" fill="#F9C126"/>
<path d="M72.252 79.9248C72.0651 80.0429 71.9068 80.2012 71.7887 80.3881C71.7527 80.4882 71.7012 80.5882 71.6637 80.6883C71.6286 80.7975 71.6115 80.9117 71.6133 81.0264C71.726 80.751 71.8513 80.463 71.964 80.1876C71.8219 80.3428 71.7152 80.527 71.6511 80.7276C71.5948 80.9366 71.5948 81.1568 71.6511 81.3658C71.7441 81.6552 71.9351 81.9031 72.1911 82.0668C72.2855 82.1212 72.3864 82.1633 72.4914 82.192L71.6529 81.3532C71.7105 81.5727 71.8275 81.772 71.991 81.9292C72.0785 81.9919 72.1659 82.0668 72.243 82.1294C72.3431 82.1654 72.4431 82.2169 72.5436 82.2547C72.657 82.2652 72.7697 82.2819 72.8813 82.3047C72.9948 82.294 73.1076 82.2773 73.2193 82.2547C73.3194 82.2187 73.4198 82.1668 73.5199 82.1294C73.6074 82.0668 73.6952 81.9919 73.7701 81.9292C73.8327 81.8414 73.908 81.7539 73.9706 81.6772C74.0576 81.5328 74.1091 81.3698 74.1207 81.2017C74.1456 81.0904 74.1456 80.9749 74.1207 80.8636C74.1226 80.7495 74.0921 80.6372 74.0329 80.5396C74.0067 80.4339 73.9501 80.3382 73.8702 80.2642C73.8152 80.1715 73.7379 80.094 73.6452 80.0389C73.5691 79.9616 73.4742 79.9055 73.3698 79.8762C73.2728 79.8156 73.1601 79.7852 73.0458 79.7887C72.9345 79.7635 72.819 79.7635 72.7077 79.7887C72.5482 79.7953 72.3931 79.8427 72.257 79.9262L72.252 79.9248Z" fill="#F9C126"/>
<path d="M68.7085 76.407C68.7211 76.4448 68.7211 76.4696 68.7337 76.5071C68.7697 76.5197 68.7963 76.5197 68.8338 76.5322" fill="#F9C126"/>
<path d="M68.472 76.1695L68.508 76.1335C68.4105 76.1921 68.3401 76.2868 68.312 76.397C68.2839 76.5072 68.3004 76.624 68.3578 76.7221C68.3701 76.7344 68.3827 76.7581 68.3938 76.7722C68.4448 76.8535 68.5176 76.9188 68.6039 76.9608C68.6902 77.0028 68.7866 77.0198 68.882 77.0098C68.9765 76.999 69.0654 76.9597 69.137 76.8971C69.2086 76.8345 69.2594 76.7517 69.2827 76.6595C69.3032 76.576 69.3024 76.4887 69.2805 76.4056C69.2587 76.3225 69.2163 76.2461 69.1574 76.1836C69.0809 76.1087 68.982 76.0609 68.8759 76.0474C68.7697 76.0339 68.662 76.0554 68.5692 76.1087C68.5552 76.1216 68.5379 76.1303 68.5191 76.1335C68.594 76.1087 68.6692 76.0975 68.7319 76.0709H68.7067C68.7693 76.0835 68.8194 76.1069 68.882 76.1209H68.8694C68.8047 76.085 68.7296 76.0723 68.6566 76.0849C68.6211 76.0862 68.5861 76.0946 68.5539 76.1097C68.5217 76.1248 68.4928 76.1462 68.4691 76.1728L68.472 76.1695Z" fill="#F9C126"/>
<path d="M69.7101 70.899C69.8316 70.9099 69.954 70.9015 70.0729 70.8742C70.0481 70.6989 69.61 70.7741 69.4609 70.7741" fill="#F9C126"/>
<path d="M68.8964 71.1246C68.9839 71.5753 69.4098 71.7755 69.7853 71.9134C69.9235 71.9515 70.0679 71.9612 70.21 71.9419C70.352 71.9225 70.4886 71.8745 70.6115 71.8007C70.8471 71.6521 71.024 71.4266 71.1123 71.1624C71.1688 70.9709 71.1731 70.7678 71.1247 70.5741C71.0763 70.3804 70.9769 70.2031 70.8369 70.0608C70.7147 69.9415 70.57 69.8478 70.4112 69.7852C70.2524 69.7226 70.0827 69.6923 69.912 69.6961C69.6925 69.6922 69.4761 69.7484 69.2863 69.8588C69.1318 69.9509 69.0028 70.0801 68.9108 70.2347C68.8204 70.3951 68.7729 70.5761 68.7729 70.7603C68.7729 70.9444 68.8204 71.1255 68.9108 71.2859C69.0027 71.4405 69.1318 71.5697 69.2863 71.6617C69.4079 71.7299 69.5386 71.7805 69.6744 71.8118C69.5866 71.7758 69.4991 71.7366 69.4224 71.6992C69.4476 71.7118 69.4584 71.724 69.4724 71.724C69.3976 71.6617 69.3223 71.6113 69.2474 71.549L69.2723 71.5739C69.2096 71.499 69.1596 71.4238 69.097 71.3485C69.133 71.3986 69.147 71.4238 69.197 71.4864C69.2868 71.6012 69.3965 71.6988 69.521 71.7744C69.4462 71.7121 69.3709 71.6621 69.296 71.5994L69.3083 71.6117V70.0846C69.2987 70.1071 69.2808 70.125 69.2582 70.1346C69.3335 70.0846 69.3961 70.0219 69.471 69.9719C69.3524 70.0357 69.2434 70.1158 69.147 70.2098C69.0327 70.3294 68.9498 70.4754 68.9058 70.6349C68.8618 70.7944 68.8581 70.9623 68.895 71.1235L68.8964 71.1246Z" fill="#F9C126"/>
<path d="M60.1963 79.0984C60.3459 79.0979 60.4895 79.0396 60.597 78.9356C60.6499 78.8834 60.6916 78.8209 60.7196 78.752C60.7475 78.6832 60.7612 78.6093 60.7597 78.535C60.7592 78.3855 60.7009 78.2421 60.597 78.1346C60.4881 78.0327 60.3454 77.9748 60.1963 77.9719C60.0469 77.9725 59.9034 78.0308 59.796 78.1346C59.7431 78.1868 59.7013 78.2492 59.6733 78.318C59.6453 78.3869 59.6315 78.4607 59.6329 78.535C59.6335 78.6846 59.6919 78.8282 59.796 78.9356C59.9047 79.0376 60.0473 79.0955 60.1963 79.0984V79.0984Z" fill="#F9C126"/>
<path d="M67.4568 90.728C67.5782 90.7278 67.6983 90.7033 67.8101 90.656C67.9219 90.6087 68.0231 90.5395 68.1077 90.4526C68.1932 90.3686 68.2576 90.2656 68.2956 90.1519C68.3585 90.042 68.3847 89.9149 68.3705 89.7891C68.3705 89.6676 68.3461 89.5474 68.2988 89.4356C68.2515 89.3237 68.1822 89.2225 68.0951 89.1378C67.9209 88.9669 67.6882 88.8685 67.4442 88.8628C67.3229 88.8629 67.2028 88.8873 67.091 88.9346C66.9792 88.9818 66.878 89.0509 66.7934 89.1378C66.7081 89.2219 66.6439 89.3249 66.6058 89.4384C66.5428 89.5483 66.5165 89.6754 66.5306 89.8013C66.5342 90.0459 66.6329 90.2794 66.8058 90.4524C66.9788 90.6254 67.2123 90.7242 67.4568 90.728V90.728Z" fill="#F9C126"/>
<path d="M70.9618 85.2947C70.9978 85.3073 71.0244 85.3073 71.0619 85.3199C71.0745 85.3559 71.0745 85.3825 71.0871 85.42" fill="#F9C126"/>
<path d="M71.0745 85.4827C71.0871 85.4827 71.0871 85.4701 71.0997 85.4701L70.9496 85.4341C70.9744 85.4593 70.9996 85.4701 71.0118 85.4967C71.0239 85.5077 71.0385 85.5156 71.0543 85.5197C71.07 85.5239 71.0866 85.5242 71.1025 85.5207C71.1184 85.5172 71.1333 85.5099 71.1458 85.4995C71.1583 85.489 71.1682 85.4758 71.1746 85.4607C71.1872 85.4355 71.1998 85.3981 71.2124 85.3729C71.2219 85.347 71.2234 85.3188 71.2167 85.292C71.2099 85.2652 71.1952 85.2411 71.1746 85.2228C71.1497 85.1976 71.1386 85.1727 71.1123 85.1601C71.0836 85.1327 71.0479 85.1136 71.0091 85.1051C70.9703 85.0966 70.93 85.099 70.8924 85.1119C70.8549 85.1248 70.8216 85.1479 70.7963 85.1785C70.771 85.2091 70.7547 85.2461 70.749 85.2854C70.7446 85.3236 70.7503 85.3622 70.7658 85.3974C70.7812 85.4326 70.8058 85.463 70.8369 85.4856C70.8737 85.5041 70.9144 85.5138 70.9557 85.5138C70.9969 85.5138 71.0376 85.5041 71.0745 85.4856V85.4827Z" fill="#F9C126"/>
<path d="M72.9649 89.5137C72.9523 89.5011 72.9397 89.4777 72.9289 89.4637C72.8175 89.2737 72.6584 89.1161 72.4673 89.0067C72.2763 88.8972 72.0599 88.8396 71.8397 88.8396C71.6195 88.8396 71.4031 88.8972 71.212 89.0067C71.021 89.1161 70.8619 89.2737 70.7505 89.4637C70.7379 89.4759 70.7257 89.4997 70.7145 89.5137C70.5997 89.716 70.5393 89.9446 70.5392 90.1772C70.541 90.4095 70.6013 90.6377 70.7145 90.8407C70.8286 91.0386 70.9927 91.2029 71.1905 91.3172C71.3883 91.4315 71.6127 91.4917 71.8411 91.4917C72.0696 91.4917 72.2939 91.4315 72.4917 91.3172C72.6895 91.2029 72.8537 91.0386 72.9677 90.8407C73.0825 90.6383 73.1429 90.4098 73.1431 90.1772C73.1413 89.9448 73.081 89.7166 72.9677 89.5137H72.9649Z" fill="#F9C126"/>
<path d="M74.0913 86.2588C74.181 86.2588 74.267 86.2232 74.3304 86.1598C74.3938 86.0964 74.4294 86.0105 74.4294 85.9208C74.4294 85.8312 74.3938 85.7452 74.3304 85.6818C74.267 85.6184 74.181 85.5828 74.0913 85.5828C74.0017 85.5828 73.9157 85.6184 73.8523 85.6818C73.7889 85.7452 73.7533 85.8312 73.7533 85.9208C73.7533 86.0105 73.7889 86.0964 73.8523 86.1598C73.9157 86.2232 74.0017 86.2588 74.0913 86.2588Z" fill="#F9C126"/>
<path d="M64.3273 78.5351C64.2932 78.5306 64.2585 78.5341 64.2259 78.5452C64.1933 78.5563 64.1637 78.5748 64.1394 78.5991C64.115 78.6235 64.0966 78.6531 64.0855 78.6856C64.0744 78.7182 64.0709 78.7529 64.0753 78.7871" fill="#F9C126"/>
<path d="M64.0771 77.6215C63.9731 77.6479 63.8723 77.6857 63.7765 77.7341L63.5886 77.8842C63.5033 77.9683 63.4391 78.0713 63.401 78.1848C63.3614 78.258 63.3399 78.3396 63.3384 78.4228C63.3111 78.547 63.3154 78.6762 63.351 78.7983C63.4006 78.951 63.4815 79.0916 63.5886 79.2112C63.6727 79.2966 63.7757 79.3609 63.8892 79.3991C63.9991 79.462 64.1262 79.4882 64.2521 79.474H64.3025C64.2146 79.4618 64.1394 79.4492 64.0505 79.438C64.057 79.4374 64.0637 79.4382 64.0699 79.4403C64.0761 79.4425 64.0818 79.446 64.0865 79.4506C64.2463 79.4954 64.4151 79.4969 64.5757 79.4551C64.7362 79.4133 64.8829 79.3296 65.0005 79.2126C65.1748 79.0355 65.2735 78.7976 65.2759 78.5492C65.2759 78.4259 65.2515 78.3039 65.2043 78.19C65.157 78.0762 65.0878 77.9728 65.0005 77.8857C64.8861 77.7714 64.7435 77.6895 64.5872 77.6481C64.4223 77.5902 64.2441 77.5815 64.0742 77.6229L64.0771 77.6215Z" fill="#F9C126"/>
<path d="M60.1963 90.177L60.0714 90.0518Z" fill="#F9C126"/>
<path d="M60.7097 89.6637L60.6344 89.5885C60.4962 89.4557 60.3131 89.3797 60.1214 89.3757C59.929 89.3764 59.7445 89.4528 59.6081 89.5885C59.5399 89.6553 59.4859 89.7353 59.4493 89.8235C59.4127 89.9117 59.3944 90.0064 59.3953 90.1019C59.4016 90.2931 59.4772 90.4756 59.6081 90.6152L59.6833 90.6901C59.8214 90.823 60.0046 90.899 60.1963 90.9028C60.3888 90.9024 60.5733 90.8259 60.7097 90.6901C60.7779 90.6233 60.8319 90.5435 60.8685 90.4553C60.905 90.3672 60.9234 90.2725 60.9224 90.1771C60.9161 89.9858 60.8405 89.8034 60.7097 89.6637V89.6637Z" fill="#F9C126"/>
<path d="M29.5273 89.5511C29.8257 89.548 30.112 89.4323 30.3287 89.2271C30.5333 89.009 30.6532 88.7249 30.6667 88.4261C30.6657 88.2032 30.5989 87.9856 30.4748 87.8004C30.3507 87.6153 30.1748 87.4709 29.969 87.3853C29.7632 87.2996 29.5367 87.2766 29.3179 87.3191C29.0991 87.3616 28.8977 87.4676 28.7389 87.624C28.5338 87.8419 28.4138 88.1264 28.4009 88.4254C28.3988 88.5739 28.4266 88.7212 28.4825 88.8588C28.5384 88.9964 28.6212 89.1214 28.7263 89.2264C28.8313 89.3314 28.9563 89.4143 29.0938 89.4702C29.2314 89.5261 29.3788 89.5538 29.5273 89.5518V89.5511Z" fill="#F9C126"/>
<path d="M35.2858 91.867C35.4352 91.8665 35.5787 91.8082 35.6861 91.7043C35.739 91.6521 35.7807 91.5896 35.8087 91.5207C35.8367 91.4518 35.8503 91.378 35.8488 91.3036C35.8484 91.1541 35.7901 91.0105 35.6861 90.903C35.5774 90.8011 35.4348 90.7431 35.2858 90.7402C35.1362 90.7407 34.9926 90.799 34.8851 90.903C34.8323 90.9552 34.7906 91.0177 34.7626 91.0866C34.7347 91.1555 34.721 91.2293 34.7224 91.3036C34.7229 91.4532 34.7812 91.5967 34.8851 91.7043C34.994 91.8062 35.1367 91.8642 35.2858 91.867V91.867Z" fill="#F9C126"/>
<path d="M37.0757 86.3215C37.0757 86.3089 37.0884 86.2837 37.0884 86.2714C37.1175 86.1728 37.119 86.068 37.0925 85.9686C37.066 85.8692 37.0126 85.7791 36.9382 85.708C36.9366 85.7081 36.9349 85.7078 36.9334 85.7072C36.9318 85.7066 36.9304 85.7056 36.9292 85.7045C36.928 85.7033 36.9271 85.7019 36.9265 85.7003C36.9259 85.6988 36.9256 85.6971 36.9256 85.6954C36.8167 85.5936 36.674 85.5356 36.525 85.5327C36.4749 85.5453 36.4249 85.5453 36.3748 85.5579C36.2781 85.5826 36.1906 85.6348 36.1228 85.708C36.1212 85.708 36.1196 85.7084 36.1181 85.709C36.1166 85.7096 36.1152 85.7106 36.114 85.7117C36.1129 85.7129 36.112 85.7143 36.1114 85.7158C36.1108 85.7174 36.1105 85.719 36.1106 85.7206C36.0361 85.7915 35.9826 85.8816 35.9561 85.981C35.9295 86.0803 35.9309 86.1851 35.9601 86.2837C35.9601 86.2963 35.9727 86.3215 35.9727 86.3341C36.0055 86.4523 36.076 86.5566 36.1734 86.6311C36.2709 86.7057 36.39 86.7464 36.5127 86.747C36.6397 86.7452 36.7628 86.703 36.8641 86.6265C36.9654 86.5499 37.0397 86.4431 37.0761 86.3215H37.0757Z" fill="#F9C126"/>
<path d="M41.508 81.0262C41.5206 81.0388 41.5206 81.0514 41.5332 81.0622C41.6385 81.2366 41.7845 81.3827 41.9587 81.4881C42.141 81.5947 42.3484 81.6508 42.5596 81.6508C42.7707 81.6508 42.9781 81.5947 43.1604 81.4881C43.3347 81.3827 43.4809 81.2365 43.5863 81.0622C43.5985 81.05 43.5985 81.0374 43.6111 81.0262C43.7214 80.8414 43.7777 80.6294 43.7739 80.4142C43.776 80.1993 43.7197 79.9878 43.6111 79.8022C43.5045 79.6206 43.3526 79.4697 43.1704 79.3642C42.9881 79.2587 42.7817 79.2021 42.5711 79.2C42.3603 79.1994 42.1531 79.2547 41.9706 79.3603C41.7881 79.4658 41.6368 79.6178 41.5321 79.8008C41.4219 79.9856 41.3656 80.1976 41.3694 80.4128C41.346 80.6264 41.3944 80.8417 41.5069 81.0248L41.508 81.0262Z" fill="#F9C126"/>
<path d="M55.3144 59.9836C55.4085 59.9837 55.5006 59.9558 55.5789 59.9035C55.6572 59.8513 55.7183 59.7769 55.7544 59.69C55.7904 59.603 55.7999 59.5073 55.7815 59.4149C55.7632 59.3225 55.7178 59.2377 55.6513 59.1711C55.5847 59.1046 55.4998 59.0592 55.4075 59.0409C55.3151 59.0225 55.2194 59.032 55.1324 59.068C55.0455 59.1041 54.9711 59.1652 54.9189 59.2435C54.8666 59.3218 54.8387 59.4139 54.8388 59.508C54.8378 59.5708 54.8494 59.6331 54.8729 59.6912C54.8965 59.7494 54.9315 59.8022 54.9758 59.8466C55.0202 59.8909 55.073 59.9259 55.1312 59.9495C55.1893 59.973 55.2516 59.9846 55.3144 59.9836Z" fill="#F9C126"/>
<path d="M35.5359 63.8892C35.5233 63.689 35.7361 63.6638 35.7879 63.5137Z" fill="#F9C126"/>
<path d="M36.7877 63.54V63.5151C36.8003 63.6278 36.8129 63.7405 36.8377 63.8654V63.8154C36.8274 63.9289 36.8107 64.0417 36.7877 64.1534V64.1408C36.7984 64.0274 36.8151 63.9147 36.8377 63.8031C36.8501 63.6288 36.8109 63.4546 36.725 63.3024C36.6962 63.1941 36.6401 63.095 36.5623 63.0144C36.4701 62.8743 36.3457 62.7584 36.1994 62.6763V62.6763C36.3873 63.1396 36.5749 63.6152 36.7754 64.0785C36.788 64.0033 36.8006 63.9532 36.8114 63.8654C36.8468 63.7034 36.8381 63.5348 36.7862 63.3772C36.7502 63.2772 36.6987 63.1771 36.6613 63.0892C36.5892 62.9621 36.4911 62.8517 36.3733 62.7652C36.2873 62.6852 36.1847 62.6254 36.0727 62.5899C35.9267 62.5126 35.7619 62.4779 35.5971 62.4898C35.4845 62.5021 35.3844 62.5147 35.2731 62.5258C35.1699 62.5598 35.0694 62.6017 34.9725 62.6511C34.9603 62.6634 34.9477 62.6634 34.9365 62.676C35.2605 62.64 35.5748 62.5885 35.9003 62.5507H35.888C35.7745 62.5404 35.6616 62.5237 35.55 62.5006C35.3756 62.4886 35.2016 62.5278 35.0492 62.6133C34.9411 62.6426 34.8421 62.6985 34.7612 62.776C34.6212 62.8685 34.5053 62.993 34.4232 63.1393C34.3001 63.3666 34.2316 63.6193 34.223 63.8776C34.2262 64.2229 34.3604 64.554 34.5985 64.8039C34.7573 64.9655 34.956 65.0822 35.1745 65.142C35.3406 65.1936 35.5171 65.2023 35.6875 65.1672C35.8596 65.1555 36.0267 65.1041 36.1757 65.017C36.3246 64.9387 36.45 64.822 36.5389 64.679C36.6492 64.5521 36.7303 64.4025 36.7765 64.2409C36.8495 64.0134 36.8539 63.7695 36.7891 63.5396L36.7877 63.54Z" fill="#F9C126"/>
<path d="M49.431 91.5542C49.404 91.5561 49.3778 91.5638 49.3541 91.5767C49.3304 91.5896 49.3097 91.6075 49.2935 91.6291C49.2935 91.6042 49.3057 91.579 49.3057 91.5542" fill="#F9C126"/>
<path d="M50.0317 91.4288C50.0317 91.4162 50.0317 91.4162 50.0191 91.4036C49.9816 91.2787 49.9177 91.1634 49.8316 91.0656L49.6814 90.9529C49.599 90.8997 49.504 90.8696 49.406 90.8654C49.3398 90.8528 49.2718 90.8528 49.2055 90.8654C49.1394 90.8627 49.0739 90.8801 49.0179 90.9154C48.9536 90.9286 48.896 90.964 48.8552 91.0155C48.7703 91.0669 48.701 91.1404 48.6547 91.2283C48.6547 91.2409 48.6425 91.2409 48.6425 91.2535C48.5717 91.3706 48.5343 91.5048 48.5343 91.6416C48.5343 91.7784 48.5717 91.9126 48.6425 92.0296C48.711 92.1421 48.8054 92.2365 48.9179 92.305C49.0048 92.3584 49.104 92.3885 49.2059 92.3925C49.3055 92.4135 49.4089 92.4093 49.5065 92.3803C49.6343 92.3431 49.7506 92.2741 49.8445 92.1798C49.9369 92.0808 50.0027 91.9599 50.0355 91.8286C50.0683 91.6972 50.0671 91.5596 50.0321 91.4288H50.0317Z" fill="#F9C126"/>
<path d="M52.0848 54.2253C52.0096 54.338 52.1348 60.0336 52.2101 61.7853C52.2461 62.4989 52.1975 63.3629 51.7594 63.8132C51.4507 64.1297 51.0531 64.3448 50.6193 64.4298C50.1855 64.5148 49.7361 64.4657 49.3308 64.2891C48.6425 64.0137 48.1918 63.2001 48.1918 62.2861L48.2544 55.251" fill="#FFC3A9"/>
<path d="M52.0848 54.2253C52.0096 54.338 52.1348 60.0336 52.2101 61.7853C52.2461 62.4989 52.1975 63.3629 51.7594 63.8132C51.4507 64.1297 51.0531 64.3448 50.6193 64.4298C50.1855 64.5148 49.7361 64.4657 49.3308 64.2891C48.6425 64.0137 48.1918 63.2001 48.1918 62.2861L48.2544 55.251" stroke="#E89589" stroke-width="1.391" stroke-linecap="round" stroke-linejoin="round"/>
<path d="M41.1941 39.3542C41.1941 39.3542 39.2537 55.9278 49.769 56.5035C59.22 56.5035 58.9947 41.7197 56.8541 36.3496" fill="#FFC3A9"/>
<path d="M41.1941 39.3542C41.1941 39.3542 39.2537 55.9278 49.769 56.5035C59.22 56.5035 58.9947 41.7197 56.8541 36.3496" stroke="#E89589" stroke-width="1.391" stroke-miterlimit="10"/>
<path d="M53.4833 46.6476C53.5987 46.1421 53.3645 45.6574 52.9601 45.5652C52.5558 45.4729 52.1345 45.8079 52.0191 46.3134C51.9037 46.8189 52.138 47.3036 52.5423 47.3959C52.9467 47.4881 53.368 47.1531 53.4833 46.6476Z" fill="#621CD1"/>
<path d="M49.4935 47.6785C49.4935 47.6785 49.5436 49.3935 49.6815 50.5451C49.7437 51.0459 50.4072 50.3324 50.4072 50.3324" stroke="#E89589" stroke-width="1.391" stroke-linecap="round" stroke-linejoin="round"/>
<path d="M54.4255 44.5742C54.1672 44.3765 53.8635 44.2466 53.5422 44.1963C53.2208 44.146 52.8919 44.1769 52.5856 44.2861" fill="#E28584"/>
<path d="M54.4255 44.5742C54.1672 44.3765 53.8635 44.2466 53.5422 44.1963C53.2208 44.146 52.8919 44.1769 52.5856 44.2861" stroke="#E89589" stroke-width="1.391" stroke-linecap="round" stroke-linejoin="round"/>
<path d="M46.4015 44.1721C46.4015 44.1721 45.1749 44.3474 44.7368 44.8604Z" fill="#E28584"/>
<path d="M46.4015 44.1721C46.4015 44.1721 45.1749 44.3474 44.7368 44.8604" stroke="#E89589" stroke-width="1.391" stroke-linecap="round" stroke-linejoin="round"/>
<path d="M50.2444 53.061C50.158 53.1309 50.056 53.1787 49.947 53.2006C49.838 53.2224 49.7254 53.2175 49.6188 53.1863" stroke="#E89589" stroke-width="1.391" stroke-linecap="round" stroke-linejoin="round"/>
<path d="M46.4841 47.441C46.8672 47.282 47.0165 46.7648 46.8176 46.2859C46.6187 45.8071 46.147 45.5478 45.764 45.7069C45.3809 45.8659 45.2316 46.3831 45.4305 46.862C45.6294 47.3408 46.1011 47.6001 46.4841 47.441Z" fill="#621CD1"/>
<path d="M40.1677 41.9829C43.5474 43.8607 55.1891 43.6101 57.9431 42.1079C57.0668 35.9742 54.9389 32.5945 48.8052 32.7194C42.6715 32.8443 41.2942 35.9742 40.1677 41.9829Z" fill="#FF5C76"/>
<path d="M54.5007 33.5955C57.7846 33.5955 60.4468 31.4097 60.4468 28.7135C60.4468 26.0173 57.7846 23.8315 54.5007 23.8315C51.2167 23.8315 48.5546 26.0173 48.5546 28.7135C48.5546 31.4097 51.2167 33.5955 54.5007 33.5955Z" fill="#FF5C76"/>
<path d="M61.736 44.3236C61.2595 43.7785 60.6323 43.3865 59.9335 43.1972C59.5706 43.0967 59.5706 41.9076 59.5706 41.2816C59.5772 41.0352 59.5688 40.7886 59.5454 40.5432C59.4301 39.6489 59.2251 38.7685 58.9334 37.9152C58.416 36.412 57.5692 35.0434 56.4548 33.9095C55.4241 32.8543 54.1593 32.0568 52.7629 31.5815C51.3665 31.1062 49.8778 30.9665 48.4174 31.1737C46.9569 31.3809 45.5659 31.9293 44.3568 32.7743C43.1478 33.6193 42.1548 34.7372 41.4583 36.0375C40.5502 37.6983 39.9842 39.5243 39.7936 41.4076C39.7684 41.6081 39.7684 41.8083 39.7558 42.0084C39.7485 42.2681 39.7276 42.5272 39.6932 42.7846C39.6309 43.1086 39.5305 43.1601 39.1924 43.2854C39.1403 43.3008 39.09 43.3218 39.0423 43.348C38.3308 43.6228 37.7196 44.1074 37.2898 44.7376C36.162 46.44 36.1242 49.6801 37.764 51.1708C38.5022 51.7696 39.4302 52.0849 40.3804 52.0596C40.929 52.0677 41.4724 51.9522 41.9702 51.7216C42.8342 51.2961 42.4209 50.0069 42.1203 49.0554C42.0454 48.8301 41.9828 48.6173 41.945 48.4546C41.6787 47.2907 41.4823 46.1118 41.3568 44.9244C41.1937 43.0483 41.5397 41.1629 42.3583 39.4668C43.8102 36.3496 46.5894 34.3844 49.6062 34.3343C52.5477 34.2983 55.3518 36.112 56.754 38.9661C57.6338 40.8243 58.0419 42.8709 57.942 44.9244C57.8273 46.3158 57.5885 47.694 57.2284 49.0428L57.2158 49.1055C57.1798 49.2808 57.1158 49.4561 57.0657 49.6315C56.8904 50.1945 56.7028 50.7953 56.9656 51.2461C57.0558 51.3881 57.1749 51.5095 57.315 51.6025C57.4552 51.6956 57.6134 51.7581 57.7792 51.7861C59.4943 52.1993 61.0214 51.8112 61.8602 50.7723C63.2008 49.1429 63.1256 45.9386 61.736 44.3236Z" fill="#621CD1"/>
<path d="M66.5179 91.7417H32.4691C32.2156 91.7356 31.9747 91.6295 31.7988 91.4467C31.623 91.2639 31.5265 91.019 31.5303 90.7654V90.7654C31.529 90.5125 31.6263 90.269 31.8016 90.0868C31.9769 89.9045 32.2164 89.7977 32.4691 89.7891H66.5179C66.7715 89.7952 67.0124 89.9012 67.1883 90.0841C67.3641 90.2669 67.4606 90.5118 67.4568 90.7654C67.4606 91.019 67.3641 91.2639 67.1883 91.4467C67.0124 91.6295 66.7715 91.7356 66.5179 91.7417V91.7417Z" fill="#465CFF"/>
<path d="M63.6013 91.679H34.8481C34.5136 91.68 34.1892 91.5643 33.9309 91.3517C33.6726 91.1392 33.4966 90.8432 33.4333 90.5147L29.7404 71.375C29.6998 71.1664 29.7059 70.9514 29.7582 70.7454C29.8105 70.5395 29.9077 70.3476 30.0429 70.1837C30.1781 70.0198 30.348 69.8878 30.5402 69.7972C30.7324 69.7067 30.9423 69.6598 31.1548 69.6599H66.6433C66.8518 69.6592 67.058 69.7039 67.2476 69.7907C67.4372 69.8775 67.6056 70.0045 67.7414 70.1628C67.8771 70.3211 67.9768 70.5071 68.0336 70.7077C68.0903 70.9084 68.1029 71.119 68.0703 71.3249L65.0283 90.4647C64.9725 90.8032 64.7985 91.111 64.5372 91.3333C64.276 91.5556 63.9443 91.6781 63.6013 91.679V91.679Z" fill="#465CFF"/>
<path d="M100.717 91.7416H81.3895C81.1124 91.7395 80.8474 91.6277 80.6526 91.4306C80.4577 91.2335 80.349 90.9672 80.3502 90.6901V88.975C80.3486 88.8375 80.3743 88.7011 80.4258 88.5736C80.4774 88.4462 80.5537 88.3302 80.6503 88.2324C80.747 88.1347 80.8621 88.057 80.989 88.0041C81.1159 87.9511 81.252 87.9238 81.3895 87.9238H100.73C101.007 87.926 101.272 88.0379 101.466 88.2349C101.661 88.4319 101.77 88.698 101.769 88.975V90.6901C101.765 90.9678 101.653 91.233 101.457 91.4294C101.26 91.6258 100.995 91.7378 100.717 91.7416V91.7416Z" fill="#621CD1"/>
<path d="M96.7115 87.9239H78.7604C78.6239 87.9242 78.4886 87.8976 78.3624 87.8455C78.2362 87.7934 78.1215 87.7169 78.025 87.6203C77.9285 87.5238 77.8519 87.4091 77.7998 87.2829C77.7478 87.1567 77.7211 87.0214 77.7214 86.8849V86.4468C77.7211 86.3102 77.7477 86.175 77.7998 86.0488C77.8519 85.9225 77.9284 85.8078 78.025 85.7113C78.1215 85.6147 78.2362 85.5381 78.3624 85.486C78.4886 85.4339 78.6239 85.4072 78.7604 85.4075H96.7244C96.861 85.4071 96.9963 85.4338 97.1225 85.4859C97.2488 85.538 97.3635 85.6146 97.4601 85.7111C97.5566 85.8077 97.6332 85.9224 97.6853 86.0487C97.7374 86.1749 97.7641 86.3102 97.7637 86.4468V86.8849C97.7594 87.1614 97.6467 87.4252 97.4499 87.6195C97.2532 87.8137 96.988 87.9231 96.7115 87.9239Z" fill="#F9C126" stroke="#F9C126" stroke-width="0.348" stroke-miterlimit="10"/>
<path opacity="0.44" d="M49.1181 82.7914C50.3279 82.7914 51.3087 81.8106 51.3087 80.6008C51.3087 79.3909 50.3279 78.4102 49.1181 78.4102C47.9083 78.4102 46.9275 79.3909 46.9275 80.6008C46.9275 81.8106 47.9083 82.7914 49.1181 82.7914Z" fill="white"/>
<path d="M20.2014 81.1641H12.9535C12.7685 81.1645 12.5857 81.204 12.4171 81.2799C12.2484 81.3559 12.0977 81.4666 11.9748 81.6049C11.8519 81.7432 11.7596 81.9058 11.7039 82.0822C11.6482 82.2587 11.6305 82.4448 11.6518 82.6286L11.7767 83.8303C9.94934 83.9304 8.4845 85.3326 8.4845 87.0224C8.4845 88.8001 10.062 90.2264 11.9898 90.2264C12.1525 90.2264 12.3027 90.2138 12.4528 90.2012L12.4888 90.5644C12.5249 90.8857 12.6772 91.1826 12.917 91.3993C13.1569 91.616 13.4677 91.7375 13.7909 91.7409H19.4379C19.7659 91.7406 20.0819 91.6169 20.323 91.3944C20.5642 91.1719 20.7129 90.867 20.7396 90.54L21.492 82.5912C21.512 82.4104 21.4934 82.2275 21.4375 82.0545C21.3815 81.8815 21.2896 81.7223 21.1676 81.5874C21.0456 81.4526 20.8965 81.3451 20.7299 81.2722C20.5634 81.1992 20.3832 81.1624 20.2014 81.1641ZM12.0021 88.9761C10.7629 88.9761 9.74882 88.0999 9.74882 87.0235C9.74882 85.9719 10.7129 85.1083 11.9146 85.0708L12.3275 88.9513C12.2196 88.9659 12.1109 88.9739 12.0021 88.975V88.9761Z" fill="#FF5C76"/>
<path d="M5.19227 11.5012H33.8335C34.3682 11.5012 34.881 11.7136 35.259 12.0917C35.6371 12.4698 35.8495 12.9825 35.8495 13.5172V37.1761C35.8499 37.3398 35.7986 37.4994 35.7028 37.6322C35.6071 37.765 35.4719 37.8642 35.3164 37.9155C35.161 37.9669 34.9933 37.9679 34.8373 37.9183C34.6813 37.8687 34.5449 37.7711 34.4477 37.6394L31.2923 33.3579C31.1053 33.1016 30.8605 32.893 30.5778 32.7491C30.295 32.6053 29.9823 32.5302 29.6651 32.5299H5.19227C4.65759 32.5299 4.14482 32.3175 3.76674 31.9394C3.38867 31.5614 3.17627 31.0486 3.17627 30.5139V13.5169C3.17636 12.9822 3.38881 12.4696 3.76687 12.0916C4.14493 11.7136 4.65766 11.5012 5.19227 11.5012V11.5012Z" fill="#A4D2FC"/>
<path d="M19.8259 18.261H7.56002C7.42026 18.2609 7.28185 18.2884 7.15272 18.3418C7.02359 18.3953 6.90626 18.4736 6.80746 18.5725C6.70865 18.6713 6.6303 18.7887 6.5769 18.9178C6.52349 19.047 6.49607 19.1854 6.49622 19.3251C6.49607 19.4649 6.52349 19.6033 6.5769 19.7325C6.6303 19.8616 6.70865 19.979 6.80746 20.0778C6.90626 20.1767 7.02359 20.255 7.15272 20.3085C7.28185 20.3619 7.42026 20.3894 7.56002 20.3893H19.8259C19.9657 20.3894 20.1041 20.3619 20.2333 20.3085C20.3624 20.2551 20.4798 20.1767 20.5786 20.0778C20.6775 19.979 20.7558 19.8617 20.8093 19.7325C20.8627 19.6033 20.8902 19.4649 20.8901 19.3251V19.3251C20.8902 19.1854 20.8627 19.047 20.8093 18.9178C20.7558 18.7886 20.6775 18.6713 20.5786 18.5725C20.4798 18.4736 20.3624 18.3952 20.2333 18.3418C20.1041 18.2884 19.9657 18.2609 19.8259 18.261V18.261Z" fill="#465CFF"/>
<path d="M12.941 25.4588H30.7167C30.8565 25.4589 30.9949 25.4315 31.124 25.3781C31.2531 25.3247 31.3704 25.2463 31.4693 25.1475C31.5681 25.0487 31.6464 24.9314 31.6998 24.8022C31.7532 24.6731 31.7807 24.5347 31.7805 24.395V24.395C31.7807 24.2552 31.7532 24.1168 31.6998 23.9877C31.6464 23.8585 31.5681 23.7411 31.4693 23.6423C31.3705 23.5435 31.2531 23.4651 31.124 23.4116C30.9949 23.3582 30.8565 23.3307 30.7167 23.3308H12.941C12.8012 23.3307 12.6628 23.3582 12.5337 23.4116C12.4046 23.4651 12.2872 23.5435 12.1884 23.6423C12.0896 23.7411 12.0113 23.8585 11.9579 23.9877C11.9045 24.1168 11.8771 24.2552 11.8772 24.395C11.8771 24.5347 11.9045 24.6731 11.9579 24.8022C12.0113 24.9314 12.0896 25.0487 12.1885 25.1475C12.2873 25.2463 12.4046 25.3247 12.5337 25.3781C12.6629 25.4315 12.8013 25.4589 12.941 25.4588V25.4588Z" fill="white"/>
<path d="M14.3179 14.7561H7.56002C7.42026 14.756 7.28185 14.7835 7.15272 14.8369C7.02359 14.8904 6.90626 14.9688 6.80746 15.0676C6.70865 15.1664 6.6303 15.2838 6.5769 15.4129C6.52349 15.5421 6.49607 15.6805 6.49622 15.8203V15.8829C6.49607 16.0226 6.52349 16.161 6.5769 16.2902C6.63031 16.4193 6.70867 16.5366 6.80748 16.6354C6.90629 16.7343 7.02362 16.8126 7.15275 16.866C7.28188 16.9194 7.42028 16.9468 7.56002 16.9467H14.3179C14.4577 16.9468 14.5961 16.9194 14.7253 16.866C14.8544 16.8126 14.9718 16.7343 15.0706 16.6355C15.1694 16.5367 15.2478 16.4193 15.3013 16.2902C15.3547 16.1611 15.3822 16.0227 15.3821 15.8829V15.8203C15.3822 15.6805 15.3547 15.5421 15.3013 15.4129C15.2478 15.2838 15.1695 15.1664 15.0706 15.0676C14.9718 14.9687 14.8544 14.8904 14.7253 14.8369C14.5961 14.7835 14.4577 14.756 14.3179 14.7561Z" fill="#465CFF"/>
<path d="M8.55964 29.2144H30.7166C30.8563 29.2145 30.9947 29.187 31.1239 29.1336C31.253 29.0801 31.3703 29.0017 31.4691 28.9029C31.5679 28.804 31.6463 28.6867 31.6997 28.5575C31.7531 28.4284 31.7805 28.29 31.7804 28.1502V28.1502C31.7805 28.0105 31.7531 27.8721 31.6997 27.743C31.6463 27.6138 31.5679 27.4965 31.4691 27.3977C31.3703 27.2989 31.253 27.2205 31.1238 27.1671C30.9947 27.1137 30.8563 27.0863 30.7166 27.0864H8.55964C8.41989 27.0863 8.28147 27.1137 8.15232 27.1671C8.02317 27.2205 7.90582 27.2989 7.80698 27.3977C7.70814 27.4965 7.62975 27.6138 7.5763 27.7429C7.52285 27.8721 7.49539 28.0105 7.49548 28.1502V28.1502C7.49539 28.29 7.52285 28.4284 7.5763 28.5576C7.62974 28.6867 7.70812 28.8041 7.80696 28.9029C7.90579 29.0017 8.02314 29.0801 8.1523 29.1336C8.28145 29.187 8.41987 29.2145 8.55964 29.2144V29.2144Z" fill="white"/>
</svg>
