<svg width="108" height="108" viewBox="0 0 108 108" fill="none" xmlns="http://www.w3.org/2000/svg">
<path d="M89.8348 58.5222H18.0763C17.8654 58.5229 17.6632 58.607 17.514 58.7562C17.3648 58.9054 17.2807 59.1075 17.28 59.3185V105.404C17.2806 105.615 17.3647 105.817 17.5139 105.966C17.6631 106.115 17.8653 106.199 18.0763 106.2H89.8348C90.0458 106.199 90.248 106.115 90.3972 105.966C90.5465 105.817 90.6305 105.615 90.6311 105.404V59.3185C90.6304 59.1075 90.5463 58.9054 90.3971 58.7562C90.2479 58.607 90.0458 58.5229 89.8348 58.5222V58.5222Z" fill="#80BEFF"/>
<path d="M28.1758 33.6452C27.5187 33.3533 26.8286 33.0613 26.6493 32.2981C26.5367 31.7702 26.5436 31.2239 26.6695 30.699C26.7415 30.4931 26.802 30.294 26.8495 30.123C26.8731 30.0712 26.8848 30.0148 26.8838 29.9579C26.8828 29.901 26.8691 29.8451 26.8436 29.7941C26.8182 29.7432 26.7817 29.6987 26.7368 29.6637C26.6919 29.6287 26.6398 29.6042 26.5842 29.592C26.5259 29.5622 26.4615 29.546 26.3961 29.5448C26.3306 29.5435 26.2657 29.5571 26.2062 29.5846C26.1468 29.6121 26.0944 29.6528 26.0529 29.7035C26.0115 29.7542 25.9822 29.8137 25.9671 29.8775C25.9075 30.0264 25.8587 30.1795 25.821 30.3354C25.6554 30.7534 25.4361 31.158 25.245 31.5497C24.8004 32.4389 23.9245 32.2996 23.0616 32.3258C22.9525 32.3296 22.8482 32.372 22.7674 32.4454C22.6866 32.5188 22.6344 32.6184 22.6201 32.7267C22.6058 32.8349 22.6303 32.9447 22.6893 33.0366C22.7484 33.1284 22.838 33.1964 22.9424 33.2284C23.8248 33.5272 24.3824 33.9052 24.4087 34.8941C24.4289 35.6573 24.2694 36.4061 24.2892 37.17C24.3025 37.6679 25.079 37.8137 25.1917 37.2895C25.358 36.558 25.6331 35.8556 26.0078 35.2058C26.3995 34.5622 27.2621 34.4826 27.959 34.5024C28.3748 34.5143 28.6006 33.8375 28.1758 33.6452ZM25.4948 34.3292C25.4278 34.4001 25.3657 34.4755 25.3091 34.555C25.285 34.3241 25.2337 34.097 25.1564 33.8782C25.0524 33.5923 24.8823 33.3351 24.66 33.1276C25.0779 33.0422 25.4545 32.8176 25.7281 32.4904C25.735 32.4839 25.7414 32.477 25.7414 32.4706C25.7612 32.5703 25.7879 32.6632 25.8134 32.756C25.9403 33.1452 26.178 33.4887 26.4974 33.7446C26.116 33.8436 25.7692 34.0456 25.4948 34.3285V34.3292Z" fill="#FFC200"/>
<path d="M68.0299 6.37206C67.5522 6.15966 67.0014 5.94006 66.8286 5.4033C66.7048 4.94891 66.7072 4.46938 66.8355 4.01622C66.8884 3.8571 66.9434 3.69762 66.9748 3.5583C66.9972 3.50686 67.008 3.4511 67.0064 3.39501C67.0048 3.33891 66.9908 3.28387 66.9654 3.2338C66.9401 3.18373 66.904 3.13988 66.8598 3.10536C66.8155 3.07085 66.7642 3.04653 66.7094 3.03414C66.6507 3.00425 66.5859 2.98802 66.5199 2.98667C66.454 2.98531 66.3886 2.99886 66.3286 3.0263C66.2686 3.05374 66.2156 3.09438 66.1735 3.14517C66.1315 3.19595 66.1014 3.25559 66.0856 3.31962C66.0378 3.44077 65.9979 3.56486 65.966 3.69114C65.8325 4.05089 65.666 4.39749 65.4685 4.7265C65.0837 5.36334 64.4198 5.25714 63.7632 5.27694C63.6538 5.28015 63.549 5.3222 63.4677 5.39556C63.3864 5.46892 63.3339 5.56881 63.3195 5.67736C63.3052 5.78591 63.3299 5.89603 63.3893 5.98803C63.4487 6.08002 63.5388 6.14788 63.6437 6.17946C64.4332 6.45162 64.7982 6.83646 64.7917 7.69146C64.7849 8.24874 64.6837 8.79306 64.692 9.35034C64.6988 9.85434 65.4818 9.99402 65.5945 9.46986C65.7162 8.92765 65.9152 8.40572 66.1853 7.92006C66.5237 7.30266 67.1339 7.2231 67.7977 7.23606C68.2222 7.23606 68.4544 6.55818 68.0299 6.37206ZM65.6874 6.98406C65.6874 6.99054 65.6809 6.99054 65.6809 6.99702C65.656 6.84026 65.6137 6.68678 65.5546 6.53946C65.4848 6.36187 65.3813 6.1995 65.2496 6.06138C65.5124 5.98446 65.7519 5.84315 65.9463 5.65026C65.9661 5.7165 65.9862 5.77626 66.006 5.8425C66.1 6.09528 66.255 6.32095 66.4571 6.4995C66.1612 6.58805 65.8951 6.75558 65.6874 6.98406V6.98406Z" fill="#FB0E39"/>
<path d="M40.014 18.2635C39.9443 18.0447 39.821 17.8469 39.6552 17.6882C39.4894 17.5294 39.2865 17.4146 39.065 17.3545C38.8549 17.3158 38.6404 17.3068 38.4278 17.3278C38.0563 17.3278 37.9101 17.2198 37.877 17.0092C38.2658 16.977 38.6282 16.7992 38.8915 16.5113C39.1548 16.2234 39.2997 15.8467 39.2972 15.4565C39.284 15.205 39.2131 14.9598 39.09 14.74C38.9669 14.5202 38.7949 14.3317 38.5873 14.189C38.3504 14.0257 38.0717 13.9336 37.7841 13.9236C37.4393 13.9172 36.437 14.2225 36.716 13.5655C36.9281 13.0676 37.7179 13.0078 38.0099 12.4703C38.1201 12.2467 38.1785 12.0011 38.1808 11.7519C38.1832 11.5026 38.1293 11.2559 38.0232 11.0303C37.5321 9.93557 36.2448 9.69833 35.2296 10.148C34.6921 10.387 35.1576 11.1765 35.694 10.9375C35.9505 10.8073 36.2473 10.7809 36.5228 10.8637C36.7982 10.9464 37.0313 11.1321 37.1736 11.3821C37.4659 11.9995 36.9813 12.2248 36.5303 12.4772C36.0324 12.7558 35.654 13.154 35.7073 13.7645C35.7267 14.0245 35.8256 14.2721 35.9906 14.4739C36.1556 14.6757 36.3787 14.8218 36.6296 14.8924C37.0343 14.9986 37.4857 14.7398 37.8705 14.846C38.6935 15.0649 38.3681 16.2395 37.5588 16.12C37.4905 16.1036 37.4193 16.1025 37.3506 16.117C37.2818 16.1315 37.2171 16.1611 37.1612 16.2036C37.1053 16.2462 37.0596 16.3007 37.0274 16.3631C36.9951 16.4255 36.9772 16.4944 36.9749 16.5646C36.8751 17.3678 37.1271 18.4366 38.1427 18.3365C38.4743 18.3034 39.1579 17.9715 39.1644 18.6749C39.1712 19.0796 38.7266 19.1789 38.4609 19.3118C38.2846 19.3872 38.1251 19.4971 37.9918 19.635C37.8585 19.773 37.7541 19.9361 37.6848 20.1149C37.4591 20.6589 38.3483 20.8979 38.5671 20.3605C38.7 20.0419 39.4365 19.909 39.6954 19.6304C39.8632 19.4502 39.9809 19.2292 40.0368 18.9894C40.0927 18.7496 40.0848 18.4993 40.014 18.2635Z" fill="#FB0E39"/>
<path d="M28.3881 19.7964C28.2337 18.6867 27.8783 17.6144 27.3395 16.632C27.0543 16.1143 26.2645 16.5787 26.55 17.0964C27.0478 18.0106 27.3713 19.0094 27.504 20.0419C27.585 20.619 28.4677 20.3735 28.3881 19.7964Z" fill="#5A80F9"/>
<path d="M71.9913 18.151C71.4603 19.1726 70.9361 20.1947 70.4055 21.2163C70.1333 21.7409 70.9228 22.2053 71.195 21.6811C71.726 20.6591 72.2501 19.637 72.7811 18.6154C73.0598 18.0912 72.2634 17.6264 71.9913 18.151Z" fill="#FB0E39"/>
<path d="M41.1884 31.932C40.2992 31.2948 39.4035 30.658 38.5143 30.0276C38.0297 29.6824 37.5718 30.4787 38.0499 30.8171C38.9391 31.4543 39.8348 32.0911 40.724 32.7215C41.2082 33.0678 41.6661 32.278 41.1884 31.932Z" fill="#5A80F9"/>
<path d="M75.6359 32.0063C74.926 32.8343 74.2161 33.6716 73.5062 34.5011C73.1278 34.9457 73.7715 35.6027 74.1563 35.1516C74.8662 34.3236 75.5765 33.4859 76.2864 32.6564C76.6695 32.2118 76.0193 31.5548 75.6359 32.0063Z" fill="#5A80F9"/>
<path d="M87.0214 40.7788C86.6564 40.4004 86.6164 39.8165 86.0656 39.6174C85.857 39.5561 85.6355 39.554 85.4257 39.6112C85.216 39.6684 85.0262 39.7827 84.8776 39.9414C84.4132 40.386 84.3866 41.0232 84.4197 41.6269C84.4624 41.8565 84.4758 42.0906 84.4596 42.3235C84.4197 42.4963 84.2739 42.8481 83.9949 42.7285C83.7828 42.6421 83.5629 42.0715 83.4045 41.8724C82.8537 41.2021 81.5397 40.7377 81.0486 41.7598C80.9499 41.9709 80.922 42.2083 80.9691 42.4366C81.0155 42.735 81.3406 43.0936 81.3341 43.3726C81.2412 43.5184 81.1484 43.6645 81.0486 43.8103C80.8765 43.7448 80.7083 43.6696 80.5446 43.585C80.3587 43.4919 80.1728 43.3923 79.987 43.2862C79.6246 43.074 79.2746 42.8415 78.9387 42.5896C78.5787 42.3239 78.2353 42.9211 78.5935 43.1868C79.2371 43.6577 81.0486 45.1377 81.8334 44.2549C81.9601 44.0748 82.0356 43.8637 82.052 43.6441C82.0684 43.4245 82.0251 43.2045 81.9267 43.0075C81.7805 42.6227 81.3557 42.0056 82.0325 41.8861C82.5365 41.7997 82.8555 42.2641 83.101 42.636C83.5258 43.2664 84.3819 44.0958 84.959 43.0738C85.2642 42.5363 85.085 41.9257 85.0918 41.3418C85.0983 41.0963 85.085 40.5523 85.364 40.4263C85.4912 40.3799 85.6292 40.3715 85.7611 40.4021C85.8931 40.4327 86.0132 40.501 86.107 40.5988C86.2794 40.791 86.346 41.0632 86.539 41.2622C86.8486 41.588 87.3332 41.097 87.0214 40.7788Z" fill="#5A80F9"/>
<path d="M83.0132 24.8727C81.7327 25.3702 80.346 24.4407 80.0871 23.1339C79.9693 22.4595 80.0596 21.7653 80.346 21.1435C80.673 21.4803 81.1152 21.6811 81.5839 21.7056C82.0527 21.7302 82.5135 21.5767 82.8739 21.2759C84.1746 20.2474 83.4711 17.9981 81.6859 18.4759C81.1477 18.6353 80.6693 18.9518 80.3121 19.3849C80.2603 19.1065 80.2581 18.8212 80.3057 18.5421C80.5379 17.1421 81.7456 15.5361 82.8937 14.7333C83.3714 14.3949 82.9135 13.5986 82.4289 13.9435C80.9094 15.0055 79.3171 17.1223 79.3567 19.0598C79.3703 19.4994 79.4887 19.9294 79.7019 20.314C79.2659 21.1509 79.0749 22.0939 79.1511 23.0345C79.3898 24.9325 81.3608 26.4985 83.2652 25.7619C83.803 25.5495 83.564 24.6599 83.0132 24.8727ZM82.0977 19.3319C82.6683 19.3186 82.7677 19.949 82.5157 20.3399C82.389 20.5184 82.2081 20.6511 81.9998 20.7182C81.7915 20.7853 81.5671 20.7832 81.3601 20.7122C81.1382 20.6433 80.9374 20.5195 80.7762 20.3522C81.1023 19.8561 81.5736 19.3517 82.0977 19.3319Z" fill="#FFC200"/>
<path d="M53.8095 6.80397C53.9627 6.46496 53.9879 6.08198 53.8806 5.72581C53.7732 5.36965 53.5406 5.06438 53.2256 4.86645C52.4559 4.43445 51.4739 4.78653 50.8367 5.29845C50.5444 5.53865 50.2914 5.82299 50.0868 6.14121C49.6779 5.63565 49.4199 5.02499 49.3424 4.37939C49.265 3.73379 49.3713 3.07944 49.649 2.49153C49.9277 1.97385 49.1378 1.50945 48.8592 2.02677C48.4666 2.78351 48.3129 3.64157 48.4184 4.48754C48.5238 5.33351 48.8835 6.12755 49.4499 6.76473C49.5244 6.84937 49.6041 6.9292 49.6886 7.00377C49.5188 7.48603 49.4963 8.00788 49.624 8.50296C49.7516 8.99805 50.0236 9.44398 50.4054 9.78405C51.381 10.6203 52.7094 10.9 52.8408 12.4052C52.9733 13.8783 51.6794 14.9252 50.2794 14.814C49.6886 14.7675 49.6954 15.6834 50.2794 15.7298C51.1245 15.8056 51.9652 15.5438 52.618 15.0017C53.2707 14.4596 53.6824 13.6811 53.7631 12.8365C53.8158 11.988 53.5402 11.1517 52.9934 10.5008C52.3695 9.77757 51.2294 9.56481 50.7107 8.76885C50.4851 8.40445 50.4068 7.96779 50.4918 7.54773C51.6729 8.15721 53.2389 8.21049 53.8095 6.80397ZM51.3277 6.08073C51.7125 5.74881 52.7079 5.23113 52.9999 5.94141C53.3052 6.68445 52.3231 7.08261 51.7856 7.04265C51.4351 7.01718 51.0949 6.91295 50.7902 6.73773C50.9323 6.49077 51.1139 6.26872 51.3277 6.08037V6.08073Z" fill="#5A80F9"/>
<path d="M49.032 24.1692C48.8265 23.6184 47.9438 23.8575 48.1497 24.4148C48.5739 25.5144 48.6998 26.7067 48.5147 27.8708C48.4218 28.4468 49.311 28.6988 49.3971 28.1163C49.6256 26.7914 49.4997 25.4297 49.032 24.1692V24.1692Z" fill="#FB0E39"/>
<path d="M81.414 49.4445C80.0995 49.1754 78.8258 48.736 77.625 48.1374C75.7194 47.0839 74.0344 45.6735 72.6617 43.9833C69.6489 40.3869 67.6051 35.8945 65.7738 31.6144C64.8713 29.5045 64.1214 27.3412 63.2855 25.2111C62.6616 23.6185 61.9117 21.9992 60.6777 20.7831C59.6023 19.7283 57.8041 18.7261 56.2979 19.4626C54.6523 20.2658 54.1149 22.5086 53.9025 24.1477C53.2321 29.35 54.3867 34.5326 55.6013 39.569C53.3517 39.5755 51.0955 39.9736 48.8661 40.2192C46.2049 40.5111 43.5309 40.6173 40.8633 40.8628C38.6533 41.0442 36.4787 41.5277 34.4002 42.3C32.0242 43.2021 29.4765 44.2242 28.2751 46.62C27.6516 47.8677 27.3528 49.2213 27.8507 50.5616C28.3484 51.8215 29.2676 52.8697 30.4517 53.5276C29.8553 54.0912 29.3943 54.7826 29.1033 55.5499C28.8123 56.3172 28.699 57.1404 28.7717 57.9577C28.8445 58.7751 29.1014 59.5653 29.5233 60.2692C29.9452 60.973 30.5211 61.5721 31.2077 62.0215C30.8231 62.3504 30.521 62.7649 30.3258 63.2318C30.1306 63.6988 30.0477 64.205 30.0839 64.7098C30.12 65.2145 30.2742 65.7038 30.5339 66.1381C30.7936 66.5725 31.1516 66.9398 31.5792 67.2105C30.564 67.8873 30.2519 69.2082 30.4909 70.3893C30.8293 72.0813 32.3158 73.103 33.8487 73.6538C35.9986 74.4238 38.394 74.6956 40.6501 74.9545C43.1917 75.2533 45.8791 75.4722 48.4337 75.1734C49.4093 75.0607 50.4112 74.7687 51.0484 73.9724C51.2881 73.6755 51.4581 73.3286 51.5459 72.9572C51.5564 72.6287 51.5364 72.2999 51.4861 71.9751C54.3448 72.2107 57.219 72.1841 60.0729 71.8956C62.4287 71.65 64.7579 71.1788 67.1069 70.9002C71.3549 70.3962 75.793 69.9447 80.0597 70.4091C80.1925 70.4224 80.2786 70.2896 80.2919 70.1769C80.8096 63.3488 81.3071 56.5207 81.5926 49.6792C81.5912 49.6263 81.5733 49.5752 81.5412 49.533C81.5092 49.4909 81.4647 49.4599 81.414 49.4445V49.4445Z" fill="#FEDFFD"/>
<path d="M69.4699 62.391C66.9296 62.1819 64.4964 61.275 62.439 59.7704C60.3816 58.2657 58.78 56.2218 57.8109 53.8644C57.6514 53.4594 56.9829 53.6318 57.1471 54.0501C58.1608 56.5506 59.8503 58.7197 62.0266 60.3147C64.203 61.9096 66.7802 62.8675 69.4699 63.0811C69.9145 63.1081 69.9076 62.4241 69.4699 62.391Z" fill="#E89589"/>
<path d="M56.3976 67.1225C56.2515 65.6105 54.4536 64.8462 52.9866 64.4747C55.0901 63.6985 56.8422 62.3247 56.0924 59.916C55.8737 59.2278 55.4797 58.6083 54.9492 58.1185C54.4186 57.6287 53.7697 57.2854 53.0662 57.1224C54.5782 56.4521 55.9329 55.3638 56.2115 53.8244C56.4106 52.7163 55.8515 51.4556 55.1499 50.6258C54.3071 49.6373 53.126 49.2855 51.8984 49.0202C48.4215 48.2768 44.9576 47.5536 41.4339 47.0359C41.0019 46.9697 40.8168 47.6331 41.2481 47.6997C44.0817 48.1177 46.8753 48.6221 49.6624 49.2722C50.7705 49.5311 51.9052 49.6639 52.9866 50.0156C53.6337 50.2237 54.2104 50.6073 54.6524 51.1237C52.6947 50.6525 50.6643 50.7122 49.5958 52.7891C48.7862 54.3554 48.9921 56.2663 50.4321 57.1811C50.1866 57.2142 49.941 57.2408 49.6887 57.2606C46.7226 57.473 43.6302 57.0947 40.7171 56.5507C37.3261 55.9203 34.0164 54.912 30.8499 53.5447C30.4452 53.3723 30.0939 53.9627 30.505 54.1419C33.636 55.5042 36.9078 56.5167 40.261 57.1613C43.465 57.7733 46.9696 58.2693 50.233 57.8978C50.6381 57.8505 51.0394 57.7751 51.434 57.6721H51.48C52.206 57.5832 52.942 57.7087 53.5975 58.0329C54.2531 58.3571 54.7994 58.866 55.1693 59.4969C53.5702 59.1254 51.5463 59.1121 50.2125 60.1089C49.0245 60.9913 48.766 63.2543 49.4694 64.5009C49.5 64.5487 49.5381 64.5912 49.5821 64.6269C46.4368 65.0715 43.0859 64.6536 40.0932 64.0149C37.2498 63.3721 34.4416 62.582 31.68 61.6479C31.2556 61.5086 31.0763 62.1789 31.4943 62.3114C37.1279 64.1229 43.0604 65.9611 49.0526 65.3307C49.9539 65.2364 50.8474 65.079 51.7266 64.8595C51.7741 64.905 51.8342 64.9351 51.8991 64.9459C52.8283 65.0878 53.7262 65.3886 54.5534 65.8351C53.9198 65.7384 53.2733 65.7683 52.6514 65.9232C52.0295 66.0782 51.4445 66.355 50.9303 66.7376C49.6703 67.7129 49.2516 69.4646 50.1873 70.7855C49.4507 70.8117 48.7206 70.7919 48.024 70.7653C42.47 70.5529 36.864 69.6637 31.8791 67.0692C31.4878 66.8636 31.1361 67.4609 31.5342 67.6664C36.0134 69.9956 40.9968 70.9975 46.0001 71.3427C48.3293 71.5019 50.7248 71.7276 52.9809 70.9975C54.5926 70.4881 56.5834 69.0269 56.3976 67.1225ZM51.3677 56.8625C49.5029 56.2587 49.4698 54.0422 50.4918 52.662C51.673 51.0629 53.5706 51.4877 55.2165 51.978C55.3377 52.2417 55.4311 52.5174 55.4951 52.8006C55.8004 54.2075 54.7391 55.2558 53.6501 55.9794C52.9944 56.4102 52.276 56.737 51.5204 56.9481C51.4751 56.9108 51.4234 56.8821 51.3677 56.8635V56.8625ZM50.0735 64.1485C49.4036 62.9673 49.8744 60.9236 51.142 60.3793C52.5193 59.8567 54.0335 59.8186 55.4354 60.2713C55.4552 60.2781 55.4685 60.2781 55.4883 60.2846C55.9131 61.9835 54.6322 63.0386 53.1926 63.6488C52.173 64.076 51.1057 64.379 50.0138 64.5513C50.068 64.5012 50.1035 64.4341 50.1144 64.361C50.1253 64.2879 50.1109 64.2133 50.0735 64.1496V64.1485ZM55.0239 68.9131C53.9489 70.167 52.4096 70.6116 50.8169 70.7444C50.8395 70.6869 50.8459 70.6243 50.8354 70.5634C50.8248 70.5025 50.7978 70.4457 50.7572 70.3992C49.8482 69.2249 50.5912 67.6855 51.7392 67.0285C52.315 66.6956 52.9625 66.5067 53.6269 66.4778C54.2913 66.449 54.9528 66.5809 55.5552 66.8625C55.8202 67.494 55.6143 68.2241 55.0239 68.9142V68.9131Z" fill="#E89589"/>
<path d="M50.8564 72.3113C49.8877 72.3048 48.5805 72.0723 47.6978 72.6353C46.8885 73.153 46.8338 74.0033 47.0609 74.9245C47.0718 74.9657 47.0909 75.0042 47.117 75.0379C47.1432 75.0715 47.1758 75.0994 47.2131 75.1201C47.2503 75.1408 47.2913 75.1537 47.3336 75.1581C47.376 75.1626 47.4188 75.1584 47.4595 75.1459C47.5002 75.1334 47.5379 75.1127 47.5704 75.0853C47.603 75.0578 47.6296 75.0241 47.6488 74.986C47.6679 74.948 47.6792 74.9065 47.682 74.864C47.6847 74.8215 47.6788 74.7789 47.6647 74.7388C47.5322 74.188 47.4127 73.684 47.9235 73.2858C48.2384 73.0812 48.61 72.9813 48.9851 73.0004C49.609 72.9737 50.2329 73.0004 50.8571 73.0004C51.2614 73.0014 51.2614 72.3113 50.8564 72.3113Z" fill="#E89589"/>
<path d="M62.8075 24.6736C62.1508 24.8194 61.4074 25.1114 60.7242 25.1056C59.7752 25.0988 59.5693 24.0505 59.3371 23.3207C58.942 22.0886 58.6512 20.8255 58.4677 19.5447C58.4014 19.1069 57.738 19.2927 57.8042 19.7308C58.0497 21.403 58.3802 23.2739 59.1513 24.8003C59.9343 26.353 61.6598 25.6431 62.9868 25.3443C63.418 25.2377 63.2388 24.5739 62.8075 24.6736Z" fill="#E89589"/>
<path d="M89.9212 67.8654C80.8833 75.4765 71.6707 82.8753 62.2833 90.0619C59.6956 92.0457 57.0922 94.0122 54.4731 95.9612C45.0238 89.0732 35.5746 82.1875 26.1253 75.3041C23.4181 73.3267 20.7085 71.3515 17.9965 69.3785C17.5188 69.0332 17.0605 69.8231 17.5321 70.168C27.0601 77.1092 36.5868 84.0524 46.1121 90.9975C48.8198 92.9751 51.5294 94.9503 54.2409 96.9231C54.311 96.9655 54.3913 96.9879 54.4731 96.9879C54.555 96.9879 54.6353 96.9655 54.7053 96.9231C64.241 89.823 73.6106 82.5017 82.8141 74.9592C85.4155 72.829 87.9991 70.681 90.5649 68.5152C91.0228 68.1376 90.3658 67.4874 89.9212 67.8654Z" fill="#FEDFFD"/>
</svg>
