<svg xmlns="http://www.w3.org/2000/svg" width="108" height="108" fill="none"><path d="M89.835 58.522H18.076a.8.8 0 0 0-.796.796v46.085c.001.21.085.413.234.562a.8.8 0 0 0 .562.234h71.76a.8.8 0 0 0 .562-.234c.15-.15.233-.35.234-.562V59.32a.8.8 0 0 0-.796-.796h0z" fill="#80beff"/><path d="M28.176 33.645c-.657-.292-1.347-.584-1.526-1.347a3.62 3.62 0 0 1 .02-1.599l.18-.576c.024-.052.035-.108.034-.165a.38.38 0 0 0-.147-.294.38.38 0 0 0-.153-.072.43.43 0 0 0-.378-.007c-.06.028-.112.068-.153.12s-.07.1-.086.174c-.06.15-.108.302-.146.458-.166.418-.385.823-.576 1.214-.445.89-1.32.75-2.183.776a.46.46 0 0 0-.441.401.46.46 0 0 0 .322.502c.882.3 1.44.677 1.466 1.666.02.763-.14 1.512-.12 2.276.013.498.8.644.902.12a7.5 7.5 0 0 1 .816-2.084c.392-.644 1.254-.723 1.95-.703.416.012.642-.665.217-.857zm-2.68.684c-.067.07-.13.146-.186.226a2.95 2.95 0 0 0-.153-.677 1.93 1.93 0 0 0-.496-.751c.418-.085.794-.3 1.068-.637.007-.007.013-.013.013-.02.02.1.047.193.072.285a2.1 2.1 0 0 0 .684.989 2.15 2.15 0 0 0-1.003.584v.001z" fill="#ffc200"/><path d="M68.03 6.372c-.478-.212-1.028-.432-1.2-.97a2.59 2.59 0 0 1 .007-1.387l.14-.458a.38.38 0 0 0-.265-.524c-.06-.03-.124-.046-.2-.047a.44.44 0 0 0-.434.332 3.04 3.04 0 0 0-.12.372 6.21 6.21 0 0 1-.497 1.035c-.385.637-1.05.53-1.705.55a.46.46 0 0 0-.444.4.46.46 0 0 0 .324.502c.8.272 1.154.657 1.148 1.512l-.1 1.66c.007.504.8.644.903.12.122-.542.32-1.064.6-1.55.338-.617.95-.697 1.612-.684.424 0 .657-.678.232-.864zm-2.343.612c-.03-.144-.074-.297-.133-.445-.07-.178-.173-.34-.305-.478.263-.077.502-.218.697-.4l.06.192a1.64 1.64 0 0 0 .451.657 1.7 1.7 0 0 0-.77.485h0zm-25.673 11.28c-.07-.22-.193-.417-.36-.575s-.37-.274-.6-.334a2.28 2.28 0 0 0-.637-.027c-.37 0-.518-.108-.55-.32a1.55 1.55 0 0 0 1.42-1.553c-.013-.252-.084-.497-.207-.716s-.295-.408-.503-.55a1.51 1.51 0 0 0-.803-.265c-.345-.006-1.347.3-1.068-.358.212-.498 1.002-.558 1.294-1.095a1.66 1.66 0 0 0 .013-1.44c-.5-1.095-1.778-1.332-2.794-.882-.537.24-.072 1.03.464.8a1.12 1.12 0 0 1 1.48.445c.292.617-.192.843-.643 1.095-.498.28-.876.677-.823 1.287a1.27 1.27 0 0 0 .922 1.128c.405.106.856-.153 1.24-.046.823.22.498 1.393-.312 1.274a.47.47 0 0 0-.208-.003.49.49 0 0 0-.19.087.46.46 0 0 0-.134.16.47.47 0 0 0-.053.201c-.1.803.152 1.872 1.168 1.772.332-.033 1.015-.365 1.022.338.007.405-.438.504-.703.637a1.44 1.44 0 0 0-.776.803c-.226.544.663.783.882.246.133-.32.87-.45 1.128-.73a1.41 1.41 0 0 0 .319-1.367z" fill="#fb0e39"/><path d="M28.388 19.796c-.154-1.1-.5-2.182-1.05-3.164-.285-.518-1.075-.053-.8.464a8.4 8.4 0 0 1 .954 2.945c.08.577.964.332.884-.245z" fill="#5a80f9"/><path d="M71.99 18.15l-1.586 3.065c-.272.525.517.99.79.465l1.586-3.066c.28-.524-.518-.99-.8-.464z" fill="#fb0e39"/><path d="M41.188 31.932l-2.674-1.904c-.485-.345-.942.45-.464.8l2.674 1.904c.484.346.942-.444.464-.8zm34.448.074l-2.13 2.495c-.378.445.265 1.102.65.65l2.13-2.495c.383-.445-.267-1.102-.65-.65zM87.02 40.78c-.365-.378-.405-.962-.956-1.16a1.19 1.19 0 0 0-.64-.006c-.2.057-.4.172-.548.33-.464.445-.5 1.082-.458 1.685a2.76 2.76 0 0 1 .04.697c-.04.173-.186.525-.465.405-.212-.086-.432-.657-.6-.856-.55-.67-1.865-1.135-2.356-.113a1.08 1.08 0 0 0-.079.677c.046.298.37.657.365.936l-.286.438a4.93 4.93 0 0 1-.504-.225l-.558-.3a11.07 11.07 0 0 1-1.048-.697c-.36-.266-.703.332-.345.597.644.47 2.455 1.95 3.24 1.068a1.22 1.22 0 0 0 .093-1.247c-.146-.385-.57-1.002.106-1.12.504-.086.823.378 1.07.75.425.63 1.28 1.46 1.858.438.305-.538.126-1.148.133-1.732.006-.245-.007-.8.272-.916a.7.7 0 0 1 .743.173c.172.192.24.464.432.663.3.326.794-.165.482-.483z" fill="#5a80f9"/><path d="M83.013 24.873c-1.28.498-2.667-.432-2.926-1.74a3.37 3.37 0 0 1 .259-1.99 1.86 1.86 0 0 0 2.528.132c1.3-1.03.597-3.278-1.188-2.8a2.82 2.82 0 0 0-1.374.909 2.4 2.4 0 0 1-.006-.843c.232-1.4 1.44-3.006 2.588-3.81.478-.338.02-1.135-.465-.8-1.52 1.062-3.112 3.18-3.072 5.116.014.44.132.87.345 1.254a5.01 5.01 0 0 0-.551 2.721c.24 1.898 2.2 3.464 4.114 2.727.538-.212.3-1.102-.252-.89zm-.915-5.54c.57-.013.67.617.418 1.008-.127.178-.308.31-.516.378s-.433.065-.64-.006a1.38 1.38 0 0 1-.584-.36c.326-.496.797-1 1.322-1.02z" fill="#ffc200"/><path d="M53.8 6.804a1.54 1.54 0 0 0-.584-1.938c-.77-.432-1.752-.08-2.39.432-.292.24-.545.525-.75.843-.41-.506-.667-1.116-.744-1.762s.03-1.3.307-1.888c.28-.518-.51-.982-.8-.465a4.21 4.21 0 0 0 .591 4.738c.075.085.154.164.24.24-.17.482-.192 1.004-.065 1.5s.4.94.78 1.28c.976.836 2.304 1.116 2.435 2.62.133 1.473-1.16 2.52-2.56 2.41-.59-.046-.584.87 0 .916a3.21 3.21 0 0 0 3.484-2.893 3.31 3.31 0 0 0-.77-2.336c-.624-.723-1.764-.936-2.283-1.732-.226-.364-.304-.8-.22-1.22 1.18.61 2.747.663 3.318-.744zm-2.482-.723c.385-.332 1.38-.85 1.672-.14.305.743-.677 1.14-1.214 1.1-.35-.025-.69-.13-.995-.305.142-.247.324-.47.538-.657h0z" fill="#5a80f9"/><path d="M49.032 24.17c-.205-.55-1.088-.312-.882.246.424 1.1.55 2.292.365 3.456-.093.576.796.828.882.245a7.62 7.62 0 0 0-.365-3.947h0z" fill="#fb0e39"/><path d="M81.414 49.445a15.43 15.43 0 0 1-3.789-1.307c-1.906-1.053-3.59-2.464-4.963-4.154-3.013-3.596-5.057-8.09-6.888-12.37-.902-2.1-1.652-4.273-2.488-6.403-.624-1.593-1.374-3.212-2.608-4.428-1.075-1.055-2.874-2.057-4.38-1.32-1.646.803-2.183 3.046-2.395 4.685-.67 5.202.484 10.385 1.7 15.42-2.25.006-4.506.405-6.735.65-2.66.292-5.335.398-8.003.644A24.25 24.25 0 0 0 34.4 42.3c-2.376.902-4.924 1.924-6.125 4.32-.623 1.248-.922 2.6-.424 3.942.498 1.26 1.417 2.308 2.6 2.966-.596.564-1.057 1.255-1.348 2.022s-.404 1.6-.332 2.408.33 1.608.752 2.31.998 1.303 1.684 1.752c-.385.33-.687.743-.882 1.2s-.278.973-.242 1.478.2.994.45 1.428a3.23 3.23 0 0 0 1.045 1.072c-1.015.677-1.327 1.998-1.088 3.18.338 1.692 1.825 2.714 3.358 3.264 2.15.77 4.545 1.042 6.8 1.3 2.542.3 5.23.518 7.784.22.976-.113 1.977-.405 2.615-1.2a2.55 2.55 0 0 0 .498-1.015 5.31 5.31 0 0 0-.06-.982c2.86.236 5.733.21 8.587-.08 2.356-.246 4.685-.717 7.034-.995 4.248-.504 8.686-.956 12.953-.49.133.013.22-.12.232-.232l1.3-20.498c-.001-.053-.02-.104-.05-.146s-.077-.073-.127-.09h0z" fill="#fedffd"/><path d="M69.47 62.4a13.84 13.84 0 0 1-11.658-8.526c-.16-.405-.828-.233-.664.186a14.54 14.54 0 0 0 12.323 9.031c.445.027.438-.657 0-.7zm-13.072 4.733c-.146-1.512-1.944-2.276-3.4-2.648 2.103-.776 3.856-2.15 3.106-4.56a4.16 4.16 0 0 0-3.026-2.794c1.512-.67 2.867-1.76 3.145-3.298.2-1.108-.36-2.37-1.062-3.2-.843-.988-2.024-1.34-3.25-1.606-3.477-.743-6.94-1.467-10.465-1.984-.432-.066-.617.597-.186.664 2.834.418 5.627.922 8.414 1.572 1.108.26 2.243.392 3.324.743.647.208 1.224.592 1.666 1.108-1.958-.47-3.988-.4-5.057 1.665-.8 1.566-.604 3.477.836 4.392a13.36 13.36 0 0 1-.743.079c-2.966.212-6.058-.166-8.972-.7a46.26 46.26 0 0 1-9.867-3.006c-.405-.172-.756.418-.345.597a46.44 46.44 0 0 0 9.756 3.02c3.204.612 6.7 1.108 9.972.736a8.72 8.72 0 0 0 1.2-.226h.046a3.75 3.75 0 0 1 3.689 1.825c-1.6-.37-3.623-.385-4.957.612-1.188.882-1.447 3.145-.743 4.392a.53.53 0 0 0 .113.126c-3.145.445-6.496.027-9.5-.612a84.21 84.21 0 0 1-8.413-2.367c-.424-.14-.604.53-.186.663 5.634 1.812 11.566 3.65 17.558 3.02a19.56 19.56 0 0 0 2.674-.47c.047.046.108.076.172.086a8.19 8.19 0 0 1 2.654.889c-.634-.097-1.28-.067-1.902.088a4.84 4.84 0 0 0-1.72.814c-1.26.975-1.68 2.727-.743 4.048-.737.026-1.467.006-2.163-.02-5.554-.212-11.16-1.102-16.145-3.696-.4-.206-.743.392-.345.597 4.48 2.33 9.463 3.33 14.466 3.676 2.33.16 4.725.385 6.98-.345 1.612-.5 3.602-1.97 3.417-3.875zm-5.03-10.26c-1.865-.604-1.898-2.82-.876-4.2 1.18-1.6 3.08-1.174 4.725-.684a4.17 4.17 0 0 1 .279.823c.305 1.407-.756 2.455-1.845 3.18a7.66 7.66 0 0 1-2.13.97.48.48 0 0 0-.153-.085v-.001zm-1.294 7.286c-.67-1.18-.2-3.225 1.07-3.77 1.377-.523 2.9-.56 4.293-.108.02.007.033.007.053.013.425 1.7-.856 2.754-2.296 3.364a13.78 13.78 0 0 1-3.18.902c.054-.05.1-.117.1-.2s-.004-.148-.04-.2h0zm4.95 4.765c-1.075 1.254-2.614 1.698-4.207 1.83.023-.058.03-.12.02-.18s-.038-.118-.078-.164c-.9-1.174-.166-2.714.982-3.37a4.13 4.13 0 0 1 3.816-.166c.265.632.06 1.362-.53 2.052v-.001zM50.856 72.3c-.97-.007-2.276-.24-3.16.324-.8.518-.864 1.368-.637 2.3.01.04.03.08.056.113s.06.062.096.082.078.034.12.038.085 0 .126-.012.078-.033.1-.06.06-.06.078-.1.03-.08.033-.122-.003-.085-.017-.125c-.133-.55-.252-1.055.26-1.453A1.78 1.78 0 0 1 48.985 73h1.872c.404.001.404-.7-.001-.7zm11.952-47.636c-.657.146-1.4.438-2.083.432-.95-.007-1.155-1.055-1.387-1.785a23.09 23.09 0 0 1-.869-3.776c-.066-.438-.73-.252-.663.186.245 1.672.576 3.543 1.347 5.07.783 1.553 2.508.843 3.836.544.43-.107.252-.77-.18-.67z" fill="#e89589"/><path d="M89.92 67.865c-9.038 7.61-18.25 15-27.638 22.197l-7.8 5.9L17.997 69.38c-.478-.345-.936.445-.464.8l36.71 26.755a.45.45 0 0 0 .464 0 766.95 766.95 0 0 0 28.109-21.964l7.75-6.444c.458-.378-.2-1.028-.644-.65z" fill="#fedffd"/></svg>