<svg xmlns="http://www.w3.org/2000/svg" width="48" height="48" fill="none"><path d="M22.667 48c12.518 0 22.667-10.148 22.667-22.667A22.67 22.67 0 0 0 22.667 2.667C10.148 2.667 0 12.815 0 25.333S10.148 48 22.667 48z" fill="#ffcc4d"/><path d="M24 38c1.473 0 2.667-1.492 2.667-3.333S25.47 31.334 24 31.334s-2.667 1.492-2.667 3.333S22.526 38 24 38zm-13.185-9.5a1.33 1.33 0 0 1-.709-.205c-.623-.392-.8-1.215-.417-1.84 1.22-1.937 4.935-5.25 10.253-3.95.715.175 1.152.897.977 1.612a1.34 1.34 0 0 1-1.612.977c-4.805-1.176-7.336 2.74-7.36 2.78-.255.403-.688.623-1.13.623zm15.964-5a1.33 1.33 0 0 1-1.032-.488c-.467-.57-.384-1.4.187-1.877 4.235-3.472 9.016-2.083 10.953-.86.623.392.8 1.216.416 1.84a1.33 1.33 0 0 1-1.835.42c-.184-.112-4.07-2.43-7.845.665-.248.204-.547.303-.844.303z" fill="#664500"/><path d="M17.795 41.697c-.09 0-.183-.012-.273-.037a1 1 0 0 1-.689-1.235c.583-2.053.344-4.04-.653-5.448-.663-.936-1.607-1.508-2.59-1.57a1 1 0 0 1-.936-1.06c.035-.55.508-1 1.06-.935 1.59.1 3.084.977 4.097 2.41 1.348 1.905 1.693 4.51.945 7.148a1 1 0 0 1-.96.728zm14.716-4.08a.99.99 0 0 1-.549-.165c-1.556-1.027-2.427-2.823-2.39-4.927.04-2.18 1.08-4.204 2.645-5.16.47-.288 1.085-.14 1.373.335s.14 1.085-.335 1.373c-.98.597-1.66 2-1.685 3.485-.027 1.407.52 2.58 1.49 3.223a1 1 0 0 1 .284 1.385c-.192.292-.51.45-.835.45z" fill="#e2a62d"/><path d="M22.905 3.627c-.057-.065-.147-.1-.252-.12 0 0-21.232-4.03-22.15-3.22s.484 22.38.484 22.38c.007.108.03.2.09.265.805.912 6.344-2.672 12.372-8s10.263-10.39 9.457-11.3z" fill="#dd2e44"/><path d="M.465.36C.445.4.428.456.415.525c.212 1.828 2.26 16.87 3.536 21.57 1.915-1.07 3.86-2.525 6.145-4.337C8.155 14.205 1.544.195.465.36z" fill="#ea596e"/><path d="M39.87 38.972l-14.097-1.737c-1.507-.136-4.156-.15-4.02-2.536.124-2.164 2.72-1.83 4.64-1.547l14.184 2.365-.705 3.455z" fill="#f55"/><path d="M40.573 35.52l-5.63-.965c-.66-.12-1.245.863-1.275 1.9-.033 1.155.303 1.74.968 1.875l5.525.683.41-3.493z" fill="#88c9f9"/><path d="M46.557 35.12l-3.496 3.215-6.25-6.796 3.496-3.215a4.5 4.5 0 0 1 6.335.265l.18.196a4.5 4.5 0 0 1-.265 6.335z" fill="#f55"/><path d="M43.06 38.338c1.502-1.38 1.32-4.02-.405-5.898s-4.342-2.28-5.843-.898-1.32 4.02.405 5.898 4.342 2.28 5.843.898z" fill="#88c9f9"/><path d="M41.81 36.98c.75-.7.52-2.163-.515-3.29s-2.483-1.48-3.234-.79-.52 2.163.515 3.288 2.483 1.48 3.234.79z" fill="#269"/><path d="M3.333 46.667a2 2 0 1 0 0-4 2 2 0 1 0 0 4zM38.667 5.333a2.67 2.67 0 0 0 2.667-2.667C41.334 1.193 40.14 0 38.667 0A2.67 2.67 0 0 0 36 2.667a2.67 2.67 0 0 0 2.667 2.667z" fill="#55acee"/><path d="M6.486 38.995l-3.117-7.488-2.82 8.06 5.936-.572zm28.18-32.328L29.334 8l1.333-5.333 4 4z" fill="#ea596e"/><path d="M42.665 17.333L48 10.665 44 8l-1.335 9.333z" fill="#77b255"/></svg>