<svg xmlns="http://www.w3.org/2000/svg" xmlns:xlink="http://www.w3.org/1999/xlink" width="108" height="108" fill="none"><style><![CDATA[.B{stroke-linejoin:round}.C{fill:#da7656}.D{stroke:#ae504a}.E{stroke-width:1.546}.F{stroke-linecap:round}.G{fill:#621cd1}.H{stroke-width:1.933}.I{stroke-dasharray:6.96 6.96}]]></style><path d="M90.99 97.095l8.434-.515-.195-4.078-7.877-.765-.362 5.358z" class="B C D E"/><path d="M99.617 97.443l3.424.515c.724.097 1.364-.292 1.433-.89l1.49-12.51a1.08 1.08 0 0 0-.668-1.071h0c-.668-.334-1.517-.153-1.836.404-1.113 2-3.576 6.264-5.177 7.724-.148.13-.25.306-.287.5s-.01.395.08.57c.473 1.002.85 1.948.445 3.382-.167.612.333 1.252 1.098 1.378z" class="G"/><path d="M50.63 84.555c7.056 1.712 35.683 4.608 41.306 4.885a.77.77 0 0 1 .3.078c.094.046.177.11.245.19s.12.172.15.272a.77.77 0 0 1 .03.309c-.223 2.366.432 5.317.82 6.82a.76.76 0 0 1-.135.668.76.76 0 0 1-.273.219c-.107.05-.224.076-.342.073-4.342-.056-21.126-.222-24.02.014-2.825.237-24.522 1.28-31.146 1.6a.77.77 0 0 1-.738-.445.77.77 0 0 1 .14-.851L49.878 84.78a.76.76 0 0 1 .751-.225h0z" fill="#ffeb7d"/><g class="B E"><path d="M50.017 94.186c3.966.626 42.85 0 42.85 0" stroke="#f9c126" class="F I"/><path d="M70.406 90.136l4.036 7.418 3.618-1.908-2.644-7.46-5 1.95z" class="C D"/></g><path d="M73.036 97.373l.014 3.465c.014.724.5 1.308 1.1 1.28l6.25-.223 6.346-.223c.226-.02.44-.11.612-.256a1.08 1.08 0 0 0 .348-.565h0c.237-.71-.084-1.53-.682-1.74-2.143-.792-6.75-2.575-8.434-3.924a.9.9 0 0 0-1.1-.042c-.905.626-1.795 1.14-3.284.96-.612-.098-1.155.486-1.17 1.266z" class="G"/><path d="M25.565 95.02c2.505 2.644 8.768 7.794 19.484 2.366 7.794-3.2 17.953-23.102 17.953-23.102s1.252 11.7 7.933 18.37c2.922-.348 5.86-3.564 8.114-4.648.328-.16.59-.43.737-.764s.173-.71.07-1.06c-1.698-5.594-6.958-19.025-8.225-21.92-1.392-3.2-4.732-10.16-11.97-3.618S40.874 79.99 39.62 82.774 25.565 95.717 25.565 95.717" fill="#ffeb7d"/><g stroke="#f9c126" class="B E F"><path d="M43.7 98.848s5.44-1.6 12.4-12.93m10.77 1.045c1.5 2.282 3.298 5.623 4.133 5.9s7.585-4.608 7.585-4.608M64.533 68.3c-.92 1.84-1.418 3.86-1.46 5.915"/><path d="M31.98 90.415C36.35 93.98 44.63 91.96 63.14 63.3c1.392-2.227 4.87 1.253 5.636 7.167 1.17 9.032 6.192 20.25 6.192 20.25" class="I"/></g><path d="M65.576 40.452c-.214-.055-.44-.023-.632.1s-.33.295-.384.51l-4.467 17.007-12.136 11.12a.85.85 0 0 0-.056 1.183c.078.084.173.15.278.197s.22.07.334.067c.21 0 .415-.08.57-.222L61.4 59.115a.83.83 0 0 0 .252-.404l4.523-17.244c.055-.214.022-.44-.1-.63s-.296-.328-.51-.384h0z" fill="#a4d2fc"/><g class="C"><path d="M15.545 96.608c.042 1.03-.835 3.326-1.28 4.036-.682 1.1-3.215 1.39-7.376 1.364-2.978.18-5.247.18-5.08-.265s7.236-2.477 7.877-2.686.014-3.243.014-3.243 4.565-.932 5.845.793z" class="B D H"/><path d="M46.72 67.006c0-.056 1.155-3.382.974-5.664-.04-.473.376-.487.738.14.418.7.792 2.157.432 3.104"/></g><g class="B D E"><path d="M46.72 67.006c0-.056 1.155-3.382.974-5.664-.04-.473.376-.487.738.14.418.7.792 2.157.432 3.104" class="F"/><path d="M44.172 69.692c.738-2.602 4.815-7.515 8.573-7.515s2.59.252 1.406 1.336-4.982 4.342-5.706 5.344c-.662.8-1.408 1.547-2.227 2.2l-2.046-1.364z" class="C"/></g><path d="M14.807 98.918a14.64 14.64 0 0 0-5.148-.738c-.258.007-.5-.082-.708-.25s-.327-.4-.364-.656c-.78-5.19-4.217-30.102.14-36.198 4.87-6.82 9.74-5.566 13.917-.974 4.09 4.51 8.46 14.098 20.444 8.028.2-.1.428-.13.65-.09s.422.15.575.314a13.81 13.81 0 0 0 3.632 2.644c.2.093.356.258.436.463s.08.433-.004.636c-1.434 3.577-5.135 6.917-5.135 6.917S32.302 90.83 31.577 98.332c-.016.156-.065.308-.143.444s-.185.254-.313.346-.273.156-.427.188-.313.03-.467-.004C23.7 97.832 15.545 87.228 15.545 87.228s1.224 6.485.682 10.827a1.05 1.05 0 0 1-.498.779 1.05 1.05 0 0 1-.921.083h0z" fill="#3e9ff8"/><path d="M23.004 80.38c-.086.155-.224.275-.4.34a.75.75 0 0 1-.516.01 2 2 0 0 0-1.51-.106c-.498.164-.9.517-1.15.983-.432.85-.278 1.892.96 2.42a.64.64 0 0 1 .32.849c-.086.155-.224.275-.4.34a.75.75 0 0 1-.516.01c-1.976-.864-2.282-2.756-1.56-4.176.4-.8 1.1-1.394 1.926-1.685a3.42 3.42 0 0 1 2.556.126.65.65 0 0 1 .198.163c.055.067.096.144.12.227a.67.67 0 0 1 .024.256c-.01.086-.035.17-.076.245h0zm-3.45-4.147a.71.71 0 0 1-.737-.07L15.07 73.38c-.15-.1-.25-.273-.278-.455a.7.7 0 0 1 .125-.519c.1-.15.273-.25.455-.278a.7.7 0 0 1 .519.125l3.744 2.784a.71.71 0 0 1 .274.456c.03.182-.015.368-.12.518a.72.72 0 0 1-.237.223h0zm7.64-4.203a.72.72 0 0 1 .195-.71l3.438-3.173a.7.7 0 0 1 .988.028.7.7 0 0 1-.028.988l-3.438 3.173c-.136.124-.316.2-.5.185s-.36-.08-.5-.212a.39.39 0 0 1-.113-.12c-.028-.047-.047-.1-.053-.157h0zm-3.423-4.648c-.064-.17-.06-.36.01-.527s.2-.303.367-.378a1.96 1.96 0 0 0 1.141-2.547c-.32-.877-1.183-1.5-2.422-.947-.077.034-.16.052-.245.053s-.168-.016-.247-.048-.15-.08-.208-.14a.63.63 0 0 1-.135-.212c-.064-.17-.06-.358.01-.526s.2-.303.367-.378c1.976-.877 3.577.195 4.12 1.67.315.828.295 1.746-.056 2.56s-1.005 1.458-1.823 1.797a.67.67 0 0 1-.259.05c-.1-.001-.177-.02-.258-.054a.67.67 0 0 1-.217-.15c-.062-.064-.1-.14-.142-.222h0zm.584 22.588a.72.72 0 0 1 .195-.71l3.437-3.173a.7.7 0 0 1 .98.035.7.7 0 0 1-.02.981l-3.452 3.186c-.137.124-.315.2-.5.184s-.36-.08-.488-.212a.59.59 0 0 1-.153-.29h0zM5.47 87.325a.68.68 0 0 1 .724-.111l4.3 1.836a.69.69 0 0 1 .352.901.69.69 0 0 1-.895.366l-4.3-1.836c-.084-.035-.16-.087-.223-.15s-.114-.14-.147-.225a.73.73 0 0 1-.05-.265c0-.09.02-.18.057-.263a.6.6 0 0 1 .18-.25h0zm10.228 11.3a.7.7 0 0 1-.372.036.71.71 0 0 1-.338-.16l-3.492-3.1a.7.7 0 0 1-.056-.988.7.7 0 0 1 .988-.056l3.492 3.1a.69.69 0 0 1 .197.753.68.68 0 0 1-.142.235 1.33 1.33 0 0 1-.278.181h0zm5.65-4.092a.74.74 0 0 1 .738.64c.007.26.065.515.17.752a1.99 1.99 0 0 0 .446.63c.188.18.4.318.654.4a1.98 1.98 0 0 0 .761.129c.946-.028 1.795-.64 1.684-2a.62.62 0 0 1 .598-.668.74.74 0 0 1 .49.181c.136.118.224.28.248.46.18 2.157-1.35 3.312-2.922 3.354a3.39 3.39 0 0 1-3.492-3.187.65.65 0 0 1 .369-.648c.08-.038.167-.06.256-.06zM8.865 71.96a.73.73 0 0 1 .473-.849c.505-.126.94-.443 1.217-.884s.368-.973.26-1.482c-.2-.904-1.002-1.628-2.282-1.252a.62.62 0 0 1-.25.023c-.085-.01-.164-.036-.237-.077s-.137-.098-.187-.165a.61.61 0 0 1-.106-.226.73.73 0 0 1 .473-.849c2.074-.612 3.52.654 3.87 2.185.204.86.063 1.768-.392 2.527s-1.188 1.3-2.044 1.537a.65.65 0 0 1-.258.013c-.086-.013-.168-.043-.242-.088a.65.65 0 0 1-.294-.412h0zm-2.02 10.842a.74.74 0 0 1-.1-.37.73.73 0 0 1 .1-.37l2.505-3.938a.65.65 0 0 1 .434-.3.7.7 0 0 1 .526.088.65.65 0 0 1 .3.434.7.7 0 0 1-.088.526L8.016 82.8a.71.71 0 0 1-.96.223.85.85 0 0 1-.221-.223zM37.7 84.555c.024.176-.014.354-.108.504s-.238.262-.407.317a2.01 2.01 0 0 0-1.267.823c-.3.43-.42.957-.333 1.473.153.932.905 1.684 2.213 1.364a.63.63 0 0 1 .486.081.64.64 0 0 1 .18.175.63.63 0 0 1 .098.231.75.75 0 0 1-.108.504c-.094.15-.238.262-.407.317-2.1.5-3.48-.835-3.757-2.394a3.4 3.4 0 0 1 2.644-3.938.66.66 0 0 1 .494.114c.144.102.24.256.27.43h0zm-2.644-4.175a.74.74 0 0 1-.737-.028l-3.855-2.628a.7.7 0 0 1-.197-.984.7.7 0 0 1 .988-.171L35.1 79.2a.72.72 0 0 1 .18.974.66.66 0 0 1-.234.207h0zm11.58-3.353a.68.68 0 0 1-.459-.571l-.585-4.636a.7.7 0 1 1 1.391-.168l.585 4.634a.67.67 0 0 1-.02.274c-.026.09-.066.172-.123.245a.68.68 0 0 1-.21.178.7.7 0 0 1-.26.083 1.27 1.27 0 0 1-.321-.04zm-6.917-7.25a.74.74 0 0 1-.473.849c-.506.127-.943.447-1.216.892a2 2 0 0 0-.245 1.488c.222.918 1.002 1.628 2.296 1.224a.61.61 0 0 1 .78.446.74.74 0 0 1-.473.849c-2.074.626-3.52-.64-3.883-2.17-.2-.86-.076-1.77.373-2.534s1.18-1.323 2.034-1.557a.71.71 0 0 1 .503.103c.15.095.258.242.305.413h0zM11.3 63.958a.72.72 0 0 1 .195-.71l3.438-3.173a.7.7 0 0 1 .988.028.7.7 0 0 1-.028.988l-3.45 3.173c-.136.124-.316.2-.5.185s-.36-.08-.5-.212c-.075-.078-.127-.174-.153-.278h0z" fill="#a4d2fc"/><path d="M43.7 77.9c-8.782 5.734-21.237 2.13-26.902-9.032M10.27 72.85c.64 4.133 2.5 8.392 5.275 14.376" stroke="#465cff" class="B E F"/><use xlink:href="#B" class="C"/><g class="B D E"><use xlink:href="#B" class="F"/><path d="M17.938 41.608c-.682 2.088-1.836 8.21 3.77 10.786 6.15 2.81 8.002-11.064 7.724-12.247s-4.454-4.523-7.376-3.27-4.12 4.732-4.12 4.732z" class="C"/></g><path d="M27.193 38.532c-2.616-7.572-13.416-3.756-10.94 3.16-2.672 2.018-5.86 3.437-6.764 4.16s.682 1.155 1.308.807a240.11 240.11 0 0 1 5.957-2.952c.014-.014.042-.014.056-.028.432-.237 6.346-3.48 9.964-4.384a.59.59 0 0 0 .218-.106c.065-.05.118-.113.158-.185s.063-.15.07-.232a.59.59 0 0 0-.029-.241h0z" fill="#ff5c76"/><path d="M34.124 31.907c-1.996.703-3.73 2-4.968 3.716 0 0-2.115-1.392-3.173.877-.418.89-.933 2.268-.808 2.756-1.962.473-5.594 2.825-5.594 2.825 1.252 2.978 4.314 3.048 6.47-1.267 2.157 2.088 9.324 1.67 11.7-1.74s.946-8.655-3.62-7.167z" fill="#ae504a"/><path d="M20.64 46.687c-.32 0-3.243-2.408-2.282-3.8.932-1.404 2.575.792 2.644 1.155" class="C"/><path d="M20.64 46.687c-.32 0-3.243-2.408-2.282-3.8.932-1.404 2.575.792 2.644 1.155" class="B D E F"/><path d="M26.795 46.425c.13-.304.04-.633-.2-.736s-.54.06-.67.363-.04.633.2.736.54-.06.67-.363z" class="G"/><path d="M28.21 46.242l.153 3.492c.028.64-1.517-.334-1.517-.334" class="C"/><g class="B D F"><path d="M28.21 46.242l.153 3.492c.028.64-1.517-.334-1.517-.334" class="H"/><path d="M25.9 43.68a6.72 6.72 0 0 1 1.489-.139" stroke-width="2.706"/><path d="M23.533 49.387s.18.89.835.89" class="H"/></g><path d="M49.74 64.167c1.016-.932 4.328-1.197 5.052-1.56z" class="C"/><path d="M49.74 64.167c1.016-.932 4.328-1.197 5.052-1.56" class="B D E F"/><path d="M50.296 65.238c.696-.598 3.938-2.13 3.938-2.13z" class="C"/><path d="M50.296 65.238c.696-.598 3.938-2.13 3.938-2.13" class="B D E F"/><defs ><path id="B" d="M22.545 52.018c-.11.056-2.032 5.233-2.435 6.444-.084.248-.218.475-.396.667s-.393.344-.634.446c-.33.152-.7.208-1.06.162s-.703-.194-.985-.426a1.55 1.55 0 0 1-.432-1.754l2.478-6.5"/></defs></svg>