<svg xmlns="http://www.w3.org/2000/svg" xmlns:xlink="http://www.w3.org/1999/xlink" width="106" height="106" fill="none"><style><![CDATA[.B{stroke-width:1.222}.C{stroke:#e89589}.D{stroke-linejoin:round}.E{stroke-linecap:round}.F{fill:#ffc3a9}.G{fill:#ff5c76}.H{fill:#621cd1}.I{stroke-width:1.528}]]></style><path d="M103.676 83.177c-.048-.002-.095-.01-.142-.022L36.768 66.15a.56.56 0 0 1-.2-.093c-.06-.044-.1-.1-.148-.163s-.063-.134-.074-.207a.56.56 0 0 1 .012-.22c.02-.072.05-.14.096-.198s.1-.108.166-.145.135-.06.21-.07.148-.004.22.016l66.768 17.005a.56.56 0 0 1 .412.613.56.56 0 0 1-.185.348c-.1.1-.232.14-.368.14h.001z" fill="#a4d2fc"/><path d="M68.176 93.5l-32.283-8.292a.56.56 0 0 1-.36-.812.58.58 0 0 1 .24-.235l8.865-4.545c.563-.288 1.212-.36 1.825-.205l32.283 8.292c.1.028.212.1.287.175a.56.56 0 0 1-.169.873L70 93.304c-.56.293-1.212.366-1.825.205h0zm-40.5-12.374c-2.278-.346-4.966-3.4 1.436-5.312 4.383-1.317 7.85-1.997 10.43 1.5 1.34 1.587-3.692 1.253-5.7 1.922s-4.708 2.116-6.165 1.9z" fill="#465cff"/><g class="F"><path d="M79.523 64.045l1.123 8.497c0 1.113 0 4.134-10.397 8.056-2.17.982-3.963 1.058-6.75 1.047-1.954-.01-3.692-.27-4.664-.83-1.61-.92.108 1.566 1.566 1.9-2.008.788-2.69 1.34-3.574 2.796-.636 1.047-.4 1.51.67.443.896-.896 2.57-1.566 3.357-1.792-1.34 1.123-2.69 2.462-2.796 3.92-.065.788.335.443 1.23-.67s1.674-1.792 2.797-2.235a7.45 7.45 0 0 0-1.674 3.919c0 1.23.583.184.896-.443a12.21 12.21 0 0 1 2.008-2.569c-.423 1.27-.687 2.585-.788 3.92 0 .56.335.443.896-.67.56-1.123 1.413-3.023 4.254-3.023 3.357 0 12.082-2.904 15.44-5.258s5.258-5.15 4.59-9.393-1.458-8.054-1.458-8.054-4.104-3.53-6.728.443z" class="B C D"/><path d="M60.197 82.8c.506-.166 1.022-.303 1.544-.4z"/></g><g class="B C D"><path d="M60.197 82.8c.506-.166 1.022-.303 1.544-.4" class="E"/><path d="M60.175 61.475c-.67 2.354-2.462 7.493-3.13 8.724s-2.904 3.023-5.7 3.693-10.397 1.565-11.628 1.9-5.15 3.692-6.262 4.134c-1.123.443.442-2.462.788-3.692-1.34.335-4.028.56-5.82 1.34-1.792.788-1.792 0-.443-1.458 1.34-1.457 2.462-2.235 4.028-2.796s4.134-.443 6.262-.788c2.127-.335 11.52-3.574 12.308-4.588.788-1.004 4.028-8.616 4.028-8.616s4.22-.755 5.57 2.15z" class="F"/></g><path d="M99.12 50.408c-.713-2.96-7.515-5.388-5.096-11.963s3.498-14.91-5.647-19.283c-7.925-3.8-11.8-1.1-12.567 2.615-.2-.04-.406-.026-.6.038s-.366.178-.502.33c-.475.615-.022 1.75 1.004 2.548.95.734 2.052.92 2.59.475 12.07 3.11 6.446 12.826 4.643 14.846s-10.03 17.426 4.86 21.248c14.9 3.83 12.028-7.895 11.315-10.853z" class="G"/><path d="M53.146 61.378c-.067-.005-.132-.025-.2-.06s-.107-.08-.144-.138-.06-.12-.067-.188 0-.135.023-.198c3.012-8.26 7.363-15.288 16.616-14.198 9.307 1.1 14.868 1.77 17.815 17.318.014.074.01.15-.016.222s-.067.135-.124.184-.126.083-.2.097-.15.008-.22-.017c-2.948-1.047-5.94.842-6.63 1.328-.095.066-.16.167-.184.28L78.37 75.1a.43.43 0 0 1-.189.289.43.43 0 0 1-.341.057l-15.536-3.963a.42.42 0 0 1-.186-.096c-.053-.047-.093-.107-.117-.174-.335-.896-1.63-4.427-1.825-6.273-.128-1.323.023-2.66.442-3.92l-1.004 3.552c-.022.075-.063.143-.12.197s-.128.1-.204.107-.156.012-.23-.013a.43.43 0 0 1-.191-.129c-.93-1.068-3.055-3.152-5.722-3.357z" fill="#f9c126"/><path d="M62.713 66.356a.78.78 0 0 0-.464-.4.64.64 0 0 0-.671.097.79.79 0 0 0-.175.274c-.04.104-.057.2-.052.32a.95.95 0 0 0-.648 0 .67.67 0 0 0-.26.236c-.064.1-.1.216-.106.336a.58.58 0 0 0 .151.497c.42.497 1.63.572 1.76.572h.022c.05.002.097-.012.138-.04a.24.24 0 0 0 .09-.112c.045-.076.5-1.178.218-1.782zM75.83 63.7a.65.65 0 0 0 .099-.29.64.64 0 0 0-.045-.303c-.12-.346-.303-.464-.464-.497a.83.83 0 0 0-.615.151.87.87 0 0 0-.367-.54c-.108-.053-.228-.08-.348-.076a.74.74 0 0 0-.343.097c-.085.037-.16.095-.216.17a.55.55 0 0 0-.107.253c-.173.636.464 1.663.518 1.78v.022c.027.038.065.068.1.085a.26.26 0 0 0 .138.012c.153-.02 1.308-.27 1.642-.864zm-8.56 2.137a.7.7 0 0 0-.3-.054.72.72 0 0 0-.295.076.61.61 0 0 0-.421.54.83.83 0 0 0 .227.594c-.206.087-.374.243-.475.442a.7.7 0 0 0-.033.36.71.71 0 0 0 .152.33c.052.077.12.14.202.187s.17.075.263.083c.648.097 1.587-.648 1.706-.745a.27.27 0 0 0 .076-.27c-.087-.162-.464-1.272-1.1-1.544zm-8.488-9.285a.7.7 0 0 0-.3-.054c-.103.004-.203.03-.295.075a.61.61 0 0 0-.421.54.83.83 0 0 0 .227.594c-.206.087-.374.244-.475.443a.69.69 0 0 0-.033.36.71.71 0 0 0 .152.33c.053.076.122.14.202.187s.17.075.263.083c.648.097 1.587-.648 1.706-.745.036-.034.063-.077.076-.124a.27.27 0 0 0 0-.146c-.087-.173-.486-1.285-1.1-1.544zm19.564-5.755a.7.7 0 0 0-.3-.054c-.103.004-.203.03-.295.075a.61.61 0 0 0-.421.54.83.83 0 0 0 .227.594.95.95 0 0 0-.475.443.71.71 0 0 0-.033.362.7.7 0 0 0 .152.33c.053.077.12.14.202.187s.17.075.263.083c.648.097 1.587-.648 1.706-.745.036-.034.063-.077.076-.124s.013-.098 0-.146c-.087-.162-.464-1.274-1.1-1.544zm-3.54 6.013a.78.78 0 0 0-.464-.4.64.64 0 0 0-.671.097c-.076.078-.135.172-.174.274a.79.79 0 0 0-.052.32.95.95 0 0 0-.648 0c-.106.054-.196.136-.26.237a.69.69 0 0 0-.106.336.58.58 0 0 0 .151.496c.42.497 1.63.572 1.76.572h.022c.05.002.097-.012.138-.04a.24.24 0 0 0 .09-.112c.045-.076.498-1.166.218-1.782zm6.455 2.473a.65.65 0 0 0 .054-.594c-.12-.346-.302-.464-.464-.497-.217-.033-.438.022-.615.15a.87.87 0 0 0-.367-.54c-.108-.053-.228-.08-.348-.076a.74.74 0 0 0-.343.097c-.085.037-.16.095-.217.17a.54.54 0 0 0-.107.252c-.173.636.464 1.663.518 1.782v.022c.027.038.065.068.1.086a.25.25 0 0 0 .138.012c.152-.01 1.296-.27 1.642-.864zM61.633 49.9c-.046-.095-.1-.18-.2-.248a.8.8 0 0 0-.273-.152.64.64 0 0 0-.669.097c-.076.078-.136.172-.175.274a.79.79 0 0 0-.052.32.95.95 0 0 0-.648 0c-.106.055-.196.136-.26.237a.7.7 0 0 0-.107.336.58.58 0 0 0 .151.496c.42.497 1.63.572 1.76.572h.022c.05.002.097-.012.138-.04a.24.24 0 0 0 .09-.112c.063-.076.507-1.166.216-1.782zm7.093 4.266a.65.65 0 0 0 .054-.594c-.12-.345-.302-.464-.464-.496a.83.83 0 0 0-.615.151.87.87 0 0 0-.367-.54.73.73 0 0 0-.691.022c-.085.037-.16.095-.217.17a.54.54 0 0 0-.107.252c-.173.636.464 1.663.518 1.782v.022c.027.038.065.068.1.086a.25.25 0 0 0 .138.012c.152-.044 1.296-.27 1.642-.864zm-2.926-9.09a.7.7 0 0 0-.3-.054c-.103.004-.203.03-.294.075-.116.038-.218.1-.293.206a.61.61 0 0 0-.128.334.83.83 0 0 0 .228.594c-.206.087-.374.243-.475.442a.7.7 0 0 0 .119.691c.053.077.12.14.202.187s.17.075.262.083c.648.097 1.587-.648 1.706-.745a.27.27 0 0 0 .076-.27c-.088-.162-.476-1.274-1.103-1.544zm.335 14.37a.78.78 0 0 0-.464-.4.64.64 0 0 0-.669.097.79.79 0 0 0-.174.274.81.81 0 0 0-.052.32.95.95 0 0 0-.648 0 .67.67 0 0 0-.26.236c-.064.1-.1.216-.106.336a.58.58 0 0 0 .151.497c.42.495 1.63.572 1.76.572h.022c.05.002.097-.012.138-.04a.24.24 0 0 0 .09-.112c.065-.076.508-1.166.216-1.782zm7.46-9.63a.65.65 0 0 0 .054-.594c-.12-.346-.302-.464-.464-.497a.83.83 0 0 0-.615.151.87.87 0 0 0-.367-.54c-.108-.053-.228-.08-.348-.076a.73.73 0 0 0-.343.097c-.085.037-.16.095-.217.17a.55.55 0 0 0-.107.253c-.173.636.464 1.663.518 1.78v.022c.027.038.065.068.1.085a.26.26 0 0 0 .138.012c.152-.043 1.297-.268 1.642-.864zM75.82 70.08a.78.78 0 0 0-.191-.248c-.08-.07-.173-.12-.273-.152a.64.64 0 0 0-.669.097c-.076.078-.135.172-.174.274a.79.79 0 0 0-.052.32.95.95 0 0 0-.648 0c-.106.054-.196.136-.26.237a.69.69 0 0 0-.106.336.58.58 0 0 0 .151.496c.42.497 1.63.572 1.76.572h.022c.05.002.097-.012.138-.04a.24.24 0 0 0 .09-.112c.045-.076.497-1.155.216-1.78zm10.3-7.58a.65.65 0 0 0 .054-.594c-.12-.345-.302-.464-.464-.497a.83.83 0 0 0-.615.151.87.87 0 0 0-.367-.54c-.108-.053-.228-.08-.348-.075s-.238.037-.343.097a.56.56 0 0 0-.217.168.53.53 0 0 0-.107.253c-.173.636.464 1.663.518 1.78v.022c.027.038.065.068.1.085a.26.26 0 0 0 .138.012c.14-.022 1.297-.27 1.642-.864z" class="G"/><use xlink:href="#B" class="F"/><use xlink:href="#B" class="B C D E"/><path d="M64.97 38.175c1.793.108 3.347-1.652 3.487-3.93s-1.198-4.22-2.98-4.33c-1.792-.108-3.347 1.652-3.487 3.93a4.85 4.85 0 0 0 .551 2.624 4.77 4.77 0 0 0-.961 2.645 3.99 3.99 0 0 0 1.22 3.012 1.23 1.23 0 0 0-.119.443c-.014.232.04.462.158.663s.29.36.5.463.443.14.673.107.445-.13.62-.285.298-.356.356-.58.05-.46-.026-.68-.215-.41-.4-.552-.407-.222-.64-.236c-.197-.01-.392.028-.572.108-1.544-1.577-1.015-3.412-.346-4.427.24.296.538.54.876.717s.708.282 1.09.31z" fill="#ffeb7d"/><path d="M64.926 29.657S63.61 44.21 71.663 43.552c5.55-.626 5.992-11.628 5.118-15.342" class="F"/><path d="M64.926 29.657S63.61 44.21 71.663 43.552c5.55-.626 5.992-11.628 5.118-15.342" stroke-miterlimit="10" class="B C"/><path d="M72.16 34.59c.097.01.2.04.275.088s.16.11.22.187.105.164.13.258.034.192.022.288a.76.76 0 0 1-.659.82c-.097-.01-.2-.04-.275-.088s-.16-.11-.22-.187-.105-.164-.13-.257-.034-.19-.022-.288a.75.75 0 0 1 .659-.821h0z" class="H"/><g class="D E"><path d="M69.385 37.02c-.255.453-.564.873-.92 1.252-.39.4.842.464.842.464" class="B C"/><path d="M73.542 33.35a1.86 1.86 0 0 0-1.566-.669" stroke="#ff5c76" class="I"/><path d="M71.242 40.108s-.194.713-1.036.39" class="B C"/></g><path d="M67.798 34.515c.097.01.2.04.275.088s.16.11.22.187.105.164.13.257.034.192.022.288a.76.76 0 0 1-.659.82c-.097-.01-.2-.04-.275-.088a.74.74 0 0 1-.22-.187c-.06-.076-.105-.164-.13-.257s-.034-.19-.022-.288a.76.76 0 0 1 .659-.821h0z" class="H"/><path d="M67.927 32.712a2.58 2.58 0 0 0-1.209.572" stroke="#ff5c76" class="D E I"/><path d="M76.738 32.507c.367-2.332-.615-6.316-4.632-8.465S61.04 20.004 60.25 25.445s7.915 6.197 10.548 5.247 4.416-.744 5.94 1.814z" class="G"/><path d="M78.066 31.244l.356-.53c-1.047-10.376-8.52-9.156-10.14-8.238 0 0-.853-.335 2.397 1.155 4.47 2.062 5.787 6.435 6.09 7.806-1.23.496-2.202 1.89-2.375 3.606-.227 2.278 1.036 4.265 2.818 4.438s3.412-1.523 3.64-3.8c.215-2.266-1.026-4.253-2.786-4.447z" fill="#ffeb7d"/><path d="M28.983 16.582l2.473-1.717c.172-.12.367-.216.55-.324a1.19 1.19 0 0 1 .605-.1c.207.02.404.098.572.22s.3.3.38.48.1.4.084.607l-.076.453a4.43 4.43 0 0 0 .486.119c.105.013.207.047.298.1s.17.127.23.214a.78.78 0 0 1 .124.29.73.73 0 0 1-.005.315c-.01.183-.054.378-.076.56-.022.13 0 .205.162.227a.91.91 0 0 1 .799 1.22c-.065.247-.022.4.205.518a1.29 1.29 0 0 1 .227.184c.097.08.175.177.23.3a.85.85 0 0 1 .012.722.86.86 0 0 1-.22.297l-.4.346-4.88 3.4a3.3 3.3 0 0 1-.421.247c-.118.064-.256.08-.385.044a.51.51 0 0 1-.306-.238L27.805 22.5a20.8 20.8 0 0 1-1.436-2.408c-.486-.993-.453-2.095-.356-3.174l.13-1.307a1.88 1.88 0 0 0-.453-1.49c-.065-.076-.108-.15-.162-.216a.84.84 0 0 1 .032-1.133.93.93 0 0 1 1.209-.247 3.5 3.5 0 0 1 1.706 1.997c.194.56.302 1.145.453 1.716.001.086.034.182.055.334zm22.63 7.298l.356-1.35a2.74 2.74 0 0 1 1.339-1.566.7.7 0 0 1 .939.194.66.66 0 0 1 .032.885c-.043.054-.076.12-.12.173a1.5 1.5 0 0 0-.3.546 1.55 1.55 0 0 0-.056.62l.108 1.025c.076.853.108 1.706-.283 2.494a16.78 16.78 0 0 1-1.123 1.89l-1.436 1.997c-.025.046-.06.086-.1.118a.39.39 0 0 1-.138.07.4.4 0 0 1-.154.012c-.05-.006-.102-.023-.147-.05-.117-.054-.23-.12-.335-.194l-3.822-2.667a2.38 2.38 0 0 1-.324-.27.67.67 0 0 1 .021-1.024 1.19 1.19 0 0 1 .184-.141c.183-.086.205-.216.162-.4-.036-.104-.048-.215-.034-.324a.72.72 0 0 1 .349-.53c.095-.056.2-.1.3-.096.12-.022.14-.076.12-.184l-.054-.442c-.02-.08-.022-.165-.007-.246a.58.58 0 0 1 .097-.227.57.57 0 0 1 .183-.166c.073-.042.152-.067.235-.074l.378-.097-.054-.357a.91.91 0 0 1 1.284-.939l.432.26 1.933 1.35c.002-.118.023-.193.023-.28zm-6.186 18.538l1.23-.853c.087-.065.184-.108.27-.162.095-.042.2-.06.302-.048a.62.62 0 0 1 .285.11.66.66 0 0 1 .2.24c.05.096.056.2.044.303l-.032.227.238.065c.052.006.102.024.147.05a.38.38 0 0 1 .177.404l-.032.28c-.01.065 0 .108.076.12a.47.47 0 0 1 .198.06c.06.034.112.084.15.142s.063.125.072.194.002.14-.02.206a.19.19 0 0 0 .108.259c.043.022.076.065.12.086a.42.42 0 0 1 .159.321c.001.062-.012.124-.037.18a.42.42 0 0 1-.111.147 1.59 1.59 0 0 1-.205.173l-2.43 1.696a1.42 1.42 0 0 1-.216.12c-.03.017-.06.027-.094.032a.25.25 0 0 1-.251-.129l-.92-1.263c-.264-.383-.503-.783-.713-1.198a2.92 2.92 0 0 1-.173-1.576l.065-.648a.9.9 0 0 0-.03-.392.89.89 0 0 0-.195-.342.63.63 0 0 1-.076-.106.42.42 0 0 1-.1-.285c.003-.105.047-.203.12-.276.07-.1.17-.15.28-.173s.227-.002.325.055a1.76 1.76 0 0 1 .853.993c.097.28.15.572.227.853-.02.02-.01.073.001.137z" fill="#a4d2fc"/><path d="M74.87 56.584l.194-.896c.255.015.507-.067.705-.228s.33-.39.367-.644-.02-.51-.164-.723-.36-.363-.61-.423-.51-.025-.735.098-.394.326-.476.568-.07.507.032.74.29.422.523.526l-.194.907-2.83-.615c-.187-.04-.384-.006-.545.097s-.276.266-.32.453l-.734 3.357c-.04.188-.006.384.097.546s.266.276.453.318l6.014 1.307c.188.04.384.006.545-.097s.276-.266.32-.453l.734-3.357a.73.73 0 0 0-.098-.546c-.103-.162-.266-.276-.453-.318l-2.83-.617z" fill="#fff"/><path d="M42.62 68.234L10.94 61.076a3.03 3.03 0 0 1-2.203-1.997L1.926 38.62c-.17-.5-.203-1.056-.093-1.582s.358-1.014.718-1.413.82-.695 1.333-.858 1.06-.186 1.584-.07l31.678 7.158a3.03 3.03 0 0 1 2.203 1.997l6.824 20.46a3.04 3.04 0 0 1-.632 2.997 3.04 3.04 0 0 1-2.92.924h0z" fill="#465cff"/><path d="M32.61 88.24l-8.238-2.224c-1.997-3.282-3.325-7.71-3.325-12.913 0-7.17 2.19-13.43 5.474-16.822.084-.087.144-.195.174-.313s.028-.24-.005-.358-.096-.223-.182-.308-.194-.146-.31-.177l-4.07-1.102c-.1-.033-.226-.036-.338-.01a.66.66 0 0 0-.298.16C17.82 57.35 15.304 64 15.304 71.678c0 6.466 1.76 11.898 4.492 15.193l-1.782.92c-.043.02-.08.052-.104.092s-.038.087-.037.134h0v1.07c-.001.06.017.116.053.163s.085.08.142.096l9.717 2.624a1.12 1.12 0 0 0 .831-.097l4.05-2.073a.26.26 0 0 0 .141-.238V88.5c.003-.06-.015-.12-.05-.17s-.087-.085-.145-.1h0z" class="H"/><g class="D E"><path d="M37.35 43.563c-1.004 7.396 2.008 18.42 7.05 22.5" stroke="#a4d2fc" stroke-width="1.833"/><path d="M26.165 79.744c.886-.87 1.94-1.55 3.1-1.997" stroke="#621cd1" class="B"/></g><defs ><path id="B" d="M72.58 41.48c-.076.097.108 5 .194 6.5a2.29 2.29 0 0 1-.54 1.641c-.432.475-1.08.896-1.932.56a1.87 1.87 0 0 1-1.025-1.727v-7.05"/></defs></svg>