<svg width="106" height="106" viewBox="0 0 106 106" fill="none" xmlns="http://www.w3.org/2000/svg">
<path d="M103.676 83.1767C103.628 83.1748 103.581 83.1676 103.534 83.1552L36.7676 66.15C36.6955 66.1326 36.6276 66.1011 36.5678 66.0573C36.508 66.0134 36.4576 65.9581 36.4195 65.8945C36.3813 65.831 36.3562 65.7604 36.3457 65.687C36.3351 65.6137 36.3393 65.5389 36.3579 65.4672C36.3765 65.3954 36.4093 65.3281 36.4542 65.2692C36.4992 65.2102 36.5554 65.1608 36.6197 65.1239C36.684 65.0869 36.7549 65.0631 36.8285 65.0539C36.9021 65.0447 36.9767 65.0502 37.0481 65.0702L103.816 82.0754C103.947 82.1102 104.061 82.1915 104.137 82.3042C104.213 82.4169 104.245 82.5533 104.228 82.688C104.211 82.8227 104.145 82.9465 104.043 83.0364C103.942 83.1263 103.811 83.1762 103.675 83.1767H103.676Z" fill="#A4D2FC"/>
<path d="M68.1757 93.5093L35.893 85.2173C35.7816 85.1898 35.6813 85.1288 35.6056 85.0426C35.5298 84.9564 35.4823 84.8491 35.4693 84.7351C35.4563 84.6211 35.4786 84.5058 35.533 84.4048C35.5875 84.3038 35.6716 84.2219 35.7739 84.17L44.6384 79.6248C45.2014 79.337 45.85 79.264 46.463 79.4195L78.7456 87.7115C78.857 87.7391 78.9573 87.8001 79.033 87.8863C79.1087 87.9725 79.1562 88.0798 79.1691 88.1939C79.182 88.3079 79.1598 88.4231 79.1053 88.5241C79.0508 88.6251 78.9667 88.707 78.8643 88.7588L70.0003 93.3044C69.4388 93.5975 68.7882 93.6705 68.1757 93.5093V93.5093Z" fill="#465CFF"/>
<path d="M27.666 81.1363C25.3877 80.7908 22.6995 77.7461 29.1019 75.824C33.4854 74.5067 36.9512 73.8266 39.5316 77.314C40.8704 78.9011 35.8393 78.5665 33.8309 79.2361C31.8226 79.9057 29.1231 81.3522 27.666 81.1363Z" fill="#465CFF"/>
<path d="M79.5229 64.0445C79.8579 68.0725 80.6458 71.4291 80.6458 72.5418C80.6458 73.6544 80.6458 76.6758 70.2486 80.5978C68.0785 81.58 66.286 81.6557 63.5 81.6451C61.546 81.6341 59.8076 81.3751 58.836 80.8137C57.2273 79.895 58.9437 82.3793 60.4016 82.7139C58.3933 83.5022 57.7131 84.0527 56.8276 85.5102C56.1916 86.5574 56.428 87.0217 57.499 85.9529C58.395 85.0568 60.0684 84.3873 60.8556 84.1608C59.5169 85.2837 58.1671 86.6225 58.0594 88.08C57.9943 88.8682 58.394 88.5227 59.29 87.4086C60.1861 86.2946 60.9638 85.6165 62.0866 85.1738C61.1589 86.2893 60.5772 87.6514 60.4129 89.093C60.4129 90.324 60.9959 89.2767 61.309 88.6502C61.8605 87.7078 62.536 86.8437 63.3173 86.0808C62.8948 87.3499 62.63 88.6662 62.529 90C62.529 90.5614 62.864 90.4427 63.4254 89.3308C63.9869 88.2079 64.8388 86.3076 67.6792 86.3076C71.0359 86.3076 79.7611 83.4032 83.1199 81.0493C86.4787 78.6954 88.3778 75.8991 87.7086 71.656C87.0394 67.4128 86.2511 63.6017 86.2511 63.6017C86.2511 63.6017 82.1468 60.0712 79.5229 64.0445Z" fill="#FFC3A9" stroke="#E89589" stroke-width="1.222" stroke-linecap="round" stroke-linejoin="round"/>
<path d="M60.1967 82.7986C60.703 82.6324 61.2186 82.4954 61.7407 82.3884Z" fill="#FFC3A9"/>
<path d="M60.1967 82.7986C60.703 82.6324 61.2186 82.4954 61.7407 82.3884" stroke="#E89589" stroke-width="1.222" stroke-linecap="round" stroke-linejoin="round"/>
<path d="M60.1751 61.475C59.5056 63.8286 57.7135 68.9681 57.0439 70.1988C56.3743 71.4295 54.1395 73.2219 51.3432 73.8915C48.5469 74.5611 40.9457 75.4568 39.715 75.7917C38.4844 76.1267 34.5648 79.4841 33.4529 79.9257C32.33 80.3684 33.8953 77.4641 34.2408 76.2334C32.902 76.568 30.2128 76.7948 28.4214 77.5722C26.629 78.3601 26.629 77.5722 27.9787 76.1143C29.3175 74.6568 30.4404 73.8795 32.0067 73.318C33.573 72.7566 36.1407 72.8753 38.2688 72.5297C40.3959 72.1951 49.7893 68.9561 50.5772 67.9414C51.3655 66.9372 54.6052 59.3253 54.6052 59.3253C54.6052 59.3253 58.8254 58.5706 60.1751 61.475Z" fill="#FFC3A9" stroke="#E89589" stroke-width="1.222" stroke-linecap="round" stroke-linejoin="round"/>
<path d="M99.1195 50.4082C98.4069 47.4497 91.6048 45.0205 94.0234 38.445C96.442 31.8695 97.5214 23.5343 88.3764 19.1618C80.4515 15.372 76.5864 18.0605 75.8091 21.7765C75.6094 21.7371 75.403 21.7502 75.2099 21.8146C75.0168 21.8789 74.8438 21.9923 74.7077 22.1436C74.2325 22.7588 74.6862 23.8926 75.7119 24.6915C76.662 25.4257 77.7634 25.6102 78.3029 25.1667C90.3738 28.2761 84.7488 37.9927 82.9457 40.0124C81.1426 42.0321 72.9153 57.4384 87.8044 61.2608C102.704 65.092 99.8322 53.3663 99.1195 50.4082Z" fill="#FF5C76"/>
<path d="M53.1463 61.3779C53.0791 61.373 53.014 61.3527 52.9561 61.3184C52.8981 61.2841 52.8489 61.2369 52.8123 61.1804C52.7757 61.1239 52.7527 61.0597 52.7451 60.9928C52.7375 60.9259 52.7455 60.8581 52.7685 60.7949C55.7807 52.535 60.132 45.5065 69.3847 46.5969C78.6919 47.6982 84.2523 48.3674 87.1998 63.9151C87.2143 63.9891 87.2089 64.0655 87.1843 64.1367C87.1598 64.208 87.1168 64.2714 87.0598 64.3207C87.0029 64.37 86.9339 64.4034 86.8599 64.4175C86.7859 64.4316 86.7095 64.4259 86.6384 64.401C83.6909 63.3537 80.6999 65.243 80.0091 65.7288C79.9137 65.795 79.8478 65.8958 79.8254 66.0097L78.3693 75.1006C78.3594 75.1592 78.3375 75.2152 78.3049 75.2649C78.2723 75.3146 78.2298 75.357 78.18 75.3895C78.1302 75.422 78.0742 75.4437 78.0156 75.4535C77.957 75.4633 77.8969 75.4608 77.8393 75.4462L62.3029 71.4835C62.2338 71.4676 62.1699 71.4345 62.117 71.3874C62.0642 71.3402 62.0241 71.2804 62.0004 71.2136C61.6658 70.3175 60.3702 66.787 60.1758 64.9409C60.0482 63.6176 60.1987 62.2823 60.6178 61.0206L59.6137 64.5731C59.5921 64.6482 59.5506 64.7162 59.4935 64.7697C59.4364 64.8231 59.3659 64.8601 59.2895 64.8767C59.213 64.8933 59.1335 64.8889 59.0594 64.8639C58.9853 64.839 58.9193 64.7944 58.8685 64.7349C57.9399 63.6668 55.8132 61.5828 53.1463 61.3779Z" fill="#F9C126"/>
<path d="M62.7125 66.356C62.6662 66.2614 62.6012 66.1772 62.5214 66.1085C62.4416 66.0398 62.3486 65.988 62.2482 65.9563C62.1384 65.9082 62.0173 65.8918 61.8986 65.909C61.78 65.9261 61.6685 65.9762 61.5769 66.0535C61.5007 66.1319 61.4414 66.225 61.4024 66.3272C61.3635 66.4293 61.3458 66.5383 61.3504 66.6475C61.141 66.5719 60.9117 66.5719 60.7024 66.6475C60.5961 66.7018 60.5061 66.7834 60.4416 66.8839C60.3771 66.9844 60.3404 67.1002 60.3352 67.2195C60.3201 67.3084 60.3259 67.3995 60.3522 67.4858C60.3784 67.572 60.4244 67.6509 60.4865 67.7163C60.9076 68.2131 62.1168 68.2883 62.2464 68.2883H62.268C62.3168 68.29 62.365 68.2764 62.4056 68.2493C62.4463 68.2223 62.4775 68.1832 62.4948 68.1375C62.54 68.0611 63.004 66.9598 62.7125 66.356Z" fill="#FF5C76"/>
<path d="M75.8305 63.7098C75.8864 63.6224 75.9205 63.5228 75.9299 63.4196C75.9393 63.3163 75.9238 63.2122 75.8846 63.1162C75.7659 62.7706 75.5821 62.6519 75.4203 62.6194C75.2032 62.5863 74.9819 62.6407 74.8048 62.7706C74.7577 62.5496 74.6259 62.3558 74.4377 62.2307C74.3296 62.1772 74.21 62.1511 74.0895 62.1549C73.9689 62.1587 73.8511 62.1921 73.7466 62.2523C73.6612 62.2891 73.5867 62.3471 73.5301 62.4208C73.4734 62.4945 73.4366 62.5815 73.4229 62.6734C73.2502 63.3094 73.8872 64.3362 73.9409 64.4549V64.4765C73.9683 64.515 74.0062 64.5446 74.0501 64.5619C74.0941 64.5791 74.142 64.5832 74.1883 64.5737C74.3412 64.5539 75.4959 64.3037 75.8305 63.7098Z" fill="#FF5C76"/>
<path d="M67.2687 65.8369C67.174 65.7976 67.0719 65.7792 66.9694 65.7829C66.8669 65.7867 66.7664 65.8124 66.6748 65.8584C66.5588 65.8963 66.4569 65.9679 66.3819 66.0641C66.3069 66.1603 66.2624 66.2766 66.2539 66.3983C66.2478 66.6185 66.3293 66.8321 66.4804 66.9923C66.2749 67.0791 66.1067 67.2358 66.0055 67.4346C65.9631 67.5501 65.9517 67.6748 65.9725 67.7961C65.9934 67.9173 66.0457 68.031 66.1243 68.1257C66.1768 68.2023 66.2458 68.2662 66.326 68.3129C66.4063 68.3596 66.496 68.3879 66.5885 68.3957C67.2362 68.4929 68.1757 67.748 68.2944 67.6509C68.3307 67.6172 68.3569 67.5742 68.3703 67.5265C68.3836 67.4789 68.3835 67.4285 68.3701 67.3809C68.2835 67.2187 67.9058 66.1086 67.2687 65.8369Z" fill="#FF5C76"/>
<path d="M58.7823 56.5515C58.6875 56.5122 58.5854 56.4938 58.4829 56.4975C58.3805 56.5013 58.28 56.527 58.1883 56.573C58.0724 56.6109 57.9704 56.6825 57.8955 56.7787C57.8205 56.8749 57.7759 56.9913 57.7675 57.1129C57.7614 57.333 57.8428 57.5464 57.994 57.7065C57.7884 57.7935 57.6202 57.9503 57.5191 58.1492C57.4766 58.2647 57.4653 58.3894 57.4861 58.5107C57.5069 58.632 57.5593 58.7456 57.6378 58.8404C57.6904 58.9169 57.7593 58.9809 57.8396 59.0275C57.9199 59.0742 58.0096 59.1025 58.1021 59.1103C58.7498 59.2075 59.6893 58.4623 59.808 58.3651C59.8443 58.3315 59.8705 58.2885 59.8839 58.2408C59.8972 58.1932 59.8971 58.1428 59.8836 58.0952C59.797 57.9224 59.3978 56.8105 58.7823 56.5515Z" fill="#FF5C76"/>
<path d="M74.8049 56.8106C74.7586 56.716 74.6936 56.6318 74.6138 56.5631C74.534 56.4944 74.441 56.4426 74.3406 56.4109C74.2308 56.3628 74.1097 56.3464 73.9911 56.3636C73.8724 56.3807 73.7609 56.4308 73.6693 56.5081C73.5932 56.5866 73.5339 56.6797 73.495 56.7818C73.456 56.8839 73.4383 56.9929 73.4428 57.1021C73.2334 57.0264 73.0042 57.0264 72.7948 57.1021C72.6885 57.1566 72.5986 57.2383 72.5341 57.3388C72.4696 57.4393 72.4329 57.5551 72.4277 57.6745C72.4125 57.7633 72.4183 57.8544 72.4446 57.9406C72.4708 58.0267 72.5168 58.1056 72.5789 58.1709C73.0001 58.6677 74.2092 58.7433 74.3389 58.7433H74.3604C74.4093 58.7449 74.4574 58.7312 74.4981 58.7041C74.5388 58.677 74.5699 58.6378 74.5872 58.5921C74.6321 58.5164 75.0854 57.4261 74.8049 56.8106Z" fill="#FF5C76"/>
<path d="M81.2613 59.2832C81.3172 59.1958 81.3513 59.0962 81.3607 58.9928C81.3701 58.8895 81.3546 58.7854 81.3154 58.6893C81.1967 58.3437 81.013 58.225 80.8511 58.1925C80.634 58.1598 80.4128 58.2141 80.2356 58.3437C80.1885 58.1227 80.0567 57.9289 79.8685 57.8038C79.7605 57.7504 79.6409 57.7244 79.5204 57.7281C79.3999 57.7319 79.2822 57.7653 79.1777 57.8254C79.0924 57.8622 79.0178 57.9203 78.9611 57.994C78.9044 58.0677 78.8675 58.1546 78.8537 58.2465C78.6809 58.8825 79.318 59.9093 79.3721 60.028V60.0496C79.3993 60.0881 79.4373 60.1178 79.4812 60.1351C79.5252 60.1524 79.5732 60.1564 79.6194 60.1468C79.7713 60.1372 80.9158 59.8768 81.2613 59.2832Z" fill="#FF5C76"/>
<path d="M78.3463 50.7968C78.2516 50.7576 78.1495 50.7392 78.047 50.7429C77.9445 50.7466 77.844 50.7724 77.7523 50.8184C77.6364 50.8562 77.5343 50.9278 77.4593 51.024C77.3843 51.1202 77.3397 51.2366 77.3312 51.3583C77.3252 51.5784 77.4068 51.7918 77.558 51.9519C77.3524 52.0389 77.1841 52.1957 77.0828 52.3946C77.0404 52.5101 77.0291 52.6348 77.05 52.7561C77.0709 52.8773 77.1233 52.991 77.2019 53.0857C77.2544 53.1623 77.3233 53.2262 77.4036 53.2729C77.4839 53.3196 77.5736 53.3479 77.6661 53.3557C78.3138 53.4528 79.253 52.7077 79.372 52.6105C79.4083 52.5768 79.4346 52.5338 79.4479 52.4862C79.4613 52.4385 79.4612 52.3881 79.4476 52.3405C79.3611 52.1787 78.9834 51.0668 78.3463 50.7968Z" fill="#FF5C76"/>
<path d="M74.8049 56.8106C74.7586 56.716 74.6936 56.6318 74.6138 56.5631C74.534 56.4944 74.441 56.4426 74.3406 56.4109C74.2308 56.3628 74.1097 56.3464 73.9911 56.3636C73.8724 56.3807 73.7609 56.4308 73.6693 56.5081C73.5932 56.5866 73.5339 56.6797 73.495 56.7818C73.456 56.8839 73.4383 56.9929 73.4428 57.1021C73.2334 57.0264 73.0042 57.0264 72.7948 57.1021C72.6885 57.1566 72.5986 57.2383 72.5341 57.3388C72.4696 57.4393 72.4329 57.5551 72.4277 57.6745C72.4125 57.7633 72.4183 57.8544 72.4446 57.9406C72.4708 58.0267 72.5168 58.1056 72.5789 58.1709C73.0001 58.6677 74.2092 58.7433 74.3389 58.7433H74.3604C74.4093 58.7449 74.4574 58.7312 74.4981 58.7041C74.5388 58.677 74.5699 58.6378 74.5872 58.5921C74.6321 58.5164 75.0854 57.4261 74.8049 56.8106Z" fill="#FF5C76"/>
<path d="M81.2613 59.2832C81.3172 59.1958 81.3513 59.0962 81.3607 58.9928C81.3701 58.8895 81.3546 58.7854 81.3154 58.6893C81.1967 58.3437 81.013 58.225 80.8511 58.1925C80.634 58.1598 80.4128 58.2141 80.2356 58.3437C80.1885 58.1227 80.0567 57.9289 79.8685 57.8038C79.7605 57.7504 79.6409 57.7244 79.5204 57.7281C79.3999 57.7319 79.2822 57.7653 79.1777 57.8254C79.0924 57.8622 79.0178 57.9203 78.9611 57.994C78.9044 58.0677 78.8675 58.1546 78.8537 58.2465C78.6809 58.8825 79.318 59.9093 79.3721 60.028V60.0496C79.3993 60.0881 79.4373 60.1178 79.4812 60.1351C79.5252 60.1524 79.5732 60.1564 79.6194 60.1468C79.7713 60.1372 80.9158 59.8768 81.2613 59.2832Z" fill="#FF5C76"/>
<path d="M61.6326 49.9114C61.5864 49.8168 61.5213 49.7326 61.4415 49.6639C61.3617 49.5952 61.2688 49.5435 61.1684 49.5118C61.0588 49.464 60.9382 49.4477 60.8199 49.4649C60.7016 49.4821 60.5906 49.532 60.4992 49.6089C60.423 49.6873 60.3636 49.7804 60.3246 49.8825C60.2856 49.9847 60.2678 50.0937 60.2723 50.2029C60.0629 50.1273 59.8337 50.1273 59.6243 50.2029C59.5181 50.2575 59.4282 50.3391 59.3637 50.4397C59.2992 50.5402 59.2625 50.656 59.2572 50.7753C59.2421 50.8641 59.248 50.9552 59.2742 51.0413C59.3005 51.1275 59.3464 51.2064 59.4084 51.2717C59.8296 51.7685 61.0387 51.8441 61.1684 51.8441H61.1899C61.2388 51.8457 61.2869 51.832 61.3276 51.8049C61.3683 51.7778 61.3995 51.7386 61.4168 51.6929C61.48 51.6173 61.9241 50.5265 61.6326 49.9114Z" fill="#FF5C76"/>
<path d="M68.7262 54.1761C68.782 54.0886 68.8161 53.989 68.8255 53.8857C68.8349 53.7823 68.8194 53.6782 68.7802 53.5821C68.6615 53.2369 68.4778 53.1178 68.316 53.0857C68.0989 53.0526 67.8775 53.107 67.7005 53.2369C67.6534 53.0159 67.5216 52.822 67.3333 52.697C67.2253 52.6435 67.1058 52.6174 66.9853 52.6212C66.8648 52.625 66.747 52.6584 66.6426 52.7186C66.5572 52.7554 66.4827 52.8135 66.426 52.8872C66.3693 52.9609 66.3323 53.0478 66.3186 53.1397C66.1458 53.7757 66.7828 54.8022 66.8369 54.9212V54.9428C66.8642 54.9813 66.9021 55.011 66.9461 55.0283C66.99 55.0456 67.038 55.0496 67.0842 55.04C67.2362 54.9965 68.3806 54.77 68.7262 54.1761Z" fill="#FF5C76"/>
<path d="M65.8001 45.0852C65.7054 45.0459 65.6034 45.0275 65.501 45.0312C65.3986 45.035 65.2981 45.0607 65.2065 45.1067C65.0906 45.1446 64.9885 45.2162 64.9135 45.3123C64.8385 45.4085 64.7938 45.5249 64.7854 45.6466C64.7798 45.8669 64.8618 46.0805 65.0133 46.2406C64.8077 46.3274 64.6395 46.4841 64.5384 46.6829C64.4959 46.7985 64.4845 46.9231 64.5054 47.0444C64.5262 47.1657 64.5785 47.2793 64.6571 47.3741C64.7097 47.4506 64.7786 47.5146 64.8589 47.5612C64.9392 47.6079 65.0288 47.6362 65.1214 47.644C65.769 47.7412 66.7085 46.9964 66.8273 46.8992C66.8635 46.8655 66.8898 46.8225 66.9031 46.7749C66.9164 46.7272 66.9164 46.6768 66.9029 46.6292C66.8153 46.4671 66.4266 45.3551 65.8001 45.0852Z" fill="#FF5C76"/>
<path d="M66.1348 59.4561C66.0885 59.3615 66.0235 59.2773 65.9437 59.2086C65.8639 59.1399 65.7709 59.0881 65.6705 59.0564C65.561 59.0086 65.4403 58.9924 65.322 59.0096C65.2038 59.0268 65.0927 59.0766 65.0013 59.1536C64.9252 59.232 64.8658 59.3252 64.8268 59.4273C64.7878 59.5294 64.77 59.6383 64.7745 59.7476C64.5652 59.672 64.3361 59.672 64.1268 59.7476C64.0205 59.8019 63.9305 59.8835 63.866 59.984C63.8015 60.0845 63.7648 60.2003 63.7597 60.3196C63.7446 60.4085 63.7504 60.4996 63.7766 60.5859C63.8029 60.6721 63.8488 60.751 63.9109 60.8164C64.3317 61.3111 65.5412 61.3884 65.6705 61.3884H65.6924C65.7412 61.3902 65.7893 61.3765 65.83 61.3495C65.8706 61.3224 65.9017 61.2833 65.9189 61.2376C65.9839 61.162 66.4266 60.0712 66.1348 59.4561Z" fill="#FF5C76"/>
<path d="M73.5958 49.8251C73.6516 49.7376 73.6856 49.638 73.6949 49.5347C73.7043 49.4313 73.6887 49.3272 73.6495 49.2312C73.5308 48.8856 73.3474 48.7669 73.1852 48.7344C72.9682 48.7013 72.747 48.7557 72.5701 48.8856C72.523 48.6646 72.3912 48.4708 72.203 48.3457C72.0949 48.2922 71.9752 48.2661 71.8547 48.2699C71.7341 48.2736 71.6164 48.3071 71.5118 48.3673C71.4265 48.4041 71.3519 48.4622 71.2952 48.5359C71.2386 48.6095 71.2016 48.6965 71.1878 48.7884C71.015 49.4244 71.6521 50.4512 71.7062 50.5699V50.5915C71.7335 50.6299 71.7715 50.6596 71.8154 50.6769C71.8593 50.6941 71.9073 50.6982 71.9535 50.6887C72.1058 50.6456 73.2502 50.4205 73.5958 49.8251Z" fill="#FF5C76"/>
<path d="M75.8196 70.0801C75.7733 69.9855 75.7083 69.9013 75.6285 69.8326C75.5487 69.7639 75.4558 69.7121 75.3554 69.6805C75.2458 69.6327 75.1251 69.6164 75.0069 69.6336C74.8886 69.6508 74.7775 69.7007 74.6861 69.7776C74.61 69.8561 74.5507 69.9492 74.5117 70.0513C74.4727 70.1534 74.4549 70.2624 74.4593 70.3716C74.25 70.2961 74.0209 70.2961 73.8116 70.3716C73.7053 70.426 73.6153 70.5077 73.5509 70.6082C73.4864 70.7088 73.4497 70.8246 73.4445 70.944C73.4294 71.0328 73.4352 71.1239 73.4614 71.2101C73.4877 71.2963 73.5337 71.3751 73.5957 71.4404C74.0166 71.9372 75.226 72.0128 75.3554 72.0128H75.3769C75.4258 72.0145 75.474 72.0009 75.5147 71.9737C75.5554 71.9466 75.5865 71.9074 75.6037 71.8616C75.6486 71.786 76.1005 70.7062 75.8196 70.0801Z" fill="#FF5C76"/>
<path d="M86.131 62.5006C86.1868 62.4131 86.2208 62.3135 86.2301 62.2101C86.2395 62.1068 86.2239 62.0027 86.1847 61.9066C86.0659 61.5611 85.8826 61.4424 85.7204 61.4098C85.5034 61.3771 85.2823 61.4315 85.1052 61.5611C85.058 61.3401 84.9263 61.1463 84.7381 61.0212C84.63 60.9678 84.5104 60.9419 84.3898 60.9457C84.2693 60.9495 84.1515 60.983 84.047 61.0431C83.9616 61.0798 83.8871 61.1378 83.8304 61.2114C83.7737 61.2851 83.7367 61.372 83.723 61.4639C83.5502 62.0999 84.1873 63.1267 84.2413 63.2454V63.267C84.2687 63.3054 84.3066 63.3351 84.3505 63.3523C84.3945 63.3696 84.4425 63.3737 84.4887 63.3641C84.63 63.3426 85.7854 63.0942 86.131 62.5006Z" fill="#FF5C76"/>
<path d="M72.5807 41.4792C72.5051 41.5763 72.6888 46.4887 72.775 47.9787C72.816 48.5753 72.6223 49.1643 72.2351 49.62C71.8034 50.0949 71.1557 50.516 70.3028 50.1814C69.9855 50.0205 69.7207 49.7726 69.5393 49.4667C69.3578 49.1608 69.2672 48.8095 69.2781 48.454V41.4036" fill="#FFC3A9"/>
<path d="M72.5807 41.4792C72.5051 41.5763 72.6888 46.4887 72.775 47.9787C72.816 48.5753 72.6223 49.1643 72.2351 49.62C71.8034 50.0949 71.1557 50.516 70.3028 50.1814C69.9855 50.0205 69.7207 49.7726 69.5393 49.4667C69.3578 49.1608 69.2672 48.8095 69.2781 48.454V41.4036" stroke="#E89589" stroke-width="1.222" stroke-linecap="round" stroke-linejoin="round"/>
<path d="M64.9688 38.1751C66.7613 38.2833 68.316 36.5233 68.4562 34.245C68.5965 31.9667 67.2577 30.0237 65.4762 29.9156C63.6841 29.8075 62.1294 31.5674 61.9888 33.8457C61.9223 34.7547 62.1134 35.6639 62.54 36.4692C61.9608 37.2342 61.6258 38.1562 61.579 39.1147C61.5595 39.6742 61.658 40.2317 61.8682 40.7506C62.0785 41.2696 62.3956 41.7385 62.799 42.1268C62.732 42.2656 62.6918 42.4158 62.6803 42.5695C62.6665 42.8012 62.7216 43.0318 62.8388 43.2321C62.956 43.4324 63.1299 43.5934 63.3387 43.6949C63.5474 43.7963 63.7815 43.8336 64.0114 43.802C64.2413 43.7704 64.4567 43.6714 64.6303 43.5174C64.8039 43.3634 64.928 43.1613 64.9868 42.9368C65.0456 42.7124 65.0365 42.4755 64.9607 42.2561C64.8848 42.0368 64.7457 41.8449 64.5608 41.7046C64.3759 41.5644 64.1536 41.4821 63.9219 41.4682C63.7254 41.4592 63.5295 41.4962 63.3499 41.5763C61.8058 39.9997 62.3347 38.1645 63.0043 37.1494C63.2442 37.4457 63.5423 37.6895 63.8802 37.866C64.2181 38.0424 64.5886 38.1476 64.9688 38.1751Z" fill="#FFEB7D"/>
<path d="M64.9257 29.6566C64.9257 29.6566 63.6085 44.2108 71.6631 43.5522C77.2125 42.9257 77.6553 31.924 76.7808 28.2097" fill="#FFC3A9"/>
<path d="M64.9257 29.6566C64.9257 29.6566 63.6085 44.2108 71.6631 43.5522C77.2125 42.9257 77.6553 31.924 76.7808 28.2097" stroke="#E89589" stroke-width="1.222" stroke-miterlimit="10"/>
<path d="M72.1595 34.5913C72.2561 34.6022 72.3496 34.6322 72.4346 34.6794C72.5196 34.7267 72.5944 34.7903 72.6546 34.8666C72.7149 34.9429 72.7594 35.0304 72.7857 35.1241C72.8119 35.2177 72.8193 35.3156 72.8075 35.4121C72.8252 35.6075 72.7665 35.8021 72.6437 35.9551C72.5208 36.1081 72.3435 36.2076 72.1489 36.2325C72.0523 36.2216 71.9588 36.1917 71.8739 36.1445C71.7889 36.0973 71.7142 36.0337 71.6539 35.9574C71.5937 35.8811 71.5491 35.7936 71.5229 35.7C71.4966 35.6065 71.4891 35.5086 71.5009 35.4121C71.4811 35.2163 71.539 35.0205 71.6622 34.8669C71.7854 34.7134 71.964 34.6144 72.1595 34.5913V34.5913Z" fill="#621CD1"/>
<path d="M69.3847 37.0203C69.1295 37.4728 68.8211 37.8932 68.466 38.2725C68.0774 38.6827 69.308 38.7368 69.308 38.7368" stroke="#E89589" stroke-width="1.222" stroke-linecap="round" stroke-linejoin="round"/>
<path d="M73.5417 33.349C73.3528 33.1209 73.1123 32.9411 72.84 32.8247C72.5676 32.7083 72.2715 32.6586 71.9761 32.6798" stroke="#FF5C76" stroke-width="1.528" stroke-linecap="round" stroke-linejoin="round"/>
<path d="M71.2419 40.1079C71.2419 40.1079 71.0476 40.8206 70.2056 40.4966" stroke="#E89589" stroke-width="1.222" stroke-linecap="round" stroke-linejoin="round"/>
<path d="M67.7976 34.5149C67.8942 34.5258 67.9877 34.5557 68.0727 34.603C68.1577 34.6502 68.2325 34.7139 68.2927 34.7902C68.353 34.8665 68.3975 34.954 68.4237 35.0476C68.45 35.1413 68.4574 35.2392 68.4456 35.3357C68.4633 35.5311 68.4045 35.7257 68.2817 35.8787C68.1589 36.0317 67.9816 36.1311 67.787 36.1561C67.6904 36.1452 67.5969 36.1153 67.5119 36.0681C67.427 36.0208 67.3522 35.9572 67.292 35.881C67.2317 35.8047 67.1872 35.7172 67.1609 35.6236C67.1347 35.53 67.1272 35.4322 67.139 35.3357C67.1212 35.1402 67.1799 34.9455 67.3027 34.7924C67.4255 34.6394 67.6029 34.5399 67.7976 34.5149V34.5149Z" fill="#621CD1"/>
<path d="M67.9272 32.7119C67.4809 32.7931 67.0638 32.9905 66.7181 33.2843" stroke="#FF5C76" stroke-width="1.528" stroke-linecap="round" stroke-linejoin="round"/>
<path d="M76.7377 32.5066C77.1048 30.1746 76.1222 26.1904 72.1058 24.0418C68.0895 21.8932 61.0387 20.0036 60.2508 25.4453C59.4629 30.887 68.1655 31.6427 70.7992 30.6926C73.433 29.7425 75.2152 29.9481 76.7377 32.5066Z" fill="#FF5C76"/>
<path d="M78.0655 31.2436C78.1736 31.0927 78.2923 30.9199 78.422 30.7136C77.3747 20.3379 69.9031 21.558 68.2834 22.4756C68.2834 22.4756 67.4305 22.141 70.6804 23.631C75.1505 25.6931 76.4677 30.0659 76.7698 31.4372C75.5391 31.9336 74.5675 33.3265 74.3947 35.0433C74.1678 37.3213 75.431 39.308 77.2125 39.4808C78.994 39.6536 80.6243 37.9583 80.8519 35.691C81.067 33.4254 79.8254 31.4383 78.0655 31.2436Z" fill="#FFEB7D"/>
<path d="M28.9829 16.5816C29.8358 15.9986 30.6347 15.4262 31.4562 14.8647C31.6287 14.746 31.823 14.6489 32.0067 14.5407C32.1959 14.4543 32.4047 14.42 32.6116 14.4414C32.8184 14.4628 33.0158 14.5391 33.1832 14.6625C33.3507 14.7859 33.482 14.9518 33.5637 15.1431C33.6455 15.3343 33.6745 15.5439 33.648 15.7502C33.6264 15.9014 33.5939 16.0417 33.5723 16.2035C33.7319 16.2522 33.8941 16.2918 34.0582 16.3222C34.1635 16.3347 34.265 16.3691 34.3561 16.4233C34.4472 16.4776 34.5259 16.5504 34.587 16.6371C34.6481 16.7237 34.6902 16.8223 34.7107 16.9263C34.7312 17.0304 34.7295 17.1376 34.7058 17.2409C34.6952 17.4243 34.6518 17.6186 34.6302 17.8024C34.6087 17.9317 34.6302 18.0073 34.7924 18.0289C34.9338 18.0374 35.0713 18.0789 35.1938 18.15C35.3163 18.221 35.4206 18.3198 35.4982 18.4383C35.5758 18.5568 35.6246 18.6918 35.6408 18.8326C35.6569 18.9733 35.64 19.1159 35.5913 19.2489C35.5266 19.4962 35.5697 19.6595 35.7966 19.7673C35.8788 19.8197 35.9548 19.8814 36.0231 19.951C36.1197 20.0296 36.198 20.1284 36.2524 20.2404C36.3068 20.3525 36.3361 20.4751 36.3381 20.5996C36.3402 20.7242 36.315 20.8477 36.2643 20.9615C36.2136 21.0752 36.1386 21.1766 36.0446 21.2583C35.9156 21.3824 35.7786 21.4978 35.6344 21.6039C34.0041 22.7374 32.3774 23.871 30.7542 25.0047C30.6202 25.0974 30.4795 25.1801 30.3333 25.252C30.2156 25.3164 30.0773 25.3321 29.9482 25.2958C29.819 25.2594 29.7092 25.174 29.6422 25.0577C29.0377 24.2157 28.3896 23.3949 27.8049 22.5098C27.2726 21.7404 26.7929 20.9359 26.3689 20.1019C25.8831 19.1086 25.9156 18.0073 26.0128 16.9279C26.0449 16.4851 26.099 16.064 26.1421 15.6205C26.1775 15.3542 26.1553 15.0834 26.0771 14.8263C25.9989 14.5693 25.8665 14.332 25.6888 14.1305C25.6241 14.0549 25.5806 13.9793 25.5269 13.9146C25.3898 13.7558 25.317 13.5514 25.323 13.3416C25.3289 13.1319 25.4131 12.9319 25.5591 12.7811C25.6953 12.5988 25.8938 12.4729 26.1167 12.4273C26.3397 12.3817 26.5717 12.4196 26.7685 12.5338C27.5751 12.9527 28.1869 13.6691 28.4744 14.5312C28.6688 15.0926 28.7765 15.6757 28.9278 16.2477C28.9288 16.3332 28.9613 16.43 28.9829 16.5816Z" fill="#A4D2FC"/>
<path d="M51.6131 23.8801C51.7318 23.4268 51.8184 22.9734 51.9693 22.5307C52.1948 21.8545 52.6751 21.2929 53.3081 20.9651C53.46 20.872 53.6417 20.8403 53.8163 20.8764C53.9908 20.9124 54.145 21.0137 54.2476 21.1594C54.3622 21.2765 54.429 21.4321 54.435 21.5959C54.441 21.7596 54.3858 21.9197 54.2801 22.0449C54.2366 22.0986 54.2045 22.1636 54.161 22.2176C54.0241 22.3767 53.9218 22.5625 53.8605 22.7632C53.7992 22.964 53.7802 23.1752 53.8048 23.3836C53.848 23.7292 53.8805 24.0638 53.913 24.4083C53.9886 25.2613 54.0207 26.1142 53.6303 26.9021C53.2977 27.5559 52.9226 28.1871 52.5074 28.7918C52.0541 29.4829 51.5467 30.1305 51.0715 30.7892C51.0461 30.8347 51.012 30.8748 50.9711 30.9071C50.9301 30.9394 50.8832 30.9632 50.833 30.9773C50.7828 30.9914 50.7303 30.9953 50.6786 30.989C50.6269 30.9827 50.5769 30.9661 50.5316 30.9404C50.4143 30.8861 50.3022 30.821 50.197 30.7461C48.9228 29.8606 47.6488 28.9716 46.3749 28.0791C46.2597 27.9982 46.1513 27.9079 46.0509 27.8091C45.9778 27.7446 45.9196 27.6648 45.8805 27.5755C45.8413 27.4862 45.8221 27.3893 45.8241 27.2918C45.8262 27.1943 45.8495 27.0984 45.8924 27.0108C45.9352 26.9231 45.9967 26.8459 46.0725 26.7845C46.129 26.7315 46.1905 26.6841 46.2562 26.6431C46.4396 26.5569 46.4612 26.4273 46.418 26.2329C46.382 26.129 46.3703 26.0182 46.384 25.909C46.3976 25.7998 46.4362 25.6953 46.4967 25.6034C46.5573 25.5116 46.6381 25.4349 46.7331 25.3793C46.828 25.3237 46.9344 25.2907 47.0442 25.2828C47.1629 25.2613 47.1855 25.2072 47.1629 25.0991C47.1413 24.9577 47.1198 24.8076 47.1092 24.6567C47.0892 24.5761 47.0868 24.492 47.1024 24.4104C47.1179 24.3288 47.1509 24.2514 47.199 24.1837C47.2472 24.116 47.3095 24.0596 47.3816 24.0182C47.4536 23.9768 47.5338 23.9515 47.6166 23.944C47.7353 23.9115 47.8639 23.89 47.9943 23.8469C47.9727 23.7281 47.9512 23.6094 47.9406 23.4904C47.9206 23.3293 47.944 23.1658 48.0084 23.0169C48.0728 22.8679 48.1758 22.7388 48.3068 22.6431C48.4378 22.5473 48.5921 22.4883 48.7535 22.4721C48.915 22.456 49.0779 22.4833 49.2253 22.5512C49.3666 22.6374 49.5168 22.713 49.6571 22.8102C50.2931 23.2529 50.9312 23.6956 51.5898 24.1599C51.5916 24.0423 51.6131 23.9666 51.6131 23.8801Z" fill="#A4D2FC"/>
<path d="M45.4266 42.4184C45.8475 42.1269 46.2471 41.8463 46.6573 41.5654C46.7439 41.5008 46.841 41.4577 46.9272 41.4036C47.0218 41.3612 47.126 41.3446 47.2291 41.3556C47.3322 41.3667 47.4305 41.4049 47.514 41.4664C47.5974 41.5279 47.663 41.6105 47.7041 41.7057C47.7452 41.8009 47.7602 41.9053 47.7477 42.0082C47.7371 42.0838 47.7261 42.1495 47.7155 42.235C47.8017 42.2566 47.8774 42.2781 47.953 42.2997C48.005 42.3061 48.0551 42.3233 48.1001 42.3501C48.1451 42.3769 48.1841 42.4128 48.2145 42.4554C48.245 42.4981 48.2662 42.5466 48.277 42.5978C48.2877 42.6491 48.2877 42.7021 48.277 42.7534C48.266 42.8396 48.2554 42.9367 48.2445 43.0339C48.2339 43.0986 48.2445 43.142 48.3201 43.1526C48.39 43.1576 48.4578 43.1785 48.5182 43.2139C48.5787 43.2492 48.6303 43.298 48.6689 43.3564C48.7075 43.4148 48.7322 43.4814 48.741 43.5509C48.7498 43.6204 48.7425 43.691 48.7197 43.7572C48.7086 43.7811 48.7025 43.8071 48.702 43.8335C48.7014 43.8599 48.7064 43.8862 48.7165 43.9106C48.7267 43.935 48.7418 43.957 48.7609 43.9752C48.78 43.9934 48.8026 44.0075 48.8275 44.0165C48.8706 44.0381 48.9031 44.0812 48.9462 44.1027C48.9949 44.1412 49.0345 44.1899 49.062 44.2455C49.0895 44.3011 49.1044 44.3621 49.1054 44.4241C49.1065 44.4862 49.0937 44.5477 49.0681 44.6041C49.0424 44.6606 49.0045 44.7107 48.9571 44.7507C48.8937 44.814 48.825 44.8718 48.7519 44.9235C47.942 45.485 47.1325 46.0464 46.3227 46.6195C46.2545 46.6655 46.1822 46.7053 46.1068 46.7383C46.0778 46.755 46.0458 46.7658 46.0126 46.77C45.9794 46.7742 45.9457 46.7716 45.9135 46.7626C45.8813 46.7535 45.8512 46.7381 45.8251 46.7172C45.7989 46.6964 45.7772 46.6705 45.7612 46.6411C45.4588 46.2199 45.1351 45.8097 44.8426 45.3779C44.5781 44.9951 44.3399 44.5946 44.1299 44.1794C43.9277 43.6801 43.8679 43.1345 43.9571 42.6032L44.0218 41.9552C44.0403 41.8237 44.0296 41.6897 43.9904 41.5628C43.9513 41.4359 43.8847 41.3192 43.7953 41.2209C43.7665 41.1883 43.7412 41.1528 43.7197 41.1149C43.6519 41.0359 43.6164 40.9341 43.6204 40.83C43.6244 40.7259 43.6676 40.6272 43.7412 40.5535C43.8104 40.4637 43.9099 40.4022 44.0212 40.3803C44.1324 40.3585 44.2478 40.3778 44.3458 40.4348C44.7474 40.6437 45.0529 40.9995 45.1987 41.428C45.2959 41.7085 45.35 42.0004 45.4256 42.2809C45.4051 42.2997 45.4157 42.3537 45.4266 42.4184Z" fill="#A4D2FC"/>
<path d="M74.8713 56.5838L75.0657 55.6878C75.3211 55.7025 75.5728 55.6212 75.7712 55.4598C75.9697 55.2984 76.1007 55.0686 76.1383 54.8155C76.1759 54.5625 76.1175 54.3045 75.9746 54.0923C75.8316 53.8801 75.6145 53.7291 75.3658 53.6689C75.1172 53.6087 74.855 53.6437 74.6309 53.767C74.4067 53.8903 74.2368 54.0931 74.1545 54.3353C74.0723 54.5776 74.0836 54.8418 74.1863 55.0761C74.289 55.3104 74.4756 55.4979 74.7095 55.6016L74.5152 56.5082L71.6864 55.8931C71.4989 55.8522 71.3028 55.8871 71.141 55.9902C70.9791 56.0934 70.8646 56.2563 70.8225 56.4435L70.0883 59.8002C70.0475 59.9878 70.0825 60.1838 70.1857 60.3457C70.2889 60.5075 70.4519 60.622 70.6391 60.6641L76.6528 61.9715C76.8403 62.0123 77.0364 61.9774 77.1982 61.8743C77.3601 61.7711 77.4746 61.6082 77.5167 61.421L78.251 58.0643C78.2917 57.8767 78.2567 57.6807 78.1535 57.5188C78.0503 57.357 77.8874 57.2425 77.7001 57.2004L74.8713 56.5838Z" fill="white"/>
<path d="M42.6194 68.234L10.9413 61.0755C10.4335 60.96 9.96396 60.7155 9.57813 60.3656C9.1923 60.0157 8.90317 59.5723 8.73867 59.0781L1.92569 38.6194C1.75499 38.1095 1.72291 37.5634 1.83274 37.037C1.94257 36.5107 2.19036 36.023 2.55072 35.6239C2.91108 35.2248 3.37106 34.9287 3.88353 34.7659C4.39601 34.6031 4.94254 34.5795 5.46715 34.6974L37.1453 41.8556C37.6531 41.9713 38.1225 42.2158 38.5083 42.5657C38.8941 42.9155 39.1833 43.3589 39.3479 43.853L46.1715 64.3131C46.3409 64.8239 46.3716 65.3704 46.2606 65.8969C46.1495 66.4234 45.9006 66.911 45.5393 67.3098C45.178 67.7086 44.7173 68.0043 44.2043 68.1667C43.6913 68.3291 43.1444 68.3523 42.6194 68.234V68.234Z" fill="#465CFF"/>
<path d="M32.6106 88.2404L24.3726 86.0162C22.3752 82.7341 21.0471 78.3075 21.0471 73.1033C21.0471 65.9341 23.2377 59.672 26.5212 56.2818C26.6055 56.1944 26.6654 56.0866 26.6951 55.969C26.7247 55.8514 26.7231 55.728 26.6903 55.6112C26.6576 55.4944 26.5948 55.3882 26.5083 55.3031C26.4218 55.2181 26.3146 55.1571 26.1972 55.1264L22.1268 54.0247C22.0168 53.9922 21.9003 53.9891 21.7887 54.0156C21.6771 54.0422 21.5745 54.0974 21.4908 54.1759C17.8201 57.3502 15.3043 64.001 15.3043 71.6776C15.3043 78.1436 17.0643 83.5761 19.7959 86.8709L18.0144 87.7896C17.9714 87.8096 17.9351 87.8417 17.91 87.882C17.8849 87.9222 17.8721 87.969 17.8731 88.0164V88.0164V89.0852C17.8719 89.144 17.8904 89.2014 17.9257 89.2484C17.961 89.2953 18.011 89.3291 18.0677 89.3442L27.7844 91.9681C28.0637 92.0445 28.3617 92.0097 28.6158 91.8709L32.6647 89.7979C32.7082 89.7756 32.7446 89.7414 32.7696 89.6994C32.7946 89.6573 32.8072 89.609 32.806 89.5601V88.51C32.8089 88.4496 32.7912 88.3899 32.7557 88.3409C32.7201 88.2919 32.669 88.2564 32.6106 88.2404V88.2404Z" fill="#621CD1"/>
<path d="M37.3505 43.5627C36.3463 50.9587 39.3584 61.9824 44.4009 66.0528" stroke="#A4D2FC" stroke-width="1.833" stroke-linecap="round" stroke-linejoin="round"/>
<path d="M26.1647 79.7435C27.0504 78.8731 28.105 78.1934 29.2634 77.7461" stroke="#621CD1" stroke-width="1.222" stroke-linecap="round" stroke-linejoin="round"/>
</svg>
