<svg xmlns="http://www.w3.org/2000/svg" width="108" height="108" fill="none"><path d="M81.018 94.582a73.49 73.49 0 0 0-2.563-11.328 73.29 73.29 0 0 0-4.3-10.755 65.17 65.17 0 0 0-2.754-5.027 18.42 18.42 0 0 0-3.246-4.145 9.97 9.97 0 0 0-1.675-1.238l-.548-.32c-.414-.147-.84-.254-1.275-.32-4.027-.936-8.18-1.205-12.295-.795-1.78.18-3.672.388-5.3 1.146-.404.182-.786.4-1.14.678-.126.077-.24.173-.34.283-.012.02 0 .074-.006.086-.03.036-.148.11-.203.16-.685.63-1.318 1.318-1.89 2.052a32.24 32.24 0 0 0-2.969 4.663 80.69 80.69 0 0 0-4.824 10.681c-2.703 7.348-4.333 15.047-4.842 22.86-.062.943-.11 1.88-.13 2.82.001.025.01.048.028.065s.04.027.065.028h21.154c.288.025.577.025.864 0h0c.013.004.028.006.042.003s.027-.007.04-.016c.017-.01.03-.027.038-.045s.01-.04.005-.06c.302-1.54.715-3.06 1.096-4.583l1.06-4.257 1.86 8.895c.005.02.017.036.032.048s.035.02.054.02H80.66a7.01 7.01 0 0 0 .961 0h.043c.024-.001.047-.01.065-.028s.027-.04.028-.065c.058-3.85-.19-7.697-.74-11.507z" fill="#bbe7ff"/><path d="M24.112 39.432a18.67 18.67 0 0 1 1.528 1.515l4.91 5.113c.247.26.64-.135.394-.394l-4.866-5.07c-.496-.55-1.02-1.07-1.57-1.565-.277-.222-.67.172-.394.4h0z" fill="#fb0e39"/><path opacity=".72" d="M100.865 23.206l-.13-4.367c-.003-.032-.014-.063-.032-.1s-.042-.05-.07-.064-.06-.022-.093-.02-.064.01-.092.027c-.03-.025-.066-.04-.105-.043a142.55 142.55 0 0 0-20.956-.4l-2.92.19c-.912.03-1.82.112-2.723.246-.04.01-.074.034-.1.067s-.038.072-.037.113c-.068 5.193-.047 10.386.06 15.58.03 1.36.012 2.736.11 4.1 0 .05.02.096.054.13s.082.054.13.054a386.83 386.83 0 0 1 21.036-.185l5.95.166c.024.001.05-.004.07-.013s.044-.023.06-.04.03-.038.04-.06.013-.047.013-.072c-.205-5.102-.174-10.208-.273-15.31z" fill="#fedffd"/><path d="M57.678 25.227c-.26-.386-.616-.698-1.033-.904s-.88-.3-1.345-.272h-.043c-2.625.74-3.074 3.85-2.328 6.118.413 1.25 1.404 2.74 2.914 2.532 2.04-.288 2.55-2.6 2.592-4.306.032-1.085-.097-2.268-.756-3.167z" fill="#ffabd0"/><path d="M81.432 4.954a2.14 2.14 0 0 0 .4-1.423c-.05-.28-.163-.546-.33-.777s-.383-.422-.633-.558c-1.133-.66-2.692-.4-3.83.105a6.15 6.15 0 0 0-1.7 1.155 12.86 12.86 0 0 1-1.608 1.46c-1.164.782-2.667.813-3.813 1.645-1.72 1.256-2.193 3.505-3.536 5.076-.34.41-.76.75-1.232.998-.63.32-1.324.443-1.898.87-.967.71-1.496 1.848-1.908 2.938-.468 1.25-.825 2.618-1.743 3.634-.487.536-1.12.838-1.712 1.238-.52.352-.932.843-1.188 1.417-.258.567 3.19-.006 3.56-.437.536-.622 1.226-.598 1.983-.665a2.13 2.13 0 0 0 1.44-.659c.437-.456.752-1.03 1.312-1.35.596-.282 1.24-.447 1.897-.487.582-.05 1.145-.23 1.65-.52a4.54 4.54 0 0 0 1.09-1.158 3.56 3.56 0 0 1 1.269-1.224c.727-.327 1.552-.093 2.322-.185 1.14-.136 2.027-.93 2.673-1.823.356-.502.667-1.033.93-1.59.302-.616.598-1.3 1.188-1.694.554-.376 1.256-.45 1.8-.864.453-.334.758-.83.85-1.386.11-.733-.27-1.46-.092-2.187.14-.58.548-1.05.857-1.548z" fill="#ffc200"/><path d="M91.52 24.87c-.03-.044-.077-.075-.13-.086l-3.357-.905-.9-.216a1.45 1.45 0 0 0-.425-.086c-.24.025-.542.308-.74.444l-.807.6-.702.622c-.172.166-.475.376-.504.635v.055L82.835 31a.22.22 0 0 0 .117.228c1.675.624 3.418 1.046 5.193 1.257.064.02.132.012.2-.02l1.56-1.355c.25-.177.474-.388.665-.628a3.16 3.16 0 0 0 .19-.912l.85-4.503a.16.16 0 0 0-.01-.11c-.016-.034-.04-.065-.072-.085h0zm-6.633.567a11.18 11.18 0 0 1 1.332-1.072l.314-.2c-.006.006.24-.16.203-.16a2.25 2.25 0 0 1 .456.105l1.374.35 2.402.653-1.645 1.626-.148.154-2.484-.462-1.275-.308-.622-.173-.333-.086c.126-.155.268-.295.425-.42h0zm5.526 3.647l-.18.955a.52.52 0 0 1-.228.4l-.382.35-1 .906a28.5 28.5 0 0 0 .856-4.503l1.596-1.57-.652 3.462zm-58.348-12.63l-1.885-4.928c-.074-.252-.4-.42-.598-.554l-.782-.5-.887-.48a2.09 2.09 0 0 0-.795-.333c-.142.028-.28.078-.406.148l-.856.35-3.185 1.392c-.033.015-.062.038-.085.065s-.04.06-.05.095c-.017.026-.028.056-.03.088s.001.063.013.092l1.503 4.324c.066.306.176.6.326.875a3.24 3.24 0 0 0 .746.523l1.737 1.1c.025.012.052.018.08.018a.25.25 0 0 0 .091-.006 22.42 22.42 0 0 0 4.983-2.021.24.24 0 0 0 .08-.1c.014-.034.015-.092.001-.136h0zm-5.328-6.203a2.08 2.08 0 0 1 .449-.172c-.1-.006.2.142.203.136l.345.16a10.64 10.64 0 0 1 1.472.864 3.06 3.06 0 0 1 .499.364c-.108.055-.22.102-.333.142l-.585.26-1.213.493-2.378.82c-.012-.012-.03-.018-.043-.03l-.142-.1-1.692-1.238-.166-.136 2.28-1.004 1.305-.544zm-1.848 6.696a.51.51 0 0 1-.283-.358l-.32-.918-1.164-3.35 1.706 1.244.117.093a28.7 28.7 0 0 0 1.503 4.318l-1.127-.74-.432-.3h.001z" fill="#ff74c7"/><path d="M48.894 21.894c-.07-.025-.146-.035-.22-.027s-.147.03-.21.07l.288-.648c.06-.11.098-.23.1-.353s-.003-.25-.042-.367c-.185-.363-.523-.296-.807-.13.19-.413.314-.943-.154-.986-.3.024-.586.134-.825.314-.13.084-.257.177-.376.277.024-.094.012-.194-.035-.278a.38.38 0 0 0-.217-.178c-.432-.172-.942.302-1.244.542-1.003.836-1.87 1.823-2.57 2.926l-1.066 1.656c-.384.56-.655 1.2-.8 1.854a2.48 2.48 0 0 0 .308 1.725c.326.548.87 1.017 1.06 1.64a2.21 2.21 0 0 1-.252 1.793 11.14 11.14 0 0 1-.961 1.386c-.03-.02-.06-.04-.086-.062-.1-.068-.19.093-.093.16 1.224.825 2.366 1.897 3.813 2.322.222.068.58.21.8.086a.58.58 0 0 0 .191-.216c.1-.157.233-.303.37-.437.23-.2.442-.423.63-.665l.653-.96a4.06 4.06 0 0 0 .85-1.916 2.95 2.95 0 0 0-.4-1.959c-.23-.282-.443-.576-.64-.88a1.76 1.76 0 0 1 .093-1.54c.333-.746.8-1.423 1.188-2.144a6.96 6.96 0 0 0 .875-2.359c.033-.233.033-.534-.226-.645z" fill="#ffabd0"/><path d="M46.528 19.886c-.883 1.07-1.668 2.216-2.347 3.425-.022.042-.027.092-.014.138a.19.19 0 0 0 .085.11c.04.025.1.03.137.02s.087-.04.112-.08a22.56 22.56 0 0 1 2.285-3.345c.154-.185-.1-.444-.26-.265h0zm1.528.252c-.437.58-.972 1.066-1.43 1.633-.478.593-.85 1.264-1.103 1.984-.08.228.277.32.357.098.264-.74.663-1.426 1.177-2.02l1.318-1.5c.142-.2-.18-.376-.32-.185h0zm.486 1.492a13.93 13.93 0 0 0-2.236 3.302c-.1.216.222.4.32.185a13.65 13.65 0 0 1 2.181-3.228c.154-.18-.105-.437-.265-.26h0z" fill="#e89589"/><path d="M70.416 70.92l-.967-3.77c-.005-.02-.018-.04-.036-.053s-.04-.018-.062-.016-.042.012-.057.028-.024.037-.025.06l-2.3.03c.002-.012.002-.025-.001-.037s-.01-.023-.018-.032-.02-.016-.03-.02-.024-.005-.036-.004c-.53.055-.696-.635-.82-1.03a3.24 3.24 0 0 0-.598-1.17c-.71-.838-1.78-1.226-2.84-1.392a26.01 26.01 0 0 0-3.788-.265c-.665-.012-1.332 0-1.996.025-.535-.036-1.073.028-1.584.19-.345.166-.64.616-.425.992a.53.53 0 0 0 .086.111c-.224-.007-.448.001-.67.025-.45.036-.998.086-1.3.475-.444.573.45.87 1.214.998-.302-.016-.603.052-.87.197a.68.68 0 0 0-.345.399c-.028.086-.04.177-.032.267a.68.68 0 0 0 .074.258c.216.35.7.444 1.06.5l1.78.26a1.31 1.31 0 0 0-.918.277c-.314.37.036.756.388.9a2.84 2.84 0 0 0 .85.154l1.306.05 1.306-.055.592-.062a1.32 1.32 0 0 1 .756.025c.3.225.524.534.648.887l.376.844c.21.566.484 1.107.813 1.614.293.44.71.785 1.2.986.693.224 1.442.207 2.124-.05.868-.302 1.71-.673 2.52-1.11l2.587-1.38c.02-.01.033-.025.042-.044s.01-.04.004-.06h0z" fill="#ffabd0"/><path d="M55.14 64.564c1.497.1 3.05-.333 4.503.166.228.08.32-.277.1-.358-1.497-.5-3.068-.068-4.602-.18-.234-.018-.234.35 0 .37v.001zm-1.047 1.706l2.433-.062h2.458c.24.02.234-.35 0-.37-.82-.062-1.64-.02-2.458 0l-2.433.06c-.048.002-.093.023-.126.057s-.05.08-.05.128.018.093.05.128.078.055.126.057h0zm1.577 1.793l4.14-.345c.234-.013.24-.382 0-.37l-4.14.345c-.234.025-.234.394 0 .37z" fill="#e89589"/><g fill="#000"><path d="M63.203 27.062c-.168-.605-.417-1.186-.74-1.725L61.41 23.57c-.936-1.8-5.976-.955-9.788-.376-.48.07-.942.238-1.355.493-.446.256-.797.65-.998 1.125s-.243 1-.118 1.5c.205.78.454 1.546.745 2.297.222.56.425 1.127 1.022 1.374.635.245 1.316.353 1.996.314.462-.024 1.127-.105 1.392-.548a1.34 1.34 0 0 0 .086-.265c.036-.093-.093-.326.216-.24.11.03.172.26.203.35a1.49 1.49 0 0 0 .456.715c.523.425 1.262.34 1.89.34l2.458-.093a8.56 8.56 0 0 0 2.168-.333c.274-.114.52-.286.72-.504s.353-.477.444-.76c.288-.588.377-1.254.253-1.897h0z"/><path d="M61.48 24.16c-.234.012-.467.043-.696.092-.02.005-.036.017-.048.032a.09.09 0 0 0-.02.054l.006.493c-.01.13-.008.26.006.388.025.105.062.13.16.154a2.29 2.29 0 0 0 .579 0c.086-.006.16 0 .2-.086a1.09 1.09 0 0 0 .024-.425l-.018-.45a.41.41 0 0 0-.068-.27c-.018-.016-.04-.025-.065-.025s-.047.01-.065.025a.18.18 0 0 0-.036.071c-.003.02.001.04.012.06.056.123.216.025.166-.08-.013.024-.017.06-.018.1l.012-.012h-.13c.055.056.03.37.03.462a1.97 1.97 0 0 1-.018.504l.062-.062c-.14.028-.283.034-.425.02-.068 0-.185.018-.234-.05-.018-.03 0-.117 0-.148l-.006-.653c-.02.03-.044.06-.068.086a3.82 3.82 0 0 1 .648-.086c.117-.012.123-.197 0-.2h-.001zm-12.198.993l.75-.03-.092-.093c.002.283-.02.565-.068.844a1.01 1.01 0 0 0 .086-.068l-.758.093c.03.036.062.08.086.117.062-.34-.055-.66.135-.98.012-.02.015-.046.008-.07s-.022-.043-.043-.055a.1.1 0 0 0-.07-.01c-.024.005-.044.02-.056.042a1.01 1.01 0 0 0-.148.42c-.025.203.025.4-.012.598-.013.05.025.123.086.117l.756-.092c.036-.006.08-.025.086-.068a5.4 5.4 0 0 0 .074-.893c-.001-.024-.01-.047-.028-.064s-.04-.027-.065-.028l-.752.03c-.098.012-.098.197.02.2h.002z"/></g><path d="M61.602 24.038a2.09 2.09 0 0 0-.655-1.078c-.324-.283-.728-.46-1.156-.506a15.96 15.96 0 0 0-2.033.025l-2.174.148-4.22.59-.036.018a2.9 2.9 0 0 0-1.953 1.294c-.437.783-.48 1.872.16 2.556.585.628 1.49.72 2.292.764 1.04.062 2.082-.006 3.123-.036a32.2 32.2 0 0 0 3.616-.216c.887-.123 2.027-.288 2.686-.967.646-.664.615-1.767.35-2.592z" fill="#36345b"/><path d="M50.25 24.635a3.1 3.1 0 0 0-.856.061c-.014 0-.028.003-.04.008s-.024.013-.034.023-.018.006-.025.012c-.1.062-.154.24-.2.333a1.67 1.67 0 0 0-.105.696c.006.043.036.1.092.092l.67-.072c.123-.012.345.012.45-.072s.08-.296.086-.407a2.03 2.03 0 0 0 .012-.61c-.003-.015-.01-.03-.022-.04s-.025-.02-.04-.024zm11.666.438a5.19 5.19 0 0 0-.277-1.053c-.043-.142-.043-.142-.098-.154a4.17 4.17 0 0 0-.998-.05.1.1 0 0 0-.065.027c-.018.017-.027.04-.028.065-.018.4-.001.782.05 1.17.001.024.01.047.028.065s.04.027.065.028l1.238.018c.014 0 .028-.003.04-.01a.09.09 0 0 0 .032-.027c.008-.01.014-.024.016-.038a.1.1 0 0 0-.003-.042h0z" fill="#000"/><path d="M94.003 53.254a15.09 15.09 0 0 0-2.353-6.148c-1.823-2.796-4.324-5.063-6.96-7.078a40.12 40.12 0 0 0-8.698-5.125 29.35 29.35 0 0 0-10.078-2.34 24.4 24.4 0 0 0-5.353.339l-2.592.542c-.548.086-1.103.13-1.656.172l-4.687.26a10.42 10.42 0 0 0-2.667.653 7.13 7.13 0 0 0-1.183.603c-.24.148-.487.413-.752.542l.34-1.54c.004-.01.005-.023.003-.035s-.005-.023-.01-.034-.013-.02-.023-.027-.02-.013-.03-.016c-1.068-.31-2.113-.7-3.13-1.14-1.002-.404-1.953-.925-2.834-1.552-.022-.012-.047-.015-.07-.01s-.045.02-.06.04c-.062.135-.258.222-.382.308l-.517.364-1.022.75-1.867 1.49a46.13 46.13 0 0 0-3.544 3.308 47.48 47.48 0 0 0-8.371 11.784 21.77 21.77 0 0 0-1.744 4.392 20.26 20.26 0 0 0-.536 4.552c-.045 1.53.175 3.054.648 4.51.44 1.388 1.172 2.664 2.15 3.743s2.174 1.935 3.512 2.5c2.528 1.08 5.36 1.223 7.983.4a12.54 12.54 0 0 0 3.474-1.897 16.96 16.96 0 0 0 2.76-2.723c.745-.844 1.35-1.706 2.3-2.328.28-.196.576-.373.88-.53.343-.13.698-.228 1.06-.3a27.47 27.47 0 0 1 2.439-.462 46.27 46.27 0 0 1 9.462-.283c1.727.108 3.437.403 5.1.88a7.02 7.02 0 0 1 2.039.9 4.39 4.39 0 0 1 .684.579 5.57 5.57 0 0 1 .265.302c.012.012.18.203.172.24a2.66 2.66 0 0 1-.308.24 25.62 25.62 0 0 1-1.589 1.127c-.017.01-.03.027-.038.046a.1.1 0 0 0-.005.059 8.69 8.69 0 0 0 .308 1.109l.444 1.417.893 2.74.832 2.636c.105.358.08.807.5.864a4.74 4.74 0 0 0 1.183-.049l1.953-.308a47.72 47.72 0 0 0 5.76-1.509c3.27-1.078 6.45-2.52 9.18-4.65 2.594-1.984 4.603-4.63 5.815-7.663.864-2.11 1.18-4.403.916-6.667h0z" fill="#ff5271"/><path d="M46.584 36.32l-2.02 8.168a43.78 43.78 0 0 1-2.464 6.665l-2.37 4.62c-.173.314.308.6.48.277a60.29 60.29 0 0 0 3.647-7.614c.825-2.255 1.5-4.56 2.052-6.9l1.214-5.07c.08-.345-.45-.493-.536-.148h-.001zm35.074 17.557l-2.753 1.675a13.62 13.62 0 0 0-3.228-2.168c-.32-.154-.604.327-.283.48a13.38 13.38 0 0 1 3.024 2.002l-7.1 5.04-2.748 2.23c-.27.24.123.628.394.4 3.153-2.663 6.48-5.1 9.96-7.33a104.74 104.74 0 0 1 3.018-1.848.28.28 0 0 0 .13-.168.27.27 0 0 0-.027-.21c-.037-.063-.097-.1-.168-.13a.27.27 0 0 0-.21.027h0z" fill="#bbe7ff"/><path d="M53.563 93.972a5.61 5.61 0 0 1 1.146 2.704c.05.35.603.35.554 0a6.14 6.14 0 0 0-1.226-2.981c-.21-.277-.7-.006-.474.277h0z" fill="#fb0e39"/><g fill="#fedffd"><path opacity=".72" d="M29.84 38.588l-.13-4.367c-.003-.032-.014-.063-.032-.1s-.043-.05-.07-.064a.19.19 0 0 0-.185.006c-.03-.025-.066-.04-.105-.043-6.966-.648-13.97-.782-20.956-.4l-2.92.19a23.65 23.65 0 0 0-2.723.246c-.04.01-.074.034-.098.067s-.038.072-.037.113c-.068 5.193-.047 10.385.062 15.578.03 1.362.013 2.736.11 4.1 0 .05.02.096.054.13s.082.054.13.054c7-.252 14.022-.314 21.036-.185l5.95.166a.18.18 0 0 0 .071-.013c.023-.01.043-.023.06-.04s.03-.038.04-.06a.18.18 0 0 0 .013-.071c-.204-5.102-.174-10.208-.272-15.31z"/><path opacity=".73" d="M46.867 66.412l-.13-4.368c-.004-.032-.015-.062-.033-.09s-.043-.048-.07-.062-.06-.022-.092-.02-.063.01-.09.025c-.028-.028-.066-.043-.105-.043a142.49 142.49 0 0 0-20.958-.402l-2.92.19a23.65 23.65 0 0 0-2.723.247c-.04.01-.074.034-.1.067s-.038.072-.037.113a458.92 458.92 0 0 0 .062 15.579l.11 4.1c0 .05.02.096.054.13s.08.054.13.055c7-.253 14.023-.314 21.037-.185l5.95.166c.024.001.05-.004.07-.013a.18.18 0 0 0 .061-.04c.017-.017.03-.038.04-.06a.18.18 0 0 0 .013-.071c-.203-5.1-.172-10.207-.27-15.308z"/><path opacity=".72" d="M43.33 69.523l-.13-4.368a.19.19 0 0 0-.103-.154.19.19 0 0 0-.185.007.18.18 0 0 0-.105-.043 142.48 142.48 0 0 0-20.957-.4l-2.92.19c-.912.03-1.82.112-2.723.247-.04.01-.074.034-.1.067s-.038.072-.037.113a458.65 458.65 0 0 0 .061 15.579l.11 4.1c0 .05.02.096.054.13s.082.054.13.054a386.12 386.12 0 0 1 21.036-.185l5.95.166a.18.18 0 0 0 .072-.013c.023-.01.043-.023.06-.04s.03-.038.04-.06a.18.18 0 0 0 .013-.071c-.204-5.102-.173-10.208-.27-15.31z"/></g><path d="M53.193 27.087c1.02-.13 2.046-.19 3.074-.185.05 0 .096-.02.13-.054s.054-.082.054-.13-.02-.096-.054-.13-.082-.054-.13-.054a23.23 23.23 0 0 0-3.074.185c-.234.024-.234.394 0 .37h0z" fill="#000"/><path d="M94.1 23.656c-.964-1.52-2.418-2.668-4.12-3.253a7.47 7.47 0 0 0-1.269-.302c-.037-.015-.077-.024-.117-.025-2.877.006-5.956.715-7.73 3.16-1.392 1.916-1.725 4.558-1.38 6.844.252 1.688 1.004 3.326 2.384 4.374 1.595 1.214 3.77 1.5 5.716 1.596a7.51 7.51 0 0 0 3.129-.432 6.53 6.53 0 0 0 2.168-1.423 8.45 8.45 0 0 0 2.359-4.811 8.55 8.55 0 0 0-1.14-5.728h0zm-5.316 11.84a13.81 13.81 0 0 1-3.024-.166 8.92 8.92 0 0 1-2.673-.764 5.6 5.6 0 0 1-1.874-1.573c-.5-.656-.852-1.414-1.027-2.22-.536-2.144-.333-4.737.794-6.677 1.3-2.236 3.782-3.185 6.26-3.394l1.366-.055c1.657.26 3.173 1.087 4.288 2.34 1.222 1.396 1.892 3.2 1.885 5.045.024 3.518-2.243 7.183-5.994 7.467zM20.6 40.48a5.77 5.77 0 0 0-3.727-2.268.28.28 0 0 0-.074-.006c-2.12.006-4.38.53-5.692 2.34-1.017 1.404-1.257 3.345-1 5.02a4.9 4.9 0 0 0 1.75 3.215c1.176.9 2.8 1.128 4.232 1.188.7.058 1.407-.032 2.072-.264a5.01 5.01 0 0 0 1.785-1.085 6.41 6.41 0 0 0 .665-8.144v.003zm-3.777 8.926a9.9 9.9 0 0 1-2.212-.148c-.66-.1-1.304-.286-1.903-.58a4.05 4.05 0 0 1-1.996-2.785c-.377-1.587-.16-3.256.6-4.694 1.116-1.897 3.363-2.433 5.427-2.445a5.34 5.34 0 0 1 4.454 5.378c-.018 2.538-1.68 5.12-4.38 5.273zm-.283-9.192h-.013c-.018 0-.036-.006-.055-.006-1.4.006-2.9.364-3.75 1.565a4.6 4.6 0 0 0-.63 3.382 3.22 3.22 0 0 0 .41 1.167 3.17 3.17 0 0 0 .827.921c.77.548 1.8.684 2.73.715a3.32 3.32 0 0 0 2.532-.93 4.08 4.08 0 0 0 1.121-2.347c.278-2.07-1.047-4.144-3.172-4.466zm-.142 7.2a5.19 5.19 0 0 1-2.501-.456 2.51 2.51 0 0 1-.806-.723c-.213-.297-.358-.636-.426-.995-.238-.995-.102-2.043.382-2.945.702-1.195 2.124-1.5 3.42-1.515h.02a3.33 3.33 0 0 1 2.717 3.332c-.008 1.626-1.08 3.24-2.804 3.302z" fill="#fff"/><g fill="#ff74c7"><path d="M15.513 42.043a1.76 1.76 0 0 1 .739.012c.345.074.5-.456.148-.536a2.54 2.54 0 0 0-1.035-.013c-.345.068-.197.604.148.536h0z"/><path d="M15.513 43.078a1.76 1.76 0 0 1 .739.012c.345.072.5-.456.148-.536-.34-.075-.692-.08-1.035-.012-.35.068-.203.604.148.536h0zm0 3.326a1.76 1.76 0 0 1 .739.012c.345.072.5-.456.148-.536a2.55 2.55 0 0 0-1.035-.012c-.35.072-.203.604.148.536h0z"/><path d="M15.513 45.26a1.76 1.76 0 0 1 .739.012c.345.074.5-.456.148-.536a2.54 2.54 0 0 0-1.035-.013c-.35.068-.203.604.148.536h0zm0-1.147a1.76 1.76 0 0 1 .739.013c.345.072.5-.456.148-.536-.34-.075-.692-.08-1.035-.012-.35.068-.203.597.148.536h0z"/></g><path d="M88.404 70.344a5.31 5.31 0 0 0-.869 2.273c-.068.493.7.708.758.2.1-.747.37-1.462.788-2.088.283-.42-.4-.807-.677-.394h0zm-1.04 4.384a15.59 15.59 0 0 0 .068 2.396c.055.5.838.5.782 0a16.11 16.11 0 0 1-.068-2.396c.03-.504-.752-.504-.782 0zm.765 4.652a7.33 7.33 0 0 0 1.478 1.805c.376.333.936-.222.554-.554-.538-.47-.996-1.026-1.355-1.644-.052-.1-.14-.155-.24-.182a.39.39 0 0 0-.477.28.4.4 0 0 0 .04.297v-.002zm3.48 3.128l1.823.413c.493.1.702-.648.2-.758l-1.823-.413c-.493-.1-.702.648-.2.756v.001zm4.706.71c.733.26 1.386-.123 2.107-.18.5-.036.504-.82 0-.782-.622.043-1.287.425-1.903.2-.475-.172-.678.585-.203.752v.001zM100.8 81.8a4.85 4.85 0 0 0 1.466-1.65c.234-.444-.437-.844-.678-.394a3.95 3.95 0 0 1-1.183 1.368c-.406.288-.018.967.395.678h0zm2.535-3.7a7.37 7.37 0 0 0 .536-1.885c.068-.493-.684-.7-.756-.2a6.51 6.51 0 0 1-.462 1.7c-.185.456.487.856.684.394h-.002zm-.59-5.88c.198.598.294 1.224.283 1.854a.39.39 0 0 0 .391.379c.102 0 .2-.04.273-.1a.39.39 0 0 0 .119-.269 6.23 6.23 0 0 0-.314-2.064c-.154-.48-.912-.27-.752.2h0zm-2.052-3.12a2.62 2.62 0 0 1 1.035 1.158c.216.456.893.055.678-.394a3.35 3.35 0 0 0-1.319-1.44c-.1-.053-.197-.067-.297-.04a.4.4 0 0 0-.24.182.39.39 0 0 0 .141.537l.002-.002zm-10.33.054a3.82 3.82 0 0 1 1.762-.967c.097-.03.177-.1.225-.188a.39.39 0 0 0 .033-.29.4.4 0 0 0-.178-.233c-.088-.053-.2-.068-.3-.045a4.62 4.62 0 0 0-2.107 1.17c-.364.35.2.905.554.554zm3.622-1.56c.7-.194 1.4-.25 2.12-.16.5.055.5-.727 0-.783a5.95 5.95 0 0 0-2.328.191.39.39 0 0 0-.258.477.39.39 0 0 0 .467.275h0zm4.108-.098a3.76 3.76 0 0 1 1.28.66c.075.07.174.1.277.1s.202-.04.277-.1a.38.38 0 0 0 .113-.277c0-.103-.04-.203-.113-.277-.48-.4-1.033-.68-1.626-.856a.39.39 0 0 0-.473.273.39.39 0 0 0 .264.479h0z" fill="#bbe7ff"/><path d="M27.057 67.854c-.37.553-.6 1.183-.702 1.842-.055.4.554.573.6.166a3.9 3.9 0 0 1 .64-1.688c.228-.345-.32-.66-.548-.32h0zm-.837 3.548c-.03.647-.012 1.296.055 1.94.043.4.678.407.635 0-.068-.644-.086-1.293-.055-1.94.018-.413-.616-.406-.635 0zm.615 3.764a5.82 5.82 0 0 0 1.201 1.46c.308.27.758-.18.45-.45a5.29 5.29 0 0 1-1.097-1.332.32.32 0 0 0-.431-.106.32.32 0 0 0-.123.427v.001zm2.815 2.53l1.48.332c.4.093.567-.523.166-.6l-1.48-.333c-.394-.093-.56.523-.166.6h0zm3.813.573c.597.2 1.12-.105 1.706-.148.407-.03.407-.665 0-.634-.504.036-1.04.345-1.54.166-.388-.13-.548.48-.166.616zm3.64-1.146a3.95 3.95 0 0 0 1.188-1.337c.2-.357-.358-.684-.548-.32a3.2 3.2 0 0 1-.961 1.109c-.333.234-.013.782.32.548h.001zm2.047-2.987c.214-.487.36-1 .437-1.528.055-.4-.554-.573-.6-.166a5.5 5.5 0 0 1-.37 1.374c-.166.37.382.696.542.32h0zm-.482-4.767a4.46 4.46 0 0 1 .228 1.503c.004.082.04.158.098.215s.137.088.22.088.16-.03.22-.088.094-.133.098-.215a5.13 5.13 0 0 0-.252-1.67c-.123-.388-.74-.222-.6.166h-.001zM37 66.85a2.13 2.13 0 0 1 .838.936c.173.37.72.05.548-.32a2.74 2.74 0 0 0-1.066-1.164c-.072-.04-.158-.05-.238-.028a.37.37 0 0 0-.2.146c-.052.072-.054.157-.034.237s.07.15.14.193h0zm-8.364.038a3.12 3.12 0 0 1 1.423-.782.32.32 0 0 0 .207-.384.31.31 0 0 0-.142-.187c-.07-.042-.152-.056-.232-.038-.64.16-1.23.485-1.706.942-.296.288.154.733.45.45zm2.932-1.264a4.4 4.4 0 0 1 1.72-.13c.406.05.4-.585 0-.635-.632-.072-1.273-.02-1.885.154a.32.32 0 0 0-.22.388c.02.08.075.15.146.2s.157.053.238.032h0zm3.327-.074c.375.1.726.3 1.035.53.06.056.142.088.225.088s.163-.03.225-.088a.32.32 0 0 0 0-.45 3.96 3.96 0 0 0-1.312-.696.32.32 0 0 0-.389.223.32.32 0 0 0 .217.393h0z" fill="#fff"/><path d="M9.316 20.324a172.16 172.16 0 0 0 10.238 10.687c.26.247.653-.142.394-.394-3.566-3.413-6.98-6.975-10.244-10.687-.234-.265-.622.13-.388.394zm1.478 9.61c1.97 2.333 4.087 4.536 6.34 6.597.265.24.653-.148.396-.394a70.53 70.53 0 0 1-6.34-6.597c-.234-.27-.622.123-.394.394zm87.36 27.647l6.813 5.292c.277.216.67-.172.396-.394l-6.813-5.292c-.283-.2-.677.18-.396.394zm-22.835 13l6.493 5.9c.265.24.66-.154.394-.394l-6.493-5.9c-.265-.234-.66.154-.394.394zM39.24 36.296a39.9 39.9 0 0 1-6.744-5.679c-.246-.26-.64.136-.394.394a41 41 0 0 0 6.856 5.766c.302.197.58-.283.283-.48h-.001zM81.036 69.85a126.12 126.12 0 0 1 8.858 7.768c.258.246.648-.142.394-.394a128.92 128.92 0 0 0-8.856-7.768c-.277-.216-.67.172-.394.394h-.002zM92.2 56.55c1.6 1.183 3.07 2.53 4.386 4.023.24.265.63-.123.396-.394-1.356-1.52-2.865-2.898-4.503-4.1-.283-.2-.56.27-.277.48H92.2zm-70.944-.6a33.22 33.22 0 0 1 3.979 3.148c.265.24.653-.148.394-.396a35.08 35.08 0 0 0-4.09-3.234c-.302-.197-.58.283-.283.48v.001z" fill="#fb0e39"/><path d="M35.6 68.655l-.295-1.312c-.08-.345-.616-.203-.536.148l.105.468a3.2 3.2 0 0 0-2.101-.634c-1.022.05-2.205.34-2.932 1.102-.676.78-1.063 1.766-1.096 2.797-.08 1.078.043 2.304.727 3.185.367.448.84.798 1.375 1.02s1.117.307 1.693.25c.345-.05.35-.6-.006-.56-.442.046-.888-.005-1.308-.148s-.804-.377-1.125-.683c-.696-.67-.838-1.72-.825-2.643a4.48 4.48 0 0 1 .727-2.55c.548-.77 1.485-1.053 2.384-1.177a2.83 2.83 0 0 1 2.279.598c-.258.006-.517.006-.77-.006-.357-.012-.357.542 0 .554a11.66 11.66 0 0 0 1.392-.031.31.31 0 0 0 .172-.068.27.27 0 0 0 .142-.308h0z" fill="#fff"/></svg>