<svg width="108" height="108" viewBox="0 0 108 108" fill="none" xmlns="http://www.w3.org/2000/svg">
<path d="M81.018 94.5817C80.4639 90.744 79.607 86.9561 78.4552 83.2536C77.308 79.5607 75.8704 75.9643 74.1557 72.4982C73.3057 70.7857 72.4 69.1042 71.4021 67.4716C70.5241 65.9415 69.4309 64.5454 68.1559 63.3262C67.6422 62.856 67.0807 62.441 66.4805 62.0878C66.3005 61.983 66.1169 61.8538 65.9322 61.7674C65.5184 61.6203 65.0914 61.5131 64.6571 61.4473C60.6298 60.5109 56.476 60.2424 52.3617 60.6525C50.5815 60.8325 48.6897 61.0405 47.052 61.7983C46.6478 61.9806 46.2655 62.2079 45.9123 62.4759C45.786 62.5532 45.6719 62.6486 45.5735 62.7592C45.5613 62.7779 45.5735 62.8333 45.5674 62.8456C45.5364 62.8816 45.4194 62.9565 45.364 63.0058C44.6787 63.637 44.0462 64.3233 43.4729 65.0578C42.3516 66.5243 41.3583 68.0844 40.504 69.7209C38.6392 73.1596 37.027 76.7294 35.68 80.402C32.9773 87.7502 31.3466 95.4492 30.838 103.262C30.7764 104.205 30.7271 105.141 30.7087 106.083C30.7094 106.108 30.7193 106.131 30.7365 106.148C30.7538 106.165 30.7769 106.175 30.8013 106.176H51.9552C52.2427 106.201 52.5318 106.201 52.8192 106.176V106.176C52.8326 106.18 52.8469 106.182 52.8609 106.179C52.8749 106.177 52.8881 106.172 52.8995 106.163C52.9165 106.152 52.9297 106.136 52.9374 106.118C52.9451 106.099 52.947 106.079 52.9427 106.059C53.2444 104.519 53.6573 102.999 54.0389 101.476C54.3964 100.059 54.7474 98.636 55.0987 97.2191C55.7208 100.182 56.3409 103.147 56.9589 106.114C56.9642 106.133 56.9754 106.15 56.9909 106.162C57.0065 106.175 57.0255 106.181 57.0453 106.182H80.6613C80.9813 106.204 81.3024 106.204 81.6225 106.182H81.6653C81.6896 106.181 81.7128 106.171 81.73 106.154C81.7472 106.137 81.7572 106.114 81.7578 106.089C81.8163 102.24 81.569 98.392 81.018 94.5817Z" fill="#BBE7FF"/>
<path d="M24.112 39.4316C24.65 39.9069 25.1601 40.4128 25.6399 40.9469C26.1882 41.52 26.7426 42.0927 27.2905 42.6655C28.3748 43.7991 29.4652 44.9263 30.5492 46.0596C30.7958 46.3184 31.19 45.9242 30.9434 45.6654C29.8594 44.5321 28.769 43.4049 27.685 42.2713C27.149 41.7108 26.613 41.1553 26.0773 40.5959C25.5817 40.0468 25.0573 39.5246 24.5062 39.0313C24.229 38.8095 23.8348 39.2037 24.112 39.4316V39.4316Z" fill="#FB0E39"/>
<path opacity="0.72" d="M100.865 23.2062C100.835 21.7522 100.797 20.2924 100.736 18.8387C100.733 18.8064 100.722 18.7754 100.704 18.7484C100.686 18.7215 100.662 18.6996 100.633 18.6848C100.604 18.67 100.572 18.6628 100.54 18.6638C100.507 18.6649 100.476 18.6741 100.448 18.6907C100.418 18.6657 100.382 18.6506 100.343 18.6475C93.3769 18 86.3726 17.8662 79.3868 18.2472C78.4148 18.3027 77.4403 18.3642 76.4672 18.4384C75.5556 18.4678 74.6465 18.5501 73.7445 18.6846C73.7052 18.6954 73.6705 18.7189 73.646 18.7515C73.6214 18.7841 73.6083 18.8238 73.6088 18.8646C73.5411 24.0575 73.5616 29.2504 73.6703 34.4433C73.7013 35.8048 73.6826 37.1793 73.7812 38.5336C73.7814 38.5826 73.801 38.6295 73.8356 38.6641C73.8703 38.6987 73.9173 38.7182 73.9663 38.7183C80.9762 38.466 87.9883 38.4045 95.0025 38.5336C96.9857 38.5696 98.9693 38.6322 100.953 38.6999C100.977 38.7005 101.002 38.6962 101.024 38.6871C101.047 38.678 101.068 38.6644 101.085 38.6471C101.102 38.6298 101.116 38.6091 101.125 38.5864C101.134 38.5637 101.138 38.5393 101.138 38.5149C100.933 33.4133 100.964 28.3067 100.865 23.2062Z" fill="#FEDFFD"/>
<path d="M57.6778 25.2267C57.4181 24.8406 57.0622 24.5289 56.6452 24.3226C56.2281 24.1162 55.7644 24.0224 55.3 24.0502H55.2568C52.632 24.7893 52.1831 27.9 52.9283 30.168C53.3412 31.4187 54.3323 32.9091 55.8421 32.6999C57.8812 32.4119 58.3924 30.1004 58.4341 28.394C58.4662 27.3089 58.3369 26.126 57.6778 25.2267Z" fill="#FFABD0"/>
<path d="M81.432 4.95439C81.7303 4.54269 81.8723 4.03817 81.8323 3.53131C81.7821 3.25091 81.6695 2.98537 81.503 2.75428C81.3364 2.52318 81.1201 2.33242 80.87 2.19607C79.7368 1.53691 78.178 1.79575 77.0386 2.30083C76.411 2.58782 75.8362 2.97835 75.3383 3.45607C74.8445 3.98713 74.3066 4.47547 73.7305 4.91587C72.5663 5.69815 71.0633 5.72911 69.9178 6.56071C68.1991 7.81711 67.7246 10.0657 66.3818 11.6367C66.0415 12.0479 65.6228 12.3871 65.1499 12.6346C64.5213 12.955 63.8255 13.0781 63.2523 13.5033C62.2854 14.2118 61.7558 15.3512 61.3443 16.4416C60.8763 17.6919 60.5189 19.0595 59.6012 20.0758C59.1145 20.6119 58.4798 20.9136 57.8887 21.3142C57.3682 21.6662 56.9567 22.157 56.7007 22.7308C56.4422 23.2975 59.8917 22.7247 60.2615 22.2934C60.7971 21.6713 61.4873 21.6958 62.2447 21.6281C62.7916 21.6018 63.3073 21.3657 63.6847 20.969C64.1221 20.5132 64.4364 19.9405 64.9969 19.6201C65.5926 19.3385 66.2365 19.1733 66.8941 19.1333C67.4756 19.0823 68.0387 18.9043 68.544 18.6121C68.9727 18.2932 69.3417 17.9012 69.6341 17.454C69.9477 16.9459 70.3841 16.525 70.9031 16.2299C71.6299 15.9034 72.4554 16.1374 73.2254 16.0453C74.3652 15.9095 75.2522 15.115 75.8988 14.2219C76.2548 13.7203 76.5661 13.1885 76.829 12.6325C77.1311 12.0165 77.4266 11.3329 78.017 10.9387C78.5714 10.5628 79.2734 10.4887 79.817 10.0747C80.2697 9.74071 80.5746 9.24359 80.667 8.68867C80.7779 7.95571 80.3959 7.22887 80.5748 6.50203C80.716 5.92135 81.1224 5.45335 81.432 4.95439Z" fill="#FFC200"/>
<path d="M91.5206 24.8694C91.49 24.8252 91.4436 24.7943 91.391 24.783C90.27 24.4997 89.1612 24.167 88.0341 23.8776C87.7385 23.8034 87.4365 23.7296 87.1341 23.6616C86.9975 23.6116 86.8541 23.5825 86.7089 23.5752C86.4688 23.6 86.1667 23.8834 85.9698 24.0187C85.6926 24.2099 85.4215 24.4129 85.1627 24.6286C84.9226 24.8258 84.6886 25.0354 84.4607 25.2506C84.2883 25.417 83.9862 25.6265 83.9567 25.8853V25.9408C83.6302 27.6328 83.2367 29.3226 82.8353 30.998C82.8285 31.0435 82.8361 31.0899 82.8571 31.1308C82.8781 31.1717 82.9114 31.205 82.9523 31.2259C84.627 31.8503 86.3704 32.2722 88.1453 32.4827C88.2089 32.5018 88.2774 32.4951 88.3361 32.464C88.8783 32.0392 89.3833 31.5769 89.8949 31.1089C90.1452 30.932 90.3692 30.7205 90.5602 30.4807C90.6677 30.1876 90.732 29.8805 90.751 29.5688C91.0343 28.0658 91.3176 26.569 91.6009 25.066C91.6097 25.0289 91.6066 24.9901 91.5922 24.9548C91.5778 24.9196 91.5528 24.8897 91.5206 24.8694V24.8694ZM84.888 25.436C85.304 25.0452 85.7493 24.6868 86.22 24.364C86.3248 24.292 86.4295 24.2225 86.5343 24.1548C86.5282 24.1609 86.7744 23.9946 86.7377 23.9946C86.8928 24.0136 87.0456 24.0487 87.1935 24.0994C87.6553 24.2041 88.1111 24.3211 88.5672 24.4504C89.3679 24.6664 90.1685 24.8939 90.9695 25.1034C90.4212 25.6456 89.8668 26.1751 89.3246 26.7295C89.2753 26.7788 89.226 26.8343 89.1771 26.8836C88.3455 26.7544 87.5139 26.6064 86.6931 26.4217C86.2679 26.3292 85.8427 26.2244 85.4179 26.1136C85.2084 26.0581 85.005 26.0027 84.7959 25.9411C84.7278 25.9228 84.568 25.8918 84.4632 25.8547C84.5889 25.6999 84.7314 25.5595 84.888 25.436V25.436ZM90.4136 29.0828C90.3521 29.4029 90.2966 29.7172 90.2336 30.0376C90.229 30.1173 90.206 30.1949 90.1665 30.2643C90.1269 30.3338 90.072 30.3931 90.0058 30.4379C89.8762 30.5549 89.7469 30.6719 89.6238 30.7889C89.2912 31.097 88.9585 31.4048 88.6133 31.6946C89.0189 30.2189 89.3053 28.713 89.4697 27.1914C90.0241 26.6924 90.5537 26.169 91.0652 25.6207C90.8431 26.7788 90.6336 27.9308 90.4118 29.0828H90.4136Z" fill="#FF74C7"/>
<path d="M32.0648 16.4548C31.4118 14.8287 30.7649 13.1961 30.186 11.5455C30.186 11.539 30.186 11.539 30.1799 11.539V11.5268C30.1057 11.2748 29.7792 11.1081 29.5823 10.9724C29.3303 10.7924 29.0646 10.6214 28.8 10.4612C28.5101 10.2886 28.2144 10.1284 27.913 9.98059C27.674 9.81565 27.4033 9.70236 27.1181 9.64795C26.9758 9.67593 26.8387 9.72585 26.7116 9.79591C26.4236 9.91291 26.1389 10.0299 25.8556 10.1469C24.7896 10.5965 23.7427 11.0955 22.6707 11.539C22.6379 11.5544 22.6089 11.5767 22.5855 11.6044C22.5622 11.632 22.545 11.6644 22.5353 11.6992C22.518 11.7255 22.5072 11.7556 22.504 11.7869C22.5007 11.8183 22.505 11.8499 22.5166 11.8792C23.0155 13.3192 23.521 14.7617 24.0199 16.2032C24.0858 16.509 24.1956 16.8037 24.3461 17.078C24.5689 17.2865 24.82 17.4624 25.092 17.6007C25.6586 17.9888 26.2314 18.3704 26.829 18.7095C26.8541 18.7214 26.8815 18.7276 26.9093 18.7279C26.9396 18.7314 26.9704 18.7293 27 18.7217C28.7362 18.2506 30.4094 17.5721 31.9835 16.7011C32.0211 16.6737 32.0492 16.6352 32.0638 16.591C32.0783 16.5469 32.0787 16.4992 32.0648 16.4548V16.4548ZM26.7368 10.2517C26.8795 10.1772 27.0302 10.1196 27.1861 10.0799C27.0752 10.0738 27.3953 10.2218 27.3892 10.2157C27.5062 10.2646 27.6232 10.3201 27.734 10.3755C28.2471 10.6238 28.7395 10.9127 29.2064 11.2395C29.3846 11.3436 29.5518 11.4654 29.7054 11.6031C29.5979 11.6578 29.4867 11.7051 29.3728 11.7446C29.182 11.831 28.9847 11.917 28.7874 12.0034C28.3871 12.1759 27.9806 12.3422 27.5742 12.4963C26.7916 12.7918 25.997 13.0629 25.1964 13.3153C25.1842 13.303 25.1655 13.2969 25.1532 13.2847C25.1039 13.2487 25.0607 13.2105 25.0114 13.1738C24.4508 12.7486 23.8842 12.3422 23.3194 11.9357C23.2639 11.8925 23.2085 11.8493 23.1531 11.8C23.917 11.4735 24.6683 11.1286 25.4322 10.796C25.8617 10.6091 26.2991 10.4241 26.7361 10.2517H26.7368ZM24.889 16.9477C24.8171 16.9143 24.7541 16.8646 24.7049 16.8025C24.6557 16.7405 24.6217 16.6677 24.6056 16.5902C24.4948 16.2824 24.3896 15.9803 24.2852 15.6725C23.8972 14.5577 23.5091 13.4407 23.121 12.3213C23.6754 12.7587 24.2424 13.1777 24.8274 13.5658C24.8634 13.5964 24.9077 13.6274 24.9444 13.6583C25.3296 15.1354 25.8322 16.5792 26.4474 17.9762C26.0656 17.7362 25.6898 17.4898 25.3202 17.2371C25.1777 17.1385 25.0362 17.0402 24.8883 16.9477H24.889Z" fill="#FF74C7"/>
<path d="M48.8937 21.8941C48.823 21.8688 48.7475 21.8596 48.6728 21.867C48.5981 21.8745 48.526 21.8985 48.4617 21.9373C48.5665 21.7277 48.6651 21.5121 48.7497 21.2893C48.8105 21.1806 48.8479 21.0604 48.8596 20.9364C48.8712 20.8124 48.8569 20.6874 48.8174 20.5693C48.6327 20.206 48.2939 20.2737 48.0106 20.44C48.2014 20.0271 48.3249 19.4975 47.8565 19.4543C47.5572 19.4788 47.2709 19.5878 47.0311 19.7686C46.8997 19.8525 46.7742 19.9451 46.6552 20.0458C46.6797 19.952 46.6672 19.8523 46.6203 19.7675C46.5734 19.6826 46.4957 19.619 46.4032 19.5897C45.9712 19.4173 45.4607 19.8917 45.1587 20.1319C44.1554 20.9676 43.2888 21.9548 42.5901 23.0579C42.2207 23.6001 41.8701 24.1606 41.5245 24.7139C41.141 25.2748 40.8691 25.9042 40.7239 26.5679C40.613 27.1612 40.7225 27.7744 41.0317 28.2927C41.3582 28.841 41.9003 29.3093 42.0911 29.9314C42.178 30.2311 42.2005 30.5457 42.1571 30.8546C42.1136 31.1636 42.0053 31.4598 41.8391 31.7239C41.5542 32.2095 41.2329 32.6728 40.8779 33.1099C40.8479 33.0914 40.8191 33.0708 40.7919 33.0483C40.6933 32.9806 40.6007 33.1408 40.6994 33.2085C41.9234 34.034 43.0649 35.1057 44.5125 35.5309C44.7343 35.5985 45.0914 35.74 45.3131 35.6169C45.394 35.5621 45.4597 35.4878 45.5043 35.4009C45.614 35.2444 45.7376 35.0981 45.8737 34.9639C46.1048 34.7635 46.3153 34.5407 46.5022 34.2986C46.7182 33.9782 46.927 33.6506 47.1549 33.3374C47.6012 32.7843 47.8944 32.1238 48.0052 31.4218C48.1041 30.7421 47.9625 30.0492 47.6049 29.4627C47.3755 29.181 47.1616 28.8871 46.9641 28.5821C46.8617 28.3352 46.8167 28.0683 46.8328 27.8014C46.8488 27.5346 46.9254 27.2749 47.0566 27.0421C47.3893 26.2965 47.8573 25.619 48.2446 24.8983C48.6771 24.1716 48.9735 23.3722 49.1194 22.5392C49.1522 22.3066 49.1522 22.0049 48.8937 21.8941Z" fill="#FFABD0"/>
<path d="M46.5282 19.886C45.6452 20.9553 44.8598 22.1016 44.1814 23.3111C44.1591 23.3534 44.154 23.4028 44.1673 23.4487C44.1806 23.4947 44.2112 23.5338 44.2527 23.5577C44.2941 23.5816 44.3433 23.5885 44.3897 23.5769C44.4362 23.5654 44.4763 23.5363 44.5018 23.4958C45.1617 22.3146 45.9266 21.1951 46.7871 20.151C46.9411 19.966 46.6762 19.7075 46.5282 19.886V19.886Z" fill="#E89589"/>
<path d="M48.056 20.1384C47.6186 20.7177 47.084 21.2044 46.6268 21.771C46.1486 22.3643 45.7756 23.0352 45.5242 23.7546C45.4442 23.9825 45.8014 24.0747 45.8813 23.8529C46.1452 23.1125 46.5442 22.4274 47.0581 21.8326C47.4901 21.3286 47.9758 20.8606 48.3761 20.3235C48.5179 20.1323 48.1961 19.9476 48.056 20.1384V20.1384Z" fill="#E89589"/>
<path d="M48.5424 21.6292C47.6426 22.6169 46.8896 23.7289 46.3065 24.9311C46.2078 25.1471 46.5282 25.3314 46.6269 25.1158C47.1957 23.9412 47.93 22.8542 48.8074 21.888C48.9615 21.708 48.7026 21.4506 48.5424 21.6292V21.6292Z" fill="#E89589"/>
<path d="M70.416 70.92C70.0524 69.6758 69.73 68.4192 69.4487 67.15C69.4433 67.1288 69.4304 67.1101 69.4124 67.0975C69.3944 67.085 69.3725 67.0793 69.3506 67.0816C69.3288 67.0838 69.3084 67.0939 69.2934 67.1099C69.2784 67.1259 69.2696 67.1468 69.2687 67.1688L66.9586 67.1994C66.9611 67.1873 66.9607 67.1747 66.9574 67.1628C66.9541 67.1509 66.9479 67.14 66.9395 67.1309C66.9311 67.1219 66.9206 67.115 66.9089 67.1109C66.8973 67.1068 66.8848 67.1055 66.8725 67.1072C66.3426 67.1626 66.1763 66.4725 66.0532 66.0783C65.936 65.6515 65.7326 65.2532 65.4556 64.908C64.7471 64.0702 63.6754 63.6822 62.6159 63.5158C61.3613 63.3353 60.0951 63.2468 58.8276 63.2509C58.1623 63.2386 57.4956 63.2509 56.8318 63.2757C56.2965 63.2393 55.7591 63.304 55.2478 63.4665C54.9029 63.6328 54.6073 64.0825 54.823 64.4583C54.8466 64.4989 54.8756 64.5362 54.909 64.5692C54.6849 64.5621 54.4606 64.5703 54.2376 64.5937C53.788 64.6297 53.2397 64.6801 52.938 65.0682C52.4945 65.6409 53.3877 65.9368 54.1516 66.0661C53.8494 66.0505 53.5488 66.1186 53.2829 66.263C53.2018 66.3032 53.1296 66.3592 53.0704 66.4277C53.0112 66.4961 52.9662 66.5757 52.9381 66.6617C52.91 66.7478 52.8993 66.8385 52.9066 66.9287C52.914 67.0189 52.9392 67.1068 52.9809 67.1871C53.1969 67.5381 53.671 67.6306 54.0407 67.6861C54.6318 67.7725 55.2233 67.8585 55.8209 67.9449C55.4908 67.9178 55.1628 68.0168 54.9029 68.2221C54.5886 68.5915 54.9389 68.9781 55.291 69.1221C55.5648 69.2165 55.8514 69.2684 56.1409 69.2762C56.5783 69.3068 57.0157 69.3255 57.447 69.3255C57.8844 69.3255 58.3218 69.3068 58.7527 69.2701C58.95 69.2514 59.1487 69.2341 59.3442 69.2085C59.5932 69.1428 59.856 69.1513 60.1002 69.233C60.3991 69.4582 60.6246 69.7669 60.7482 70.12C60.8839 70.3972 61.0071 70.6806 61.1241 70.9639C61.3352 71.53 61.6079 72.0712 61.9373 72.5778C62.2299 73.0191 62.6483 73.3625 63.1383 73.5634C63.8315 73.7873 64.5801 73.7699 65.2623 73.5141C66.1304 73.2121 66.973 72.8413 67.7823 72.4053C68.6571 71.968 69.5195 71.5081 70.3696 71.0254C70.3882 71.0159 70.4031 71.0002 70.4115 70.9809C70.42 70.9617 70.4216 70.9402 70.416 70.92V70.92Z" fill="#FFABD0"/>
<path d="M55.1397 64.5641C56.6366 64.675 58.1889 64.2315 59.6426 64.7304C59.8708 64.8104 59.963 64.4532 59.7413 64.3729C58.2444 63.8617 56.6737 64.3053 55.1397 64.1929C54.9057 64.1746 54.9057 64.5443 55.1397 64.5627V64.5641Z" fill="#E89589"/>
<path d="M54.0925 66.2707C54.9058 66.2519 55.719 66.2275 56.5258 66.2087C57.3451 66.1904 58.1706 66.1472 58.9838 66.2087C59.224 66.2275 59.2178 65.8577 58.9838 65.8394C58.1645 65.7778 57.3451 65.8207 56.5258 65.8394C55.7129 65.8577 54.8996 65.8826 54.0925 65.9009C54.0449 65.903 53.9999 65.9234 53.967 65.9579C53.934 65.9923 53.9156 66.0381 53.9156 66.0858C53.9156 66.1335 53.934 66.1793 53.967 66.2137C53.9999 66.2482 54.0449 66.2686 54.0925 66.2707V66.2707Z" fill="#E89589"/>
<path d="M55.6696 68.063C57.0434 67.8967 58.4229 67.7858 59.8096 67.7182C60.044 67.7056 60.0501 67.3362 59.8096 67.3484C58.4301 67.4161 57.0501 67.5311 55.6696 67.6933C55.4356 67.7182 55.4356 68.0875 55.6696 68.063Z" fill="#E89589"/>
<path d="M63.2034 27.0623C63.0354 26.4568 62.7867 25.8767 62.464 25.3375C62.1375 24.7338 61.731 24.1794 61.4106 23.5696C60.4746 21.7696 55.4346 22.6148 51.6226 23.1937C51.1419 23.264 50.6807 23.4317 50.2672 23.6866C49.8208 23.9428 49.4703 24.3378 49.2688 24.8115C49.0674 25.2852 49.0261 25.8117 49.1512 26.311C49.3561 27.0903 49.605 27.8573 49.8967 28.6085C50.1185 29.169 50.3215 29.7356 50.9191 29.9822C51.5545 30.2277 52.2349 30.3347 52.915 30.2962C53.3772 30.2717 54.0425 30.1914 54.3071 29.7479C54.345 29.6629 54.374 29.5742 54.3935 29.4833C54.4295 29.3908 54.301 29.1568 54.6095 29.2428C54.7204 29.2738 54.7819 29.5016 54.8125 29.5942C54.8923 29.8715 55.0507 30.1197 55.2687 30.3088C55.7921 30.7336 56.5312 30.6475 57.1597 30.6475C57.9787 30.6414 58.8042 30.6227 59.6175 30.555C60.3515 30.5376 61.0802 30.4258 61.7857 30.2224C62.0593 30.1082 62.305 29.9362 62.5059 29.7182C62.7069 29.5002 62.8584 29.2414 62.95 28.9595C63.2381 28.3714 63.3271 27.7054 63.2034 27.0623V27.0623Z" fill="black"/>
<path d="M61.4786 24.1611C61.2445 24.1733 61.0117 24.2041 60.7824 24.2533C60.7634 24.2586 60.7466 24.2698 60.7344 24.2854C60.7222 24.3009 60.7153 24.3199 60.7147 24.3397C60.7208 24.506 60.7147 24.6662 60.7209 24.8325C60.7106 24.9618 60.7127 25.0917 60.727 25.2206C60.7515 25.3254 60.7885 25.3498 60.8872 25.3747C61.0793 25.3992 61.2739 25.3992 61.466 25.3747C61.5524 25.3686 61.6262 25.3747 61.6756 25.2883C61.7116 25.1496 61.72 25.0051 61.7 24.8631C61.7 24.7155 61.6939 24.5614 61.6817 24.4135C61.6909 24.318 61.667 24.2223 61.614 24.1424C61.5964 24.1262 61.5733 24.1172 61.5494 24.1172C61.5254 24.1172 61.5024 24.1262 61.4848 24.1424C61.4848 24.1489 61.4786 24.1489 61.4786 24.1611C61.4625 24.1742 61.4518 24.1926 61.4483 24.213C61.4449 24.2334 61.449 24.2544 61.4599 24.272C61.4606 24.2766 61.4627 24.281 61.466 24.2842C61.5154 24.3951 61.6756 24.2965 61.6262 24.1917C61.6256 24.1871 61.6235 24.1828 61.6201 24.1795C61.613 24.2161 61.6089 24.2531 61.6079 24.2904L61.6201 24.2781H61.4909C61.5463 24.3336 61.5215 24.6478 61.5215 24.74C61.537 24.9081 61.5308 25.0775 61.5031 25.244L61.5647 25.1824C61.4248 25.2104 61.2814 25.2167 61.1395 25.2012C61.0718 25.2012 60.9548 25.2195 60.9055 25.1518C60.8872 25.1209 60.9055 25.0348 60.9055 25.0039C60.9055 24.7879 60.9055 24.5665 60.8994 24.3508C60.8783 24.3808 60.8558 24.4096 60.8317 24.4372C61.0449 24.3902 61.2617 24.3613 61.4797 24.3508C61.5971 24.3386 61.6032 24.1539 61.4797 24.16L61.4786 24.1611Z" fill="black"/>
<path d="M49.2818 25.1527C49.5338 25.1401 49.7858 25.1279 50.0332 25.1218L49.941 25.0293C49.9431 25.3121 49.9204 25.5946 49.873 25.8735C49.903 25.8524 49.9318 25.8297 49.9594 25.8054L49.2016 25.8979C49.2325 25.9339 49.2631 25.9782 49.288 26.0149C49.3495 25.6762 49.2325 25.3558 49.4233 25.0357C49.435 25.0145 49.4378 24.9896 49.4313 24.9663C49.4248 24.943 49.4094 24.9232 49.3885 24.9111C49.3675 24.899 49.3427 24.8956 49.3193 24.9016C49.2958 24.9076 49.2757 24.9225 49.2631 24.9432C49.1842 25.0705 49.1339 25.2133 49.1155 25.3619C49.0907 25.5653 49.14 25.7626 49.1033 25.9595C49.0907 26.0088 49.1278 26.0826 49.1893 26.0765L49.9453 25.9843C49.9813 25.9782 50.0252 25.9595 50.0314 25.9163C50.0808 25.6212 50.1056 25.3224 50.1055 25.0231C50.1049 24.9988 50.0949 24.9757 50.0777 24.9586C50.0605 24.9414 50.0373 24.9315 50.013 24.931C49.761 24.9432 49.509 24.9555 49.2613 24.9616C49.163 24.9738 49.163 25.1589 49.28 25.1527H49.2818Z" fill="black"/>
<path d="M61.6018 24.038C61.4996 23.6197 61.2708 23.2431 60.9466 22.9596C60.6225 22.6762 60.2188 22.4996 59.7906 22.454C59.1131 22.4191 58.4341 22.4274 57.7577 22.4789C57.0308 22.5095 56.3101 22.5588 55.5833 22.6265C54.1667 22.7561 52.762 22.9591 51.3637 23.2179L51.3277 23.2363C50.9301 23.3041 50.551 23.4542 50.2147 23.6769C49.8784 23.8997 49.5923 24.1901 49.3747 24.5298C48.9377 25.3124 48.8945 26.4018 49.5349 27.0858C50.1203 27.714 51.0257 27.8058 51.8267 27.8493C52.8674 27.9109 53.9086 27.8432 54.9497 27.8133C56.1581 27.8092 57.3652 27.7371 58.5655 27.5973C59.4526 27.4742 60.5923 27.3093 61.2511 26.63C61.8973 25.9658 61.8664 24.8631 61.6018 24.038Z" fill="#36345B"/>
<path d="M50.2489 24.6352C49.9621 24.6159 49.6739 24.6366 49.3928 24.6967C49.379 24.6967 49.3653 24.6994 49.3526 24.7047C49.3399 24.71 49.3283 24.7178 49.3187 24.7277C49.3125 24.7338 49.3003 24.7338 49.2942 24.7399C49.1955 24.8015 49.1401 24.9804 49.1034 25.0726C49.0195 25.2946 48.9838 25.5319 48.9986 25.7688C49.0047 25.812 49.0346 25.8675 49.0908 25.861C49.3125 25.8365 49.5404 25.812 49.7622 25.789C49.8856 25.7767 50.1074 25.8012 50.2118 25.717C50.3166 25.6367 50.2921 25.4211 50.2982 25.3102C50.333 25.1087 50.3371 24.9031 50.3105 24.7003C50.307 24.685 50.2994 24.6708 50.2886 24.6594C50.2777 24.6479 50.264 24.6395 50.2489 24.6352Z" fill="black"/>
<path d="M61.9157 25.0725C61.8605 24.7126 61.7676 24.3595 61.6385 24.0191C61.5956 23.8776 61.5956 23.8776 61.5402 23.8654C61.2108 23.8087 60.8757 23.7921 60.5423 23.8161C60.518 23.8166 60.4948 23.8265 60.4776 23.8436C60.4604 23.8608 60.4504 23.8839 60.4498 23.9082C60.4323 24.299 60.4488 24.6906 60.4991 25.0786C60.4997 25.1029 60.5097 25.1261 60.5269 25.1433C60.5441 25.1605 60.5673 25.1705 60.5916 25.1711L61.8296 25.1895C61.8437 25.1894 61.8577 25.1861 61.8703 25.1797C61.8828 25.1733 61.8938 25.164 61.9021 25.1526C61.9105 25.1413 61.9161 25.1281 61.9184 25.1142C61.9208 25.1002 61.9198 25.086 61.9157 25.0725V25.0725Z" fill="black"/>
<path d="M94.0032 53.2544C93.6807 51.057 92.8772 48.9578 91.6499 47.1067C89.8265 44.3102 87.3256 42.0433 84.6893 40.0291C82.0174 37.9612 79.0949 36.2392 75.9913 34.9038C72.7971 33.5332 69.3848 32.7409 65.9135 32.5638C64.1222 32.4797 62.327 32.5933 60.5606 32.9026C59.692 33.0566 58.842 33.3032 57.9686 33.4447C57.4204 33.5311 56.866 33.574 56.3126 33.6172C54.7542 33.7403 53.1774 33.6848 51.6251 33.876C50.7111 33.9751 49.8142 34.1946 48.9578 34.529C48.5457 34.6929 48.1498 34.8949 47.7752 35.1324C47.5348 35.2804 47.2885 35.5453 47.0236 35.6746C47.1344 35.1572 47.2514 34.646 47.3623 34.1348C47.3658 34.1235 47.3669 34.1116 47.3656 34.0999C47.3644 34.0881 47.3608 34.0767 47.355 34.0663C47.3493 34.056 47.3415 34.0469 47.3322 34.0396C47.3229 34.0323 47.3122 34.027 47.3008 34.024C46.2332 33.7149 45.1878 33.3341 44.1716 32.8842C43.1694 32.4799 42.2183 31.9588 41.3381 31.3319C41.3165 31.32 41.2912 31.3166 41.2673 31.3223C41.2433 31.328 41.2223 31.3425 41.2085 31.3628C41.1469 31.4982 40.95 31.5846 40.8265 31.6706C40.6541 31.7938 40.4816 31.9108 40.3092 32.0342C39.9643 32.2805 39.6252 32.5332 39.2868 32.7856C38.6521 33.2662 38.03 33.7651 37.4202 34.2763C36.1816 35.316 34.9986 36.4201 33.876 37.584C30.5004 41.0617 27.6772 45.0357 25.5045 49.3679C24.7654 50.7641 24.1804 52.2367 23.76 53.7595C23.4097 55.2518 23.2298 56.7789 23.2239 58.3117C23.1792 59.8408 23.3985 61.3661 23.8719 62.8207C24.3114 64.2082 25.0444 65.4848 26.0213 66.5637C26.9981 67.6426 28.1958 68.4985 29.5329 69.0732C32.0613 70.154 34.8925 70.2959 37.5163 69.4735C38.7674 69.029 39.94 68.3886 40.9903 67.5763C42.0113 66.7772 42.9372 65.8637 43.7501 64.8536C44.4956 64.0098 45.099 63.1472 46.0602 62.5252C46.3415 62.3288 46.6358 62.1519 46.9411 61.9956C47.2839 61.8645 47.6388 61.7675 48.0006 61.7058C48.8072 61.515 49.6203 61.361 50.4399 61.2439C53.5758 60.8263 56.7462 60.7313 59.9015 60.9606C61.6286 61.0682 63.3388 61.3636 65.002 61.8415C65.7252 62.031 66.4136 62.3348 67.041 62.7415C67.2881 62.9106 67.5173 63.1046 67.725 63.3204C67.8175 63.419 67.905 63.5177 67.99 63.6224C68.0022 63.6347 68.17 63.8258 68.1624 63.8626C68.0657 63.9502 67.9627 64.0305 67.8542 64.103C67.3369 64.5034 66.8074 64.8727 66.2652 65.2302C66.2482 65.2412 66.235 65.2571 66.2273 65.2758C66.2196 65.2946 66.2177 65.3152 66.222 65.335C66.3001 65.711 66.4031 66.0814 66.5302 66.4438C66.6716 66.9179 66.8257 67.3924 66.9737 67.8604C67.2692 68.7784 67.5709 69.6899 67.8668 70.6018C68.1502 71.4762 68.4335 72.3571 68.6984 73.238C68.8032 73.5955 68.7784 74.0452 69.1974 74.102C69.5921 74.135 69.9894 74.1185 70.38 74.0527C71.033 73.9786 71.6857 73.8677 72.3326 73.7446C74.2822 73.3619 76.2059 72.8579 78.0926 72.2354C81.3636 71.1576 84.542 69.7154 87.2726 67.5846C89.8661 65.601 91.8753 62.9533 93.0877 59.9216C93.9514 57.8123 94.2664 55.5185 94.0032 53.2544V53.2544Z" fill="#FF5271"/>
<path d="M46.5839 36.3206C45.9247 39.0494 45.321 41.7905 44.5636 44.4887C43.9243 46.7735 43.1002 49.0025 42.0994 51.1537C41.3664 52.7244 40.5597 54.2583 39.7281 55.7736C39.5553 56.0879 40.0359 56.3651 40.2083 56.0508C41.6003 53.6012 42.8189 51.0571 43.8551 48.4371C44.6804 46.1819 45.3657 43.8778 45.9071 41.5381C46.3197 39.8504 46.7139 38.1563 47.1207 36.4686C47.2006 36.1233 46.671 35.9757 46.5846 36.3206H46.5839Z" fill="#BBE7FF"/>
<path d="M81.6584 53.8766C80.7281 54.4187 79.8104 54.9772 78.9051 55.552C77.9383 54.6785 76.8512 53.9483 75.677 53.3837C75.357 53.23 75.0733 53.7102 75.3937 53.8643C76.4879 54.3913 77.5052 55.0648 78.4177 55.8663C75.9721 57.4368 73.6025 59.1168 71.3091 60.9063C70.3789 61.633 69.463 62.3763 68.5616 63.1361C68.2905 63.3762 68.6847 63.7643 68.9558 63.5364C72.1091 60.8739 75.4368 58.425 78.9166 56.2061C79.9145 55.5718 80.9206 54.9558 81.9349 54.3582C81.9987 54.3216 82.0454 54.261 82.0647 54.1899C82.0839 54.1189 82.0741 54.043 82.0375 53.9792C82.0008 53.9153 81.9403 53.8686 81.8692 53.8493C81.7981 53.8301 81.7223 53.8399 81.6584 53.8766V53.8766Z" fill="#BBE7FF"/>
<path d="M53.563 93.972C54.1782 94.7556 54.5737 95.6889 54.7089 96.6759C54.7578 97.0273 55.3122 97.0273 55.2633 96.6759C55.1275 95.5907 54.7041 94.5615 54.0371 93.6948C53.8279 93.4176 53.3473 93.6887 53.563 93.972V93.972Z" fill="#FB0E39"/>
<path opacity="0.72" d="M29.8408 38.5877C29.8102 37.134 29.7731 35.6738 29.7116 34.2202C29.7089 34.1879 29.698 34.1568 29.68 34.1299C29.662 34.103 29.6374 34.0811 29.6086 34.0663C29.5798 34.0515 29.5477 34.0442 29.5153 34.0453C29.483 34.0463 29.4514 34.0556 29.4236 34.0722C29.3941 34.0472 29.3574 34.0321 29.3188 34.0294C22.3527 33.3817 15.3483 33.2477 8.36248 33.6287C7.39048 33.6841 6.41596 33.746 5.44288 33.8198C4.53133 33.8493 3.62226 33.9316 2.7202 34.0661C2.68091 34.0769 2.64631 34.1005 2.62177 34.133C2.59723 34.1656 2.58412 34.2053 2.58448 34.2461C2.5168 39.4387 2.53732 44.6315 2.64604 49.8243C2.677 51.1859 2.65864 52.5603 2.75692 53.9147C2.75711 53.9636 2.77668 54.0106 2.81135 54.0452C2.84602 54.0798 2.89298 54.0993 2.94196 54.0993C9.95188 53.8469 16.964 53.7853 23.9782 53.9147C25.9614 53.9507 27.945 54.0133 29.9287 54.081C29.9531 54.0816 29.9774 54.0773 30.0001 54.0682C30.0228 54.0592 30.0434 54.0456 30.0607 54.0283C30.0779 54.011 30.0915 53.9904 30.1006 53.9677C30.1096 53.945 30.114 53.9207 30.1133 53.8963C29.9089 48.7947 29.9394 43.6882 29.8408 38.5877Z" fill="#FEDFFD"/>
<path opacity="0.73" d="M46.8669 66.412C46.8363 64.9583 46.7992 63.4985 46.7377 62.0445C46.734 62.0127 46.7226 61.9823 46.7044 61.9559C46.6861 61.9296 46.6617 61.9082 46.6332 61.8936C46.6047 61.879 46.573 61.8716 46.541 61.8722C46.509 61.8728 46.4776 61.8813 46.4497 61.8969C46.4218 61.8692 46.3842 61.8537 46.3449 61.8537C39.3783 61.2054 32.3734 61.0711 25.3871 61.4519C24.4151 61.5074 23.4406 61.5689 22.4675 61.6427C21.556 61.6723 20.6469 61.7547 19.7449 61.8893C19.7055 61.9001 19.6708 61.9236 19.6463 61.9562C19.6217 61.9887 19.6087 62.0285 19.6091 62.0693C19.5415 67.262 19.562 72.4548 19.6707 77.648C19.7017 79.0091 19.6829 80.384 19.7816 81.7379C19.7818 81.7869 19.8013 81.8338 19.8359 81.8684C19.8704 81.9031 19.9173 81.9227 19.9663 81.923C26.9767 81.6702 33.9889 81.6086 41.0029 81.7379C42.9861 81.7739 44.9697 81.8366 46.9533 81.9042C46.9777 81.9049 47.002 81.9006 47.0247 81.8915C47.0474 81.8824 47.068 81.8689 47.0853 81.8516C47.1026 81.8343 47.1162 81.8137 47.1252 81.791C47.1343 81.7683 47.1386 81.744 47.138 81.7196C46.9346 76.6191 46.9655 71.5125 46.8669 66.412Z" fill="#FEDFFD"/>
<path opacity="0.72" d="M43.3314 69.5229C43.3004 68.0692 43.2633 66.6094 43.2018 65.1554C43.1993 65.123 43.1886 65.0918 43.1706 65.0647C43.1527 65.0377 43.128 65.0157 43.0991 65.0009C43.0702 64.9861 43.038 64.9789 43.0056 64.9801C42.9731 64.9813 42.9415 64.9909 42.9138 65.0078C42.8844 64.9825 42.8477 64.9673 42.809 64.9646C35.8426 64.3168 28.838 64.183 21.852 64.5643C20.88 64.6197 19.9055 64.6813 18.9324 64.7551C18.0208 64.7847 17.1117 64.867 16.2097 65.0017C16.1704 65.0124 16.1357 65.0359 16.1111 65.0685C16.0866 65.1011 16.0735 65.1409 16.074 65.1817C16.0063 70.3745 16.0268 75.5674 16.1355 80.7603C16.1665 82.1215 16.1481 83.4963 16.2464 84.8503C16.2466 84.8993 16.2662 84.9462 16.3008 84.9809C16.3355 85.0156 16.3824 85.0351 16.4315 85.0353C23.4414 84.7826 30.4535 84.7209 37.4677 84.8503C39.4513 84.8863 41.4345 84.9489 43.4181 85.0166C43.4426 85.0172 43.4669 85.0129 43.4896 85.0038C43.5123 84.9948 43.5329 84.9812 43.5502 84.9639C43.5674 84.9466 43.581 84.926 43.5901 84.9033C43.5991 84.8806 43.6035 84.8563 43.6028 84.8319C43.3991 79.73 43.4297 74.6234 43.3314 69.5229Z" fill="#FEDFFD"/>
<path d="M53.1932 27.0871C54.2127 26.9577 55.2396 26.8959 56.2672 26.902C56.3162 26.902 56.3632 26.8826 56.3978 26.848C56.4325 26.8133 56.4519 26.7663 56.4519 26.7174C56.4519 26.6684 56.4325 26.6214 56.3978 26.5868C56.3632 26.5521 56.3162 26.5327 56.2672 26.5327C55.2396 26.5262 54.2127 26.5879 53.1932 26.7174C52.9592 26.7418 52.9592 27.1116 53.1932 27.0871V27.0871Z" fill="black"/>
<path d="M94.1014 23.656C93.1373 22.1351 91.6838 20.9879 89.9805 20.4034C89.5671 20.266 89.1425 20.1651 88.7115 20.1017C88.6744 20.0862 88.6347 20.0778 88.5945 20.0769C85.7178 20.083 82.638 20.7915 80.8639 23.237C79.4718 25.1529 79.1391 27.7953 79.484 30.0806C79.736 31.7686 80.488 33.407 81.8679 34.4542C83.4634 35.6678 85.6378 35.9633 87.5843 36.0497C88.6462 36.1292 89.7128 35.9819 90.7135 35.6177C91.5241 35.2933 92.2614 34.8095 92.8818 34.195C94.1693 32.8898 94.9974 31.2012 95.2412 29.384C95.5454 27.4001 95.1419 25.3724 94.1014 23.656V23.656ZM88.7857 35.4961C87.7746 35.5516 86.7605 35.4959 85.7617 35.3297C84.8361 35.2163 83.934 34.9586 83.0883 34.5658C82.3555 34.1856 81.7155 33.6484 81.214 32.9926C80.7125 32.3367 80.3619 31.5783 80.1871 30.7714C79.651 28.6276 79.8544 26.0345 80.9816 24.0941C82.2812 21.8578 84.7638 20.9092 87.2402 20.6997C87.696 20.6637 88.1456 20.6443 88.6014 20.6443H88.6075C90.2647 20.9037 91.7803 21.7309 92.8951 22.9843C94.1169 24.3802 94.7872 26.1742 94.78 28.0293C94.8038 31.5469 92.5369 35.212 88.7857 35.4961Z" fill="white"/>
<path d="M20.5887 40.4788C19.6909 39.2645 18.3531 38.4503 16.862 38.2108C16.8377 38.2055 16.8127 38.2034 16.7878 38.2047C14.6689 38.2108 12.4081 38.7343 11.0962 40.5447C10.0796 41.9487 9.83948 43.8895 10.0857 45.5653C10.2317 46.8228 10.8587 47.975 11.8353 48.7804C13.0118 49.6804 14.6257 49.908 16.0671 49.9684C16.7686 50.0267 17.4744 49.9367 18.1388 49.7043C18.8032 49.4719 19.4112 49.1023 19.9234 48.6195C20.9641 47.5513 21.5999 46.1538 21.7213 44.6674C21.8427 43.1811 21.4422 41.6989 20.5887 40.4759V40.4788ZM16.812 49.4047C16.0716 49.4383 15.3298 49.3887 14.6005 49.2567C13.9392 49.1665 13.2967 48.9711 12.6972 48.6778C12.1813 48.3876 11.7353 47.9879 11.3905 47.5068C11.0457 47.0258 10.8104 46.475 10.7013 45.8932C10.3243 44.3067 10.5413 42.6371 11.3112 41.1996C12.4272 39.3023 14.6743 38.7663 16.7378 38.7541C18.0019 38.9669 19.1473 39.6272 19.965 40.6145C20.7827 41.6018 21.2181 42.8501 21.1917 44.1318C21.1737 46.6694 19.512 49.2506 16.812 49.4047Z" fill="white"/>
<path d="M16.5294 40.2139H16.5168C16.4985 40.2139 16.4808 40.2078 16.4614 40.2078C15.0509 40.2139 13.5724 40.5714 12.7102 41.7723C12.0705 42.7756 11.8451 43.988 12.0816 45.1542C12.1408 45.5665 12.2806 45.9631 12.493 46.3214C12.7055 46.6797 12.9866 46.9925 13.32 47.2422C14.0901 47.7904 15.1308 47.9262 16.0488 47.9568C16.5125 47.9876 16.9774 47.9207 17.4135 47.7605C17.8497 47.6002 18.2473 47.3502 18.5807 47.0265C19.2004 46.3875 19.5941 45.5633 19.7017 44.6797C19.98 42.61 18.6545 40.5361 16.5294 40.2139ZM16.3876 47.4027C15.529 47.4603 14.6696 47.3035 13.8867 46.9466C13.5687 46.7669 13.2938 46.5201 13.081 46.2232C12.8683 45.9264 12.7228 45.5868 12.6547 45.228C12.4171 44.2328 12.553 43.1851 13.0367 42.2835C13.7387 41.0887 15.1607 40.7744 16.4567 40.7683H16.4754C17.2492 40.9129 17.9466 41.327 18.444 41.9371C18.9413 42.5472 19.2063 43.3138 19.192 44.1008C19.1841 45.7269 18.1123 47.3401 16.3876 47.4027Z" fill="white"/>
<path d="M15.5127 42.0433C15.7573 41.995 16.0093 41.9992 16.2521 42.0556C16.597 42.1297 16.7511 41.5998 16.3997 41.5199C16.0594 41.4448 15.7072 41.4405 15.3651 41.5073C15.0199 41.5753 15.1678 42.111 15.5127 42.0433V42.0433Z" fill="#FF74C7"/>
<path d="M15.5127 43.0783C15.7573 43.03 16.0093 43.0341 16.2521 43.0905C16.597 43.1625 16.7511 42.6348 16.3997 42.5545C16.0593 42.4797 15.7072 42.4755 15.3651 42.5423C15.0137 42.6099 15.1617 43.146 15.5127 43.0783V43.0783Z" fill="#FF74C7"/>
<path d="M15.5127 46.404C15.7573 46.3556 16.0093 46.3598 16.2521 46.4162C16.597 46.4882 16.7511 45.9605 16.3997 45.8802C16.0593 45.8054 15.7072 45.8012 15.3651 45.8679C15.0137 45.9399 15.1617 46.4716 15.5127 46.404V46.404Z" fill="#FF74C7"/>
<path d="M15.5127 45.2589C15.7573 45.2106 16.0093 45.2148 16.2521 45.2712C16.597 45.3453 16.7511 44.8154 16.3997 44.7355C16.0594 44.6604 15.7072 44.6561 15.3651 44.7229C15.0137 44.7909 15.1617 45.3266 15.5127 45.2589V45.2589Z" fill="#FF74C7"/>
<path d="M15.5127 44.113C15.7573 44.0648 16.0093 44.0691 16.2521 44.1256C16.597 44.1976 16.7511 43.6695 16.3997 43.5895C16.0594 43.5146 15.7072 43.5104 15.3651 43.5773C15.0137 43.645 15.1617 44.1745 15.5127 44.113V44.113Z" fill="#FF74C7"/>
<path d="M88.4037 70.344C87.9421 71.0243 87.6448 71.8024 87.535 72.6171C87.4674 73.1099 88.2248 73.3255 88.2928 72.8266C88.3916 72.0792 88.6614 71.3647 89.0812 70.7386C89.3645 70.3199 88.6809 69.9318 88.4037 70.3444V70.344Z" fill="#BBE7FF"/>
<path d="M87.3626 74.7281C87.3236 75.5274 87.3463 76.3285 87.4303 77.1243C87.4857 77.6232 88.268 77.6232 88.2126 77.1243C88.1254 76.3287 88.1028 75.5273 88.1449 74.7281C88.1759 74.2241 87.3932 74.2241 87.3626 74.7281Z" fill="#BBE7FF"/>
<path d="M88.128 79.3801C88.5212 80.0567 89.0202 80.666 89.6061 81.1848C89.9819 81.5174 90.5421 80.963 90.1605 80.6304C89.6224 80.1596 89.1647 79.6041 88.8055 78.9859C88.753 78.896 88.6669 78.8307 88.5662 78.8043C88.4656 78.7779 88.3586 78.7926 88.2687 78.8451C88.1789 78.8976 88.1136 78.9837 88.0872 79.0844C88.0608 79.185 88.0754 79.292 88.128 79.3819V79.3801Z" fill="#BBE7FF"/>
<path d="M91.6066 82.508C92.2165 82.6437 92.8202 82.779 93.43 82.9209C93.9229 83.0318 94.1324 82.2729 93.6396 82.1631C93.0297 82.0277 92.426 81.892 91.8161 81.7505C91.3233 81.6397 91.1141 82.3985 91.6066 82.5065V82.508Z" fill="#BBE7FF"/>
<path d="M96.313 83.2165C97.0459 83.4753 97.699 83.0934 98.4197 83.0365C98.9187 83.0005 98.9237 82.2171 98.4197 82.2542C97.7976 82.297 97.1323 82.679 96.5164 82.4634C96.0419 82.2909 95.8389 83.0487 96.313 83.215V83.2165Z" fill="#BBE7FF"/>
<path d="M100.81 81.7995C101.419 81.3696 101.921 80.8047 102.276 80.1489C102.51 79.7054 101.839 79.3047 101.598 79.7547C101.315 80.2959 100.91 80.7642 100.415 81.1227C100.009 81.4107 100.397 82.09 100.81 81.8002V81.7995Z" fill="#BBE7FF"/>
<path d="M103.335 78.1099C103.597 77.5081 103.777 76.8742 103.871 76.225C103.939 75.7321 103.187 75.5165 103.115 76.0154C103.039 76.6006 102.883 77.1726 102.653 77.7157C102.468 78.1715 103.14 78.5718 103.337 78.1099H103.335Z" fill="#BBE7FF"/>
<path d="M102.744 72.2211C102.942 72.8188 103.038 73.4456 103.027 74.0751C103.03 74.1768 103.073 74.2733 103.146 74.3441C103.219 74.4149 103.317 74.4546 103.418 74.4546C103.52 74.4546 103.618 74.4149 103.691 74.3441C103.764 74.2733 103.807 74.1768 103.81 74.0751C103.822 73.3745 103.716 72.6767 103.496 72.0116C103.342 71.531 102.584 71.7405 102.744 72.2211V72.2211Z" fill="#BBE7FF"/>
<path d="M100.692 69.1103C101.146 69.3828 101.507 69.7866 101.727 70.2684C101.943 70.7242 102.62 70.3239 102.405 69.8742C102.118 69.2739 101.659 68.7726 101.086 68.4342C100.996 68.3817 100.889 68.3671 100.789 68.3934C100.688 68.4198 100.602 68.4851 100.549 68.575C100.497 68.6648 100.482 68.7719 100.509 68.8725C100.535 68.9732 100.6 69.0592 100.69 69.1118L100.692 69.1103Z" fill="#BBE7FF"/>
<path d="M90.3625 69.1536C90.8531 68.6799 91.4613 68.3459 92.1244 68.1863C92.2209 68.1551 92.3016 68.0878 92.3497 67.9986C92.3978 67.9093 92.4096 67.8048 92.3826 67.7071C92.3555 67.6093 92.2918 67.5258 92.2047 67.4739C92.1175 67.422 92.0137 67.4057 91.9149 67.4285C91.1213 67.6252 90.3942 68.0292 89.8081 68.5992C89.4445 68.9502 89.9989 69.5046 90.3625 69.1536Z" fill="#BBE7FF"/>
<path d="M93.9845 67.5948C94.673 67.4005 95.3935 67.3462 96.1034 67.435C96.6024 67.4904 96.6024 66.7078 96.1034 66.6523C95.3222 66.5615 94.5308 66.6265 93.7749 66.8435C93.6786 66.8741 93.5979 66.9409 93.5498 67.0298C93.5017 67.1187 93.49 67.2229 93.5171 67.3202C93.5443 67.4176 93.6082 67.5007 93.6954 67.5519C93.7825 67.6031 93.8862 67.6185 93.9845 67.5948V67.5948Z" fill="#BBE7FF"/>
<path d="M98.0932 67.4965C98.5586 67.6319 98.9936 67.8557 99.3744 68.1556C99.4492 68.2267 99.5484 68.2663 99.6516 68.2663C99.7548 68.2663 99.854 68.2267 99.9288 68.1556C100.001 68.0816 100.042 67.9821 100.042 67.8784C100.042 67.7748 100.001 67.6753 99.9288 67.6012C99.4479 67.2123 98.8954 66.9213 98.3027 66.7448C98.2037 66.7193 98.0987 66.7336 98.0102 66.7846C97.9217 66.8357 97.8567 66.9194 97.8293 67.0179C97.8018 67.1163 97.8141 67.2216 97.8634 67.3111C97.9128 67.4006 97.9953 67.4671 98.0932 67.4965V67.4965Z" fill="#BBE7FF"/>
<path d="M27.0565 67.8536C26.6861 68.4065 26.446 69.0362 26.3545 69.6954C26.2991 70.0961 26.9089 70.2685 26.9644 69.8617C27.0427 69.2568 27.2621 68.6787 27.6048 68.174C27.8327 67.8292 27.2844 67.5149 27.0565 67.8536V67.8536Z" fill="white"/>
<path d="M26.2188 71.4016C26.1881 72.0489 26.2067 72.6976 26.2742 73.342C26.3174 73.7423 26.9518 73.7485 26.9089 73.342C26.841 72.6976 26.8225 72.0489 26.8535 71.4016C26.8718 70.9891 26.2372 70.9952 26.2188 71.4016Z" fill="white"/>
<path d="M26.8348 75.1655C27.153 75.7143 27.5588 76.2074 28.0361 76.6253C28.3439 76.8963 28.7939 76.4453 28.4857 76.1756C28.0498 75.7946 27.6793 75.3446 27.3892 74.8436C27.345 74.7735 27.2754 74.7233 27.1949 74.7034C27.1145 74.6836 27.0295 74.6956 26.9578 74.7371C26.8861 74.7785 26.8332 74.8462 26.8103 74.9258C26.7873 75.0054 26.7961 75.0907 26.8348 75.164V75.1655Z" fill="white"/>
<path d="M29.65 77.6974L31.1285 78.0297C31.5288 78.1222 31.6951 77.5062 31.2948 77.4202C30.8021 77.3091 30.3092 77.1982 29.8163 77.0876C29.4221 76.995 29.2558 77.611 29.65 77.6974V77.6974Z" fill="white"/>
<path d="M33.4631 78.2702C34.0603 78.4797 34.5841 78.1654 35.1691 78.1222C35.5759 78.0916 35.5759 77.457 35.1691 77.4879C34.6651 77.5239 34.1284 77.8328 33.6294 77.6542C33.2413 77.5246 33.0811 78.1345 33.4631 78.2702Z" fill="white"/>
<path d="M37.1034 77.1242C37.5967 76.7757 38.0032 76.3183 38.2914 75.7875C38.4822 75.4304 37.9339 75.1035 37.7431 75.4671C37.513 75.9061 37.1841 76.2857 36.7823 76.5759C36.4496 76.8103 36.7697 77.3582 37.1023 77.1242H37.1034Z" fill="white"/>
<path d="M39.1485 74.1365C39.3621 73.6492 39.5092 73.1355 39.5859 72.609C39.6414 72.2087 39.0315 72.0359 38.9761 72.4427C38.9127 72.9147 38.7884 73.3764 38.6064 73.8165C38.4401 74.1858 38.9883 74.5123 39.1485 74.1365V74.1365Z" fill="white"/>
<path d="M38.668 69.3686C38.8296 69.853 38.9068 70.3615 38.8962 70.872C38.9001 70.9535 38.9352 71.0304 38.9943 71.0867C39.0533 71.143 39.1318 71.1744 39.2134 71.1744C39.295 71.1744 39.3735 71.143 39.4325 71.0867C39.4916 71.0304 39.5267 70.9535 39.5306 70.872C39.5394 70.3053 39.4543 69.7411 39.2786 69.2023C39.1554 68.8142 38.5395 68.9806 38.6687 69.3686H38.668Z" fill="white"/>
<path d="M37.0113 66.8496C37.3783 67.0702 37.6703 67.3964 37.849 67.7856C38.0215 68.1553 38.569 67.8349 38.3973 67.4652C38.1638 66.981 37.7931 66.5761 37.3313 66.301C37.2588 66.2609 37.1734 66.2509 37.0935 66.2729C37.0137 66.295 36.9456 66.3474 36.9038 66.4189C36.862 66.4905 36.8499 66.5756 36.8699 66.656C36.89 66.7364 36.9408 66.8057 37.0113 66.8492V66.8496Z" fill="white"/>
<path d="M28.6459 66.8881C29.0428 66.5062 29.5338 66.2363 30.069 66.1058C30.1462 66.0806 30.2108 66.0267 30.2493 65.9552C30.2879 65.8837 30.2975 65.8001 30.2761 65.7217C30.2547 65.6433 30.204 65.5762 30.1345 65.5342C30.065 65.4921 29.982 65.4785 29.9027 65.4959C29.2615 65.6561 28.6732 65.981 28.1962 66.4384C27.9003 66.7264 28.3503 67.1714 28.6459 66.8881Z" fill="white"/>
<path d="M31.5782 65.6238C32.1368 65.4669 32.721 65.423 33.2968 65.4945C33.7032 65.5438 33.6971 64.9092 33.2968 64.8598C32.6644 64.7876 32.0241 64.84 31.4118 65.0139C31.3319 65.0368 31.2641 65.0902 31.2233 65.1627C31.1825 65.2351 31.1719 65.3208 31.1938 65.401C31.2156 65.4812 31.2683 65.5496 31.3402 65.5913C31.4122 65.633 31.4977 65.6447 31.5782 65.6238V65.6238Z" fill="white"/>
<path d="M34.9045 65.5498C35.2796 65.6599 35.6306 65.8395 35.9392 66.0794C36.0004 66.1358 36.0807 66.1671 36.164 66.1671C36.2473 66.1671 36.3275 66.1358 36.3888 66.0794C36.448 66.0195 36.4812 65.9388 36.4812 65.8546C36.4812 65.7704 36.448 65.6896 36.3888 65.6298C35.9994 65.317 35.5542 65.0808 35.077 64.9335C34.9958 64.9123 34.9094 64.9238 34.8366 64.9656C34.7638 65.0073 34.7104 65.0761 34.6877 65.1569C34.6651 65.2377 34.6752 65.3242 34.7157 65.3977C34.7563 65.4712 34.8241 65.5259 34.9045 65.5498V65.5498Z" fill="white"/>
<path d="M9.3161 20.3236C12.5746 24.0318 15.9871 27.5943 19.5538 31.0109C19.8126 31.2575 20.2068 30.8694 19.948 30.6167C16.3816 27.2041 12.967 23.6417 9.70418 19.9294C9.46982 19.6644 9.08174 20.0586 9.3161 20.3236Z" fill="#FB0E39"/>
<path d="M10.7942 29.9328C12.7636 32.2654 14.8808 34.469 17.1327 36.5302C17.3977 36.7703 17.7858 36.3822 17.5287 36.136C15.2746 34.0765 13.1567 31.8728 11.1884 29.5386C10.9544 29.2676 10.5663 29.6618 10.7942 29.9328Z" fill="#FB0E39"/>
<path d="M98.1548 57.5787C100.428 59.3406 102.699 61.1046 104.968 62.8707C105.245 63.0867 105.639 62.6983 105.364 62.4765C103.091 60.7147 100.82 58.9507 98.5508 57.1845C98.2675 56.975 97.8733 57.3645 98.1548 57.5787Z" fill="#FB0E39"/>
<path d="M75.3199 70.57C77.482 72.5349 79.6462 74.4979 81.8125 76.4589C82.0774 76.6994 82.4716 76.3048 82.2067 76.0647C80.0445 74.0998 77.8803 72.1369 75.7141 70.1758C75.4491 69.9418 75.0549 70.3299 75.3199 70.57Z" fill="#FB0E39"/>
<path d="M39.2401 36.2959C36.7891 34.6577 34.5272 32.753 32.4958 30.6165C32.2496 30.3577 31.8554 30.7522 32.1016 31.0107C34.1692 33.1777 36.4684 35.1112 38.9578 36.7765C39.2595 36.9737 39.5367 36.4931 39.2411 36.2959H39.2401Z" fill="#FB0E39"/>
<path d="M81.036 69.8493C84.1097 72.3009 87.0624 74.8902 89.8942 77.617C90.1527 77.8633 90.5422 77.4752 90.2884 77.2228C87.4561 74.5003 84.504 71.911 81.432 69.4551C81.1548 69.2391 80.7606 69.6276 81.0378 69.8493H81.036Z" fill="#FB0E39"/>
<path d="M92.2105 56.5498C93.8098 57.7327 95.2799 59.0811 96.5963 60.5725C96.8368 60.8374 97.2249 60.4493 96.9923 60.1783C95.6365 58.6576 94.1276 57.2808 92.4895 56.0696C92.2061 55.8601 91.9289 56.3407 92.2123 56.5498H92.2105Z" fill="#FB0E39"/>
<path d="M21.2663 55.9587C22.6711 56.905 24.0014 57.9573 25.2457 59.1065C25.5103 59.3467 25.8984 58.9586 25.6399 58.7105C24.3586 57.5326 22.9914 56.4517 21.5496 55.4767C21.2479 55.2797 20.9707 55.76 21.2663 55.9573V55.9587Z" fill="#FB0E39"/>
<path d="M35.6004 68.6546C35.5018 68.2173 35.4033 67.7799 35.3049 67.3424C35.2246 66.9975 34.6889 67.139 34.7688 67.4903C34.8048 67.6441 34.8365 67.8043 34.8736 67.9583C34.2701 67.5058 33.5261 67.2811 32.773 67.324C31.7506 67.373 30.568 67.6628 29.8408 68.4263C29.1648 69.2049 28.7776 70.1926 28.7446 71.2232C28.6643 72.301 28.7874 73.5272 29.4714 74.4077C29.8386 74.8556 30.3108 75.2058 30.8459 75.4272C31.3811 75.6486 31.9627 75.7343 32.539 75.6767C32.8839 75.6274 32.89 75.0669 32.5329 75.1162C32.0912 75.1621 31.6449 75.1116 31.2248 74.968C30.8047 74.8244 30.4207 74.5912 30.0996 74.2846C29.4037 73.6132 29.2619 72.566 29.2741 71.6419C29.2534 70.7379 29.5068 69.8488 30.001 69.0916C30.5493 68.3219 31.4856 68.0383 32.3849 67.9151C32.7854 67.8451 33.1964 67.8622 33.5897 67.9653C33.983 68.0684 34.3494 68.2551 34.6641 68.5127C34.4056 68.5189 34.1467 68.5189 33.894 68.5066C33.5369 68.4944 33.5369 69.0488 33.894 69.061C34.3584 69.0785 34.8234 69.0681 35.2865 69.0301C35.3495 69.0257 35.4097 69.002 35.4589 68.9624C35.5141 68.935 35.5583 68.8895 35.584 68.8335C35.6098 68.7775 35.6156 68.7143 35.6004 68.6546V68.6546Z" fill="white"/>
</svg>
