<svg xmlns="http://www.w3.org/2000/svg" xmlns:xlink="http://www.w3.org/1999/xlink" width="108" height="108" fill="none"><style><![CDATA[.B{stroke-miterlimit:10}.C{stroke-width:.335}.D{stroke-linejoin:round}.E{stroke-linecap:round}.F{stroke-width:1.006}.G{fill:#621cd1}.H{fill:#465cff}.I{stroke:#621cd1}.J{fill:#3e9ff8}.K{stroke:#e89589}.L{stroke:#465cff}.M{stroke:#3e9ff8}.N{fill:#ffc3a9}.O{fill:#efcabb}.P{stroke:#a4d2fc}]]></style><path d="M38.982 70.2c-.724 1.8-2.534 4.95 0 10.983S46.102 97.6 46.586 98.2s4.707 0 3.74-2.052-6.155-18.225-6.276-20.036 1.57-4.464 1.57-4.464l-6.638-1.45zm19.2 1.44L66.62 87.2c1.328 2.535 5.07 9.293 5.914 10.26s4.707.724 3.983-1.207-7.12-18.225-8.208-19.915-2.776-6.397-4.586-7.966-5.55 3.258-5.55 3.258z" class="D F K N"/><path d="M43.085 101.933c-1.147 1.147-3.814 3.054-1.207 4.104 2.232.906 6.095-2.232 6.94-2.715.796-.46 4.104-1.328 3.742-2.897s-.905-3.32-2.112-4.284c-.483.965-3.138 2.173-3.983 2.052-.42.904-2.655 3.016-3.38 3.74zm37.887-.493c1.267.736 2.945 1.7.845 3.27-1.7.954-4.792-.58-5.636-1l-4.635-2.113c-1.16-.627-1.16-2.003-.953-2.945s.748-2.897 1-2.474 4.6.627 5.057-.205c.954 1.16 1.472 2.2 2.317 3.476a7.71 7.71 0 0 0 2.004 1.992z" class="G"/><path d="M42.18 23.493c-.133-.205-1.762-1.123-1.967-.024s2.28 1.822 2.486 1.75" class="O"/><g class="K"><g class="D F"><path d="M42.18 23.493c-.133-.205-1.762-1.123-1.967-.024s2.28 1.822 2.486 1.75" class="E"/><path d="M58.197 39.558c.76 2.112 2.764 7.133 6.493 7.82 3.26.603 11.95-10.14 11.95-10.14l-2.052-2.655s-4.95 4.464-6.516 6.156c-1.303 1.4-3.283 2.523-4.72-1.17s-5.155-.013-5.155-.013z" class="N"/></g><g class="B C"><path d="M37.17 34.38c-.04-.001-.076-.014-.108-.036l-.036-.024c-1.763-1.304-7.158-5.25-6.917-10.513a34.68 34.68 0 0 1 1.762-9.293l.592-1.7c-.326-1.328-.46-2.268-.386-2.812-.24-.072-.374-.435-.398-1.038-.024-.773.23-1.967 1.062-2.1h.06c.046-.001.09.008.133.026s.08.047.108.082.05.08.072.12a.9.9 0 0 1 .7-.483.46.46 0 0 1 .336.121.46.46 0 0 1 .147.326c.135-.155.29-.293.46-.4.062-.038.133-.06.205-.06.278 0 .47.326.603.676.085-.3.193-.652.314-1.014.543-1.593.784-1.75.978-1.762h.036c.05.001.1.012.145.033s.087.05.12.088c.23.278.096.978-.144 2.1l-.072.36-.205 1.086-.965 4.695-.157 1.014c-.012.048-.784 5.14-.784 7.278.008 1.533.365 3.045 1.042 4.42s1.658 2.58 2.868 3.52c.833.64 1.22 1.352 1.16 2.112-.133 1.738-2.534 3.078-2.63 3.138-.03.022-.062.035-.098.04h0z" class="N"/><path d="M36.894 4.69c.4 0 .085 1.267-.133 2.366l-1.17 5.782-.17 1.024-.784 7.302c.01 1.56.375 3.1 1.065 4.5a10.35 10.35 0 0 0 2.918 3.587c3.138 2.412-1.45 4.948-1.45 4.948-1.81-1.328-7.12-5.2-6.88-10.38.15-3.144.74-6.252 1.75-9.233l.615-1.75c-.23-.93-.603-2.63-.302-3.078-.02.028-.044.05-.074.067s-.062.027-.095.03c-.18 0-.302-.374-.314-.87-.024-.59.157-1.8.905-1.908h.024c.278 0 .18.712.18.712s.326-.966.833-.966c.033-.001.065.003.096.012.35.085.18.845.18.845a2.87 2.87 0 0 1 .76-.845c.032-.022.07-.035.108-.036.362 0 .603 1.16.603 1.16s.87-3.223 1.316-3.26l.015-.01zm-.003-.364h-.048c-.326.036-.616.338-1.134 1.895-.072.193-.133.398-.193.58-.055-.104-.137-.192-.236-.256s-.214-.1-.33-.106a.56.56 0 0 0-.302.097c-.1.066-.194.143-.278.23-.085-.137-.22-.236-.374-.278a.92.92 0 0 0-.18-.024c-.136.006-.27.04-.4.104s-.227.15-.3.258a.47.47 0 0 0-.314-.108c-.03-.002-.057.002-.085.012-1.014.157-1.23 1.557-1.207 2.28.024.676.193 1 .386 1.134-.036.447.036 1.23.386 2.704l-.58 1.642c-1.02 3.018-1.617 6.162-1.773 9.344-.108 2.293.81 4.6 2.728 6.855 1.264 1.432 2.694 2.708 4.26 3.8l.036.024a.36.36 0 0 0 .398.024c.108-.06 2.595-1.448 2.728-3.283.06-.833-.35-1.593-1.23-2.268a9.97 9.97 0 0 1-2.813-3.459c-.665-1.35-1.015-2.834-1.025-4.34 0-2.124.773-7.193.785-7.242l.157-1.002c.266-1 .7-3.307.965-4.695l.205-1.074.072-.362c.252-1.207.386-1.908.108-2.257a.49.49 0 0 0-.41-.229l-.002-.002z" fill="#e89589"/></g></g><path d="M35.155 11.484c-.374-.966-.664-3.32-.288-3.68s.893.64 1.05 1.267" class="O"/><path d="M35.155 11.484c-.374-.966-.664-3.32-.288-3.68s.893.64 1.05 1.267m-1.22 1.447c-.736.097-1-1.014-.93-2.064a5.89 5.89 0 0 1 .446-1.448m-.578 2.8c-.495.302-.82-.615-.785-1.46.044-.454.133-.903.265-1.34M32.03 9.9s.278.435.435-.278" stroke="#d6906b" class="D E F"/><path d="M38.196 71.58c.7-1.883 5.37-12.25 5.37-12.975s14.906-3.2 15.39-3.44c.483.845 2.474 5.36 3.5 7.724 1.57 3.62 3.138 7.725 3.138 7.725s-5.383-.616-6.88 2.293l1.328 2.534s-2.112.06-3.078-.664c-.724-1.7-4.464-10.62-5.43-11.587-.603 1.81-3.742 9.897-4.345 11.828-.417.28-.907.435-1.41.446s-.998-.123-1.427-.386c0-.966.845-2.293.845-2.293s-3.354-1.617-7-1.207z" fill="#ff859b" stroke="#ff859b" class="B C"/><path d="M43.097 61.874s2.523-.893 3.102-2.776m10.357-.868c-.024.23 1.944 2.136 3.524 2.173m-8.92-4.286s.072 2.945.398 3.32 1.087.108 1.087.108" stroke="#ff5c76" class="D E F"/><g class="B C"><path d="M43.75 58.302c-2.052-3.26-4.767-16.233-4.646-17.802-1.45-2.052-5.2-3.26-6.397-5.07-.483-2.293 1.315-3.186 1.315-3.186l1.642 1.195s3.392-3.55 3.38-4.464c1.316.326 2.354 4.405 10.2 2.716s11.647 2.957 14.302 7.785c-3.138 1.328-4.128 3.512-4.128 3.512l1.23 1.8s-1.147 1.388-2.474.543a45.47 45.47 0 0 0-2.776-4.828c.965 4.464 3.38 12.794 4.224 15.932-2.052 1.328-1.7 1.93-6.156 1.207s-9.716.66-9.716.66z" fill="#ffeb99" stroke="#ffeb7d"/><g fill="#f9c126" stroke="#f9c126"><path d="M55.336 44.084l1.134.555-1.062.7-.072-1.255zm-.096-.362a.4.4 0 0 0-.108.048.39.39 0 0 0-.126.142.38.38 0 0 0-.043.184l.072 1.255c.004.066.026.13.062.184s.085.1.144.13a.37.37 0 0 0 .252.024.43.43 0 0 0 .108-.048l1.062-.7a.37.37 0 0 0 .109-.512.37.37 0 0 0-.144-.127l-1.134-.556c-.078-.038-.168-.046-.252-.024h0zm.58-4.152l-.627 1.086-.628-1.1h.628l.627.024zm.362-.072l-.036-.108a.34.34 0 0 0-.313-.18h-1.255a.39.39 0 0 0-.185.05c-.057.032-.105.076-.14.13-.046.076-.063.165-.05.252l.036.108.628 1.1a.34.34 0 0 0 .13.136c.055.032.12.047.183.044s.13-.018.185-.05.105-.076.14-.13l.628-1.086a.39.39 0 0 0 .048-.277v.001zM51.1 41.066l1.183-.46-.096.628-.097.627-.495-.386-.495-.4zm-.34-.17c-.024.035-.037.078-.036.12a.35.35 0 0 0 .133.338l1 .773a.36.36 0 0 0 .362.048c.082-.032.15-.092.193-.17.024-.035.037-.078.036-.12l.193-1.255a.35.35 0 0 0-.02-.187c-.023-.06-.062-.1-.113-.15a.36.36 0 0 0-.175-.074c-.064-.008-.13 0-.188.026l-1.183.46a.73.73 0 0 0-.193.193h0zm-1.17-3.233l.386 1.207-1.232-.266.845-.94zm.193-.314c-.034-.02-.07-.037-.108-.048a.37.37 0 0 0-.35.108l-.423.47-.422.47a.36.36 0 0 0-.072.362.38.38 0 0 0 .157.205c.034.02.07.037.108.048l1.23.265a.37.37 0 0 0 .35-.108c.043-.048.073-.108.086-.17s.008-.13-.014-.2l-.386-1.207a.31.31 0 0 0-.056-.12c-.027-.035-.06-.065-.1-.086h0zm3.357-.712l1.135.555-1.062.7-.072-1.255zm-.096-.362a.4.4 0 0 0-.108.048.39.39 0 0 0-.126.142.38.38 0 0 0-.043.184l.072 1.255c.004.065.026.13.062.184s.085.1.144.13a.37.37 0 0 0 .252.024.4.4 0 0 0 .108-.048l1.062-.7c.053-.036.096-.084.126-.14s.044-.12.043-.184a.36.36 0 0 0-.205-.313l-1.134-.556a.36.36 0 0 0-.252-.024h0zm1.64-3.03l-.628 1.086-.627-1.1h.627l.628.024zm.36-.072l-.036-.108a.34.34 0 0 0-.13-.136c-.055-.032-.12-.047-.183-.044H53.44c-.065.001-.13.018-.185.05s-.105.076-.14.13c-.046.076-.063.165-.048.252l.036.108.628 1.1a.34.34 0 0 0 .13.136c.055.032.12.047.183.044s.13-.018.185-.05.105-.076.14-.13l.627-1.086a.39.39 0 0 0 .048-.278v.001zm-5.08 1.58l1.183-.46-.193 1.255-.495-.386-.495-.4zm-.338-.17a.2.2 0 0 0-.036.12c-.01.063-.004.128.02.188s.063.112.113.15l1 .772a.36.36 0 0 0 .362.048.38.38 0 0 0 .193-.169.2.2 0 0 0 .036-.12l.193-1.255a.35.35 0 0 0-.133-.337.36.36 0 0 0-.362-.048l-1.183.46c-.08.045-.148.112-.193.193zm-1.17-3.246l.386 1.207-1.23-.266.845-.94zm.193-.314a.43.43 0 0 0-.108-.048.37.37 0 0 0-.35.108l-.845.94c-.043.048-.073.108-.086.17s-.008.13.014.2a.38.38 0 0 0 .157.205c.034.02.07.037.108.048l1.23.265a.37.37 0 0 0 .35-.108c.043-.048.073-.108.086-.17s.008-.13-.014-.2l-.386-1.207a.34.34 0 0 0-.157-.205h0zm11.02 13.17l1.183-.46-.193 1.255-.495-.386-.495-.4zm-.326-.17c-.024.035-.037.078-.036.12a.35.35 0 0 0 .133.337l1 .773a.36.36 0 0 0 .362.048.38.38 0 0 0 .193-.169c.024-.035.037-.078.036-.12l.193-1.255a.35.35 0 0 0-.133-.337.36.36 0 0 0-.362-.048l-1.183.46a.43.43 0 0 0-.193.193h0zm-1.184-3.246l.386 1.207-1.232-.266.845-.94zm.193-.314c-.034-.02-.07-.037-.108-.048a.37.37 0 0 0-.35.108l-.423.47-.422.47a.36.36 0 0 0-.072.362.38.38 0 0 0 .157.205.43.43 0 0 0 .108.049l1.23.265a.37.37 0 0 0 .35-.108.36.36 0 0 0 .072-.362l-.386-1.207a.34.34 0 0 0-.157-.205h0zm3.357-.713l1.135.555-1.062.7-.072-1.255zm-.084-.362a.4.4 0 0 0-.108.048c-.053.036-.096.085-.126.14s-.044.12-.043.184l.072 1.255c.005.066.026.13.062.184s.085.1.144.13a.37.37 0 0 0 .252.024.4.4 0 0 0 .108-.048l1.062-.7a.37.37 0 0 0 .13-.142.36.36 0 0 0 .04-.188.38.38 0 0 0-.06-.182c-.035-.054-.086-.098-.145-.127l-1.135-.555a.46.46 0 0 0-.252-.024h.001zm1.626-2.304l-.627 1.086-.627-1.1h.627l.627.025zm.374-.072l-.036-.108a.34.34 0 0 0-.13-.136c-.055-.032-.12-.047-.183-.044h-1.255a.39.39 0 0 0-.186.05c-.056.032-.105.076-.14.13-.045.076-.062.165-.048.252l.036.108.314.556.314.555a.34.34 0 0 0 .13.136c.055.032.12.047.183.044s.13-.018.185-.05.105-.076.14-.13l.628-1.086c.044-.086.06-.182.048-.278v.001zm-5.1.856l1.183-.46-.193 1.255-.495-.386-.495-.4zm-.326-.17c-.024.035-.037.078-.036.12a.35.35 0 0 0 .133.338l1 .773a.36.36 0 0 0 .36.048c.082-.032.15-.092.193-.17.024-.035.037-.078.036-.12l.193-1.255a.35.35 0 0 0-.02-.187c-.024-.06-.063-.112-.113-.15a.36.36 0 0 0-.362-.048l-1.183.46a.43.43 0 0 0-.193.193h.002zm-1.184-3.246l.386 1.207-1.232-.265.845-.94zm.193-.314c-.034-.02-.07-.037-.108-.048a.37.37 0 0 0-.35.108l-.846.94c-.043.048-.073.108-.086.17s-.008.13.014.2a.38.38 0 0 0 .157.205c.034.02.07.037.108.048l1.23.265a.37.37 0 0 0 .35-.108c.043-.048.073-.107.086-.17a.35.35 0 0 0-.014-.19l-.386-1.207a.38.38 0 0 0-.157-.205h.001zM48.6 54.403l1.1.53-1.062.676-.048-1.206zm-.085-.338a.42.42 0 0 0-.108.048c-.053.032-.097.08-.127.134a.35.35 0 0 0-.042.18l.048 1.183a.35.35 0 0 0 .193.288.37.37 0 0 0 .252.024.4.4 0 0 0 .108-.048l1.062-.676a.33.33 0 0 0 .127-.13c.03-.053.044-.116.042-.178a.34.34 0 0 0-.193-.294l-1.1-.53a.59.59 0 0 0-.254 0l.002.002zm2.235-3.645l-.628 1.087-.627-1.1h.627l.628.024zm.374-.06l-.036-.108a.34.34 0 0 0-.13-.136c-.055-.032-.12-.047-.183-.044H49.52c-.065.001-.13.018-.185.05s-.105.076-.14.13c-.046.076-.063.165-.048.252l.036.108.628 1.1a.34.34 0 0 0 .13.136c.055.032.12.047.183.044a.42.42 0 0 0 .186-.05c.056-.032.105-.076.14-.13l.627-1.086c.043-.086.06-.182.048-.278h0zm-5.094 1.57l1.183-.46-.193 1.255-.495-.386-.495-.4zm-.326-.17c-.024.035-.037.078-.036.12a.35.35 0 0 0 .02.187c.023.06.063.112.113.15l1 .773a.36.36 0 0 0 .362.048.38.38 0 0 0 .193-.169c.024-.035.037-.078.036-.12l.193-1.255a.35.35 0 0 0-.02-.187c-.024-.06-.062-.1-.113-.15a.36.36 0 0 0-.362-.049l-1.183.46a.58.58 0 0 0-.193.193h0zm-2.148-2.63l.386 1.207-1.23-.266.845-.94zm.193-.326a.42.42 0 0 0-.108-.048.37.37 0 0 0-.35.108l-.845.94a.36.36 0 0 0-.072.36.38.38 0 0 0 .157.205.44.44 0 0 0 .108.049l1.23.265a.37.37 0 0 0 .35-.108.36.36 0 0 0 .072-.36l-.386-1.207c-.027-.085-.082-.157-.157-.205h0zm4.32-1.304l1.134.555-1.06.7-.072-1.255zm-.084-.362a.4.4 0 0 0-.108.048.39.39 0 0 0-.126.142.38.38 0 0 0-.043.184l.072 1.255c.005.066.026.13.062.184s.085.1.144.13a.37.37 0 0 0 .252.024c.038-.01.075-.027.108-.048l1.062-.7a.37.37 0 0 0 .169-.33.38.38 0 0 0-.06-.182c-.035-.054-.086-.098-.144-.127l-.567-.278-.565-.28a.37.37 0 0 0-.252-.024l-.002.001zm1.63-3.03l-.628 1.086-.315-.554-.313-.555h.627l.627.024.002-.001zm.373-.07l-.036-.108a.34.34 0 0 0-.13-.136c-.055-.032-.12-.047-.183-.044h-1.254a.39.39 0 0 0-.186.05c-.056.032-.105.076-.14.13-.045.076-.062.165-.048.252l.036.108.627 1.1a.34.34 0 0 0 .13.136c.055.032.12.047.183.044s.13-.018.185-.05.105-.076.14-.13l.628-1.086a.47.47 0 0 0 .048-.278l-.001.002zm-5.092 1.567l1.183-.46-.193 1.255-.495-.386-.495-.4zm-.324-.157c-.024.035-.037.078-.036.12a.35.35 0 0 0 .02.187c.024.06.063.112.113.15l1 .772a.36.36 0 0 0 .362.048c.082-.032.15-.092.193-.17.024-.035.037-.078.036-.12l.193-1.255a.35.35 0 0 0-.02-.187c-.024-.06-.063-.112-.113-.15a.36.36 0 0 0-.362-.048l-1.183.46a.43.43 0 0 0-.193.193h0zM43.387 42.2l.386 1.207-1.23-.266.845-.94zm.193-.314c-.034-.02-.07-.037-.108-.048a.37.37 0 0 0-.35.108l-.845.94a.36.36 0 0 0-.072.362.38.38 0 0 0 .157.205c.034.02.07.037.108.048l1.23.266a.37.37 0 0 0 .435-.278c.012-.062.008-.13-.013-.2l-.386-1.207c-.01-.043-.03-.084-.056-.12a.31.31 0 0 0-.101-.086h0zm16.004-7.566l1.135.555-1.062.7-.072-1.255zm-.096-.362a.44.44 0 0 0-.108.048.39.39 0 0 0-.126.142.38.38 0 0 0-.043.184l.072 1.255c.005.066.026.13.062.184a.39.39 0 0 0 .143.13.37.37 0 0 0 .252.024.4.4 0 0 0 .108-.048l1.062-.7a.37.37 0 0 0 .169-.33.36.36 0 0 0-.06-.182c-.036-.054-.086-.098-.144-.127l-1.135-.555a.36.36 0 0 0-.252-.024h0zm.084 20.916l-.628 1.086-.627-1.1h.627l.628.024zm.362-.072l-.036-.108a.34.34 0 0 0-.13-.136c-.055-.032-.12-.047-.183-.044H58.33a.39.39 0 0 0-.186.05c-.056.032-.105.076-.14.13-.045.076-.062.165-.048.252l.036.108.628 1.1a.34.34 0 0 0 .13.136c.055.032.12.047.183.044s.13-.018.185-.05.105-.076.14-.13l.314-.543.314-.54a.47.47 0 0 0 .049-.278h0zm-5.334.242l1.183-.46-.193 1.255-.495-.386-.495-.4zm-.326-.17c-.024.035-.037.078-.036.12a.35.35 0 0 0 .02.187c.023.06.063.112.113.15l1 .773a.36.36 0 0 0 .362.048c.082-.032.15-.092.193-.17.024-.035.037-.078.036-.12l.193-1.255a.35.35 0 0 0-.133-.338.36.36 0 0 0-.36-.048l-1.183.46c-.08.048-.145.114-.193.193h-.002zm-1.17-3.234l.386 1.207-1.23-.265.845-.94zm.18-.314a.42.42 0 0 0-.108-.048.37.37 0 0 0-.35.108l-.844.94a.36.36 0 0 0-.072.36.38.38 0 0 0 .157.205.59.59 0 0 0 .108.05l1.23.265c.063.014.128.01.2-.008a.37.37 0 0 0 .161-.1.36.36 0 0 0 .072-.36l-.386-1.207a.28.28 0 0 0-.157-.205zm3.367-.712l1.135.555-1.062.7-.072-1.255h-.001zm-.096-.362a.44.44 0 0 0-.108.048.39.39 0 0 0-.126.142.38.38 0 0 0-.043.184l.072 1.255c.005.066.026.13.062.184s.085.1.144.13c.08.037.168.046.252.024a.43.43 0 0 0 .108-.048l1.062-.7a.37.37 0 0 0 .13-.142.36.36 0 0 0 .04-.188.38.38 0 0 0-.06-.182c-.035-.054-.086-.098-.145-.127l-1.135-.555c-.078-.038-.168-.046-.252-.024h0zm1.643-3.03l-.628 1.086-.627-1.1h.627l.628.024zm.362-.072l-.036-.108a.34.34 0 0 0-.13-.136c-.055-.032-.12-.047-.183-.044h-1.257c-.065.001-.13.018-.185.05s-.105.076-.14.13c-.045.076-.062.165-.048.252l.036.108.628 1.1a.34.34 0 0 0 .13.136c.055.032.12.047.183.044s.13-.018.185-.05.105-.076.14-.13l.628-1.086a.47.47 0 0 0 .049-.278l.002.001z"/><path d="M53.465 48.73l1.183-.46-.193 1.255-.495-.386-.495-.4zm-.326-.17c-.025.036-.037.078-.036.12a.35.35 0 0 0 .132.338l1 .772a.36.36 0 0 0 .362.048c.082-.032.15-.092.193-.17.024-.035.037-.078.036-.12L55 48.296a.35.35 0 0 0-.02-.187c-.023-.06-.062-.112-.113-.15a.36.36 0 0 0-.362-.048l-1.183.46a.43.43 0 0 0-.193.193h0zm-1.17-3.245l.386 1.207-1.232-.266.845-.94zm.18-.314c-.034-.02-.07-.037-.108-.048a.37.37 0 0 0-.35.108l-.423.47-.422.47a.36.36 0 0 0-.072.362.38.38 0 0 0 .157.205.42.42 0 0 0 .108.049l1.23.265a.37.37 0 0 0 .35-.108.36.36 0 0 0 .072-.362l-.386-1.207c-.01-.044-.028-.085-.056-.12s-.062-.065-.1-.085h0zm-8.192-5.37l1.232-.266-.386 1.207-.845-.94zm-.288-.216a.5.5 0 0 0-.06.108c-.02.062-.022.127-.01.2s.04.122.08.172l.42.472.422.47a.38.38 0 0 0 .16.106c.062.02.127.026.2.014a.39.39 0 0 0 .216-.144c.025-.033.045-.07.06-.108l.386-1.207a.39.39 0 0 0-.072-.36.37.37 0 0 0-.16-.107c-.062-.022-.127-.026-.2-.014l-1.23.266a.39.39 0 0 0-.216.144l.003-.003zM43.073 36l.17 1.255-1.183-.483.495-.386.52-.386zm.24-.278c-.032-.027-.068-.048-.108-.06-.06-.023-.124-.03-.187-.022s-.123.032-.175.07l-1 .773c-.05.038-.1.1-.114.15s-.03.125-.02.188c.015.087.058.167.12.23a.31.31 0 0 0 .108.06l.592.242.6.24a.37.37 0 0 0 .186.02.39.39 0 0 0 .174-.07c.05-.038.1-.1.114-.15s.03-.125.02-.188l-.17-1.255a.74.74 0 0 0-.144-.229h.001zm-4.163-.35l.616-.133.615-.132-.386 1.208-.423-.47-.422-.47v-.001zm-.3-.228a.49.49 0 0 0-.06.108.39.39 0 0 0 .072.362l.845.94a.36.36 0 0 0 .16.106c.062.02.127.026.2.014a.39.39 0 0 0 .216-.144.48.48 0 0 0 .06-.108l.386-1.207a.39.39 0 0 0-.072-.362.37.37 0 0 0-.16-.107c-.062-.022-.127-.026-.2-.014l-1.23.266c-.085.025-.16.075-.216.144h0zm-.592-3.394l.17 1.255-1.183-.483.495-.386.52-.386zm.24-.277a.31.31 0 0 0-.108-.06c-.06-.023-.124-.03-.187-.022s-.123.033-.175.07l-1 .772c-.05.04-.1.1-.114.15s-.03.125-.02.188a.43.43 0 0 0 .12.23.34.34 0 0 0 .108.06l.592.24.6.242c.06.023.124.03.187.022s.123-.032.175-.07a.34.34 0 0 0 .114-.15c.024-.06.03-.125.02-.188l-.17-1.255c-.023-.1-.073-.17-.144-.23h.014zm7.158 4.03l1.062.7-1.135.555.073-1.255zm-.05-.374c-.043.001-.085.013-.12.036-.057.03-.105.072-.14.125a.39.39 0 0 0-.064.177l-.072 1.255a.33.33 0 0 0 .036.188c.03.058.076.106.133.138a.38.38 0 0 0 .252.06.23.23 0 0 0 .12-.036l1.134-.555a.38.38 0 0 0 .205-.302.33.33 0 0 0-.036-.188c-.03-.058-.076-.106-.133-.138l-1.062-.7a.38.38 0 0 0-.252-.06h0zm-1.46-2.136l.628-1.087.628 1.087h-1.255zm-.362.06a.4.4 0 0 0 .048.108.38.38 0 0 0 .326.18h1.255a.36.36 0 0 0 .314-.18c.044-.076.06-.165.048-.252a.4.4 0 0 0-.048-.108l-.628-1.086a.38.38 0 0 0-.326-.18.36.36 0 0 0-.314.18l-.627 1.086c-.027.035-.046.076-.054.12a.28.28 0 0 0 .006.132h0z"/><path d="M40.852 31.254l1.062.7-1.134.555.072-1.256zm-.05-.362c-.043.001-.085.013-.12.036a.38.38 0 0 0-.205.302l-.072 1.255a.33.33 0 0 0 .036.188c.03.058.076.106.133.138a.38.38 0 0 0 .252.061.23.23 0 0 0 .12-.036l1.135-.555a.38.38 0 0 0 .141-.125c.036-.053.058-.113.064-.177a.34.34 0 0 0-.036-.188c-.03-.058-.076-.106-.133-.138l-1.06-.7c-.075-.048-.164-.07-.252-.06h0zm7.654 10.21l-.628 1.086-.627-1.1h.627l.628.024zm.362-.072l-.036-.108a.34.34 0 0 0-.313-.18h-1.255c-.065.001-.13.018-.185.05s-.105.076-.14.13c-.045.076-.062.165-.048.252l.036.108.628 1.1a.34.34 0 0 0 .13.136c.055.032.12.047.183.044s.13-.018.185-.05.105-.076.14-.13l.627-1.086a.39.39 0 0 0 .049-.278v.001zm2.704 14.53l1.134.555-1.062.7-.072-1.255zm-.084-.35a.4.4 0 0 0-.108.048c-.053.036-.096.085-.126.14s-.044.12-.043.184l.072 1.255c.004.065.026.13.062.184s.085.1.144.13a.37.37 0 0 0 .252.024.4.4 0 0 0 .108-.048l1.062-.7a.37.37 0 0 0 .108-.512c-.036-.054-.086-.098-.144-.127l-1.134-.555c-.078-.038-.168-.046-.252-.024h0zm-10.924-11.37l-.626 1.086-.628-1.1h.628l.627.024-.001.001zm.363-.06l-.036-.108a.34.34 0 0 0-.13-.136c-.055-.032-.12-.047-.183-.044h-1.255c-.065.001-.13.018-.185.05s-.105.076-.14.13a.37.37 0 0 0-.048.252l.036.108.628 1.1a.34.34 0 0 0 .13.136c.055.032.12.047.183.044a.42.42 0 0 0 .186-.05c.056-.032.105-.076.14-.13l.628-1.086c.027-.04.045-.086.054-.134s.006-.097-.006-.144h0zm3.367 12.045l1.183-.46-.193 1.255-.495-.386-.495-.4zm-.326-.17c-.024.035-.037.078-.036.12-.01.063-.004.128.02.188s.063.112.113.15l1 .773a.36.36 0 0 0 .362.048.38.38 0 0 0 .193-.169c.024-.035.037-.078.036-.12l.193-1.255a.35.35 0 0 0-.133-.337.36.36 0 0 0-.362-.048l-1.183.46c-.08.048-.145.114-.193.193h0zm-1.183-3.233l.386 1.207-1.23-.266.845-.94zm.193-.314a.44.44 0 0 0-.108-.048.37.37 0 0 0-.35.108l-.423.47-.422.47a.36.36 0 0 0-.072.362.38.38 0 0 0 .157.205.44.44 0 0 0 .108.048l.616.133.616.132a.37.37 0 0 0 .35-.108c.043-.048.073-.107.086-.17a.35.35 0 0 0-.014-.19l-.386-1.205a.31.31 0 0 0-.157-.205V52.1zm-.482-5.9l.386 1.207-1.23-.266.845-.94zm.193-.314a.43.43 0 0 0-.108-.049.37.37 0 0 0-.35.108l-.846.942a.36.36 0 0 0-.072.362.38.38 0 0 0 .157.205.42.42 0 0 0 .108.048l1.23.266a.37.37 0 0 0 .35-.108.36.36 0 0 0 .072-.362l-.386-1.207a.34.34 0 0 0-.157-.205h.001zm-8.015-9.136l-.144-1.255 1.158.504-1.014.748-.001.003zm-.25.275c.027.027.06.048.096.06.06.024.122.034.186.028s.124-.028.177-.064l1.014-.748c.044-.032.08-.074.105-.122s.04-.1.042-.155-.007-.108-.03-.16-.053-.095-.094-.13c-.028-.027-.06-.048-.097-.06l-1.16-.504c-.06-.025-.122-.034-.186-.028a.38.38 0 0 0-.177.064.36.36 0 0 0-.144.338l.144 1.255c.015.087.058.167.12.23v-.003zm4.1 1.752l-1.255.216.432-1.183.823.967zm.287.228c.025-.033.045-.07.06-.108a.36.36 0 0 0-.06-.362l-.82-.966a.37.37 0 0 0-.16-.107c-.062-.022-.127-.026-.2-.014-.043.006-.084.02-.122.044a.32.32 0 0 0-.094.089.48.48 0 0 0-.06.108l-.432 1.183a.36.36 0 0 0 .06.36.37.37 0 0 0 .16.107c.062.022.127.026.2.014l1.255-.216c.043-.006.084-.02.122-.044a.3.3 0 0 0 .094-.09l-.003.001zm1.656 1.97l-.144-1.255 1.158.504-1.014.748-.001.003zm-.24.262a.26.26 0 0 0 .096.06c.06.024.122.034.186.028s.124-.028.177-.064l1.014-.748c.044-.032.08-.074.105-.122a.37.37 0 0 0 .042-.156c.002-.054-.008-.1-.03-.16a.36.36 0 0 0-.094-.13.26.26 0 0 0-.096-.06l-1.16-.504c-.06-.024-.122-.034-.186-.028s-.124.028-.177.064a.36.36 0 0 0-.144.338l.144 1.255a.33.33 0 0 0 .121.229v-.003zm-6.58-8.373l-.324.543-.326.543-.603-1.1 1.253.024zm.364-.06l-.036-.108c-.03-.058-.074-.107-.13-.142s-.12-.052-.185-.052l-.63-.014-.628-.012c-.055-.001-.1.01-.16.033a.39.39 0 0 0-.13.097c-.036.04-.062.1-.077.143s-.018.108-.01.162l.036.108.604 1.1c.03.058.074.107.13.14s.12.052.185.052a.37.37 0 0 0 .326-.18l.326-.543.324-.543c.044-.076.062-.165.048-.252l.004-.001z"/></g></g><use xlink:href="#B" class="N"/><use xlink:href="#B" class="D E F K"/><path d="M50.122 22.854c.085-.23 1.45-1.51 1.908-.495s-1.786 2.317-2.004 2.293" class="O"/><g class="F K"><path d="M50.122 22.854c.085-.23 1.45-1.51 1.908-.495s-1.786 2.317-2.004 2.293" class="D E"/><path d="M41.987 22.25s1.098 7.992 5.54 6.795c3.404-1.11 2.92-5.093 2.317-7.87 0 0-.724-3.5-4.707-2.776-3.476.64-3.15 3.85-3.15 3.85z" class="B N"/><path d="M44.172 23.24c.12.483.845.724.845 0" class="D E"/></g><path d="M43.93 21.55a1.44 1.44 0 0 1 1.086-.604" class="H"/><g class="D E F"><path d="M43.93 21.55a1.44 1.44 0 0 1 1.086-.604" class="L"/><path d="M48.7 22.793c-.012.495-.664.893-.82.193" class="K"/></g><path d="M48.577 21.09a1.47 1.47 0 0 0-1.195-.35" class="H"/><g class="D F"><g class="E"><path d="M48.577 21.09a1.47 1.47 0 0 0-1.195-.35" class="L"/><path d="M46.948 23.724c.12.483.965 2.655-.12 1.93" class="K"/></g><path d="M45.62 26.5c.242.483.965.966 1.57.724-.724.605-1.327.845-1.57-.724z" fill="#ff859b" stroke="#ff859b"/></g><g class="B C"><path d="M50.086 22.757c.483-1.57.845-9.535-6.638-11.707-4.95-1.328-2.897 1.93-2.897 1.93-1.57-1.57-5.31-1.328-2.897 1.81-1.207.362-1.448 2.293.845 2.412-1.448.362-1.448 1.328-.24 1.93s3.73 3.778 3.9 4.37c-.4-2.798 2.004-5.575 4.78-4.97s2.776 3.26 3.138 4.224z" class="H L"/><path d="M79.1 37.168l-2.257 1.8c-.175.14-.397.203-.62.178s-.424-.137-.564-.31l-4.13-5.18c-.14-.175-.203-.397-.178-.62s.136-.425.31-.564l2.257-1.8c.175-.14.397-.203.62-.178s.425.137.564.31l4.128 5.166c.14.177.205.4.18.625s-.137.43-.31.57z" class="G I"/></g><path d="M42.072 24.724c.198-.136.22-.446.052-.694s-.467-.34-.665-.203-.22.446-.052.694.467.338.665.203zm9.144-1.214c.124-.273.047-.575-.17-.674s-.496.042-.62.315-.047.575.17.674.496-.042.62-.315z" class="G"/><g class="D F"><g class="E I"><path d="M41.818 24.264s-1.086 7.363 1.328 9.776 8.208 0 11.95-3.5c4.828-3.983 15.703-7.688 18.708-7.12 1.93.362 5.3 1.328 2.173 3.983-1.57 1.328-3.983 2.293-3.26 4.164"/><path d="M50.8 23.48s-.36 2.655.845 3.38 5.938-.712 7 0c.724.483.76.918.76.918"/></g><path d="M75.312 33.136c-.604.483-1.7 1.45-1.57 1.93s.483.24.845 0 1.207-.966 1.207-.966-2.173 1.7-1.8 2.173 2.414-.966 2.414-.966-1.93 1.448-1.57 1.8 2.052-.724 2.052-.724-1.642 1.255-1.448 1.448c.362.362 3.26-.845 3.62-1.448s.12-1.087-.483-.845c.24-.362.483-1.45-.604-.966.483-.724.362-1.57-.724-1.086.24-.603.24-1.328-.604-1.086a4.41 4.41 0 0 0-1.327.724h0zm-3.284 2.427c.193-.977.917-2.112 1.16-1.846s-.036 1.484-.144 1.92-1.304 1.388-1.015-.072z" stroke="#d6906b" class="O"/><g stroke="#ff5c76" class="E"><path d="M46.163 73.147l.314-.652"/><path d="M47.165 71.023l3.67-8.183" stroke-dasharray="4.53 4.53"/><path d="M51.172 62.104l.302-.664c.184.16.346.342.483.543"/><path d="M52.68 63.08c1.472 2.438 3.38 6.687 4.428 8.847" stroke-dasharray="3.66 3.66"/><path d="M57.4 72.508a5.05 5.05 0 0 0 .35.64"/></g></g><g class="B C G I"><path d="M29.917 55.43l-2.4-.374-2.4-.386 1.52-1.87 1.52-1.883 1.738 4.514z"/><path d="M24.727 55.224c-.102-.078-.18-.182-.23-.302a.69.69 0 0 1-.036-.352c.02-.12.07-.23.144-.324l3.042-3.753c.076-.093.175-.165.288-.207s.234-.055.353-.035.23.07.323.147.164.176.206.29l1.738 4.514a.68.68 0 0 1-.108.675.68.68 0 0 1-.287.207c-.112.042-.234.054-.353.035l-4.78-.75c-.106-.035-.208-.084-.302-.144h0zm3.247-2.957l-1.557 1.92 2.438.386-.88-2.305z"/></g><g class="L B C"><path d="M7.89 47.053l1.315 2.124"/><path d="M9.41 49.515c-.044.03-.093.048-.145.056s-.105.007-.155-.006-.1-.035-.14-.067-.077-.07-.102-.117L7.552 47.27c-.048-.09-.06-.194-.033-.29s.1-.182.177-.234.2-.07.29-.05.186.08.243.164l1.315 2.124a.39.39 0 0 1-.133.531h0z" class="H"/><path d="M8.952 46.4l1.316 2.124"/><path d="M10.473 48.864c-.044.028-.093.048-.145.056s-.104.007-.155-.006-.1-.035-.14-.067-.077-.07-.102-.117l-1.316-2.124c-.03-.044-.05-.095-.062-.147s-.01-.107.002-.16.033-.102.065-.146.07-.08.117-.11.097-.046.15-.054.107-.004.16.01.1.04.142.072.077.075.102.122l1.315 2.124c.028.044.047.093.056.145s.007.104-.006.155-.035.1-.066.14-.07.077-.116.103h0z" class="H"/></g><g class="J M B C"><path d="M100.995 73.534l-1.8 1.955-.398-1.28-.386-1.28 1.303.302 1.29.302z"/><path d="M99.293 75.852c-.047.017-.098.024-.148.02s-.1-.016-.144-.04-.085-.054-.118-.092-.057-.083-.073-.13l-.784-2.56a.36.36 0 0 1 .084-.362c.045-.05.103-.084.166-.103s.13-.02.196-.005l2.607.604a.4.4 0 0 1 .171.091.39.39 0 0 1 .106.161.36.36 0 0 1 .008.193c-.015.064-.047.122-.092.17l-1.823 1.955a.5.5 0 0 1-.157.097h0zm-.338-2.402l.4 1.303.93-1.002-1.328-.302z"/></g><path d="M101.2 72.025l.82 2.57" class="B C M"/><path d="M102.142 74.958a.38.38 0 0 1-.471-.241l-.82-2.57c-.03-.094-.022-.197.024-.285a.37.37 0 0 1 .218-.185c.094-.03.197-.022.285.023s.155.124.185.218l.82 2.57a.38.38 0 0 1-.241.471h0z" class="B C J M"/><g class="G I B C"><path d="M15.94 95.91L15 97.516l-.954 1.605-.917-1.63-.917-1.617 1.87.012 1.86.024z"/><path d="M14.31 99.568a.52.52 0 0 1-.266.072c-.093-.002-.184-.027-.264-.073s-.147-.113-.195-.192l-1.836-3.247c-.044-.08-.068-.173-.068-.265s.023-.184.068-.266.114-.145.194-.2.172-.066.264-.062l3.73.036a.54.54 0 0 1 .264.073c.08.046.147.113.195.193s.068.173.068.266-.023.184-.068.265l-1.895 3.21a.47.47 0 0 1-.191.18h0zm-1.183-3.162l.94 1.654.966-1.642-1.907-.012z"/><path d="M18.138 94.632l-.954 1.605-.94 1.605-.917-1.617-.917-1.63 1.87.024 1.86.012z"/><path d="M16.508 98.3c-.08.048-.172.072-.266.072a.52.52 0 0 1-.264-.073c-.08-.047-.147-.113-.195-.193l-1.836-3.26a.55.55 0 0 1 0-.531c.043-.082.1-.15.2-.195s.175-.065.267-.057l3.73.036c.093.001.184.027.264.073s.147.113.195.193.068.173.068.266a.55.55 0 0 1-.068.266l-1.895 3.2a.59.59 0 0 1-.192.192h0zm-1.195-3.174l.94 1.653.965-1.64-1.907-.012zm2.812-84.33l2.92-5.335a.9.9 0 0 0-.193-1.219l-.072-.036c-.024-.012-.048-.036-.072-.048L16.58 1.9a.75.75 0 0 0-1.014.302c-.012.024-.024.06-.036.085l-.072.108-2.596 4.755a2.69 2.69 0 0 0-.555-.085c-.893-.012-1.617.47-1.63 1.086s.7 1.134 1.58 1.147c.773.012 1.412-.35 1.58-.845l2.668-4.876 2.957 1.618-2.354 4.284a2.68 2.68 0 0 0-.555-.085c-.893-.012-1.617.47-1.63 1.086s.7 1.135 1.58 1.147c.808.037 1.448-.325 1.617-.82z"/></g><g class="H B C"><path d="M22.615 29.504V25.63c.018-.073.02-.15.003-.223s-.048-.143-.095-.202-.106-.107-.174-.14-.142-.05-.218-.05-.15.017-.218.05-.127.08-.174.14a.5.5 0 0 0-.091.425v3.44a1.78 1.78 0 0 0-.326.121c-.495.266-.76.76-.58 1.11s.736.422 1.23.157a.98.98 0 0 0 .64-.953h0z" class="L"/><path d="M11.765 20.548l-2.595-3.44a.63.63 0 0 0-.845-.229l-.036.036c-.012.012-.036.024-.048.036l-2.655 2.004a.55.55 0 0 0-.108.748c.01.022.027.04.05.048.012.024.036.048.048.072l2.304 3.054a1.06 1.06 0 0 0-.205.338c-.265.567-.17 1.183.23 1.364s.93-.12 1.207-.688c.114-.196.166-.42.15-.646s-.097-.442-.236-.62L6.66 19.486l1.908-1.436 2.088 2.764c-.09.1-.158.213-.205.338-.265.567-.17 1.183.23 1.364s.93-.12 1.207-.688c.1-.204.142-.43.12-.657s-.106-.44-.243-.622h0z" class="P"/></g><path d="M98.7 12.437l.603-5.443a.79.79 0 0 0-.579-.941c-.374-.036-.712.314-.773.796l-.53 4.84a2.35 2.35 0 0 0-.483.121c-.748.288-1.183.953-.978 1.472s.965.7 1.714.4c.64-.253 1.05-.784 1.026-1.255z" class="B C G I"/><path d="M61.986 5l-1.702-2.595c-.05-.106-.142-.186-.253-.225s-.233-.03-.338.02c-.087.078-.14.187-.15.304s.027.233.102.323l1.52 2.304c-.066.07-.122.146-.17.23-.216.398-.17.845.108 1s.676-.048.893-.446a.81.81 0 0 0-.012-.904h0z" class="B C J P"/><path d="M90.942 41.477l3.862-3.355a.75.75 0 0 0 .205-1.014c-.012-.012-.024-.036-.048-.048a.21.21 0 0 0-.048-.06l-2.595-2.98c-.055-.063-.12-.114-.196-.15a.63.63 0 0 0-.484-.033.63.63 0 0 0-.214.123l-.06.06c-.024.024-.06.036-.085.06l-3.428 2.98c-.125-.093-.263-.166-.4-.216-.7-.266-1.412-.096-1.605.386s.216 1.098.917 1.364c.603.23 1.22.133 1.497-.205l3.524-3.065 1.86 2.136-3.102 2.69a1.49 1.49 0 0 0-.41-.216c-.7-.266-1.412-.096-1.605.386s.216 1.098.917 1.364c.616.24 1.23.13 1.51-.208z" class="B C G I"/><path d="M102.987 27.078l.87-2.366a.36.36 0 0 0 .02-.273.37.37 0 0 0-.177-.21.37.37 0 0 0-.271.045c-.08.05-.14.128-.164.22l-.772 2.112a.75.75 0 0 0-.23 0c-.36.05-.627.288-.603.543.036.252.362.423.724.374.134-.006.262-.052.37-.13s.188-.2.234-.315h0zM83.35 50.215l-.676-2.232c-.06-.193-.23-.326-.386-.278-.01.001-.018.006-.024.012-.025.004-.03.007-.036.012l-1.726.52c-.037.01-.07.028-.1.052s-.054.053-.072.087a.26.26 0 0 0-.032.108c-.002.038.001.076.012.113 0 .012.012.024.012.036s.012.036.012.048l.603 1.98c-.064.033-.12.078-.17.133-.242.242-.302.567-.133.736s.495.108.736-.12a.61.61 0 0 0 .193-.664l-.616-2.04 1.243-.374.543 1.786a.58.58 0 0 0-.169.133c-.242.24-.302.567-.133.736s.495.108.736-.12a.64.64 0 0 0 .186-.305c.032-.117.03-.24-.005-.357h0zm4.936-24.308l-1-4.26a.56.56 0 0 0-.689-.556.56.56 0 0 0-.361.808l.88 3.8a2.65 2.65 0 0 0-.338.216c-.483.422-.64 1.026-.35 1.364s.917.266 1.4-.144a1.13 1.13 0 0 0 .447-1.218h0z" class="J M B C"/><g class="H B C"><path d="M7.866 72.35L5.5 69.225c-.036-.064-.085-.12-.143-.164s-.124-.078-.195-.097-.144-.024-.217-.014-.143.033-.206.07l-.036.036c-.012.012-.036.024-.048.036l-2.414 1.8a.48.48 0 0 0-.189.318.48.48 0 0 0 .092.358c.012.012.024.036.036.048.012.027.028.05.048.072l2.1 2.788c-.074.094-.14.195-.193.302-.242.52-.144 1.074.216 1.243s.845-.108 1.098-.628a1.03 1.03 0 0 0-.084-1.159l-2.16-2.86 1.738-1.304 1.895 2.51c-.074.094-.14.195-.193.302-.242.52-.144 1.074.216 1.243s.845-.108 1.098-.627a1.05 1.05 0 0 0-.095-1.159h0z" class="P"/><path d="M23.967 77.904V72.05c.024-.22-.037-.44-.172-.617s-.333-.292-.552-.325c-.22.033-.417.15-.552.325s-.197.397-.172.617v5.202c-.178.038-.35.103-.507.193-.76.398-1.147 1.147-.87 1.678s1.1.627 1.872.23c.663-.35 1.037-.954.952-1.447z" class="L"/></g><path d="M93.5 94.004l2.028-3.693c.092-.13.13-.292.104-.45s-.1-.3-.237-.396c-.012-.012-.036-.012-.048-.024s-.036-.024-.048-.036l-2.86-1.57c-.06-.033-.125-.053-.192-.06s-.136-.001-.2.018-.126.05-.178.093-.097.095-.13.155c-.012.024-.024.036-.024.06-.012.024-.036.048-.048.072l-1.8 3.283c-.126-.034-.256-.054-.386-.06-.616-.012-1.122.326-1.122.76s.483.784 1.098.796c.222.025.445-.018.642-.124s.356-.27.457-.467l1.846-3.38 2.052 1.122-1.63 2.97a1.83 1.83 0 0 0-.386-.061c-.616-.012-1.123.324-1.123.76-.012.423.483.784 1.098.797a1.04 1.04 0 0 0 1.088-.567z" class="B C J M"/><path d="M86.186 70.878l1.883-3.15a.53.53 0 0 0-.085-.736.52.52 0 0 0-.402-.005.52.52 0 0 0-.286.283l-1.678 2.812c-.106-.032-.215-.052-.326-.06-.53-.024-1 .252-1.002.627s.398.7.93.724c.19.018.384-.02.555-.106s.314-.223.4-.39z" class="B C G I"/><path d="M105.666 55.466l-3.778-3.017c-.104-.077-.226-.126-.354-.145a.8.8 0 0 0-.382.037.72.72 0 0 0-.46.58l-.724 4.78c-.02.13-.003.264.046.387s.128.23.232.313a.77.77 0 0 0 .386.157h.084c.096-.001.2-.022.278-.06l4.5-1.762c.12-.046.23-.124.31-.226a.71.71 0 0 0 .149-.353c.02-.13.004-.26-.045-.382a.73.73 0 0 0-.231-.308z" fill="#a4d2fc"/><g class="B C M"><path d="M71.473 11.496l-.94 4.188"/><path d="M70.375 16.348a.69.69 0 0 1-.519-.821l.942-4.176a.69.69 0 0 1 .109-.245c.052-.074.118-.136.194-.185s.16-.08.25-.096.18-.013.268.007a.69.69 0 0 1 .245.109c.074.052.136.118.185.194s.08.16.096.25.013.18-.007.268l-.94 4.176a.68.68 0 0 1-.302.431.68.68 0 0 1-.519.088h0z" class="J"/><path d="M73.573 11.98l-.94 4.176"/><path d="M72.475 16.818a.69.69 0 0 1-.519-.82l.94-4.176c.043-.175.153-.325.306-.42s.337-.125.512-.086.328.146.426.297.132.334.096.5l-.94 4.176a.68.68 0 0 1-.302.431.68.68 0 0 1-.519.087h0z" class="J"/></g><defs ><path id="B" d="M48.324 27.693l.193 4.478c.01.19-.04.38-.142.54a.94.94 0 0 1-.425.364 1.17 1.17 0 0 1-1.219-.169c-.12-.09-.218-.206-.285-.34s-.102-.282-.1-.432L46.2 28.43"/></defs></svg>