<svg width="108" height="108" viewBox="0 0 108 108" fill="none" xmlns="http://www.w3.org/2000/svg">
<path fill-rule="evenodd" clip-rule="evenodd" d="M42.0397 19.8398C40.5043 20.0558 38.4174 19.5468 37.2701 17.7752C36.7159 16.9634 36.3271 16.0503 36.1259 15.0882C35.9248 14.1261 35.9151 13.1337 36.0975 12.1679C36.4881 10.3466 37.5159 9.86567 38.0775 9.58199C38.4415 9.4109 38.8456 9.34362 39.2454 9.38759C39.2495 8.45611 39.4214 7.53299 39.7526 6.66239C40.2782 5.43227 41.5487 4.12583 43.2446 3.33815C44.9406 2.55047 46.7204 1.95935 47.9801 1.84091C49.2448 1.75688 50.515 1.83443 51.7601 2.07167C52.9643 2.27219 54.1804 3.32123 54.7877 4.13663C55.395 4.95203 55.7881 4.49663 56.4599 5.26019C57.2383 6.04594 57.7581 7.05081 57.9495 8.14019C58.3139 9.72419 57.8034 10.3398 57.8034 10.3398C57.8034 10.3398 43.5762 19.6253 42.0397 19.8398Z" fill="black"/>
<path fill-rule="evenodd" clip-rule="evenodd" d="M52.7663 28.8148C50.6069 29.0652 48.4898 29.5986 46.4695 30.4013C44.4445 31.2894 42.3558 33.1992 40.6987 35.194C39.0417 37.1887 37.2345 40.495 35.8243 42.9412C34.4142 45.3874 33.2367 49.6966 33.9343 51.3148C34.3271 52.2227 34.9375 53.0198 35.7116 53.6357C36.4856 54.2516 37.3995 54.6673 38.3724 54.846C40.6987 55.3558 42.3979 51.3699 43.9884 49.3906C45.5789 47.4113 49.5853 44.6332 51.8364 43.5006C54.0875 42.3681 59.4195 40.1724 62.2869 40.4046C65.1543 40.6368 70.3012 42.7806 71.9629 44.2303C73.6247 45.6801 76.1512 47.9725 77.3899 46.8799C78.6287 45.7873 78.7065 42.4635 78.0495 40.2167C77.3925 37.9699 75.1255 34.7555 73.3554 33.2889C71.5853 31.8222 68.9537 30.033 66.168 29.052C63.3823 28.071 61.8322 27.6693 60.2971 27.7146L57.6609 27.7927C57.6609 27.7927 54.2891 28.6395 52.7681 28.8162L52.7663 28.8148Z" fill="#78E8FD"/>
<path fill-rule="evenodd" clip-rule="evenodd" d="M46.9354 48.7771C46.7554 45.2296 46.476 39.7256 46.476 39.7256C46.476 39.7256 44.136 45.3668 42.9513 47.8256C41.7665 50.2844 47.115 52.3256 46.9354 48.7785V48.7771Z" fill="#37A4B9"/>
<path fill-rule="evenodd" clip-rule="evenodd" d="M67.148 43.0201C66.9119 39.9194 64.9664 35.4543 64.9664 35.4543L65.1353 41.2356C65.1353 41.2356 67.3845 46.1201 67.148 43.0201Z" fill="#37A4B9"/>
<path fill-rule="evenodd" clip-rule="evenodd" d="M50.8184 44.1685C47.7822 45.7658 46.4944 46.4106 44.8284 48.7599C43.1623 51.1093 42.0247 53.7211 43.3786 54.8907C44.7326 56.0604 53.0058 57.7459 55.4782 57.1299C57.9507 56.514 60.3156 55.2604 62.9104 52.3095C65.5053 49.3586 69.6306 45.44 69.9639 44.2848C70.2973 43.1295 69.4632 42.3076 67.4389 41.8036C65.4146 41.2996 59.8069 40.4788 57.9504 41.0883C55.4885 41.9071 53.1023 42.9376 50.8184 44.1685V44.1685Z" fill="#37A4B9"/>
<path d="M42.2181 14.9712C42.2216 14.9347 42.2239 14.9002 42.2253 14.8677C42.8981 14.9614 43.5801 14.9736 44.2566 14.9039L44.2566 14.904L44.2613 14.9034C45.6064 14.7393 46.9274 14.4163 48.1965 13.941C49.9332 13.2987 51.6472 11.7532 52.5594 10.8926L52.5597 10.8928L52.5688 10.8833C53.255 10.1639 53.8856 9.3936 54.4552 8.57906L54.9632 9.31392L54.9633 9.31398C55.1125 9.52962 55.3218 9.83744 55.4943 10.0919C55.5805 10.2191 55.6573 10.3327 55.7125 10.4145L55.7777 10.5111L55.7953 10.5372L55.7999 10.544L55.801 10.5457L55.8013 10.5461L55.8014 10.5462L55.8014 10.5462L56.0087 10.4065L55.8014 10.5462L55.9414 10.754L56.1486 10.6137L56.1487 10.6137L56.1488 10.6136L56.1489 10.6136L56.1489 10.6136L56.1509 10.6122L56.1605 10.6059C56.1694 10.6002 56.183 10.5915 56.201 10.5804C56.237 10.5582 56.29 10.5266 56.3562 10.4905C56.4894 10.4179 56.6722 10.329 56.8743 10.2606C57.2994 10.1168 57.7094 10.0949 57.9778 10.3372C58.3027 10.6305 58.4986 11.0572 58.586 11.5169C58.6733 11.9766 58.6476 12.4464 58.552 12.7997C58.4619 13.1327 58.2095 13.4845 57.9572 13.7673C57.8341 13.9053 57.717 14.0203 57.6308 14.1007C57.5878 14.1408 57.5527 14.1721 57.5287 14.193C57.5167 14.2035 57.5075 14.2114 57.5015 14.2165L57.495 14.222L57.4936 14.2232L57.4935 14.2233L57.4934 14.2233L57.4934 14.2233L57.4934 14.2234L57.3693 14.3261L57.4117 14.4816L57.9877 16.5945L57.9876 16.5945L57.9894 16.6003C58.3112 17.6763 58.4733 18.7937 58.4706 19.9168L58.4704 19.9168L58.4708 19.9273C58.5171 21.0887 58.3919 22.2506 58.0995 23.3754C57.8477 23.9525 57.5046 24.4852 57.0833 24.9532L57.0011 25.0445L57.0232 25.1653L57.313 26.7533L57.313 26.7534L57.4614 27.5659L57.4958 27.7543C57.4748 27.7982 57.4444 27.8608 57.4063 27.9368C57.3281 28.0928 57.218 28.3044 57.0898 28.5277C56.9613 28.7518 56.8167 28.9839 56.67 29.1826C56.5197 29.386 56.381 29.5351 56.2676 29.6115C55.7407 29.9663 55.1981 29.999 54.3808 29.9554C54.2347 29.9477 54.0603 29.8806 53.8682 29.7611C53.679 29.6434 53.4916 29.4867 53.3232 29.3257C53.1555 29.1655 53.0117 29.0057 52.9096 28.8857C52.87 28.8391 52.8368 28.7987 52.8113 28.767L52.8591 28.3447L52.8904 28.0687L52.6126 28.0665L51.5856 28.0587C50.873 28.0095 50.1694 27.8716 49.491 27.6482L49.4842 27.6459L49.4772 27.644C48.338 27.3404 46.9811 26.2739 45.8625 25.132C45.3191 24.5772 44.5741 23.5655 43.8765 22.503C43.2166 21.498 42.6122 20.4674 42.2731 19.7661L42.2202 19.6524C41.9548 19.0822 41.6617 18.5095 41.4354 18.0801C41.3221 17.8653 41.2254 17.6858 41.1569 17.56C41.141 17.5309 41.1266 17.5046 41.1139 17.4814L41.2595 17.2096C41.395 16.9565 41.5918 16.5886 41.8369 16.1295C42.0965 15.643 42.1915 15.2512 42.2181 14.9712Z" fill="#FFC3A9" stroke="#E89589" stroke-width="0.5"/>
<path fill-rule="evenodd" clip-rule="evenodd" d="M44.1116 41.9062C43.8211 41.3691 43.4546 41.1797 44.1721 40.1285C44.8896 39.0773 45.3086 38.0927 46.2914 37.4159C47.2742 36.7391 48.3348 36.0288 49.7294 36.0634C50.6757 36.0531 51.6189 36.1731 52.5324 36.4201C52.9157 36.5153 53.2643 36.717 53.5379 37.0019C53.7471 36.3966 54.0604 35.8325 54.4638 35.3351C54.97 34.6625 55.639 34.1298 56.4078 33.7871C57.3522 33.3563 58.3651 33.0952 59.4001 33.0156C60.3111 32.9355 61.2255 33.1267 62.0281 33.565C62.8597 34.0409 62.8115 34.0783 62.8522 34.8354C62.9914 35.9689 63.1967 37.0933 63.467 38.2029L64.8426 44.0496C64.9618 44.5583 65.0752 45.8784 64.7645 45.9022C64.4538 45.9259 63.7601 45.5299 63.0973 45.4529C62.4346 45.3759 61.0712 45.2916 60.3016 45.7668C59.5319 46.242 58.8792 46.3576 58.4141 46.9343C57.949 47.511 57.7852 48.0633 57.3611 48.2404C56.973 48.4024 56.3128 48.2652 55.4578 47.9128C54.6028 47.5603 53.0836 47.5981 52.0327 47.9128C50.9819 48.2274 50.3767 48.487 49.7287 49.0648L48.3438 50.3061C48.3438 50.3061 47.4751 47.7861 46.8869 47.1233C46.2986 46.4605 45.6931 44.5158 45.3475 44.0482C44.8997 43.3548 44.487 42.6395 44.1109 41.9047L44.1116 41.9062Z" fill="#A92CFF"/>
<path d="M53.72 38.0696C54.2377 39.1273 54.7474 41.3841 54.976 42.2013C55.444 43.8731 55.8141 45.1933 56.2313 46.6837" stroke="#642590" stroke-width="1.989" stroke-linecap="round" stroke-linejoin="round"/>
<path d="M38.3639 54.698C37.5382 54.7368 36.7073 54.6123 36.038 54.1838L35.9658 54.1342C35.4454 53.7768 35.1649 53.3855 35.051 52.9639C34.9358 52.5378 34.9817 52.0467 35.1793 51.4758C35.3645 50.9404 35.8532 50.3484 36.522 49.7988C37.1852 49.2538 37.9996 48.7718 38.7969 48.4479C40.4374 47.7816 42.0009 47.1469 43.1208 46.6926C43.6704 46.4697 44.1996 46.299 44.7014 46.1464C44.8312 46.1069 44.9599 46.0684 45.0869 46.0305C45.4468 45.9228 45.7931 45.8193 46.1136 45.7083L46.1137 45.7082L47.8133 45.1182L47.9876 45.0577L47.9812 44.8733L47.9811 44.8732L47.9811 44.8728L47.9811 44.871L47.9808 44.8635L47.9799 44.8339C47.9792 44.808 47.9782 44.77 47.9771 44.7225C47.975 44.6274 47.9728 44.494 47.9724 44.3413C47.9715 44.0339 47.9778 43.6554 48.0051 43.3529C48.0087 43.3136 48.012 43.2761 48.0152 43.2402C48.0391 42.9705 48.0547 42.7936 48.0968 42.6662C48.1178 42.6022 48.1401 42.5708 48.159 42.553C48.1763 42.5368 48.2064 42.5172 48.2708 42.505C48.2736 42.5045 48.2994 42.4998 48.3598 42.5468C48.4197 42.5935 48.4842 42.6695 48.5467 42.7626C48.6076 42.8533 48.6586 42.9482 48.6947 43.0217C48.7126 43.0581 48.7265 43.0884 48.7357 43.1092L48.7459 43.1326L48.7482 43.1381L48.7485 43.139L48.7485 43.1391L48.7486 43.1391L48.7486 43.1392L48.7486 43.1392L48.8894 43.486L49.1558 43.2228C49.4466 42.9356 49.7075 42.6197 49.9346 42.2799L49.9347 42.2799L49.938 42.2747C50.0819 42.0475 50.2932 41.7475 50.5317 41.5073C50.7816 41.2555 51.0097 41.1223 51.1873 41.1223C51.4664 41.1223 51.7085 41.1416 51.889 41.1944C52.0556 41.2431 52.1271 41.3065 52.1566 41.3685C52.2168 41.7424 52.219 42.1235 52.163 42.4982L52.1483 42.5962L52.2048 42.6776L52.2048 42.6776L52.2048 42.6777L52.2052 42.6782L52.2068 42.6805L52.2133 42.6901L52.2389 42.7276C52.261 42.7604 52.2928 42.808 52.331 42.8664C52.4074 42.9835 52.5086 43.1432 52.6087 43.3147C52.7093 43.4872 52.8059 43.667 52.8751 43.8252C52.9097 43.9044 52.9355 43.9739 52.9518 44.0316C52.9657 44.0809 52.9697 44.1117 52.9703 44.1275C52.8898 44.5857 52.6594 45.0045 52.3151 45.3178C52.1957 45.4224 52.0357 45.5847 51.8699 45.7528C51.7705 45.8537 51.669 45.9566 51.573 46.0504C51.4384 46.182 51.3096 46.301 51.1959 46.3914C51.0848 46.4796 51.012 46.5206 50.9753 46.5336C50.6719 46.573 50.3634 46.5439 50.0726 46.4484L50.0453 46.4395L50.0166 46.4369C49.7308 46.4117 49.4429 46.4374 49.1661 46.5128L49.0981 46.5313L49.0498 46.5826C48.352 47.3231 47.6964 48.1022 47.086 48.9163L47.0793 48.9252L47.0734 48.9347C46.8905 49.2303 46.4416 49.7267 45.9213 50.2452C45.4072 50.7574 44.8458 51.2692 44.457 51.5905C44.4349 51.6087 44.412 51.6276 44.3883 51.6473C43.9843 51.9813 43.3392 52.5148 42.6522 53.0209C41.9175 53.5623 41.1626 54.0512 40.6136 54.2433C40.0403 54.4439 39.2182 54.6578 38.3639 54.698Z" fill="#FFC3A9" stroke="#E89589" stroke-width="0.5"/>
<path d="M79.0683 46.4518L79.073 46.493C79.1318 47.0046 79.1435 47.6988 79.0061 48.3476C78.8679 49.0002 78.588 49.5676 78.0977 49.8861C77.043 50.571 75.3469 50.6929 73.8165 49.7941C73.462 49.5859 73.1194 49.2104 72.7831 48.7241C72.4489 48.2409 72.1356 47.6704 71.8309 47.0927C71.7662 46.9699 71.7017 46.8466 71.6375 46.7238C71.4025 46.2743 71.1711 45.8318 70.943 45.4485C70.6565 44.9672 70.3523 44.5385 70.0187 44.3015L70.0186 44.3015L65.8685 41.3552L65.7715 41.2863L65.6568 41.3182L65.7238 41.5591L65.6568 41.3182L65.6568 41.3182L65.6566 41.3183L65.6561 41.3184L65.6538 41.319L65.6448 41.3215L65.61 41.3312L65.481 41.3665C65.372 41.3962 65.221 41.4368 65.0534 41.4808C64.7161 41.5692 64.3189 41.669 64.0594 41.7202C63.8635 41.7589 63.6647 41.7133 63.4375 41.616C63.324 41.5674 63.2109 41.5094 63.09 41.4472L63.085 41.4446C62.9687 41.3848 62.8441 41.3207 62.7187 41.2674C62.5223 41.184 62.2849 41.0111 62.1261 40.8056C61.9644 40.5963 61.9243 40.4113 61.9854 40.2658C62.0542 40.1017 62.0818 39.9406 62.0461 39.784C62.0104 39.6269 61.9192 39.511 61.8221 39.4223C61.7283 39.3368 61.6129 39.2627 61.5082 39.1964C61.4984 39.1902 61.4886 39.184 61.4789 39.1778C61.3785 39.1143 61.2797 39.0519 61.1812 38.9775C60.9795 38.8251 60.9151 38.6767 60.9225 38.567C60.9296 38.4601 61.0121 38.2856 61.3486 38.0963L61.3486 38.0963L61.3498 38.0956C61.8168 37.8294 62.3425 37.683 62.8799 37.6697L62.8918 37.6694L62.9037 37.668C63.0501 37.6503 63.2535 37.7186 63.5218 37.8938C63.7821 38.0637 64.0578 38.3029 64.3402 38.5549C64.6211 38.8056 64.9188 39.0716 65.1462 39.2749L65.4238 39.5231L65.5027 39.5937L65.5237 39.6124L65.529 39.6172L65.5304 39.6185L65.5307 39.6188L65.5308 39.6188L65.5308 39.6189L65.6975 39.4325L65.5308 39.6189L65.5927 39.6742L65.6754 39.6816C66.8066 39.7821 67.931 39.9489 69.0426 40.1813L69.0426 40.1813L69.046 40.1819C70.5402 40.4729 71.9988 40.9239 73.3965 41.527C74.7578 42.134 76.071 42.8435 77.3248 43.6494C77.7962 43.9776 78.1948 44.3994 78.4959 44.8887C78.7897 45.3662 78.9843 45.8978 79.0683 46.4518Z" fill="#FFC3A9" stroke="#E89589" stroke-width="0.5"/>
<path fill-rule="evenodd" clip-rule="evenodd" d="M12.6536 73.6201C12.6839 70.4362 14.5793 69.1395 17.4128 68.9491C20.2464 68.7586 24.9145 68.4451 28.6088 68.1963C32.3032 67.9476 39.7444 67.8198 42.3331 67.8684C44.9219 67.917 70.5276 66.6116 77.2258 66.3672C83.9239 66.1227 87.7622 65.9816 91.017 65.8632C94.2718 65.7447 95.6671 65.1705 95.7002 66.6591C95.7334 68.1477 94.6418 68.4404 93.6097 68.6247C92.5776 68.809 91.3057 76.5137 92.8573 76.4659C94.4089 76.418 96.0973 76.4896 96.1333 77.9059C96.1693 79.3221 94.3427 79.5259 92.5063 79.5125C90.67 79.4992 83.5718 79.5388 78.93 79.7087C74.2716 79.8805 61.038 80.2995 53.7919 80.6066C46.5458 80.9137 37.9062 81.6268 28.2128 81.6898C20.4163 81.7402 18.0248 82.0441 16.4408 81.7665C14.8568 81.4889 12.7073 79.8643 12.6227 78.2331C12.5381 76.6019 12.6457 74.6155 12.6551 73.6219L12.6536 73.6201Z" fill="#F89E36"/>
<path fill-rule="evenodd" clip-rule="evenodd" d="M15.5185 75.879C15.5459 74.5708 15.5516 73.5628 16.1219 72.8496C16.6921 72.1365 18.4025 71.7696 21.1442 71.8078C23.886 71.8459 32.9353 70.7998 38.1218 70.6608L69.2748 69.8224C75.9729 69.6424 93.5388 68.647 93.5388 68.647L92.9988 76.4611C89.3264 76.8964 85.628 77.0721 81.9309 76.9867C75.9719 76.8327 64.6981 76.9651 57.5024 77.3341C48.7861 77.7802 33.9404 78.3421 29.5664 78.5679L18.2984 79.1439C16.4556 79.2382 15.4584 78.7961 15.5203 75.8772L15.5185 75.879Z" fill="white"/>
<path d="M21.0831 76.7843L29.262 76.7678C33.0272 76.7606 51.8563 75.9304 56.4283 75.6226C64.1485 75.1028 68.9505 74.9555 76.6779 74.9184C80.6019 74.9001 85.9105 74.5714 89.832 74.4241M21.9885 73.9731C23.5394 73.2423 27.6045 73.7211 29.2605 73.7185C33.0258 73.711 51.8549 72.8808 56.4269 72.573C64.1471 72.0539 68.9491 71.9059 76.6765 71.8696C80.6005 71.8512 84.5285 71.3209 88.4485 71.1733L21.9885 73.9731Z" stroke="#696868" stroke-width="1.989" stroke-linecap="round" stroke-linejoin="round"/>
<path fill-rule="evenodd" clip-rule="evenodd" d="M86.8338 84.2137C86.7948 82.8672 86.255 81.5835 85.32 80.6137C84.3675 79.6648 82.5754 79.6057 80.415 79.6057C78.2809 79.6057 73.4969 79.646 69.723 79.6684C65.9491 79.6907 56.655 80.348 53.7048 80.5324C50.7546 80.7167 31.675 81.3197 26.2588 81.5134C20.8426 81.707 14.9188 81.9194 13.6771 81.9634C12.4355 82.0073 11.8591 82.2838 11.8681 83.2882C11.8771 84.2926 12.4654 85.2635 14.0109 85.2196L17.0025 85.1335L17.6436 94.5706C17.6436 94.5706 15.8404 94.6606 14.6488 94.8082C13.4572 94.9558 12.5428 95.3276 12.5709 96.4224C12.5989 97.5172 13.1303 98.2408 15.4217 98.0784C17.7131 97.916 22.7635 98.0154 29.3512 97.663C35.9388 97.3105 55.7669 97.3566 62.3387 97.1266C68.9105 96.8965 78.3295 96.5671 81.0904 96.471C83.8512 96.3749 84.8988 96.4854 85.8139 95.1635C86.7291 93.8416 86.7942 91.9566 86.8975 89.8754C86.9777 87.9891 86.9567 86.0999 86.8345 84.2159L86.8338 84.2137Z" fill="#D04B2D"/>
<path fill-rule="evenodd" clip-rule="evenodd" d="M14.58 85.202L14.832 94.7873C14.832 94.7873 19.224 94.6368 22.5619 94.5756C25.8998 94.5144 30.4315 94.2743 35.1543 94.3456C39.8772 94.4169 51.7906 94.2883 56.5081 94.1724C61.4466 94.0515 67.5039 93.6976 72.667 93.7764C77.6811 93.8524 80.4592 93.6349 81.4806 93.6166C82.5019 93.5982 83.939 92.5416 83.9739 90.7816C84.0088 89.0216 84.0625 86.3003 84.0841 85.1937C84.0972 84.4904 83.8334 83.8101 83.3494 83.2996C82.8654 82.7892 82.2001 82.4895 81.4971 82.4652C79.7119 82.4138 76.3884 82.5732 71.8948 82.9379C67.4013 83.3026 57.2256 83.4484 52.0657 83.7184C46.9058 83.9884 35.3023 84.0424 30.2907 84.2364C25.2792 84.4305 14.58 85.202 14.58 85.202Z" fill="white"/>
<path d="M17.4668 91.9985C19.7708 91.9207 22.5928 91.9945 24.2488 91.9934C28.0148 91.9909 46.8446 91.1841 51.4166 90.8821C59.1379 90.3716 59.4367 90.3597 67.1637 90.332C71.0877 90.3187 74.5362 90.0638 78.458 89.9213M16.9783 87.8707C19.2823 87.7929 22.5964 87.6266 24.2503 87.6255C28.0159 87.6223 46.846 86.8155 51.4177 86.5135C59.139 86.003 63.9417 85.8615 71.6688 85.8342C75.5928 85.8208 75.4434 85.6974 79.3645 85.5544L16.9783 87.8707Z" stroke="#696868" stroke-width="1.989" stroke-linecap="round" stroke-linejoin="round"/>
<path fill-rule="evenodd" clip-rule="evenodd" d="M43.1945 50.9192C44.7753 51.2651 49.7465 52.3077 50.5558 52.5302C51.3373 52.7913 52.1596 52.9089 52.9829 52.8772L56.0937 52.6861C56.4961 52.6917 56.8946 52.6065 57.2595 52.4367C57.6244 52.2669 57.9463 52.0169 58.2011 51.7054C58.7602 50.9789 60.5577 49.5487 61.7428 48.2609C62.9279 46.9732 64.1156 45.683 65.2348 44.4683C66.354 43.2537 68.3045 42.6946 69.4158 42.6493C70.5272 42.6039 68.2732 59.8288 68.2732 59.8288L61.5995 67.0436L46.8874 67.7783C46.8874 67.7783 41.613 50.5732 43.1945 50.9192V50.9192Z" fill="#616161"/>
<path fill-rule="evenodd" clip-rule="evenodd" d="M40.1188 50.76C37.9188 51.0653 36.7553 53.4891 36.3028 55.7071C35.8503 57.9251 35.0565 63.3207 35.8236 67.8207C36.5874 71.9167 37.6348 75.9546 38.9585 79.9052C39.8092 82.4533 41.0699 86.2283 41.7816 88.3587C42.4934 90.4892 43.7544 96.1805 43.7544 96.1805L48.8794 95.517C48.8794 95.517 49.2196 88.4721 49.2239 85.113C49.2282 81.7538 49.2387 74.0808 49.2419 71.5244C49.2452 68.9681 49.7286 65.0246 49.7286 63.194C49.7286 61.3634 49.3719 56.8332 47.3948 53.9643C45.9368 51.849 43.6119 50.2758 40.1181 50.7603L40.1188 50.76Z" fill="#8B8B8B"/>
<path fill-rule="evenodd" clip-rule="evenodd" d="M72.684 43.3106C74.3166 44.4953 76.3262 46.3367 76.418 49.4306C76.5098 52.5244 74.8639 57.2239 73.466 60.1823C72.0681 63.1408 69.0571 69.5013 67.5857 72.6113C66.1144 75.7214 64.2737 79.1781 63.4047 80.6663L61.5287 83.8747L57.6821 81.8461C57.6821 81.8461 57.879 77.7381 58.3208 73.4264C58.7625 69.1147 59.1304 65.5193 59.5534 61.3898C59.9764 57.2602 60.7853 54.6477 61.6569 51.8563C62.5284 49.0648 65.1449 45.526 66.4089 44.0482C67.72 42.5186 71.0061 42.0923 72.6837 43.3091L72.684 43.3106Z" fill="#8B8B8B"/>
<path fill-rule="evenodd" clip-rule="evenodd" d="M45.5018 19.224C45.5101 19.4544 45.5598 19.6815 45.6484 19.8943C45.7114 20.0025 45.7852 20.1041 45.8687 20.1975C46.1441 20.4898 46.8886 20.7468 47.0477 20.191C47.1802 19.7266 46.7687 19.1416 46.4839 18.7654C46.4001 18.6778 46.293 18.6158 46.1753 18.5868C46.0576 18.5577 45.934 18.5627 45.819 18.6012C45.6552 18.6772 45.531 19.0087 45.5018 19.224V19.224Z" fill="black"/>
<path fill-rule="evenodd" clip-rule="evenodd" d="M49.8063 16.4574C49.7242 16.5738 49.6812 16.7132 49.6837 16.8556C49.6862 16.998 49.7339 17.1359 49.82 17.2494L50.0719 17.7505C50.1365 17.8884 50.2086 18.0227 50.2879 18.1526C50.3447 18.2243 50.4187 18.2804 50.503 18.3157C50.5873 18.351 50.6792 18.3643 50.7701 18.3544C50.861 18.3445 50.9478 18.3116 51.0226 18.259C51.0973 18.2063 51.1574 18.1355 51.1973 18.0533C51.2718 17.8536 51.2977 17.639 51.2726 17.4273C51.2476 17.2156 51.1724 17.0129 51.0533 16.8361C50.9722 16.6539 50.8518 16.4919 50.7009 16.3616C50.5639 16.2714 50.3999 16.2315 50.2368 16.2488C50.0737 16.2661 49.9217 16.3394 49.8066 16.4563L49.8063 16.4574Z" fill="black"/>
<path d="M49.5414 21.0896C49.5496 21.2829 49.5717 21.4754 49.6076 21.6656C49.662 21.9586 49.7282 22.2535 49.8002 22.5422C49.8133 22.6576 49.8472 22.7697 49.9003 22.873C49.932 22.9155 50.0231 22.9188 50.0691 22.9418C50.1645 22.9876 50.268 23.0139 50.3736 23.0193C50.4792 23.0246 50.5849 23.009 50.6844 22.9731C50.7099 22.9648 50.8842 22.8979 50.8842 22.8651M52.5513 24.9034C52.948 24.7344 53.3092 24.4922 53.6162 24.1896C54.2966 23.4296 54.3485 23.0192 54.3675 22.688" stroke="#1A1A1A" stroke-width="0.5" stroke-linecap="round" stroke-linejoin="round"/>
<path fill-rule="evenodd" clip-rule="evenodd" d="M57.4272 83.8277C56.6601 84.153 55.9944 84.6785 55.4998 85.3491C55.115 85.8729 55.134 86.3121 55.5099 87.3989C55.9035 88.7502 56.4394 90.0559 57.1086 91.2941C57.9503 92.7366 58.5072 93.5261 59.1884 93.7295C59.8695 93.9329 60.2493 93.0815 60.1557 91.9454C60.0621 90.8092 59.9487 87.4594 59.7932 86.559C59.6376 85.6587 58.1325 83.611 57.4272 83.8277V83.8277Z" fill="black"/>
<path fill-rule="evenodd" clip-rule="evenodd" d="M58.1958 82.0022C57.9496 82.6074 57.8963 83.5142 57.4006 83.9621C56.9049 84.4099 57.0694 85.0421 57.6796 85.8438C58.2898 86.6455 58.9036 88.0221 59.5228 87.9012C60.142 87.7802 59.6477 85.7199 59.5948 85.4658C59.5419 85.2116 60.6697 83.2403 60.6697 83.2403C60.6697 83.2403 58.4403 81.3967 58.1951 82.0022H58.1958Z" fill="#FFC3A9"/>
<path fill-rule="evenodd" clip-rule="evenodd" d="M45.3687 99.7377C44.9007 100.258 44.3185 101.338 43.6831 102.348C43.0477 103.359 42.6165 104.438 42.6165 105.128C42.6165 105.818 43.0035 106.532 43.7551 106.033C44.9624 105.132 46.085 104.122 47.1089 103.017C47.9754 102.045 49.086 101.084 49.4075 100.443C49.7539 99.7164 49.8055 98.884 49.5515 98.1202C49.2685 97.5176 48.3275 97.2786 48.3275 97.2786C48.3275 97.2786 45.8359 99.2175 45.369 99.7377H45.3687Z" fill="black"/>
<path fill-rule="evenodd" clip-rule="evenodd" d="M44.925 95.7116C45.3009 96.4823 45.5839 97.2949 45.7682 98.1323C45.8463 98.7051 45.5615 99.3901 45.1626 100.195C44.7638 101.001 44.4502 101.73 45.0932 101.678C45.7361 101.625 46.23 101.213 46.8874 100.302C47.421 99.6207 47.8909 98.8915 48.2914 98.124C48.4451 97.7154 48.0912 97.1401 47.8187 96.5469C47.6424 96.0871 47.5502 95.5993 47.5466 95.1068C47.5466 95.1068 44.4837 94.6939 44.9265 95.7109L44.925 95.7116Z" fill="#FFC3A9"/>
<ellipse cx="41.0433" cy="14.9633" rx="1.5" ry="2.66961" transform="rotate(14.7304 41.0433 14.9633)" fill="black"/>
<ellipse cx="47.3784" cy="10.5025" rx="4.37447" ry="7.36546" transform="rotate(71.326 47.3784 10.5025)" fill="black"/>
</svg>
