<svg xmlns="http://www.w3.org/2000/svg" width="108" height="108" fill="none"><style><![CDATA[.B{fill-rule:evenodd}.C{fill:#ffc3a9}.D{stroke-linecap:round}.E{stroke-linejoin:round}.F{stroke-width:.5}.G{stroke-width:1.989}]]></style><g class="B"><path d="M42.04 19.84c-1.535.216-3.622-.293-4.77-2.065a7.48 7.48 0 0 1-1.144-2.687c-.2-.962-.21-1.955-.028-2.92.39-1.82 1.418-2.302 1.98-2.586.364-.17.768-.238 1.168-.194a7.76 7.76 0 0 1 .507-2.725c.526-1.23 1.796-2.537 3.492-3.324S46.72 1.96 47.98 1.84c1.265-.084 2.535-.006 3.78.23 1.204.2 2.42 1.25 3.028 2.065s1 .36 1.672 1.124c.778.786 1.298 1.79 1.5 2.88.364 1.584-.146 2.2-.146 2.2s-14.227 9.285-15.764 9.5z" fill="#000"/><path d="M52.766 28.815c-2.16.25-4.276.784-6.297 1.586-2.025.888-4.114 2.798-5.77 4.793s-3.464 5.3-4.874 7.747-2.588 6.755-1.9 8.374a6.02 6.02 0 0 0 4.438 3.531c2.326.5 4.026-3.476 5.616-5.455s5.597-4.757 7.848-5.9 7.583-3.328 10.45-3.096 8.014 2.376 9.676 3.826 4.188 3.742 5.427 2.65 1.317-4.416.66-6.663-2.924-5.46-4.694-6.928-4.402-3.256-7.187-4.237-4.336-1.383-5.87-1.337l-2.636.078s-3.372.847-4.893 1.023l-.002-.001z" fill="#78e8fd"/><g fill="#37a4b9"><path d="M46.935 48.777l-.46-9.05-3.525 8.1c-1.185 2.46 4.164 4.5 3.984.953h0zm20.213-5.757c-.236-3.1-2.182-7.566-2.182-7.566l.17 5.78s2.25 4.885 2.013 1.785z"/><path d="M50.818 44.17c-3.036 1.597-4.324 2.242-6 4.59s-2.804 4.96-1.45 6.13 9.627 2.855 12.1 2.24 4.837-1.87 7.432-4.82 6.72-6.87 7.053-8.025-.5-1.977-2.525-2.48-7.632-1.325-9.49-.715a44.9 44.9 0 0 0-7.132 3.08h0z"/></g></g><path d="M42.218 14.97l.007-.104a8.45 8.45 0 0 0 2.031.036h0l.005-.001c1.345-.164 2.666-.487 3.935-.962 1.737-.642 3.45-2.188 4.363-3.048h0l.01-.01a19.67 19.67 0 0 0 1.886-2.304l.508.735.53.778.307.454.207-.14-.207.14.14.208.21-.142.01-.006.04-.026.155-.1c.133-.073.316-.162.518-.23.425-.144.835-.166 1.104.077.325.293.52.72.608 1.18s.062.93-.034 1.283c-.1.333-.343.685-.595.968l-.326.333-.102.092-.027.024-.007.005-.001.001h0 0 0l-.124.103.62 2.274a11.48 11.48 0 0 1 .481 3.316h0v.01a11.83 11.83 0 0 1-.371 3.448 5.86 5.86 0 0 1-1.016 1.578l-.082.09.495 2.7-.1.183-.317.59-.42.655c-.15.203-.29.352-.402.43-.527.355-1.07.387-1.887.344-.146-.008-.32-.075-.513-.194s-.377-.274-.545-.435a5.95 5.95 0 0 1-.414-.44l-.098-.12.08-.698-1.305-.01a8.59 8.59 0 0 1-2.095-.411l-.007-.002-.007-.002c-1.14-.304-2.496-1.37-3.615-2.512-.543-.555-1.288-1.567-1.986-2.63-.66-1.005-1.264-2.036-1.603-2.737l-.053-.114-.785-1.572-.28-.52-.043-.08.146-.272.577-1.08c.26-.486.355-.878.38-1.158z" stroke="#e89589" class="C F"/><path d="M44.112 41.906c-.29-.537-.657-.727.06-1.778s1.136-2.036 2.12-2.713 2.043-1.387 3.438-1.352a10.31 10.31 0 0 1 2.803.357c.383.095.732.297 1.005.582.21-.605.523-1.17.926-1.667a4.96 4.96 0 0 1 1.944-1.548c.944-.43 1.957-.692 2.992-.772.91-.08 1.825.11 2.628.55.832.476.783.513.824 1.27.14 1.133.344 2.258.615 3.367l1.376 5.847c.12.51.233 1.83-.078 1.853s-1.004-.372-1.667-.45-2.026-.16-2.796.314-1.422.59-1.888 1.167-.63 1.13-1.053 1.306c-.388.162-1.048.025-1.903-.328s-2.374-.315-3.425 0-1.656.574-2.304 1.152l-1.385 1.24s-.87-2.52-1.457-3.183-1.194-2.608-1.54-3.075a24.67 24.67 0 0 1-1.237-2.144l.001.002z" fill="#a92cff" class="B"/><path d="M53.72 38.07c.518 1.058 1.027 3.314 1.256 4.132l1.255 4.482" stroke="#642590" class="D E G"/><path d="M38.364 54.698c-.826.04-1.657-.086-2.326-.514l-.072-.05c-.52-.357-.8-.75-.915-1.17s-.07-.917.128-1.488c.185-.535.674-1.127 1.343-1.677.663-.545 1.478-1.027 2.275-1.35l4.324-1.755a18.33 18.33 0 0 1 1.581-.546l.386-.116 1.027-.322 1.874-.65-.006-.186v-.038l-.003-.1-.005-.38.033-.988.01-.113c.024-.27.04-.447.082-.574a.25.25 0 0 1 .062-.113c.02-.018.047-.036.112-.048.003-.001.03-.005.1.042s.124.123.187.216a2.11 2.11 0 0 1 .148.26l.04.087.01.023v.006.001l.14.347.266-.263a6.05 6.05 0 0 0 .779-.943h0l.003-.005c.144-.227.355-.527.594-.767.25-.252.478-.385.656-.385.28 0 .52.02.702.072.167.05.238.112.268.174a3.69 3.69 0 0 1 .006 1.13l-.015.098.056.08.002.002.006.01.026.038.092.14.278.448.266.5a1.66 1.66 0 0 1 .077.206.44.44 0 0 1 .019.096 2.1 2.1 0 0 1-.655 1.19c-.12.105-.28.267-.445.435l-.297.298-.377.34a.92.92 0 0 1-.221.142 2.05 2.05 0 0 1-.903-.085l-.027-.01-.03-.003a2.41 2.41 0 0 0-.85.076l-.068.02-.048.05a27.16 27.16 0 0 0-1.964 2.334l-.007.01-.006.01c-.183.296-.632.792-1.152 1.3l-1.464 1.345-.07.057-1.736 1.374c-.735.54-1.5 1.03-2.04 1.222-.573.2-1.395.415-2.25.455zm40.704-8.246l.005.04a6 6 0 0 1-.067 1.855c-.137.65-.418 1.22-.908 1.538-1.055.685-2.75.807-4.28-.092-.355-.208-.697-.584-1.033-1.07s-.648-1.054-.952-1.63l-.193-.37-.695-1.275c-.287-.48-.6-.9-.924-1.147h0l-4.247-3.015-.115.032.067.24-.067-.24h-.001l-.002.001h-.01l-.035.01-.13.035-.428.114-.994.24c-.196.04-.395-.007-.622-.104l-.352-.17-.366-.177c-.196-.083-.434-.256-.593-.462s-.202-.394-.14-.54c.07-.164.096-.325.06-.482a.7.7 0 0 0-.224-.362c-.094-.086-.2-.16-.314-.226l-.03-.02-.298-.2c-.202-.152-.266-.3-.26-.4s.1-.28.426-.47h.001a3.25 3.25 0 0 1 1.53-.426h.012.012c.146-.018.35.05.618.226.26.17.536.4.818.66l1.2 1.064.167-.186-.167.186.062.055.083.007a28.99 28.99 0 0 1 3.367.5h0l.003.001a21.22 21.22 0 0 1 4.35 1.345 29.51 29.51 0 0 1 3.928 2.122 4.18 4.18 0 0 1 1.743 2.802z" stroke="#e89589" class="C F"/><g class="B"><path d="M12.654 73.62c.03-3.184 1.926-4.48 4.76-4.67l11.196-.753c3.694-.25 11.136-.376 13.724-.328s28.195-1.257 34.893-1.5l13.79-.504c3.255-.12 4.65-.693 4.683.796s-1.058 1.78-2.1 1.966-2.304 7.89-.752 7.84 3.24.024 3.276 1.44-1.79 1.62-3.627 1.607a420.48 420.48 0 0 0-13.576.196l-25.138.898c-7.246.307-15.886 1.02-25.58 1.083-7.797.05-10.188.354-11.772.077s-3.733-1.902-3.818-3.533.023-3.618.032-4.61l-.001-.002z" fill="#f89e36"/><path d="M15.52 75.88c.027-1.308.033-2.316.603-3.03s2.28-1.08 5.022-1.042 11.79-1.008 16.978-1.147l31.153-.838c6.698-.18 24.264-1.175 24.264-1.175L93 76.46c-3.672.435-7.37.61-11.068.526-5.96-.154-17.233-.022-24.428.347l-27.936 1.234-11.268.576c-1.843.094-2.84-.348-2.778-3.267v.002z" fill="#fff"/></g><path d="M21.083 76.784l8.18-.017c3.765-.007 22.594-.837 27.166-1.145 7.72-.52 12.522-.667 20.25-.704 3.924-.018 9.233-.347 13.154-.494m-67.843-.45c1.55-.73 5.616-.252 7.272-.255 3.765-.008 22.594-.838 27.166-1.146 7.72-.52 12.522-.667 20.25-.703 3.924-.018 7.852-.55 11.772-.696l-66.46 2.8z" stroke="#696868" class="D E G"/><g class="B"><path d="M86.834 84.214c-.04-1.347-.58-2.63-1.514-3.6-.952-.95-2.745-1.008-4.905-1.008l-10.692.063c-3.774.022-13.068.68-16.018.864s-22.03.787-27.446.98l-12.582.45c-1.242.044-1.818.32-1.81 1.325s.597 1.975 2.143 1.93l2.992-.086.64 9.437s-1.803.1-2.995.238-2.106.52-2.078 1.614.56 1.818 2.85 1.656 7.342-.063 13.93-.415 26.416-.306 32.988-.536L81.1 96.47c2.76-.096 3.808.014 4.724-1.308s.98-3.207 1.084-5.288a52.79 52.79 0 0 0-.063-5.659l-.001-.002z" fill="#d04b2d"/><path d="M14.58 85.202l.252 9.585 7.73-.212c3.338-.06 7.87-.3 12.592-.23s16.636-.057 21.354-.173c4.938-.12 10.996-.475 16.16-.396 5.014.076 7.792-.14 8.814-.16s2.458-1.075 2.493-2.835l.1-5.588a2.68 2.68 0 0 0-2.587-2.729c-1.785-.05-5.11.108-9.602.473s-14.67.51-19.83.78-16.763.324-21.775.518-15.71.966-15.71.966z" fill="#fff"/></g><path d="M17.467 92l6.782-.005c3.766-.002 22.596-.81 27.168-1.11 7.72-.5 8.02-.522 15.747-.55 3.924-.013 7.372-.268 11.294-.41m-61.48-2.05l7.272-.245c3.766-.003 22.596-.8 27.167-1.112 7.72-.5 12.524-.652 20.25-.68 3.924-.013 3.775-.137 7.696-.28L16.978 87.87z" stroke="#696868" class="D E G"/><g class="B"><path d="M43.195 50.92l7.36 1.61a6.83 6.83 0 0 0 2.427.347l3.11-.19c.402.006.8-.08 1.166-.25s.687-.42.942-.73c.56-.726 2.357-2.157 3.542-3.444l3.492-3.793c1.12-1.215 3.07-1.774 4.18-1.82s-1.143 17.18-1.143 17.18L61.6 67.044l-14.712.735s-5.274-17.205-3.693-16.86h0z" fill="#616161"/><path d="M40.12 50.76c-2.2.305-3.364 2.73-3.816 4.947s-1.246 7.614-.48 12.114a89.92 89.92 0 0 0 3.135 12.084l2.823 8.454c.712 2.13 1.973 7.822 1.973 7.822l5.125-.663s.34-7.045.345-10.404l.018-13.6c.003-2.556.487-6.5.487-8.33s-.357-6.36-2.334-9.23c-1.458-2.115-3.783-3.7-7.277-3.204h.001zm32.564-7.45c1.633 1.185 3.642 3.026 3.734 6.12s-1.554 7.793-2.952 10.752l-5.88 12.43-4.18 8.055-1.876 3.208-3.847-2.03s.197-4.108.64-8.42l1.23-12.025c.423-4.13 1.232-6.742 2.103-9.534s3.488-6.33 4.752-7.808c1.3-1.53 4.597-1.956 6.275-.74h0z" fill="#8b8b8b"/><path d="M45.502 19.224a1.91 1.91 0 0 0 .147.67c.063.108.137.2.22.303.275.292 1.02.55 1.18-.007.133-.464-.28-1.05-.564-1.426a.64.64 0 0 0-.665-.164c-.164.076-.288.408-.317.623h0zm4.304-2.767a.67.67 0 0 0 .014.792l.252.5a4.31 4.31 0 0 0 .216.402.54.54 0 0 0 .909-.099 1.34 1.34 0 0 0-.144-1.217 1.35 1.35 0 0 0-.352-.474.71.71 0 0 0-.894.095v.001z" fill="#000"/></g><path d="M49.54 21.1c.008.193.03.386.066.576l.193.877a.96.96 0 0 0 .1.331c.032.043.123.046.17.07a.8.8 0 0 0 .615.031c.026-.008.2-.075.2-.108m1.667 2.038c.397-.17.758-.41 1.065-.714.68-.76.732-1.17.75-1.502" stroke="#1a1a1a" class="D E F"/><g class="B"><path d="M57.427 83.828a4.65 4.65 0 0 0-1.927 1.521c-.385.524-.366.963.01 2.05.394 1.35.93 2.657 1.6 3.895.842 1.442 1.4 2.232 2.08 2.435s1.06-.648.967-1.784l-.363-5.386c-.156-.9-1.66-2.948-2.366-2.73h0z" fill="#000"/><path d="M58.196 82.002c-.246.605-.3 1.512-.795 1.96s-.33 1.08.28 1.882 1.224 2.178 1.843 2.057.125-2.18.072-2.435 1.075-2.225 1.075-2.225-2.23-1.844-2.475-1.238h.001z" class="C"/><path d="M45.37 99.738c-.468.52-1.05 1.6-1.686 2.6s-1.067 2.1-1.067 2.78.387 1.404 1.14.905a24.77 24.77 0 0 0 3.354-3.016c.867-.972 1.977-1.933 2.3-2.574.346-.727.398-1.56.144-2.323-.283-.603-1.224-.842-1.224-.842l-2.96 2.46z" fill="#000"/><path d="M44.925 95.712c.376.77.66 1.583.843 2.42.078.573-.207 1.258-.606 2.063s-.712 1.535-.07 1.483 1.137-.465 1.794-1.376c.534-.68 1.004-1.41 1.404-2.178.154-.41-.2-.984-.473-1.577-.176-.46-.27-.948-.272-1.44 0 0-3.063-.413-2.62.604l-.002.001z" class="C"/></g><g fill="#000"><ellipse cx="41.043" cy="14.963" rx="1.5" ry="2.67" transform="rotate(14.73 41.043 14.963)"/><ellipse cx="47.378" cy="10.503" rx="4.374" ry="7.365" transform="rotate(71.326 47.378 10.503)"/></g></svg>