<svg xmlns="http://www.w3.org/2000/svg" xmlns:xlink="http://www.w3.org/1999/xlink" width="108" height="108" fill="none"><style><![CDATA[.B{stroke-linejoin:round}.C{stroke-width:1.346}.D{stroke-linecap:round}.E{stroke:#e89589}.F{fill:#ffc3a9}.G{stroke-width:2.018}.H{stroke-miterlimit:10}.I{stroke:#ae504a}.J{stroke:#ffeb7d}.K{stroke:#ff5c76}.L{stroke:#f9c126}.M{fill:#621cd1}.N{stroke-width:1.009}]]></style><g class="H"><path d="M59.626 14.164a57.64 57.64 0 0 1-2.955-5.4c-1.1-.23-2.2-.288-3.318-.17-2.568-.945-4.02-.085-4.02-.085.255-3.22-5.79-9.13-9.264-3.863s2.448 7.34 5.534 6.43a4.97 4.97 0 0 0-.496 2.64c-.668 1.06-1.193 2.205-1.562 3.403-2.446 7.726-5.667 5.4-9.518 7.206s-12.232 14.8 1.67 24.318 33.97-4.508 36.162-13.904S60.9 16.102 59.626 14.164z" fill="#ae504a" class="I N"/><path d="M46.17 11.403c.133 2.06.388 6.176 1.03 7.206" stroke="#3e9ff8" class="C"/></g><path d="M50.023 20.002c-.327.194-4.82-.606-4.7-2.556.12-1.974 3.16-.7 3.44-.35" class="F"/><g class="B D"><path d="M50.023 20.002c-.327.194-4.82-.606-4.7-2.556.12-1.974 3.16-.7 3.44-.35" class="C E"/><path d="M29.714 66.094c1.12-1.437 2.317-2.812 3.586-4.118m.52 11.456c.218-2.398 1.284-8.562 1.284-8.562" class="G L"/><path d="M45.144 72.403c-.08-2.63-.338-5.253-.775-7.848" class="G J"/></g><path d="M88.013 42.49c-.108-.75 1.332-3.585 1.332-4.118 0-1.695-.98-2.3-.727-4.36.242-1.938.92-3.076 1.017-2.52s.28 2.87.92 3.73 3.233 1.03 4.7-1.55c1.465-2.592-.303-5.268-.097-5.595s1.344.206 1.877 2.035a3.81 3.81 0 0 1-.242 3.015s1.188 2.47 1.078 3.55c-.157 1.586-3.44 3.124-4.093 3.657s-1.502 3.875-1.502 3.875l-4.262-1.72z" class="B C E F"/><path d="M94.964 33.105l-3.704.654a1.08 1.08 0 0 1-.815-.178 1.08 1.08 0 0 1-.445-.706l-1.26-7.17a1.08 1.08 0 0 1 .178-.815 1.08 1.08 0 0 1 .706-.445l3.706-.654a1.08 1.08 0 0 1 .815.178 1.08 1.08 0 0 1 .445.706l1.26 7.17c.025.14.023.286-.008.426s-.09.272-.17.4-.187.217-.308.294-.256.13-.397.153h0z" class="M"/><path d="M93.28 23.826l-.906.16 1.64 9.3.907-.16-1.64-9.3zm-1.68 3.672l-1.078.194a.4.4 0 0 1-.46-.315l-.194-1.078a.4.4 0 0 1 .315-.46l1.078-.194a.4.4 0 0 1 .46.315l.194 1.078a.4.4 0 0 1-.315.46h0z" fill="#a4d2fc"/><g class="B C E F"><path d="M95.582 34.655c1.175-1.017 2.12-1.853 1.6-2.448s-1.466.242-2.64 1.26-1.89 2.12-1.598 2.448 1.477-.23 2.64-1.26z"/><path d="M96.26 36.023c1.054-.75 1.913-1.344 1.476-1.962s-1.296-.012-2.35.74-1.72 1.623-1.476 1.962 1.284.012 2.35-.74z"/><path d="M96.72 37.26c.896-.63 1.623-1.15 1.247-1.683s-1.102-.024-1.998.605-1.453 1.38-1.247 1.683 1.102.023 1.998-.606z"/></g><path d="M68.37 34.632c-5.22-5.026-15.89-8.175-26.837 1.998-12.74 12.23-10.68 32.553-3.415 34.042 5.098 1.04 9.52-1.284 9.52-1.284s12.23 3.61 20.72-1.162c6.43 2.834 17.887-2.313 21.23-9s4.373-18.784 4.373-18.784c-.912.202-1.856.202-2.768.002a6.42 6.42 0 0 1-2.512-1.164c-2.834 1.804-9.13 6.95-9.652 9-1.902-4.263-7.303-10.44-10.658-13.647z" fill="#ff859b"/><g fill="#ffadc7"><path d="M42.502 36.496h-.036a.82.82 0 0 0-.448.108.97.97 0 0 0-.376.242.84.84 0 0 0-.242.378c-.072.138-.1.292-.108.448.01.307.13.6.34.824a1.21 1.21 0 0 0 .824.34h.036c.157.007.312-.03.448-.108.142-.05.27-.133.375-.242.113-.1.197-.23.242-.376a.94.94 0 0 0 .108-.448 1.25 1.25 0 0 0-.339-.823c-.22-.217-.515-.34-.824-.34h-.036a.82.82 0 0 0-.448.108.96.96 0 0 0-.375.242.84.84 0 0 0-.242.375c-.072.138-.1.292-.108.448.01.307.13.6.34.824a1.21 1.21 0 0 0 .824.34h.036c.157.007.312-.03.448-.108.142-.05.27-.133.375-.242.113-.1.197-.23.242-.376a.94.94 0 0 0 .108-.448 1.25 1.25 0 0 0-.339-.823c-.22-.217-.515-.34-.824-.34v-.003zm-1.925 23.93h-.036c-.157-.007-.312.03-.448.108-.142.05-.27.133-.376.242a.84.84 0 0 0-.242.375c-.072.138-.1.292-.108.448a1.25 1.25 0 0 0 .339.823 1.21 1.21 0 0 0 .823.34h.036a.82.82 0 0 0 .448-.108c.142-.05.27-.133.375-.242a.83.83 0 0 0 .242-.375c.072-.138.1-.292.108-.448a1.25 1.25 0 0 0-.339-.824 1.23 1.23 0 0 0-.823-.339h-.036c-.157-.007-.312.03-.448.108-.142.05-.27.133-.376.242a.84.84 0 0 0-.242.375c-.072.138-.1.292-.108.448a1.25 1.25 0 0 0 .339.823 1.21 1.21 0 0 0 .823.34h.036a.82.82 0 0 0 .448-.108c.142-.05.27-.133.375-.242a.83.83 0 0 0 .242-.375c.072-.138.1-.292.108-.448a1.25 1.25 0 0 0-.339-.824 1.23 1.23 0 0 0-.823-.339zm4.25 5.28h-.036a.82.82 0 0 0-.448.108.97.97 0 0 0-.376.242c-.113.1-.197.23-.242.376-.072.138-.1.292-.108.448a1.25 1.25 0 0 0 .34.823 1.21 1.21 0 0 0 .824.34h.036a.82.82 0 0 0 .448-.108.96.96 0 0 0 .375-.242.83.83 0 0 0 .242-.375c.073-.138.1-.292.108-.448s-.03-.304-.087-.446a1.16 1.16 0 0 0-.252-.378 1.15 1.15 0 0 0-.378-.252 1.16 1.16 0 0 0-.446-.087h-.036a.82.82 0 0 0-.448.108.97.97 0 0 0-.376.242c-.113.1-.197.23-.242.376-.072.138-.1.292-.108.448a1.25 1.25 0 0 0 .34.823 1.21 1.21 0 0 0 .824.34h.036a.82.82 0 0 0 .448-.108.96.96 0 0 0 .375-.242.83.83 0 0 0 .242-.375c.073-.138.1-.292.108-.448s-.03-.304-.087-.446a1.16 1.16 0 0 0-.252-.378 1.15 1.15 0 0 0-.378-.252 1.16 1.16 0 0 0-.446-.087h0zm-2.58-14.156h-.036c-.157-.007-.312.03-.448.108-.142.05-.27.133-.375.242a.83.83 0 0 0-.242.375c-.072.138-.1.292-.108.448a1.25 1.25 0 0 0 .34.823 1.21 1.21 0 0 0 .823.34h.036a.82.82 0 0 0 .448-.108.96.96 0 0 0 .375-.242.84.84 0 0 0 .242-.375.94.94 0 0 0 .108-.448c-.008-.307-.13-.6-.34-.824a1.23 1.23 0 0 0-.824-.339h-.036c-.157-.007-.312.03-.448.108-.142.05-.27.133-.375.242a.83.83 0 0 0-.242.375c-.073.138-.1.292-.108.448a1.25 1.25 0 0 0 .34.823 1.21 1.21 0 0 0 .823.34h.036a.82.82 0 0 0 .448-.108.97.97 0 0 0 .376-.242.84.84 0 0 0 .242-.375c.072-.138.1-.292.108-.448-.008-.307-.13-.6-.34-.824a1.23 1.23 0 0 0-.824-.339h-.001zm4.252 5.28h-.036c-.157-.007-.312.03-.448.108-.142.05-.27.133-.375.242a.84.84 0 0 0-.242.376.95.95 0 0 0-.108.448 1.25 1.25 0 0 0 .339.823 1.21 1.21 0 0 0 .823.34h.036a.82.82 0 0 0 .448-.108c.142-.05.27-.133.375-.242a.83.83 0 0 0 .242-.375c.073-.138.1-.292.108-.448-.008-.307-.13-.6-.34-.824a1.2 1.2 0 0 0-.823-.34h-.036c-.157-.007-.312.03-.448.108-.142.05-.27.133-.375.242a.84.84 0 0 0-.242.376c-.072.138-.1.292-.108.448a1.25 1.25 0 0 0 .339.823 1.21 1.21 0 0 0 .823.34h.036a.82.82 0 0 0 .448-.108.96.96 0 0 0 .375-.242.83.83 0 0 0 .242-.375c.072-.138.1-.292.108-.448-.008-.307-.13-.6-.34-.824a1.2 1.2 0 0 0-.823-.34h.001zm7.846 3.862H54.3a.82.82 0 0 0-.448.108.97.97 0 0 0-.376.242.84.84 0 0 0-.242.376c-.072.138-.1.292-.108.448a1.25 1.25 0 0 0 .34.823 1.21 1.21 0 0 0 .824.34h.036a.82.82 0 0 0 .448-.108.95.95 0 0 0 .375-.242.83.83 0 0 0 .242-.375c.073-.138.1-.292.108-.448-.01-.307-.13-.6-.34-.824a1.18 1.18 0 0 0-.824-.34H54.3a.82.82 0 0 0-.448.108.97.97 0 0 0-.376.242.84.84 0 0 0-.242.375c-.072.138-.1.292-.108.448a1.25 1.25 0 0 0 .34.823 1.21 1.21 0 0 0 .824.34h.036a.82.82 0 0 0 .448-.108.96.96 0 0 0 .375-.242.84.84 0 0 0 .242-.375c.073-.138.1-.292.108-.448-.01-.307-.13-.6-.34-.824a1.18 1.18 0 0 0-.824-.34V60.7zm4.25 5.268h-.036a.82.82 0 0 0-.448.108.96.96 0 0 0-.375.242.84.84 0 0 0-.242.376.94.94 0 0 0-.108.448 1.25 1.25 0 0 0 .339.823 1.21 1.21 0 0 0 .823.34h.036a.82.82 0 0 0 .448-.108c.142-.05.27-.133.375-.242a.84.84 0 0 0 .242-.375.95.95 0 0 0 .108-.448 1.16 1.16 0 0 0-1.162-1.162h-.036a.82.82 0 0 0-.448.108.96.96 0 0 0-.376.242.84.84 0 0 0-.242.375c-.073.138-.1.292-.108.448a1.25 1.25 0 0 0 .34.823 1.21 1.21 0 0 0 .823.34h.036c.157.007.312-.03.448-.108.142-.05.27-.133.375-.242a.84.84 0 0 0 .242-.376c.072-.138.1-.292.108-.448a1.16 1.16 0 0 0-.087-.446 1.17 1.17 0 0 0-.252-.378 1.15 1.15 0 0 0-.378-.252 1.16 1.16 0 0 0-.446-.087h-.001zm-2.58-14.156h-.036a.82.82 0 0 0-.448.108c-.142.05-.27.133-.375.242a.83.83 0 0 0-.242.375c-.072.138-.1.292-.108.448a1.25 1.25 0 0 0 .339.823 1.21 1.21 0 0 0 .823.34h.036a.82.82 0 0 0 .448-.108c.142-.05.27-.133.375-.242a.83.83 0 0 0 .242-.375c.073-.138.1-.292.108-.448a1.25 1.25 0 0 0-.34-.823 1.23 1.23 0 0 0-.823-.339h-.036a.82.82 0 0 0-.448.108c-.142.05-.27.133-.376.242-.113.1-.197.23-.242.376-.072.138-.1.292-.108.448a1.25 1.25 0 0 0 .339.823 1.21 1.21 0 0 0 .823.34h.036c.157.007.312-.03.448-.108.142-.05.27-.133.375-.242a.83.83 0 0 0 .242-.375.94.94 0 0 0 .108-.448 1.25 1.25 0 0 0-.339-.823 1.23 1.23 0 0 0-.823-.339l.001.001zm4.252 5.28h-.036a.82.82 0 0 0-.448.108c-.142.05-.27.133-.375.242a.84.84 0 0 0-.242.375c-.073.138-.1.292-.108.448a1.25 1.25 0 0 0 .34.823 1.21 1.21 0 0 0 .824.34h.036a.82.82 0 0 0 .448-.108.97.97 0 0 0 .376-.242.83.83 0 0 0 .242-.375c.072-.138.1-.292.108-.448s-.03-.304-.087-.446-.144-.27-.252-.378a1.16 1.16 0 0 0-.378-.252 1.15 1.15 0 0 0-.446-.087h-.036a.82.82 0 0 0-.448.108c-.142.05-.27.133-.375.242a.84.84 0 0 0-.242.376c-.073.138-.1.292-.108.448a1.25 1.25 0 0 0 .34.823 1.21 1.21 0 0 0 .824.34h.036a.82.82 0 0 0 .448-.108.97.97 0 0 0 .376-.242.84.84 0 0 0 .242-.375c.072-.138.1-.292.108-.448s-.03-.304-.087-.446a1.16 1.16 0 0 0-.63-.63 1.16 1.16 0 0 0-.446-.087h0zm-11.202-17h-.036a.82.82 0 0 0-.448.108.97.97 0 0 0-.376.242.84.84 0 0 0-.242.375c-.072.138-.1.292-.108.448.01.307.13.6.34.824a1.21 1.21 0 0 0 .824.34h.036a.82.82 0 0 0 .448-.108.97.97 0 0 0 .376-.242.84.84 0 0 0 .242-.375.94.94 0 0 0 .108-.448c-.008-.307-.13-.6-.34-.824a1.23 1.23 0 0 0-.824-.339h-.036a.82.82 0 0 0-.448.108.97.97 0 0 0-.376.242.84.84 0 0 0-.242.375c-.072.138-.1.292-.108.448.01.307.13.6.34.824a1.21 1.21 0 0 0 .824.34h.036a.82.82 0 0 0 .448-.108.97.97 0 0 0 .376-.242.84.84 0 0 0 .242-.375.94.94 0 0 0 .108-.448c-.008-.307-.13-.6-.34-.824a1.23 1.23 0 0 0-.824-.339h0zm4.25 5.28h-.036a.82.82 0 0 0-.448.108.97.97 0 0 0-.376.242.83.83 0 0 0-.242.375.94.94 0 0 0-.108.448c.008.307.13.6.34.824a1.21 1.21 0 0 0 .823.34h.036a.82.82 0 0 0 .448-.108c.142-.05.27-.133.376-.242.113-.1.197-.23.242-.376.072-.138.1-.292.108-.448a1.25 1.25 0 0 0-.339-.824 1.23 1.23 0 0 0-.823-.339h-.036a.82.82 0 0 0-.448.108.97.97 0 0 0-.376.242.83.83 0 0 0-.242.375.94.94 0 0 0-.108.448c.008.307.13.6.34.824a1.21 1.21 0 0 0 .823.34h.036a.82.82 0 0 0 .448-.108c.142-.05.27-.133.376-.242.113-.1.197-.23.242-.376.072-.138.1-.292.108-.448a1.25 1.25 0 0 0-.339-.824 1.23 1.23 0 0 0-.823-.339h0zm-2.58-14.157H50.7a.82.82 0 0 0-.448.108.95.95 0 0 0-.375.242.84.84 0 0 0-.242.375c-.072.138-.1.292-.108.448.008.307.13.6.34.824a1.21 1.21 0 0 0 .823.34h.036c.157.007.312-.03.448-.108.142-.05.27-.133.375-.242.113-.1.197-.23.242-.376.072-.138.1-.292.108-.448a1.25 1.25 0 0 0-.339-.823 1.23 1.23 0 0 0-.823-.339H50.7a.82.82 0 0 0-.448.108.95.95 0 0 0-.376.242.84.84 0 0 0-.242.375.95.95 0 0 0-.108.448c.008.307.13.6.34.824a1.21 1.21 0 0 0 .823.34h.036c.157.007.312-.03.448-.108.142-.05.27-.133.375-.242.113-.1.197-.23.242-.376.072-.138.1-.292.108-.448a1.25 1.25 0 0 0-.339-.823 1.23 1.23 0 0 0-.823-.339h.001zm4.25 5.28h-.036a.82.82 0 0 0-.448.108.96.96 0 0 0-.375.242.84.84 0 0 0-.242.375c-.073.138-.1.292-.108.448.01.307.13.6.34.824a1.21 1.21 0 0 0 .824.34h.036a.82.82 0 0 0 .448-.108.96.96 0 0 0 .376-.242.84.84 0 0 0 .242-.376.94.94 0 0 0 .108-.448 1.25 1.25 0 0 0-.34-.823c-.22-.217-.515-.34-.824-.34h-.036a.82.82 0 0 0-.448.108.96.96 0 0 0-.375.242.84.84 0 0 0-.242.375c-.073.138-.1.292-.108.448.01.307.13.6.34.824a1.21 1.21 0 0 0 .824.34h.036a.82.82 0 0 0 .448-.108.96.96 0 0 0 .376-.242.84.84 0 0 0 .242-.376.94.94 0 0 0 .108-.448 1.25 1.25 0 0 0-.34-.823c-.22-.217-.515-.34-.824-.34h0zm7.085 5.922h-.036a.82.82 0 0 0-.448.108.97.97 0 0 0-.376.242.84.84 0 0 0-.242.375c-.072.138-.1.292-.108.448.008.307.13.6.34.824a1.21 1.21 0 0 0 .824.339h.036a.82.82 0 0 0 .448-.108c.142-.05.27-.133.375-.242a.83.83 0 0 0 .242-.375.94.94 0 0 0 .108-.448 1.25 1.25 0 0 0-.339-.823 1.22 1.22 0 0 0-.823-.339h-.036a.82.82 0 0 0-.448.108.97.97 0 0 0-.376.242.84.84 0 0 0-.242.375c-.072.138-.1.292-.108.448.008.307.13.6.34.824a1.21 1.21 0 0 0 .824.339h.036c.157.007.312-.03.448-.108.142-.05.27-.133.375-.242a.83.83 0 0 0 .242-.375c.072-.138.1-.292.108-.448a1.25 1.25 0 0 0-.34-.823 1.22 1.22 0 0 0-.823-.339h.001zm4.24 5.268h-.036a.82.82 0 0 0-.448.108c-.142.05-.27.133-.375.242a.84.84 0 0 0-.242.375.94.94 0 0 0-.108.448c.008.307.13.6.34.824a1.21 1.21 0 0 0 .824.34h.036a.82.82 0 0 0 .448-.108c.142-.05.27-.133.375-.242a.83.83 0 0 0 .242-.375.94.94 0 0 0 .108-.448c-.008-.307-.13-.6-.34-.824a1.23 1.23 0 0 0-.823-.339h-.036a.82.82 0 0 0-.448.108c-.142.05-.27.133-.376.242a.84.84 0 0 0-.242.375.94.94 0 0 0-.108.448c.008.307.13.6.34.824a1.21 1.21 0 0 0 .824.34h.036a.82.82 0 0 0 .448-.108c.142-.05.27-.133.375-.242a.83.83 0 0 0 .242-.375.94.94 0 0 0 .108-.448c-.008-.307-.13-.6-.34-.824a1.23 1.23 0 0 0-.823-.339h.001zM63.744 33.53h-.036c-.157-.007-.312.03-.448.108a.96.96 0 0 0-.375.242c-.113.1-.197.23-.242.376a.94.94 0 0 0-.108.448 1.25 1.25 0 0 0 .339.824 1.21 1.21 0 0 0 .823.34h.036a.82.82 0 0 0 .448-.108.96.96 0 0 0 .375-.242c.113-.1.197-.23.242-.376a.94.94 0 0 0 .108-.448 1.16 1.16 0 0 0-.087-.446 1.17 1.17 0 0 0-.252-.378 1.16 1.16 0 0 0-.378-.252 1.15 1.15 0 0 0-.446-.087h-.036c-.157-.007-.312.03-.448.108a.96.96 0 0 0-.375.242c-.113.1-.197.23-.242.376a.94.94 0 0 0-.108.448 1.25 1.25 0 0 0 .339.824 1.21 1.21 0 0 0 .823.34h.036a.82.82 0 0 0 .448-.108.96.96 0 0 0 .375-.242c.113-.1.197-.23.242-.376a.94.94 0 0 0 .108-.448 1.16 1.16 0 0 0-.087-.446 1.17 1.17 0 0 0-.252-.378 1.16 1.16 0 0 0-.378-.252 1.15 1.15 0 0 0-.446-.087h0z"/><path d="M67.982 38.808h-.036c-.157-.008-.312.03-.448.108a.96.96 0 0 0-.376.242c-.113.1-.197.23-.242.376a.94.94 0 0 0-.108.448 1.25 1.25 0 0 0 .339.824 1.21 1.21 0 0 0 .823.34h.036a.82.82 0 0 0 .448-.108.96.96 0 0 0 .376-.242.84.84 0 0 0 .242-.375.94.94 0 0 0 .108-.448 1.25 1.25 0 0 0-.339-.824 1.23 1.23 0 0 0-.823-.339h-.036c-.157-.008-.312.03-.448.108a.96.96 0 0 0-.376.242c-.113.1-.197.23-.242.376a.94.94 0 0 0-.108.448 1.25 1.25 0 0 0 .339.824 1.21 1.21 0 0 0 .823.34h.036a.82.82 0 0 0 .448-.108.96.96 0 0 0 .376-.242.84.84 0 0 0 .242-.375.94.94 0 0 0 .108-.448 1.25 1.25 0 0 0-.339-.824 1.23 1.23 0 0 0-.823-.339zm3.355 17.112H71.3c-.157-.007-.312.03-.448.108-.142.05-.27.133-.375.242a.83.83 0 0 0-.242.375c-.073.138-.1.292-.108.448a1.25 1.25 0 0 0 .34.823 1.21 1.21 0 0 0 .823.34h.036a.82.82 0 0 0 .448-.108.97.97 0 0 0 .376-.242.84.84 0 0 0 .242-.375.94.94 0 0 0 .108-.448c.001-.153-.03-.304-.087-.446s-.144-.27-.252-.378a1.15 1.15 0 0 0-.378-.252 1.16 1.16 0 0 0-.446-.087H71.3c-.157-.007-.312.03-.448.108-.142.05-.27.133-.375.242a.83.83 0 0 0-.242.375c-.073.138-.1.292-.108.448a1.25 1.25 0 0 0 .34.823 1.21 1.21 0 0 0 .823.34h.036a.82.82 0 0 0 .448-.108.97.97 0 0 0 .376-.242.84.84 0 0 0 .242-.375c.073-.138.1-.292.108-.448a1.16 1.16 0 0 0-.717-1.076c-.14-.058-.293-.088-.446-.087h-.001zm4.24 5.28h-.036c-.157-.007-.312.03-.448.108-.142.05-.27.133-.375.242a.83.83 0 0 0-.242.375c-.073.138-.1.292-.108.448a1.25 1.25 0 0 0 .34.823 1.21 1.21 0 0 0 .823.34h.036a.82.82 0 0 0 .448-.108.97.97 0 0 0 .376-.242.84.84 0 0 0 .242-.375c.072-.138.1-.292.108-.448-.008-.307-.13-.6-.34-.824a1.23 1.23 0 0 0-.824-.339h-.036c-.157-.007-.312.03-.448.108-.142.05-.27.133-.375.242a.83.83 0 0 0-.242.375.94.94 0 0 0-.108.448 1.25 1.25 0 0 0 .34.823 1.21 1.21 0 0 0 .823.34h.036a.82.82 0 0 0 .448-.108.97.97 0 0 0 .376-.242.84.84 0 0 0 .242-.375c.072-.138.1-.292.108-.448-.008-.307-.13-.6-.34-.824a1.23 1.23 0 0 0-.824-.339h-.001zm-2.568-14.156h-.036a.82.82 0 0 0-.448.108.96.96 0 0 0-.375.242.84.84 0 0 0-.242.375.94.94 0 0 0-.108.448c.008.307.13.6.34.824a1.21 1.21 0 0 0 .824.34H73a.82.82 0 0 0 .448-.108.97.97 0 0 0 .376-.242c.113-.1.197-.23.242-.376a.94.94 0 0 0 .108-.448c.001-.153-.03-.304-.087-.446a1.16 1.16 0 0 0-.63-.63 1.15 1.15 0 0 0-.446-.087h-.036a.82.82 0 0 0-.448.108.96.96 0 0 0-.375.242.84.84 0 0 0-.242.375.94.94 0 0 0-.108.448c.008.307.13.6.34.824a1.21 1.21 0 0 0 .824.34H73a.82.82 0 0 0 .448-.108.97.97 0 0 0 .376-.242c.113-.1.197-.23.242-.376a.94.94 0 0 0 .108-.448c.001-.153-.03-.304-.087-.446a1.16 1.16 0 0 0-.63-.63 1.15 1.15 0 0 0-.446-.087h0zm4.252 5.28h-.036c-.157-.007-.312.03-.448.108-.142.05-.27.133-.375.242-.113.1-.197.23-.242.376a.94.94 0 0 0-.108.448c.008.307.13.6.34.824a1.21 1.21 0 0 0 .823.34h.036a.82.82 0 0 0 .448-.108.95.95 0 0 0 .376-.242.84.84 0 0 0 .242-.375c.072-.138.1-.292.108-.448a1.25 1.25 0 0 0-.339-.824 1.22 1.22 0 0 0-.823-.339h-.036c-.157-.007-.312.03-.448.108-.142.05-.27.133-.375.242-.113.1-.197.23-.242.376a.94.94 0 0 0-.108.448c.008.307.13.6.34.824a1.21 1.21 0 0 0 .823.34h.036a.82.82 0 0 0 .448-.108.95.95 0 0 0 .375-.242.84.84 0 0 0 .242-.375c.072-.138.1-.292.108-.448a1.25 1.25 0 0 0-.339-.824 1.22 1.22 0 0 0-.823-.339h-.001zm6.296 3.21h-.036a.82.82 0 0 0-.448.108.97.97 0 0 0-.376.242.84.84 0 0 0-.242.375c-.072.138-.1.292-.108.448.008.307.13.6.34.824a1.21 1.21 0 0 0 .823.34h.036c.157.007.312-.03.448-.108a.96.96 0 0 0 .376-.242.83.83 0 0 0 .242-.375.94.94 0 0 0 .108-.448 1.25 1.25 0 0 0-.339-.823 1.23 1.23 0 0 0-.823-.339h-.036a.82.82 0 0 0-.448.108.97.97 0 0 0-.376.242.84.84 0 0 0-.242.375c-.072.138-.1.292-.108.448.008.307.13.6.34.824a1.21 1.21 0 0 0 .823.34h.036a.82.82 0 0 0 .448-.108.96.96 0 0 0 .376-.242.84.84 0 0 0 .242-.376c.073-.138.1-.292.108-.448a1.25 1.25 0 0 0-.339-.823 1.23 1.23 0 0 0-.823-.339v.001zm4.25 5.28h-.036a.82.82 0 0 0-.448.108.97.97 0 0 0-.376.242.84.84 0 0 0-.242.375c-.072.138-.1.292-.108.448.01.307.13.6.34.824a1.21 1.21 0 0 0 .824.34h.036c.157.007.312-.03.448-.108.142-.05.27-.133.375-.242a.84.84 0 0 0 .242-.376c.073-.138.1-.292.108-.448a1.16 1.16 0 0 0-.717-1.076 1.15 1.15 0 0 0-.446-.087h-.036a.82.82 0 0 0-.448.108.97.97 0 0 0-.376.242.84.84 0 0 0-.242.375c-.072.138-.1.292-.108.448.01.307.13.6.34.824a1.21 1.21 0 0 0 .824.34h.036a.82.82 0 0 0 .448-.108c.142-.05.27-.133.375-.242a.84.84 0 0 0 .242-.375.94.94 0 0 0 .108-.448 1.16 1.16 0 0 0-.339-.823 1.15 1.15 0 0 0-.378-.252 1.16 1.16 0 0 0-.446-.087h0zm-2.58-14.157h-.036a.82.82 0 0 0-.448.108c-.142.05-.27.133-.375.242-.113.1-.197.23-.242.376-.073.138-.1.292-.108.448.008.307.13.6.34.824a1.21 1.21 0 0 0 .823.34h.036c.157.007.312-.03.448-.108a.96.96 0 0 0 .376-.242c.113-.1.197-.23.242-.376.072-.138.1-.292.108-.448a1.25 1.25 0 0 0-.339-.823 1.23 1.23 0 0 0-.824-.339h-.036a.82.82 0 0 0-.448.108c-.142.05-.27.133-.375.242a.84.84 0 0 0-.242.376c-.072.138-.1.292-.108.448.01.307.13.6.34.824a1.21 1.21 0 0 0 .823.34h.036a.82.82 0 0 0 .448-.108c.142-.05.27-.133.376-.242a.84.84 0 0 0 .242-.376.94.94 0 0 0 .108-.448 1.25 1.25 0 0 0-.339-.823 1.23 1.23 0 0 0-.824-.339h0zm4.25 5.28h-.036a.82.82 0 0 0-.448.108.97.97 0 0 0-.376.242.83.83 0 0 0-.242.375c-.072.138-.1.292-.108.448a1.25 1.25 0 0 0 .339.823 1.21 1.21 0 0 0 .823.34h.036c.157.007.312-.03.448-.108.142-.05.27-.133.375-.242.113-.1.197-.23.242-.376.073-.138.1-.292.108-.448a1.25 1.25 0 0 0-.339-.823 1.23 1.23 0 0 0-.823-.339h-.036a.82.82 0 0 0-.448.108c-.142.05-.27.133-.376.242-.113.1-.197.23-.242.376-.072.138-.1.292-.108.448a1.25 1.25 0 0 0 .339.823 1.21 1.21 0 0 0 .823.34h.036a.82.82 0 0 0 .448-.108c.142-.05.27-.133.375-.242a.83.83 0 0 0 .242-.375.94.94 0 0 0 .108-.448 1.25 1.25 0 0 0-.339-.823 1.23 1.23 0 0 0-.823-.339v.001zM81.243 64.93h-.036a.82.82 0 0 0-.448.108.96.96 0 0 0-.375.242.84.84 0 0 0-.242.375c-.073.138-.1.292-.108.448a1.25 1.25 0 0 0 .34.823 1.21 1.21 0 0 0 .824.34h.036a.82.82 0 0 0 .448-.108.95.95 0 0 0 .375-.242.83.83 0 0 0 .242-.375c.073-.138.1-.292.108-.448s-.03-.304-.087-.446-.144-.27-.252-.378a1.16 1.16 0 0 0-.378-.252 1.15 1.15 0 0 0-.446-.087h-.036a.82.82 0 0 0-.448.108c-.142.05-.27.133-.375.242a.84.84 0 0 0-.242.375c-.073.138-.1.292-.108.448a1.26 1.26 0 0 0 .34.823 1.21 1.21 0 0 0 .824.34h.036a.82.82 0 0 0 .448-.108.95.95 0 0 0 .375-.242.83.83 0 0 0 .242-.375c.073-.138.1-.292.108-.448a1.16 1.16 0 0 0-.087-.446 1.17 1.17 0 0 0-.252-.378 1.15 1.15 0 0 0-.378-.252 1.16 1.16 0 0 0-.446-.087h.001zM91.8 42.285h-.036a.82.82 0 0 0-.448.108.96.96 0 0 0-.376.242.84.84 0 0 0-.242.376c-.073.138-.1.292-.108.448a1.25 1.25 0 0 0 .339.823 1.21 1.21 0 0 0 .823.34h.036c.157.007.312-.03.448-.108a.96.96 0 0 0 .375-.242.84.84 0 0 0 .242-.376c.073-.138.1-.292.108-.448a1.25 1.25 0 0 0-.339-.823 1.23 1.23 0 0 0-.823-.339h-.036a.82.82 0 0 0-.448.108.96.96 0 0 0-.376.242.84.84 0 0 0-.242.376c-.073.138-.1.292-.108.448a1.25 1.25 0 0 0 .339.823 1.21 1.21 0 0 0 .823.34h.036a.82.82 0 0 0 .448-.108.96.96 0 0 0 .375-.242c.113-.1.197-.23.242-.376.073-.138.1-.292.108-.448a1.25 1.25 0 0 0-.339-.823 1.23 1.23 0 0 0-.823-.339v.001zm-49.542 1.162h-.036a.82.82 0 0 0-.448.108c-.142.05-.27.133-.375.242-.113.1-.197.23-.242.376a.94.94 0 0 0-.108.448c.008.307.13.6.34.824a1.21 1.21 0 0 0 .823.34h.036a.82.82 0 0 0 .448-.108.96.96 0 0 0 .375-.242.84.84 0 0 0 .242-.376.94.94 0 0 0 .108-.448c-.008-.307-.13-.6-.34-.824a1.18 1.18 0 0 0-.824-.34h-.036a.82.82 0 0 0-.448.108c-.142.05-.27.133-.375.242-.113.1-.197.23-.242.376a.94.94 0 0 0-.108.448c.008.307.13.6.34.824a1.21 1.21 0 0 0 .823.34h.036a.82.82 0 0 0 .448-.108.97.97 0 0 0 .376-.242.84.84 0 0 0 .242-.376.94.94 0 0 0 .108-.448c-.008-.307-.13-.6-.34-.824a1.18 1.18 0 0 0-.824-.34h-.001zm-8.876 15.828h-.036c-.157-.007-.312.03-.448.108-.142.05-.27.133-.375.242-.113.1-.197.23-.242.376-.073.138-.1.292-.108.448a1.25 1.25 0 0 0 .34.823 1.21 1.21 0 0 0 .823.34h.036a.82.82 0 0 0 .448-.108.97.97 0 0 0 .376-.242c.113-.1.197-.23.242-.376a.94.94 0 0 0 .108-.448 1.25 1.25 0 0 0-.339-.823 1.2 1.2 0 0 0-.824-.34h-.036c-.157-.007-.312.03-.448.108-.142.05-.27.133-.375.242-.113.1-.197.23-.242.376a.94.94 0 0 0-.108.448 1.25 1.25 0 0 0 .339.823 1.21 1.21 0 0 0 .823.34h.036a.82.82 0 0 0 .448-.108.97.97 0 0 0 .376-.242c.113-.1.197-.23.242-.376.072-.138.1-.292.108-.448a1.25 1.25 0 0 0-.339-.823 1.2 1.2 0 0 0-.824-.34l-.001-.001zm2.566-9.143h-.036c-.157-.007-.312.03-.448.108a.96.96 0 0 0-.376.242.83.83 0 0 0-.242.375.95.95 0 0 0-.108.448 1.25 1.25 0 0 0 .339.823 1.21 1.21 0 0 0 .823.34h.036a.82.82 0 0 0 .448-.108c.142-.05.27-.133.375-.242a.83.83 0 0 0 .242-.375c.072-.138.1-.292.108-.448-.008-.307-.13-.6-.34-.824a1.23 1.23 0 0 0-.823-.339H35.9a.82.82 0 0 0-.448.108c-.142.05-.27.133-.376.242a.84.84 0 0 0-.242.375c-.072.138-.1.292-.108.448a1.25 1.25 0 0 0 .339.823 1.21 1.21 0 0 0 .823.34h.036a.82.82 0 0 0 .448-.108.97.97 0 0 0 .376-.242.83.83 0 0 0 .242-.375c.072-.138.1-.292.108-.448-.008-.307-.13-.6-.34-.824a1.23 1.23 0 0 0-.823-.339v-.001z"/></g><use xlink:href="#B" class="F"/><use xlink:href="#B" class="B C D E"/><path d="M48.364 14.225c-.81 4.13.557 12.486 6.685 12.97 8.89.412 5.85-14.206 5.85-14.206" class="F"/><path d="M48.364 14.225c-.81 4.13.557 12.486 6.685 12.97 8.89.412 5.85-14.206 5.85-14.206" class="C E H"/><path d="M54.622 18.623c.04-.433-.21-.8-.556-.84s-.66.294-.698.727.21.8.556.84.66-.294.698-.727z" class="M"/><g class="B C D"><path d="M56.357 21.927s1.138.35.92-.144c-.2-.457-.342-.937-.424-1.43" class="E"/><path d="M54.092 16.332a1.28 1.28 0 0 0-1.247.218" class="I"/><path d="M55.46 24.13a1.07 1.07 0 0 1-1.224-.581" class="E"/></g><path d="M58.966 18.62c.04-.433-.21-.8-.556-.84s-.66.294-.698.727.21.8.556.84.66-.294.698-.727z" class="M"/><path d="M59.408 16.562c-.15-.168-.338-.296-.55-.37s-.44-.093-.66-.054" class="B C D I"/><path d="M54.26 4.585c-1.368.787-2.06 2.107-1.756 3.112l-1.404.8c-.702-.775-2.228-.8-3.597-.024-1.514.86-2.265 2.386-1.683 3.403s2.277 1.152 3.8.28c1.43-.81 2.18-2.216 1.768-3.234l1.368-.775c.666.872 2.252.932 3.68.12 1.512-.86 2.277-2.434 1.696-3.45-.594-1.005-2.35-1.1-3.863-.23z" fill="#3e9ff8"/><path d="M47.65 14.164c-.133 2.955.255 2.955 2.313 2.448 2.058-.52 1.55-2.834 1.55-2.834s6.43 3.22 12.996-3.343-.52-10.814-5.148-7.46c-4.638 3.342-8.1 8.49-8.1 8.49l-3.61 2.7z" fill="#ae504a" class="H I N"/><path d="M64.58 39.33c2.628 3.475 7.472 8.877 3.343 15.96-4.323 7.412.387 13.26.387 13.26" class="B C D K"/><g stroke="#465cff" class="G"><path d="M61.128 73.008c-1.744 1.054-3.318-.46-1.514-2.676 1.817-2.204 7.012-11.988 8.78-13.02s11.117 2 12.135 2.204.97 1.1-.108 1.793c-1.08.715-19.293 11.698-19.293 11.698z" class="H"/><path d="M70.114 50.338c.34-2.92-4.275-4.47-5.232-.86-.7 2.628 1.84 3.476 2.568 3.657s1.272 3.888 1.272 3.888" class="B D"/></g><g class="F"><path d="M58.015 48.715c1.368-1.793 4.614-3.452 5.874-3.343s3.633.848 4.408 2.628c.74 1.683-.108 1.26-.52 1.054.836.52 1.26 2.422-.108 1.683.945.944.52 2.107-.315 1.574.205.52-.144 1.476-.945.945-.945-.63-3.73-.024-4.917-.545-1.164-.52-3.477-3.996-3.477-3.996z" class="B C E"/><path d="M64.628 47.056c1.152.206 2.736 1.574 3.15 1.998z"/></g><path d="M64.628 47.056c1.152.206 2.736 1.574 3.15 1.998" class="B C D E"/><path d="M65.04 49.054c.836.206 2.628 1.683 2.628 1.683z" class="F"/><path d="M65.04 49.054c.836.206 2.628 1.683 2.628 1.683" class="B C D E"/><path d="M64.834 50.738c.945.315 2.204 1.053 2.52 1.574z" class="F"/><g class="B D"><path d="M64.834 50.738c.945.315 2.204 1.053 2.52 1.574" class="C E"/><path d="M35.5 80.505c-.34-2.736-1.03-20.018 6.043-25.613" class="G J"/></g><path d="M34.45 81.46c-.144 4.445-1.296 15.44-1.804 20.2a2.58 2.58 0 0 0 .461 1.766c.363.513.902.875 1.513 1.02l7.145 1.683a2.58 2.58 0 0 0 1.423-.071c.458-.156.864-.438 1.17-.813l8.913-10.96a2.58 2.58 0 0 0 .533-2.083l-3.052-17.16a2.56 2.56 0 0 0-1.332-1.829l-1.817-.97a2.57 2.57 0 0 0-2.749.218l-9.386 7.012c-.302.238-.55.54-.726.882s-.275.72-.292 1.104h0z" fill="#ffeb7d"/><path d="M30.49 66.602l3.56 6.164c.173.29.286.613.334.947s.03.675-.055 1.003l-4.3 16.627a2.59 2.59 0 0 1-1.526 1.744l-9.725 3.924c-.32.13-.66.193-1.005.188s-.684-.08-1-.218-.6-.34-.835-.6-.42-.546-.54-.87l-5.304-14.328a2.56 2.56 0 0 1 .642-2.761L23.32 66.42c.396-.376.9-.617 1.44-.7l3.15-.424c.5-.067 1.03.02 1.49.252s.84.595 1.092 1.044h0z" fill="#f9c126"/><path d="M60.813 67.704c.605-1.514 2.87-4.723 2.87-4.723 5.534 4.215 9.276-1.877 10.8-5.5 3.076.315 3.936 1.017 3.936 1.017s-5.196 6.89 1.04 10.245c1.04 5.995 1.707 18.032 4.662 20.406-1.114 5.472-15.126 10.924-18.82 10.173-.57-3.258-1.514-19.183-2.422-21.036 1.477-3.124 2.216-8.756-2.06-10.572z" fill="#a4d2fc"/><path d="M47.2 42.284c-.715 2.337-2.216 8.574-1.877 10.8m30.325 1.3L79 48.715" class="B C D K"/><path d="M34.364 80.76l6.03 3.888c.32.206.702.3 1.078.237s.72-.24.97-.527l7.98-9.228c.124-.143.216-.312.267-.495s.06-.374.028-.56-.106-.364-.216-.52-.252-.283-.418-.376l-2.772-1.55c-.412-.232-.884-.337-1.355-.303s-.923.207-1.297.497l-10.343 7.846a.67.67 0 0 0-.258.558c.005.107.035.21.088.304a.67.67 0 0 0 .218.229h0z" fill="#f9c126"/><path opacity=".54" d="M22.108 63.78c1.38 3.512 2.834 8.15 3.548 10.487.123.41.39.762.754 1s.797.315 1.22.246l8.114-1.296-6.818-12.352-6.818 1.926z" fill="#ff5c76"/><g class="B C D"><path opacity=".46" d="M25.717 76.254c-1.284 1.926-8.756 16.603-8.37 19.558" class="K"/><path d="M41.544 86.815c.52 2.313 2.313 17.112 1.67 18.275" class="L"/><path d="M48.363 68.54c1.284-.775 12.74-7.46 13.515-15.44-2.192-1.162-4.117-4.76-4.117-4.76-2.7.642-12.873 3.342-16.216 7.98" class="K"/></g><g class="G B D"><path d="M42.442 54.383c-5.534 3.476-2.192 26.5-.387 31.015" class="J"/><path d="M25.717 74.97C26.492 72.4 37.04 57.726 42.44 54.9M23.017 67.377C25.465 65.185 34.86 53.474 42.83 54.38" class="L"/><path d="M50.422 75.744c-.642-5.014-2.448-6.31-2.448-6.31" class="J"/></g><defs ><path id="B" d="M55.957 24.458l.727 7.823a1.86 1.86 0 0 1-.835 1.829c-.812.424-1.5.072-1.974-.35a2.28 2.28 0 0 1-.714-1.574l-.618-8.295"/></defs></svg>