<svg xmlns="http://www.w3.org/2000/svg" width="48" height="48" fill="none"><path d="M48 24c0 13.255-10.745 24-24 24S0 37.255 0 24 10.745 0 24 0s24 10.745 24 24z" fill="#ffcc4d"/><path d="M29.334 36c0 3.684-2.388 4-5.333 4s-5.333-.316-5.333-4 2.387-8 5.333-8 5.333 4.32 5.333 8zM40 20c-.165 0-.333-.03-.495-.096-6.972-2.788-9.83-6.988-9.948-7.165a1.33 1.33 0 0 1 .369-1.849c.612-.408 1.436-.245 1.847.365.025.036 2.573 3.713 8.72 6.172.684.275 1.017 1.05.744 1.733-.21.523-.71.84-1.24.84zM8 20c-.53 0-1.03-.317-1.24-.84-.273-.684.06-1.46.743-1.733 6.15-2.46 8.697-6.136 8.723-6.172.41-.608 1.24-.77 1.85-.36a1.33 1.33 0 0 1 .367 1.844c-.12.177-2.976 4.377-9.947 7.165-.163.064-.33.095-.496.095z" fill="#664500"/><path d="M32 21.333h5.333v25.333L32 46.605V21.333zM10.667 46.667l5.333-.06V21.333h-5.333v25.333z" fill="#5dadec"/><path d="M20 24c-.2 0-.404-.045-.595-.14-4.683-2.34-9.427-.024-9.473 0-.66.332-1.46.06-1.79-.596s-.063-1.46.596-1.79c.243-.12 5.997-2.93 11.86 0 .66.33.925 1.13.596 1.79-.235.467-.705.736-1.195.736zm18.667 0c-.2 0-.404-.045-.595-.14-4.684-2.34-9.427-.024-9.473 0-.66.33-1.46.063-1.79-.596s-.063-1.46.596-1.79c.243-.12 6-2.928 11.86 0 .66.33.925 1.13.596 1.79-.235.467-.705.736-1.195.736z" fill="#664500"/><path d="M24 48c13.255 0 24-1.194 24-2.667s-10.745-2.667-24-2.667S0 43.86 0 45.333 10.745 48 24 48z" fill="#5dadec"/><path d="M24 38.667c2.21 0 4-1.194 4-2.667s-1.79-2.667-4-2.667-4 1.194-4 2.667 1.79 2.667 4 2.667z" fill="#e75a70"/></svg>