<svg xmlns="http://www.w3.org/2000/svg" xmlns:xlink="http://www.w3.org/1999/xlink" width="108" height="108" fill="none"><style><![CDATA[.B{stroke-linejoin:round}.C{fill:#ffc3a9}.D{stroke-linecap:round}.E{stroke-width:1.049}.F{stroke:#e89589}.G{stroke-width:1.399}.H{fill:#e89589}.I{fill:#ff5c76}.J{stroke:#ae504a}]]></style><path d="M45.56 39.402c1.89.743 14.166-5.276 15.022-15.967s-8.347-20.74-19.83-17.478-16.22 8.6-15.955 14.934c-6.46-.2-18.7 8.235-12.14 18.12-7.87 1.813-14.632 12.063-7.454 19.53s26.028-7.266 25.713-13.36c6.145 2.43 13.903-3.274 14.644-5.78z" class="I"/><path d="M38.786 37.26c-.352.277-5.78.68-6.02-1.247-.277-1.914 3.55-1.448 3.942-1.21" class="C"/><path d="M38.786 37.26c-.352.277-5.78.68-6.02-1.247-.277-1.914 3.55-1.448 3.942-1.21" class="B D E F"/><path d="M47.865 30.474c.063-.453 2.154-3.702 3.438-2.268 1.335 1.4-2.443 5.34-2.884 5.427" class="C"/><path d="M47.865 30.474c.063-.453 2.154-3.702 3.438-2.268 1.335 1.4-2.443 5.34-2.884 5.427" class="B D E F"/><path d="M64.323 96.105c-.844-.592-2.23-2.52-2.52-2.934.428-1.108 4.496-11.75 5.982-14.368.567-.995 1.347-1.486 2.38-1.486 2.808 0 6.523 3.627 7.215 4.344-1.07 1.272-9.606 11.282-13.056 14.443z" class="C"/><path d="M70.166 77.506c2.606 0 6.044 3.25 6.963 4.168-1.436 1.687-9.42 11.018-12.82 14.19-.855-.826-1.623-1.737-2.292-2.72.58-1.512 4.495-11.7 5.93-14.256a2.4 2.4 0 0 1 2.216-1.385v.001zm0-.38c-1.008 0-1.9.44-2.544 1.587-1.574 2.795-6.02 14.48-6.02 14.48s1.788 2.58 2.758 3.148c3.627-3.287 13.297-14.695 13.297-14.695s-4.27-4.52-7.492-4.52h0z" class="H"/><path d="M42.514 94.656c-3.21 0-5.93-.038-6.573-.038-.214-.83-1.247-5.3.277-7.303a2.58 2.58 0 0 1 2.166-.982l.378.013c3.45.288 13.94 3.74 15.11 4.13.088.53.466 2.86.327 3.88-2.67.252-7.807.302-11.685.302z" class="C"/><path d="M38.384 86.157v.378l.365.013c3.337.277 13.373 3.55 14.96 4.08.217 1.176.327 2.368.328 3.564-2.708.227-7.72.277-11.52.277a507.45 507.45 0 0 1-6.422-.038c-.265-1.083-1.12-5.15.277-7a2.37 2.37 0 0 1 2.016-.907v-.365h-.003zm.003 0c-5 0-2.582 8.65-2.582 8.65l6.712.05c4.193 0 9.268-.063 11.85-.315.227-1.108-.327-4.206-.327-4.206s-11.56-3.852-15.262-4.168c-.14-.013-.265-.013-.4-.013h0z" class="H"/><path d="M41.405 94.87c-1.21 4.836-3.035 11.283-5.767 10.716S11.07 88.033 15.818 77.62c3.135-5.34 26.846 1.624 26.846 1.624s18.4-8.412 20.89-11.408c2.468-2.984 13.914-17.24 18.523-16.42s7.606 2.016 6.057 18.712C86.737 85.3 86.032 88.16 84.798 89.72S73.264 86.8 73.264 86.8l3.98-4.785s-7.14-2.758-9.646-2.92c-3.752 8.84-5.64 10.728-12.3 11.925-3.916-1.902-16.194-5.125-17.088-4.8-.975 2.837-1.76 5.736-2.355 8.676 0 0 2.896-.063 5.54-.013z" fill="#ff859b"/><path d="M35.852 94.87c-.48 3.375-1.8 9.847.932 12.302s5.97-13.738 5.97-13.738l-6.9 1.436zM76.374 81.7c2.67 1.574 7.858 3.186 8.7 7.656.83 4.47-3 9.144-3.387 9.117S70.972 87.15 70.972 87.15l5.402-5.452z" class="I"/><g stroke="#ff5c76" class="B D G"><path d="M67.585 79.092c.516-2.115 9.28-19.692 9.28-19.692M38.207 86.195C36.017 84.9 27.2 81.032 27.2 81.032"/><path d="M29.783 80.2l.87 2.38M62.36 70.467a39.9 39.9 0 0 0-2.304 6.22m-17.34 2.62l7.203 1.75m4.306-5.932c.378 1.952 1.07 4.773 1.876 4.08"/></g><path d="M29.116 82.555c-8.35-3.463-12.34-5.062-6.5-16.785S36.62 45.13 54.363 42.16s32.286-5.276 32.803 5.742c.214 6.195-2.87 9.834-2.87 9.834s-3.047 2.065-8.588-1.712c3.84-2.772 5.616-3.727 5.616-3.727s-4.017-4.055-8.5-3.096l-12.617 2.745s3.538 13.108 3.878 15.413c.353 2.292-11.12 14.204-22.553 11.673-.87-5.868-3.286-19.593-3.286-19.593s-4.96 7.176-5.276 8.032a28.43 28.43 0 0 0 3.223-1.044s-5.112 7.543-4.898 9.96c.24 2.166 3.7.44 3.7.44s-2.86 4.167-5.868 5.728z" fill="#ffeb7d"/><path d="M58.896 59.976c1.296-1.032 12.403-9.885 14.292-10.628a6.21 6.21 0 0 1 1.184-.113c3.26 0 5.918 2.43 6.585 3.085l-19.53 12.315-2.53-4.66z" class="C"/><path d="M74.372 49.438c2.96 0 5.427 2.052 6.283 2.87L61.5 64.384l-2.355-4.344c4.344-3.475 12.517-9.847 14.103-10.49a5.75 5.75 0 0 1 1.133-.113h0zm0-.378a6.92 6.92 0 0 0-1.234.113c-2.002.768-14.48 10.766-14.48 10.766l2.695 4.974 19.896-12.542s-2.984-3.312-6.876-3.312h.001z" class="H"/><path d="M32.553 77.304c-.188.025-.38-.005-.55-.085s-.317-.208-.42-.368c-.453-.857.025-3.324 4.785-10.174l13.587-3.173 1.008 4.395-16.005 8.714s-1.373.693-2.405.693z" class="C"/><path d="M49.817 63.717l.932 4.08-15.88 8.64c-.076.036-1.36.68-2.33.68-.617 0-.756-.265-.806-.353-.14-.277-.264-1.008.504-2.82.743-1.75 2.166-4.143 4.23-7.115l13.347-3.112zm.288-.452l-13.85 3.236c-6.397 9.205-5.427 10.993-3.702 10.993 1.095 0 2.506-.73 2.506-.73l16.13-8.777-1.083-4.722z" class="H"/><use xlink:href="#B" class="C"/><use xlink:href="#B" class="B D E F"/><use xlink:href="#C" class="C"/><use xlink:href="#C" stroke-miterlimit="10" class="E F"/><path d="M46.908 24.444a6.85 6.85 0 0 0 .743-2.115s-11.673-.076-17.755 1.952-4.634 9.568 2.783 8.095c5.263-1.044 10.137-3.098 12.844-6.02.416 1.448 1.322 2.632 2.72 2.72 1.008.063 2.078-4.66 2.078-4.66l-3.413.027z" class="I"/><g class="B D E"><path d="M35.966 23.007c-3.488.4-10.74.655-9.872 5.5 1.033 5.767 8.74 3.375 8.74 3.375" stroke="#ff859b"/><path d="M43.836 36.254s-.54.693-.97.4c-.15-.163.15-1.158-.315-2.795" class="J"/></g><path d="M44.962 32.85c.288-.104.415-.48.284-.84s-.47-.566-.757-.462-.415.48-.284.84.47.566.757.462z" fill="#621cd1"/><path d="M43.95 29.87c.743-.315 1.838.113 1.838.113" class="B D G J"/><path d="M40.15 34.5c.288-.104.415-.48.284-.84s-.47-.566-.757-.462-.415.48-.284.84.47.566.757.462z" fill="#621cd1"/><g class="B D J"><path d="M37.83 32.652c.252-.743 1.397-1.3 1.397-1.3" class="G"/><path d="M45.94 37.614c.013.277-.504 1.083-1.008.894" class="E"/></g><path d="M39.812 37.1c.655-.1 1.148-.44 1.1-.785s-.615-.552-1.27-.463-1.148.44-1.1.785.615.552 1.27.463zm6.53-2.422c.527-.4.783-.947.573-1.224s-.807-.178-1.334.22-.783.947-.573 1.224.807.178 1.334-.22z" fill="#ff859b"/><path d="M50.8 94.744c.667-1.096 2.506-4.495 2.154-4.647 1.926 0 5.012.718 5.2 1.738s-3.64 12.756-5.868 12.227c-2.24-.542.755-4.622-1.486-9.32zm14.28.956c-1.044-.73-3.412-2.354-3.148-2.632-1.764.768-4.306 2.657-4.068 3.677.24 1.008 7.328 10.703 9.167 9.318S64.904 100.9 65.08 95.7zm-4.8-27.5l-5.25 2.317a1.35 1.35 0 0 1-1.775-.693l-5.365-12.2a1.35 1.35 0 0 1 .693-1.776l5.25-2.317a1.35 1.35 0 0 1 1.775.693l5.364 12.202a1.35 1.35 0 0 1-.693 1.775z" fill="#a4d2fc"/><path d="M51.568 58.744l-.743.328c-.21.09-.445.095-.657.013s-.383-.246-.476-.454l-.327-.743a.86.86 0 0 1 .441-1.133l.743-.328c.21-.09.445-.095.657-.013s.383.245.476.453l.327.743c.046.103.07.215.073.328a.86.86 0 0 1-.239.614.86.86 0 0 1-.275.192h0z" fill="#465cff"/><g class="B C E F"><path d="M47.022 62.307c-.82.87.226 1.335 1.234 1.423-1.272 1.02-.126 1.712 1.184 1.574-1.272 1.02.415 1.4 1.07 1.36-.68.592-.126 1.196.957 1.133 1.07-.063 4.37-2.808 4.055-3.488-.164-.353-2.858.843-2.858.843s2.468-1.347 2.153-2.027c-.327-.68-3.45.743-3.45.743s3.2-1.574 2.695-2.33c-.49-.73-4.104.82-4.104.82l2.04-.856c.54-.302 1.083-.58.453-1.032s-2.606.252-3.64.68a5.71 5.71 0 0 0-1.789 1.158z"/><path d="M57.045 59.323c-.83.743-2.342 2.204-2.204 2.96.14.768.617.403 1.12.05.49-.365 1.663-1.46 1.663-1.46s-2.984 2.556-2.544 3.324c.453.78 3.274-1.385 3.274-1.385s-2.657 2.178-2.19 2.772 2.772-1.033 2.772-1.033-2.268 1.902-2.016 2.204c.466.592 4.395-1.158 4.91-2.103.53-.944.227-1.712-.604-1.36.34-.567.73-2.254-.743-1.548.692-1.12.58-2.456-.894-1.75.365-.944.403-2.1-.743-1.738a5.59 5.59 0 0 0-1.801 1.068h0z"/></g><g stroke="#3e9ff8" class="D G B"><path d="M53.67 51.516l.48-1.296"/><path d="M55.194 47.725c3.25-7.354 10.88-21.533 19.908-22.15 11.157-.768 11.434 6.447 8.576 9.406-2.846 2.96-16.357 2.67-9.495-14.52C77.76 11.5 86.775 7.91 91.296 6.637" stroke-dasharray="7.51 7.51"/><path d="M92.605 6.297l1.36-.277"/></g><path d="M105.727 5.252l-.328.277-5.238 4.432c-.026.025-.063.05-.09.076-.06.05-.13.084-.207.1s-.155.01-.23-.014-.14-.066-.195-.123a.46.46 0 0 1-.111-.201l-.315-1.083L98.6 7.23c-.025-.1-.076-.14-.19-.126l-1.486.202c-.067.013-.137.007-.2-.016s-.12-.063-.165-.116-.073-.116-.083-.184-.003-.137.022-.2l.036-.113.856-2.304a.33.33 0 0 0 .028-.175c-.007-.06-.03-.117-.066-.165l-1.17-1.625a.67.67 0 0 0-.076-.1c-.044-.052-.07-.118-.072-.187s.02-.136.06-.19.1-.096.164-.116.136-.02.2.003l.88.265 7.958 2.38a2.15 2.15 0 0 1 .264.088c.067.026.126.067.173.12s.08.118.096.188a.44.44 0 0 1-.103.396h0zm-8.702 1.234c.013.013.025.025.038.025.036-.036.088-.076.126-.113l.844-.856c.07-.063.158-.102.252-.113l.907-.063 3.777-.24.667-.05c.05 0 .09-.063.14-.1a.59.59 0 0 0-.139-.113c-.036-.025-.088-.013-.138-.025l-5.377-.58c-.227-.025-.3.013-.365.227l-.705 1.85c-.013.05-.013.1-.026.15z" fill="#3e9ff8"/><path d="M32.717 72.116c-1.587 3-4.95 7.958-3.564 11.7s7.266-5.654 7.266-6.183-3.702-5.528-3.702-5.528zM79.106 50.6c2.153 1.637 6.9 5.453 5.238 8.286-.995 1.7-3.588.894-3.588.894l-10.4-3.224 8.74-5.956zm-35.258 2.152a.35.35 0 0 0 .063-.391.34.34 0 0 0-.327-.227h0l-1.2-.076a.33.33 0 0 1-.143-.046c-.043-.026-.08-.062-.108-.105l-.63-1.044c-.037-.06-.1-.107-.15-.14s-.132-.044-.202-.038-.136.032-.2.075-.098.1-.123.164l-.44 1.133c-.017.05-.047.092-.087.126a.28.28 0 0 1-.14.063l-1.184.277a.4.4 0 0 0-.182.1c-.052.05-.088.1-.108.177a.36.36 0 0 0 .126.378l.932.768c.04.033.072.076.092.124s.027.1.022.153l-.1 1.2a.37.37 0 0 0 .176.352c.052.036.114.053.176.05.08.005.16-.018.227-.063l1.02-.655c.046-.026.096-.04.148-.046a.35.35 0 0 1 .154.02l1.12.48a.34.34 0 0 0 .39-.063.39.39 0 0 0 .114-.172.4.4 0 0 0 .012-.206l-.302-1.17a.33.33 0 0 1-.002-.15c.01-.05.033-.097.065-.137l.793-.922zM31.672 60.96a.23.23 0 0 0 .056-.12c.006-.044 0-.1-.02-.13a.29.29 0 0 0-.08-.103c-.035-.027-.077-.043-.12-.05h0l-.768-.05c-.034-.001-.066-.01-.095-.03s-.052-.042-.07-.072l-.4-.655c-.024-.038-.057-.07-.098-.1s-.085-.028-.13-.024a.25.25 0 0 0-.121.048c-.035.027-.063.062-.08.102l-.277.718c-.01.03-.03.058-.053.08a.19.19 0 0 1-.085.046l-.756.176a.23.23 0 0 0-.176.176.25.25 0 0 0 .005.13c.013.042.038.08.07.1l.592.5a.23.23 0 0 1 .076.176l-.063.768c-.004.045.005.1.024.13a.24.24 0 0 0 .089.097.2.2 0 0 0 .113.036c.05.002.097-.01.14-.036l.655-.415a.2.2 0 0 1 .189-.013l.705.302c.04.02.087.026.13.02a.23.23 0 0 0 .12-.056c.033-.03.06-.065.075-.108a.22.22 0 0 0 .001-.131l-.2-.743a.25.25 0 0 1 0-.098c.006-.032.02-.063.038-.1l.494-.593zm17.705 14.506a.23.23 0 0 0 .056-.12c.006-.044 0-.1-.02-.13a.29.29 0 0 0-.08-.103c-.035-.027-.077-.043-.12-.05h0l-.768-.05c-.034-.001-.066-.01-.095-.03s-.052-.042-.07-.072l-.4-.655c-.024-.038-.057-.07-.097-.1s-.085-.028-.13-.025-.086.022-.12.048a.25.25 0 0 0-.081.102l-.277.718c-.01.03-.03.058-.053.08a.19.19 0 0 1-.085.046l-.756.176a.23.23 0 0 0-.176.176.25.25 0 0 0 .005.13c.013.042.038.08.07.1l.592.5a.23.23 0 0 1 .057.08.21.21 0 0 1 .018.096l-.063.768a.24.24 0 0 0 .025.129c.02.04.05.074.1.097s.073.035.113.036c.05.001.097-.01.14-.036l.654-.416a.2.2 0 0 1 .189-.013l.705.302c.04.02.087.026.13.02a.23.23 0 0 0 .12-.056c.033-.03.06-.065.075-.108a.22.22 0 0 0 .001-.131l-.2-.743c-.007-.032-.007-.066 0-.098s.02-.063.038-.1l.493-.593zm13.26-26.368a.23.23 0 0 0 .056-.12c.006-.044 0-.1-.02-.13a.25.25 0 0 0-.202-.151h0l-.768-.05c-.034-.001-.066-.01-.095-.03s-.052-.042-.07-.072l-.4-.655a.24.24 0 0 0-.227-.113.23.23 0 0 0-.12.05.27.27 0 0 0-.08.103l-.277.718c-.01.03-.03.058-.054.08s-.053.038-.085.045l-.756.176a.23.23 0 0 0-.176.176.25.25 0 0 0 .005.13c.013.042.038.08.07.1l.592.5c.025.022.044.05.057.08a.21.21 0 0 1 .018.096l-.063.768a.24.24 0 0 0 .025.13c.02.04.05.074.1.097s.073.035.113.036c.05.001.097-.01.14-.036l.655-.416c.028-.018.06-.028.093-.03a.2.2 0 0 1 .096.018l.705.302c.04.02.087.026.13.02a.23.23 0 0 0 .12-.056c.033-.03.06-.065.075-.108s.014-.088.001-.13l-.2-.743c-.007-.032-.007-.066-.001-.098a.25.25 0 0 1 .037-.091l.495-.594zM27.3 75.592a.35.35 0 0 0 .063-.39.34.34 0 0 0-.328-.227h0l-1.2-.076a.33.33 0 0 1-.143-.046c-.043-.026-.08-.062-.1-.105l-.63-1.044c-.037-.06-.1-.107-.15-.138s-.132-.044-.202-.038-.136.032-.2.075-.098.1-.123.164l-.44 1.133a.29.29 0 0 1-.227.189l-1.184.277a.4.4 0 0 0-.288.277.36.36 0 0 0 .126.378l.93.767c.04.033.072.076.092.124s.027.1.022.153l-.1 1.2a.37.37 0 0 0 .176.353.29.29 0 0 0 .176.05c.08.005.16-.018.227-.063l1.02-.655a.36.36 0 0 1 .302-.025l1.12.478a.34.34 0 0 0 .205.031.33.33 0 0 0 .185-.094.44.44 0 0 0 .114-.172.4.4 0 0 0 .012-.206l-.302-1.17a.33.33 0 0 1-.002-.15c.01-.05.033-.097.065-.137l.794-.92zm56.844-28.987a.35.35 0 0 0 .063-.39.34.34 0 0 0-.328-.227h0l-1.2-.076a.33.33 0 0 1-.143-.046c-.043-.026-.08-.062-.1-.105l-.63-1.044c-.037-.06-.1-.107-.15-.14s-.132-.044-.202-.038-.136.032-.2.075-.098.1-.123.164l-.44 1.133a.28.28 0 0 1-.087.126.29.29 0 0 1-.14.063l-1.184.277a.4.4 0 0 0-.181.1c-.05.05-.087.1-.107.177a.36.36 0 0 0 .126.378l.932.768c.04.033.072.076.092.124s.027.1.022.153l-.1 1.2a.37.37 0 0 0 .176.352.29.29 0 0 0 .176.05c.08.005.16-.018.227-.063l1.02-.655a.36.36 0 0 1 .302-.025l1.12.48a.34.34 0 0 0 .205.031.33.33 0 0 0 .185-.094.44.44 0 0 0 .114-.172.4.4 0 0 0 .012-.206l-.302-1.17a.33.33 0 0 1-.002-.15c.01-.05.033-.097.065-.137l.792-.922zM71.942 40.36a.35.35 0 0 0 .063-.39.34.34 0 0 0-.328-.227h0l-1.2-.076a.33.33 0 0 1-.143-.046c-.043-.026-.08-.062-.1-.105l-.63-1.044c-.037-.06-.1-.107-.15-.14s-.132-.044-.202-.038-.136.032-.2.075-.098.1-.123.164l-.44 1.133a.28.28 0 0 1-.087.126.29.29 0 0 1-.139.063l-1.184.277a.4.4 0 0 0-.18.1c-.05.048-.087.1-.107.177a.36.36 0 0 0 .126.378l.932.768c.04.033.072.076.092.124s.027.1.022.153l-.1 1.2a.37.37 0 0 0 .176.353.29.29 0 0 0 .176.05c.08.005.16-.018.227-.063l1.02-.655a.36.36 0 0 1 .302-.025l1.12.478c.064.03.135.042.205.03s.135-.044.185-.094a.44.44 0 0 0 .114-.172.4.4 0 0 0 .012-.206l-.302-1.17a.33.33 0 0 1-.002-.15c.01-.05.033-.097.065-.137l.792-.922zm-8.954 29.817c.05-.05.08-.116.092-.185a.34.34 0 0 0-.03-.205.34.34 0 0 0-.327-.227h0l-1.2-.076a.34.34 0 0 1-.144-.046c-.044-.026-.08-.062-.108-.105l-.63-1.044c-.036-.06-.1-.107-.15-.14s-.132-.044-.202-.038-.136.032-.2.075-.098.1-.123.165l-.44 1.133c-.017.05-.047.092-.087.126a.28.28 0 0 1-.14.063l-1.184.277a.4.4 0 0 0-.287.277.36.36 0 0 0 .126.378l.932.768c.04.033.072.076.092.124s.027.1.022.153l-.1 1.2a.37.37 0 0 0 .037.202c.03.062.08.115.14.15.052.036.114.053.176.05.08.005.16-.017.226-.063l1.02-.655c.046-.026.096-.04.148-.046a.35.35 0 0 1 .154.02l1.12.48a.34.34 0 0 0 .205.031.33.33 0 0 0 .185-.094c.05-.05.092-.106.114-.172a.4.4 0 0 0 .012-.206l-.302-1.17a.33.33 0 0 1-.002-.15c.01-.05.033-.097.065-.137l.8-.922z" fill="#f9c126"/><path d="M36.117 66.74c-1.17.554-6.573 1.952-7.744 2.632m44.5-19.972c1.222-1.184 4.356-4.76 4.356-4.76" stroke="#f9c126" class="B D G"/><defs ><path id="B" d="M47.186 38.395l2.443 7.82a1.7 1.7 0 0 1-.579 1.864 2.14 2.14 0 0 1-2.241.277 1.74 1.74 0 0 1-1.044-1.171l-2.002-6.472"/><path id="C" d="M34.164 30.386c2.24 4.924 5.076 13.12 11.585 10.565 7.404-2.87 1.096-15.64 1.096-15.64"/></defs></svg>