<svg width="108" height="108" viewBox="0 0 108 108" fill="none" xmlns="http://www.w3.org/2000/svg">
<path d="M45.5608 39.402C47.4497 40.1447 59.7272 34.1259 60.5832 23.435C61.4393 12.744 52.2359 2.69572 40.7519 5.95696C29.2679 9.2182 24.5321 14.5574 24.7964 20.8912C18.3365 20.69 6.09689 29.1266 12.6575 39.0114C4.78793 40.824 -1.97467 51.0747 5.20301 58.5422C12.3807 66.0096 31.231 51.2763 30.9164 45.1818C37.0612 47.6118 44.8199 41.9076 45.5608 39.402Z" fill="#FF5C76"/>
<path d="M38.7864 37.2599C38.434 37.5371 33.0066 37.94 32.7672 36.0132C32.4904 34.0995 36.3183 34.5653 36.7089 34.8044" fill="#FFC3A9"/>
<path d="M38.7864 37.2599C38.434 37.5371 33.0066 37.94 32.7672 36.0132C32.4904 34.0995 36.3183 34.5653 36.7089 34.8044" stroke="#E89589" stroke-width="1.049" stroke-linecap="round" stroke-linejoin="round"/>
<path d="M47.8652 30.4742C47.9282 30.0209 50.0188 26.7719 51.3029 28.2062C52.6378 29.6163 48.8603 33.5454 48.4193 33.6332" fill="#FFC3A9"/>
<path d="M47.8652 30.4742C47.9282 30.0209 50.0188 26.7719 51.3029 28.2062C52.6378 29.6163 48.8603 33.5454 48.4193 33.6332" stroke="#E89589" stroke-width="1.049" stroke-linecap="round" stroke-linejoin="round"/>
<path d="M64.3233 96.1046C63.4795 95.5128 62.0946 93.5846 61.8033 93.1706C62.2317 92.0625 66.299 81.422 67.7848 78.803C68.3514 77.8079 69.1322 77.3169 70.1647 77.3169C72.9727 77.3169 76.6876 80.9435 77.3798 81.6614C76.311 82.9329 67.7736 92.9438 64.3233 96.1046Z" fill="#FFC3A9"/>
<path d="M70.1661 77.5058C72.7725 77.5058 76.2102 80.7544 77.1296 81.6739C75.6939 83.3612 67.7106 92.692 64.3107 95.8651C63.4557 95.0393 62.6878 94.1279 62.019 93.1453C62.5982 91.6333 66.5143 81.4453 67.95 78.8893C68.1461 78.469 68.4598 78.1146 68.8531 77.8689C69.2464 77.6231 69.7024 77.4965 70.1661 77.5043V77.5058ZM70.1661 77.1267C69.1581 77.1267 68.2646 77.5673 67.6224 78.7132C66.0484 81.5086 61.6035 93.1942 61.6035 93.1942C61.6035 93.1942 63.3916 95.7754 64.3611 96.3421C67.9878 93.0556 77.6584 81.6472 77.6584 81.6472C77.6584 81.6472 73.3896 77.1267 70.1661 77.1267V77.1267Z" fill="#E89589"/>
<path d="M42.5138 94.6562C39.3026 94.6562 36.5828 94.6184 35.9406 94.6184C35.7264 93.7875 34.6939 89.317 36.2174 87.315C36.4733 86.9897 36.8037 86.7307 37.1807 86.5598C37.5577 86.3889 37.9702 86.3111 38.3835 86.333C38.5092 86.333 38.6355 86.333 38.7612 86.3456C42.2114 86.6336 52.7007 90.0852 53.8718 90.4755C53.96 91.0047 54.3377 93.3342 54.1991 94.3541C51.5297 94.6058 46.3921 94.6562 42.5138 94.6562Z" fill="#FFC3A9"/>
<path d="M38.3835 86.1567V86.5344C38.4969 86.5344 38.6225 86.5344 38.7485 86.547C42.0854 86.8242 52.1215 90.098 53.708 90.6269C53.9249 91.8025 54.0345 92.9954 54.0356 94.1909C51.328 94.4177 46.3165 94.4681 42.5156 94.4681C39.506 94.4681 36.9356 94.4429 36.0935 94.4303C35.8289 93.3474 34.9729 89.2801 36.3704 87.429C36.6074 87.1254 36.9149 86.8842 37.2662 86.7261C37.6175 86.5681 38.0019 86.4981 38.3864 86.5221V86.1571L38.3835 86.1567ZM38.3864 86.1571C33.387 86.1571 35.8048 94.8079 35.8048 94.8079C35.8048 94.8079 38.8144 94.8583 42.5167 94.8583C46.7096 94.8583 51.7845 94.7953 54.3657 94.5433C54.5925 93.4352 54.0385 90.3378 54.0385 90.3378C54.0385 90.3378 42.4789 86.4858 38.7766 86.1697C38.638 86.1571 38.512 86.1571 38.3864 86.1571V86.1571Z" fill="#E89589"/>
<path d="M41.4054 94.8703C40.1968 99.7059 38.3709 106.153 35.6382 105.586C32.9054 105.019 11.071 88.0329 15.8184 77.6191C18.9536 72.28 42.6646 79.2435 42.6646 79.2435C42.6646 79.2435 61.0747 70.8317 63.5551 67.8351C66.0232 64.8507 77.4694 50.5961 82.0782 51.4148C86.6869 52.2334 89.6839 53.4308 88.1352 70.1268C86.7373 85.3001 86.0324 88.1589 84.7983 89.7202C83.5642 91.2815 73.2639 86.7988 73.2639 86.7988L77.243 82.0137C77.243 82.0137 70.1031 79.2561 67.5972 79.0923C63.8449 87.9321 61.956 89.8203 55.3075 91.0173C51.391 89.1157 39.1136 85.8919 38.2197 86.2069C37.2452 89.0441 36.4586 91.9424 35.865 94.8829C35.865 94.8829 38.7612 94.8199 41.4054 94.8703Z" fill="#FF859B"/>
<path d="M35.8524 94.8705C35.3739 98.2451 34.0524 104.718 36.7841 107.173C39.5157 109.629 42.7529 93.4348 42.7529 93.4348L35.8524 94.8705Z" fill="#FF5C76"/>
<path d="M76.374 81.6992C79.0437 83.2731 84.2317 84.8849 85.0752 89.355C85.9064 93.8255 82.0656 98.499 81.6879 98.472C81.3103 98.445 70.9722 87.1514 70.9722 87.1514L76.374 81.6992Z" fill="#FF5C76"/>
<path d="M67.5846 79.0919C68.1008 76.9769 76.865 59.3999 76.865 59.3999" stroke="#FF5C76" stroke-width="1.399" stroke-linecap="round" stroke-linejoin="round"/>
<path d="M38.2071 86.1945C36.0161 84.91 27.2015 81.0317 27.2015 81.0317" stroke="#FF5C76" stroke-width="1.399" stroke-linecap="round" stroke-linejoin="round"/>
<path d="M29.7832 80.2004C30.1986 81.4849 30.6519 82.5804 30.6519 82.5804" stroke="#FF5C76" stroke-width="1.399" stroke-linecap="round" stroke-linejoin="round"/>
<path d="M62.3588 70.4668C61.4195 72.4727 60.6488 74.5534 60.0548 76.6872" stroke="#FF5C76" stroke-width="1.399" stroke-linecap="round" stroke-linejoin="round"/>
<path d="M42.7151 79.3079C43.9492 79.6477 49.918 81.0582 49.918 81.0582" stroke="#FF5C76" stroke-width="1.399" stroke-linecap="round" stroke-linejoin="round"/>
<path d="M54.2242 75.1257C54.6022 77.0777 55.2949 79.8983 56.1006 79.2056" stroke="#FF5C76" stroke-width="1.399" stroke-linecap="round" stroke-linejoin="round"/>
<path d="M29.1158 82.5551C20.767 79.0919 16.7761 77.4932 22.6055 65.7698C28.435 54.0464 36.6207 45.1313 54.3629 42.1595C72.1052 39.1877 86.6492 36.8834 87.1658 47.9015C87.3796 54.0968 84.2948 57.736 84.2948 57.736C84.2948 57.736 81.2474 59.801 75.7066 56.0235C79.5475 53.2515 81.3226 52.2961 81.3226 52.2961C81.3226 52.2961 77.3057 48.2414 72.8227 49.2001C68.3396 50.1587 60.2054 51.9451 60.2054 51.9451C60.2054 51.9451 63.7438 65.0534 64.0837 67.3577C64.4365 69.6495 52.9651 81.5619 41.5311 79.0307C40.6624 73.1627 38.2447 59.4374 38.2447 59.4374C38.2447 59.4374 33.2835 66.6136 32.9689 67.4697C34.0631 67.1861 35.1395 66.8375 36.1923 66.4257C36.1923 66.4257 31.0803 73.9684 31.2941 76.3862C31.5332 78.5519 34.9838 76.8268 34.9838 76.8268C34.9838 76.8268 32.125 80.9938 29.1158 82.5551Z" fill="#FFEB7D"/>
<path d="M58.896 59.9761C60.192 58.9436 71.2994 50.0912 73.188 49.3481C73.578 49.2727 73.9744 49.2348 74.3717 49.2351C77.6329 49.2351 80.2897 51.6651 80.9571 52.3199L61.4268 64.6352L58.896 59.9761Z" fill="#FFC3A9"/>
<path d="M74.3721 49.4376C77.3313 49.4376 79.7991 51.4896 80.6555 52.3086L61.4902 64.3844L59.1354 60.0403C63.4795 56.5649 71.6519 50.1932 73.2388 49.551C73.6119 49.4758 73.9915 49.4378 74.3721 49.4376V49.4376ZM74.3721 49.0599C73.9581 49.0607 73.5451 49.0987 73.138 49.1733C71.1357 49.9412 58.657 59.9395 58.657 59.9395L61.3516 64.9136L81.2474 52.3716C81.2474 52.3716 78.263 49.0596 74.3714 49.0596L74.3721 49.0599Z" fill="#E89589"/>
<path d="M32.5533 77.3044C32.3652 77.3294 32.1739 77.2999 32.0021 77.2196C31.8302 77.1393 31.6849 77.0114 31.5834 76.8512C31.1302 75.9947 31.6086 73.5269 36.3685 66.6768C38.8493 66.1102 48.5074 63.8433 49.9557 63.5034L50.9637 67.8979L34.9584 76.6118C34.9584 76.6118 33.5857 77.3044 32.5533 77.3044Z" fill="#FFC3A9"/>
<path d="M49.8172 63.7174L50.7489 67.7973L34.8704 76.4373C34.7948 76.4733 33.5103 77.1173 32.5408 77.1173C31.9238 77.1173 31.7848 76.8527 31.7348 76.7645C31.5962 76.4877 31.4705 75.7565 32.2388 73.9439C32.9818 72.1936 34.4049 69.8011 36.4698 66.8293C38.9758 66.2626 47.8908 64.1725 49.8176 63.7192L49.8172 63.7174ZM50.1056 63.2656C50.1056 63.2656 38.8232 65.9102 36.2542 66.502C29.8574 75.7069 30.8272 77.495 32.5523 77.495C33.6478 77.495 35.0579 76.7645 35.0579 76.7645L51.1888 67.9877L50.1056 63.2656Z" fill="#E89589"/>
<path d="M47.1856 38.3945L49.6282 46.2145C49.7345 46.547 49.736 46.9042 49.6323 47.2376C49.5287 47.571 49.325 47.8645 49.0489 48.0782C48.7383 48.3287 48.3638 48.4874 47.9677 48.5364C47.5717 48.5853 47.1698 48.5225 46.8076 48.355C46.554 48.2552 46.3274 48.0972 46.1461 47.8938C45.9648 47.6904 45.8337 47.4472 45.7636 47.1839C45.4111 45.849 43.862 40.7493 43.7612 40.7115" fill="#FFC3A9"/>
<path d="M47.1856 38.3945L49.6282 46.2145C49.7345 46.547 49.736 46.9042 49.6323 47.2376C49.5287 47.571 49.325 47.8645 49.0489 48.0782C48.7383 48.3287 48.3638 48.4874 47.9677 48.5364C47.5717 48.5853 47.1698 48.5225 46.8076 48.355C46.554 48.2552 46.3274 48.0972 46.1461 47.8938C45.9648 47.6904 45.8337 47.4472 45.7636 47.1839C45.4111 45.849 43.862 40.7493 43.7612 40.7115" stroke="#E89589" stroke-width="1.049" stroke-linecap="round" stroke-linejoin="round"/>
<path d="M34.1639 30.3858C36.4053 35.3096 39.2399 43.5068 45.7487 40.9508C53.1529 38.0798 46.8442 25.3113 46.8442 25.3113" fill="#FFC3A9"/>
<path d="M34.1639 30.3858C36.4053 35.3096 39.2399 43.5068 45.7487 40.9508C53.1529 38.0798 46.8442 25.3113 46.8442 25.3113" stroke="#E89589" stroke-width="1.049" stroke-miterlimit="10"/>
<path d="M46.908 24.4441C47.2702 23.7846 47.5212 23.0699 47.651 22.3287C47.651 22.3287 35.978 22.2531 29.8958 24.2807C23.8136 26.3082 25.2622 33.8487 32.6793 32.3756C37.9425 31.3316 42.8158 29.2778 45.523 26.3564C45.9388 27.8047 46.8453 28.988 48.2432 29.0762C49.2512 29.1392 50.3208 24.4171 50.3208 24.4171L46.908 24.4441Z" fill="#FF5C76"/>
<path d="M35.9658 23.0068C32.4778 23.3971 25.2245 23.6617 26.0935 28.4968C27.126 34.264 34.8325 31.8718 34.8325 31.8718" stroke="#FF859B" stroke-width="1.049" stroke-linecap="round" stroke-linejoin="round"/>
<path d="M43.8358 36.2538C43.8358 36.2538 43.2958 36.9464 42.8663 36.644C42.7151 36.4806 43.0175 35.4856 42.5516 33.8486" stroke="#AE504A" stroke-width="1.049" stroke-linecap="round" stroke-linejoin="round"/>
<path d="M44.9623 32.8505C45.25 32.7461 45.3773 32.37 45.2467 32.0104C45.1161 31.6508 44.7771 31.444 44.4895 31.5484C44.2019 31.6529 44.0746 32.029 44.2052 32.3886C44.3357 32.7482 44.6747 32.955 44.9623 32.8505Z" fill="#621CD1"/>
<path d="M43.9491 29.8696C44.6921 29.555 45.7876 29.983 45.7876 29.983" stroke="#AE504A" stroke-width="1.399" stroke-linecap="round" stroke-linejoin="round"/>
<path d="M40.1511 34.5014C40.4387 34.397 40.566 34.0208 40.4354 33.6613C40.3049 33.3017 39.9659 33.0949 39.6782 33.1993C39.3906 33.3038 39.2633 33.6799 39.3939 34.0395C39.5244 34.399 39.8634 34.6059 40.1511 34.5014Z" fill="#621CD1"/>
<path d="M37.8295 32.652C38.0815 31.9089 39.227 31.3423 39.227 31.3423" stroke="#AE504A" stroke-width="1.399" stroke-linecap="round" stroke-linejoin="round"/>
<path d="M45.9389 37.614C45.9515 37.8909 45.4349 38.6969 44.9309 38.5079" stroke="#AE504A" stroke-width="1.049" stroke-linecap="round" stroke-linejoin="round"/>
<path d="M39.8123 37.0901C40.467 37.0014 40.9599 36.6501 40.9132 36.3056C40.8665 35.961 40.2979 35.7535 39.6432 35.8423C38.9885 35.931 38.4956 36.2823 38.5423 36.6269C38.589 36.9715 39.1576 37.1789 39.8123 37.0901Z" fill="#FF859B"/>
<path d="M46.3433 34.6778C46.8699 34.2789 47.1266 33.7307 46.9166 33.4535C46.7066 33.1764 46.1094 33.2751 45.5828 33.6741C45.0562 34.0731 44.7995 34.6212 45.0095 34.8984C45.2195 35.1755 45.8166 35.0768 46.3433 34.6778Z" fill="#FF859B"/>
<path d="M50.7992 94.7444C51.4666 93.6489 53.3052 90.2491 52.9527 90.0979C54.8791 90.0979 57.9643 90.8157 58.1533 91.8356C58.3423 92.8555 54.514 104.592 52.2853 104.063C50.0439 103.521 53.0406 99.4413 50.7992 94.7444Z" fill="#A4D2FC"/>
<path d="M65.079 95.7012C64.035 94.9711 61.6665 93.3468 61.9308 93.0696C60.1668 93.8378 57.6245 95.7264 57.8628 96.7466C58.1022 97.7546 65.1913 107.45 67.0298 106.065C68.8684 104.68 64.9026 100.902 65.079 95.7012Z" fill="#A4D2FC"/>
<path d="M60.2813 68.2002L55.0303 70.5172C54.703 70.6607 54.3321 70.6684 53.9992 70.5385C53.6662 70.4086 53.3985 70.1518 53.2548 69.8246L47.8908 57.6227C47.7473 57.2954 47.7396 56.9245 47.8695 56.5915C47.9994 56.2586 48.2562 55.9908 48.5835 55.8472L53.8344 53.5302C54.1617 53.3867 54.5326 53.379 54.8656 53.5089C55.1986 53.6388 55.4663 53.8956 55.6099 54.2229L60.9739 66.4247C61.1175 66.752 61.1252 67.1229 60.9953 67.4559C60.8654 67.7889 60.6086 68.0566 60.2813 68.2002Z" fill="#A4D2FC"/>
<path d="M51.5675 58.7435L50.8245 59.0711C50.6156 59.1617 50.3793 59.1663 50.1671 59.0837C49.9549 59.0011 49.7838 58.8381 49.6912 58.6301L49.3639 57.8874C49.2726 57.6786 49.2678 57.4422 49.3503 57.2298C49.4329 57.0174 49.5962 56.8464 49.8046 56.7541L50.5476 56.4265C50.7565 56.3358 50.9927 56.3312 51.2049 56.4137C51.4171 56.4962 51.5882 56.6592 51.6809 56.8671L52.0081 57.6102C52.0539 57.7135 52.0788 57.8248 52.0813 57.9378C52.0839 58.0507 52.0642 58.1631 52.0233 58.2684C51.9823 58.3737 51.921 58.4698 51.8428 58.5514C51.7645 58.6329 51.671 58.6982 51.5675 58.7435V58.7435Z" fill="#465CFF"/>
<path d="M47.0218 62.3069C46.2032 63.1759 47.2482 63.6418 48.2559 63.73C46.984 64.7499 48.1299 65.4425 49.4396 65.3039C48.1677 66.3238 49.855 66.714 50.5098 66.664C49.8298 67.2558 50.3838 67.8599 51.4667 67.7973C52.537 67.7343 55.8364 64.9893 55.5214 64.3092C55.3576 63.9564 52.663 65.1527 52.663 65.1527C52.663 65.1527 55.1312 63.8052 54.8162 63.1255C54.4889 62.4455 51.3659 63.8682 51.3659 63.8682C51.3659 63.8682 54.5645 62.2943 54.0609 61.5387C53.5698 60.8086 49.9569 62.3573 49.9569 62.3573C49.9569 62.3573 51.4552 61.7781 51.9966 61.5009C52.5366 61.1988 53.0795 60.9216 52.4499 60.4684C51.8202 60.0151 49.8435 60.7204 48.811 61.1484C48.1472 61.4189 47.5402 61.8119 47.0218 62.3069Z" fill="#FFC3A9" stroke="#E89589" stroke-width="1.049" stroke-linecap="round" stroke-linejoin="round"/>
<path d="M57.0452 59.3227C56.2139 60.0658 54.703 61.5263 54.8413 62.2819C54.9799 63.0502 55.4583 62.6848 55.9619 62.3323C56.4533 61.9673 57.6244 60.8718 57.6244 60.8718C57.6244 60.8718 54.64 63.4278 55.0807 64.196C55.5339 64.9765 58.3545 62.8108 58.3545 62.8108C58.3545 62.8108 55.6977 64.9891 56.1635 65.5828C56.6294 66.1764 58.9356 64.5503 58.9356 64.5503C58.9356 64.5503 56.6676 66.4518 56.9196 66.7538C57.3854 67.3457 61.3141 65.5954 61.8303 64.6511C62.3592 63.7068 62.0571 62.9386 61.2259 63.291C61.5661 62.7244 61.9563 61.037 60.4832 61.743C61.1755 60.6223 61.0624 59.2874 59.589 59.9927C59.9544 59.0484 59.9918 57.9025 58.8459 58.255C58.1838 58.4943 57.5729 58.8566 57.0452 59.3227V59.3227Z" fill="#FFC3A9" stroke="#E89589" stroke-width="1.049" stroke-linecap="round" stroke-linejoin="round"/>
<path d="M53.6703 51.516C53.7711 51.201 53.9349 50.76 54.1491 50.22" stroke="#3E9FF8" stroke-width="1.399" stroke-linecap="round" stroke-linejoin="round"/>
<path d="M55.1941 47.7252C58.4427 40.3715 66.0737 26.1925 75.1021 25.5755C86.2589 24.8076 86.5361 32.0227 83.6777 34.9819C80.8319 37.9411 67.3203 37.6517 74.183 20.4631C77.76 11.5103 86.7751 7.90884 91.296 6.63696" stroke="#3E9FF8" stroke-width="1.399" stroke-linecap="round" stroke-linejoin="round" stroke-dasharray="7.51 7.51"/>
<path d="M92.6052 6.29722C93.4617 6.09562 93.9653 6.02002 93.9653 6.02002" stroke="#3E9FF8" stroke-width="1.399" stroke-linecap="round" stroke-linejoin="round"/>
<path d="M105.727 5.25171C105.638 5.32731 105.525 5.42811 105.399 5.52891C103.649 7.00203 101.911 8.48811 100.161 9.96123C100.135 9.98643 100.098 10.0116 100.072 10.0368C100.013 10.0867 99.9412 10.1207 99.8648 10.1356C99.7884 10.1504 99.7094 10.1457 99.6353 10.1219C99.5612 10.098 99.4943 10.0558 99.4408 9.99912C99.3874 9.94245 99.3492 9.87319 99.3298 9.79779C99.2164 9.43239 99.1156 9.06735 99.0148 8.71455C98.8762 8.22351 98.7379 7.71987 98.5993 7.22883C98.5741 7.12803 98.5237 7.09023 98.4103 7.10283C97.9193 7.17843 97.4283 7.24143 96.9246 7.30443C96.8573 7.3172 96.7879 7.31171 96.7235 7.28853C96.659 7.26534 96.602 7.22531 96.5583 7.1726C96.5146 7.11989 96.4858 7.05643 96.4749 6.98882C96.4641 6.92121 96.4716 6.85193 96.4966 6.78819L96.5326 6.67479C96.8224 5.90655 97.0992 5.13867 97.389 4.37079C97.4142 4.31605 97.424 4.25549 97.4173 4.19562C97.4106 4.13574 97.3878 4.07881 97.3512 4.03095C96.961 3.48927 96.5706 2.94771 96.1801 2.40627C96.1581 2.37051 96.1328 2.33688 96.1045 2.30583C96.06 2.25355 96.0344 2.18769 96.0322 2.11903C96.0299 2.05037 96.0509 1.98296 96.0919 1.92783C96.1329 1.87259 96.1904 1.83182 96.2561 1.81143C96.3218 1.79105 96.3923 1.79209 96.4573 1.81443C96.7453 1.90263 97.0366 1.99083 97.3386 2.07903C99.9958 2.87103 102.64 3.66555 105.297 4.45899C105.387 4.48268 105.475 4.51215 105.561 4.54719C105.628 4.57289 105.687 4.61443 105.734 4.66821C105.781 4.722 105.814 4.7864 105.83 4.85582C105.846 4.92524 105.845 4.99758 105.827 5.06657C105.809 5.13556 105.775 5.19911 105.727 5.25171V5.25171ZM97.0254 6.48579C97.038 6.49839 97.0506 6.51099 97.0632 6.51099C97.0992 6.47499 97.1511 6.43539 97.1889 6.39759C97.4661 6.10959 97.7429 5.81835 98.0327 5.54151C98.1032 5.47891 98.1911 5.43935 98.2847 5.42811C98.5871 5.40291 98.8891 5.39211 99.1915 5.36511C100.452 5.28951 101.712 5.21391 102.969 5.12607C103.196 5.11347 103.41 5.10087 103.636 5.07567C103.687 5.07567 103.725 5.01267 103.775 4.97487C103.735 4.93041 103.688 4.8922 103.636 4.86147C103.6 4.83627 103.548 4.84887 103.498 4.83627C101.71 4.64727 99.9094 4.44603 98.1213 4.25703C97.8945 4.23183 97.8315 4.26963 97.7559 4.48383C97.5168 5.10087 97.29 5.71791 97.051 6.33495C97.038 6.38499 97.038 6.43539 97.0254 6.48579Z" fill="#3E9FF8"/>
<path d="M32.7168 72.1162C31.1303 75.1258 27.7682 80.0744 29.1528 83.827C30.5373 87.5796 36.4183 78.1732 36.4183 77.6444C36.4183 77.1155 32.7168 72.1162 32.7168 72.1162Z" fill="#F9C126"/>
<path d="M79.1063 50.6086C81.2598 52.2456 86.0072 56.0612 84.3447 58.8944C83.35 60.5943 80.7562 59.7883 80.7562 59.7883L70.3677 56.5648L79.1063 50.6086Z" fill="#F9C126"/>
<path d="M43.848 52.7624C43.8968 52.7113 43.9289 52.6466 43.9402 52.5769C43.9514 52.5071 43.9413 52.4356 43.911 52.3718C43.8871 52.3045 43.8426 52.2464 43.7839 52.2058C43.7252 52.1651 43.6552 52.144 43.5838 52.1453V52.1453L42.3749 52.0697C42.3242 52.0654 42.2751 52.0495 42.2314 52.0233C42.1877 51.9971 42.1506 51.9613 42.1229 51.9185L41.4933 50.8745C41.4567 50.8151 41.4042 50.7671 41.3418 50.736C41.2793 50.7049 41.2094 50.6919 41.14 50.6984C41.0705 50.705 41.0043 50.7309 40.9487 50.7731C40.8932 50.8154 40.8506 50.8723 40.8258 50.9375L40.3852 52.0708C40.3679 52.1197 40.3378 52.1631 40.2979 52.1963C40.2581 52.2295 40.21 52.2513 40.1587 52.2594L38.9751 52.5367C38.9068 52.5535 38.8442 52.588 38.7933 52.6365C38.7425 52.6851 38.7052 52.7461 38.6853 52.8135C38.6667 52.8819 38.6688 52.9543 38.6912 53.0215C38.7136 53.0888 38.7554 53.1479 38.8113 53.1915L39.7429 53.9594C39.7833 53.9926 39.8149 54.0353 39.8347 54.0836C39.8544 54.132 39.8619 54.1846 39.8563 54.2366L39.7555 55.4454C39.7486 55.5149 39.7615 55.5848 39.7927 55.6472C39.8239 55.7096 39.8722 55.7619 39.9319 55.7979C39.9837 55.8335 40.0456 55.8512 40.1083 55.8483C40.1887 55.8529 40.2683 55.8307 40.3348 55.7853L41.355 55.1304C41.4006 55.1048 41.4512 55.0892 41.5033 55.0849C41.5554 55.0805 41.6079 55.0875 41.6571 55.1053L42.7777 55.584C42.8413 55.6153 42.913 55.626 42.9829 55.6147C43.0528 55.6034 43.1175 55.5707 43.168 55.521C43.2205 55.4748 43.2599 55.4154 43.282 55.349C43.3041 55.2826 43.3083 55.2116 43.294 55.143L42.9919 53.972C42.9799 53.9223 42.9794 53.8706 42.9903 53.8207C43.0012 53.7708 43.0233 53.7241 43.0549 53.684L43.848 52.7624Z" fill="#F9C126"/>
<path d="M31.6717 60.9595C31.7016 60.9256 31.721 60.8836 31.7274 60.8389C31.7338 60.7941 31.727 60.7484 31.7077 60.7075C31.6903 60.6668 31.6626 60.6315 31.6273 60.6049C31.592 60.5784 31.5503 60.5616 31.5064 60.5563V60.5563L30.7382 60.5059C30.7045 60.5045 30.6718 60.4945 30.6431 60.4769C30.6144 60.4592 30.5908 60.4345 30.5744 60.4051L30.1842 59.7502C30.1605 59.7123 30.1268 59.6816 30.0867 59.6616C30.0467 59.6417 30.0019 59.6332 29.9574 59.6372C29.9135 59.6425 29.8719 59.6592 29.8366 59.6857C29.8013 59.7122 29.7735 59.7475 29.7561 59.788L29.4789 60.5059C29.468 60.5367 29.4496 60.5643 29.4255 60.5863C29.4013 60.6083 29.372 60.6239 29.3403 60.6319L28.5843 60.8083C28.5411 60.8175 28.5015 60.8391 28.4702 60.8703C28.4389 60.9015 28.4173 60.9411 28.4079 60.9843C28.3979 61.0273 28.3996 61.0722 28.4129 61.1144C28.4262 61.1565 28.4506 61.1943 28.4835 61.2237L29.0754 61.7147C29.1 61.7369 29.1195 61.7642 29.1326 61.7946C29.1456 61.8251 29.1519 61.858 29.151 61.8912L29.088 62.659C29.084 62.7036 29.0925 62.7485 29.1125 62.7885C29.1325 62.8286 29.1633 62.8623 29.2014 62.8858C29.2346 62.9089 29.274 62.9215 29.3144 62.9218C29.3631 62.9234 29.4112 62.9109 29.453 62.8858L30.1078 62.4704C30.1358 62.4528 30.1678 62.4424 30.2007 62.4402C30.2337 62.438 30.2668 62.4441 30.2968 62.4578L31.0017 62.7598C31.0427 62.779 31.0883 62.7858 31.1331 62.7794C31.1779 62.773 31.2198 62.7537 31.2537 62.7238C31.289 62.6963 31.3151 62.6587 31.3286 62.616C31.3421 62.5734 31.3424 62.5276 31.3293 62.4848L31.1403 61.7418C31.1337 61.7093 31.1336 61.6759 31.1401 61.6434C31.1466 61.611 31.1595 61.5801 31.1781 61.5527L31.6717 60.9595Z" fill="#F9C126"/>
<path d="M49.3765 75.4658C49.4065 75.4319 49.4259 75.39 49.4323 75.3452C49.4387 75.3004 49.4318 75.2547 49.4125 75.2138C49.3951 75.1731 49.3674 75.1377 49.332 75.1112C49.2966 75.0847 49.2548 75.0679 49.2109 75.0626V75.0626L48.4427 75.0122C48.4091 75.0108 48.3764 75.0008 48.3478 74.9832C48.3192 74.9655 48.2956 74.9408 48.2792 74.9114L47.8886 74.2566C47.865 74.2186 47.8314 74.188 47.7914 74.168C47.7514 74.1481 47.7067 74.1396 47.6622 74.1435C47.6183 74.1488 47.5766 74.1655 47.5412 74.192C47.5058 74.2184 47.478 74.2538 47.4606 74.2944L47.1838 75.0122C47.1728 75.043 47.1545 75.0706 47.1303 75.0926C47.1061 75.1146 47.0769 75.1303 47.0452 75.1382L46.2892 75.3146C46.2459 75.3239 46.2063 75.3454 46.175 75.3766C46.1437 75.4078 46.1221 75.4474 46.1128 75.4906C46.1027 75.5337 46.1045 75.5786 46.1178 75.6207C46.1311 75.6628 46.1554 75.7006 46.1884 75.73L46.7802 76.2211C46.8048 76.2433 46.8243 76.2705 46.8374 76.301C46.8505 76.3314 46.8567 76.3644 46.8558 76.3975L46.7928 77.1654C46.7888 77.21 46.7973 77.2548 46.8173 77.2948C46.8374 77.3349 46.8681 77.3686 46.9062 77.3922C46.9396 77.4152 46.9791 77.4277 47.0196 77.4282C47.0683 77.4297 47.1164 77.4172 47.1582 77.3922L47.8127 76.9767C47.8407 76.9591 47.8726 76.9488 47.9056 76.9466C47.9386 76.9444 47.9716 76.9504 48.0017 76.9641L48.7069 77.2662C48.7478 77.2854 48.7935 77.2923 48.8383 77.2859C48.8831 77.2795 48.925 77.2601 48.9589 77.2302C48.9942 77.2026 49.0203 77.1651 49.0338 77.1224C49.0473 77.0797 49.0476 77.0339 49.0345 76.9911L48.8459 76.2481C48.8393 76.2157 48.8392 76.1822 48.8457 76.1498C48.8522 76.1173 48.8651 76.0865 48.8837 76.0591L49.3765 75.4658Z" fill="#F9C126"/>
<path d="M62.636 49.0979C62.6659 49.064 62.6853 49.022 62.6916 48.9773C62.698 48.9325 62.6912 48.8868 62.672 48.8459C62.6548 48.8052 62.627 48.7697 62.5916 48.7432C62.5562 48.7167 62.5144 48.7001 62.4704 48.6951V48.6951L61.7026 48.6447C61.6689 48.6433 61.6362 48.6333 61.6075 48.6157C61.5788 48.598 61.5551 48.5733 61.5388 48.5439L61.1482 47.889C61.1247 47.8509 61.091 47.8202 61.051 47.8002C61.011 47.7801 60.9663 47.7716 60.9217 47.7756C60.8778 47.7809 60.836 47.7977 60.8007 47.8242C60.7653 47.8507 60.7375 47.8861 60.7201 47.9268L60.4433 48.6447C60.4323 48.6754 60.4139 48.7029 60.3897 48.7248C60.3655 48.7468 60.3363 48.7624 60.3047 48.7703L59.5487 48.9467C59.5054 48.956 59.4658 48.9776 59.4346 49.0089C59.4034 49.0402 59.3818 49.0799 59.3726 49.1231C59.3626 49.166 59.3643 49.2109 59.3776 49.2529C59.3908 49.295 59.4151 49.3327 59.4479 49.3621L60.0397 49.8535C60.0644 49.8756 60.0839 49.9028 60.0969 49.9332C60.11 49.9636 60.1163 49.9965 60.1153 50.0296L60.0523 50.7978C60.0483 50.8424 60.0568 50.8873 60.0769 50.9273C60.0969 50.9673 60.1276 51.001 60.1657 51.0246C60.1991 51.0475 60.2386 51.0601 60.2791 51.0606C60.3278 51.062 60.3759 51.0495 60.4177 51.0246L61.0726 50.6088C61.1005 50.5912 61.1323 50.5808 61.1653 50.5786C61.1982 50.5764 61.2312 50.5825 61.2612 50.5962L61.9664 50.8986C62.0074 50.9178 62.053 50.9246 62.0978 50.9182C62.1426 50.9118 62.1845 50.8925 62.2184 50.8626C62.2536 50.8349 62.2796 50.7973 62.293 50.7545C62.3065 50.7118 62.3067 50.6661 62.2937 50.6232L62.105 49.8802C62.0982 49.8479 62.0978 49.8146 62.104 49.7822C62.1102 49.7498 62.1228 49.719 62.141 49.6915L62.636 49.0979Z" fill="#F9C126"/>
<path d="M27.2899 75.5916C27.3386 75.5406 27.3707 75.4759 27.382 75.4063C27.3932 75.3366 27.3831 75.2651 27.3529 75.2014C27.3289 75.134 27.2844 75.0758 27.2256 75.0351C27.1668 74.9944 27.0967 74.9732 27.0253 74.9746V74.9746L25.8164 74.899C25.7657 74.8946 25.7166 74.8788 25.673 74.8526C25.6293 74.8265 25.5922 74.7908 25.5644 74.7481L24.9347 73.7041C24.8982 73.6447 24.8457 73.5967 24.7832 73.5656C24.7208 73.5345 24.6509 73.5215 24.5814 73.528C24.512 73.5346 24.4457 73.5604 24.3902 73.6027C24.3347 73.645 24.2921 73.7019 24.2673 73.7671L23.8267 74.9004C23.8094 74.9494 23.7792 74.9929 23.7393 75.0262C23.6994 75.0595 23.6512 75.0813 23.5999 75.0894L22.4162 75.3666C22.3482 75.3836 22.2858 75.4181 22.2353 75.4667C22.1848 75.5152 22.1478 75.5762 22.1282 75.6434C22.1097 75.7118 22.1118 75.7841 22.1342 75.8513C22.1566 75.9184 22.1984 75.9775 22.2542 76.0211L23.1841 76.7879C23.2245 76.8211 23.256 76.8638 23.2758 76.9122C23.2956 76.9605 23.303 77.0131 23.2975 77.0651L23.1967 78.274C23.1897 78.3434 23.2026 78.4133 23.2339 78.4757C23.2651 78.5381 23.3134 78.5903 23.3731 78.6264C23.4247 78.6619 23.4865 78.6796 23.5491 78.6768C23.6296 78.6814 23.7093 78.6592 23.7759 78.6138L24.7958 77.959C24.8413 77.933 24.892 77.9173 24.9442 77.9129C24.9964 77.9086 25.049 77.9157 25.0982 77.9338L26.2189 78.4122C26.2824 78.4434 26.3541 78.4541 26.424 78.4428C26.4939 78.4315 26.5586 78.3988 26.6091 78.3492C26.6616 78.303 26.7009 78.2437 26.723 78.1774C26.7451 78.111 26.7493 78.04 26.7351 77.9716L26.4327 76.8005C26.4206 76.7508 26.42 76.6991 26.431 76.6492C26.4419 76.5993 26.464 76.5525 26.4957 76.5125L27.2899 75.5916Z" fill="#F9C126"/>
<path d="M84.1435 46.6045C84.1922 46.5535 84.2244 46.4889 84.2356 46.4192C84.2468 46.3495 84.2367 46.2781 84.2065 46.2143C84.1826 46.1469 84.1381 46.0888 84.0793 46.0481C84.0205 46.0074 83.9504 45.9862 83.8789 45.9875V45.9875L82.67 45.9119C82.6193 45.9076 82.5703 45.8917 82.5266 45.8656C82.4829 45.8395 82.4458 45.8037 82.418 45.7611L81.7884 44.7171C81.7518 44.6577 81.6993 44.6097 81.6369 44.5785C81.5744 44.5474 81.5045 44.5344 81.4351 44.541C81.3656 44.5475 81.2994 44.5734 81.2438 44.6156C81.1883 44.6579 81.1458 44.7149 81.1209 44.7801L80.6803 45.9133C80.6631 45.9624 80.6329 46.0058 80.593 46.0391C80.553 46.0724 80.5048 46.0942 80.4535 46.1023L79.2698 46.3795C79.2018 46.3965 79.1395 46.431 79.0889 46.4796C79.0384 46.5282 79.0015 46.5891 78.9818 46.6564C78.9634 46.7247 78.9655 46.797 78.9879 46.8642C79.0103 46.9314 79.052 46.9904 79.1078 47.034L80.0395 47.8023C80.0799 47.8354 80.1114 47.8782 80.1312 47.9265C80.151 47.9749 80.1585 48.0275 80.1529 48.0795L80.0521 49.2883C80.0452 49.3578 80.0581 49.4277 80.0893 49.4901C80.1205 49.5525 80.1688 49.6047 80.2285 49.6408C80.2801 49.6763 80.3419 49.694 80.4045 49.6912C80.485 49.6958 80.5648 49.6736 80.6313 49.6282L81.6512 48.9733C81.6967 48.9474 81.7474 48.9317 81.7996 48.9273C81.8519 48.923 81.9044 48.9301 81.9536 48.9481L83.0743 49.4266C83.1379 49.4578 83.2095 49.4685 83.2794 49.4572C83.3493 49.4459 83.414 49.4132 83.4645 49.3636C83.517 49.3174 83.5563 49.2581 83.5784 49.1917C83.6006 49.1254 83.6047 49.0544 83.5905 48.9859L83.2881 47.8149C83.2761 47.7652 83.2755 47.7135 83.2864 47.6636C83.2973 47.6137 83.3194 47.5669 83.3511 47.5269L84.1435 46.6045Z" fill="#F9C126"/>
<path d="M71.9417 40.3591C71.9905 40.308 72.0226 40.2434 72.0338 40.1737C72.0451 40.104 72.0349 40.0326 72.0047 39.9688C71.9808 39.9014 71.9363 39.8433 71.8775 39.8026C71.8187 39.7619 71.7486 39.7407 71.6771 39.742V39.742L70.4682 39.6664C70.4175 39.6621 70.3684 39.6462 70.3247 39.62C70.281 39.5938 70.2439 39.558 70.2162 39.5152L69.5866 38.4712C69.55 38.4118 69.4975 38.3638 69.4351 38.3327C69.3726 38.3016 69.3027 38.2886 69.2333 38.2951C69.1638 38.3017 69.0976 38.3275 69.0421 38.3698C68.9865 38.4121 68.944 38.469 68.9192 38.5342L68.4785 39.6675C68.4613 39.7165 68.4311 39.76 68.3912 39.7933C68.3512 39.8265 68.3031 39.8484 68.2517 39.8565L67.068 40.1333C67.0001 40.1505 66.9377 40.1851 66.8872 40.2337C66.8367 40.2823 66.7998 40.3433 66.78 40.4105C66.7616 40.4789 66.7637 40.5512 66.7861 40.6184C66.8085 40.6855 66.8502 40.7446 66.906 40.7882L67.8377 41.5564C67.8781 41.5896 67.9095 41.6322 67.9293 41.6805C67.9491 41.7289 67.9566 41.7813 67.9511 41.8333L67.8503 43.0421C67.8434 43.1116 67.8563 43.1816 67.8875 43.2441C67.9187 43.3065 67.967 43.3588 68.0267 43.3949C68.0783 43.4304 68.1402 43.4481 68.2028 43.4453C68.2832 43.4499 68.363 43.4278 68.4296 43.3823L69.4494 42.7275C69.495 42.7015 69.5456 42.6858 69.5978 42.6815C69.6501 42.6771 69.7026 42.6842 69.7518 42.7023L70.8725 43.1807C70.9361 43.2119 71.0078 43.2226 71.0777 43.2113C71.1476 43.2 71.2122 43.1673 71.2627 43.1177C71.3152 43.0715 71.3545 43.0122 71.3767 42.9459C71.3988 42.8796 71.403 42.8086 71.3888 42.7401L71.0864 41.569C71.0744 41.5194 71.0738 41.4677 71.0847 41.4178C71.0956 41.3679 71.1177 41.3211 71.1493 41.281L71.9417 40.3591Z" fill="#F9C126"/>
<path d="M62.9884 70.1769C63.0372 70.1259 63.0694 70.0613 63.0806 69.9916C63.0919 69.9219 63.0817 69.8504 63.0514 69.7867C63.0275 69.7194 62.9831 69.6613 62.9243 69.6207C62.8656 69.58 62.7956 69.5589 62.7242 69.5602V69.5602L61.5153 69.4846C61.4646 69.4803 61.4155 69.4644 61.3718 69.4382C61.3281 69.412 61.291 69.3762 61.2633 69.3334L60.6337 68.2894C60.5972 68.23 60.5447 68.182 60.4823 68.1508C60.4199 68.1197 60.35 68.1067 60.2805 68.1132C60.2111 68.1198 60.1449 68.1457 60.0894 68.1879C60.0339 68.2302 59.9914 68.2872 59.9666 68.3524L59.5256 69.4857C59.5083 69.5346 59.4782 69.578 59.4383 69.6112C59.3985 69.6444 59.3504 69.6662 59.2992 69.6743L58.1155 69.9515C58.0476 69.9687 57.9853 70.0032 57.9348 70.0518C57.8843 70.1003 57.8473 70.1612 57.8275 70.2284C57.8089 70.2968 57.811 70.3692 57.8334 70.4364C57.8558 70.5036 57.8976 70.5628 57.9535 70.6064L58.8852 71.3743C58.9256 71.4074 58.9571 71.4502 58.9769 71.4985C58.9967 71.5469 59.0041 71.5995 58.9986 71.6515L58.8978 72.8603C58.8908 72.9298 58.9037 72.9997 58.9349 73.0621C58.9661 73.1245 59.0144 73.1768 59.0742 73.2128C59.1259 73.2484 59.1878 73.2661 59.2506 73.2632C59.3309 73.2678 59.4106 73.2457 59.477 73.2002L60.4972 72.5453C60.5428 72.5197 60.5934 72.5041 60.6455 72.4998C60.6976 72.4954 60.7501 72.5024 60.7993 72.5201L61.92 72.9989C61.9836 73.0302 62.0553 73.0409 62.1253 73.0296C62.1952 73.0183 62.26 72.9856 62.3106 72.9359C62.363 72.8897 62.4023 72.8303 62.4244 72.7639C62.4464 72.6975 62.4505 72.6264 62.4362 72.5579L62.1342 71.3869C62.1222 71.3372 62.1216 71.2855 62.1325 71.2356C62.1434 71.1857 62.1655 71.139 62.1972 71.0989L62.9884 70.1769Z" fill="#F9C126"/>
<path d="M36.117 66.7393C34.9459 67.2933 29.5438 68.6912 28.3727 69.3712" stroke="#F9C126" stroke-width="1.399" stroke-linecap="round" stroke-linejoin="round"/>
<path d="M72.8733 49.3999C74.0948 48.2163 77.2293 44.6404 77.2293 44.6404" stroke="#F9C126" stroke-width="1.399" stroke-linecap="round" stroke-linejoin="round"/>
</svg>
